<svg xmlns="http://www.w3.org/2000/svg" width="19.5" height="19.5" viewBox="0 0 19.5 19.5">
  <g id="available-hectares" transform="translate(0.25 0.25)">
    <path id="Path_8" data-name="Path 8" d="M389.371,491.961a.372.372,0,1,0,.371.373v0A.37.37,0,0,0,389.371,491.961Zm0,0" transform="translate(-374.565 -473.705)" fill="#f2a133" stroke="#f2a133" stroke-width="0.5"/>
    <path id="Path_9" data-name="Path 9" d="M401.662,389a4.2,4.2,0,0,0-3.835,2.495.371.371,0,1,0,.678.3,3.456,3.456,0,0,1,3.157-2.054.371.371,0,0,0,0-.742Zm0,0" transform="translate(-383.033 -374.564)" fill="#f2a133" stroke="#f2a133" stroke-width="0.5"/>
    <path id="Path_10" data-name="Path 10" d="M324.877,318.051a6.834,6.834,0,0,0-6.826,6.826.371.371,0,0,0,.742,0,6.091,6.091,0,0,1,6.084-6.084.371.371,0,0,0,0-.742Zm0,0" transform="translate(-306.248 -306.248)" fill="#f2a133" stroke="#f2a133" stroke-width="0.5"/>
    <path id="Path_11" data-name="Path 11" d="M255.5,246a9.5,9.5,0,0,0-9.5,9.5.371.371,0,0,0,.742,0,8.768,8.768,0,0,1,8.758-8.758.371.371,0,0,0,0-.742Zm0,0" transform="translate(-236.871 -236.871)" fill="#f2a133" stroke="#f2a133" stroke-width="0.5"/>
    <path id="Path_12" data-name="Path 12" d="M18.629,175.992a.371.371,0,1,0,0-.742H.371a.371.371,0,0,0,0,.742H14.435a12.087,12.087,0,0,0-4.381,2.809,12.218,12.218,0,0,0-1.823,2.326H.371a.371.371,0,0,0,0,.742H7.82A12.072,12.072,0,0,0,6.5,187.375a.371.371,0,1,0,.742,0,11.4,11.4,0,0,1,11.383-11.383Zm0,0" transform="translate(0 -168.747)" fill="#f2a133" stroke="#f2a133" stroke-width="0.5"/>
    <path id="Path_13" data-name="Path 13" d="M375.415,87.064a.371.371,0,0,0,.262-.634,2.073,2.073,0,0,0-2.928,0,.371.371,0,0,0,.525.525,1.33,1.33,0,0,1,1.879,0A.37.37,0,0,0,375.415,87.064Zm0,0" transform="translate(-358.812 -82.64)" fill="#f2a133" stroke="#f2a133" stroke-width="0.5"/>
    <path id="Path_14" data-name="Path 14" d="M340.887,41.675a3.028,3.028,0,0,1,4.283,0,.371.371,0,0,0,.525-.525,3.775,3.775,0,0,0-5.332,0,.371.371,0,0,0,.525.525Zm0,0" transform="translate(-327.627 -38.562)" fill="#f2a133" stroke="#f2a133" stroke-width="0.5"/>
    <path id="Path_15" data-name="Path 15" d="M405.14,131.928a.372.372,0,1,0,.262-.108A.373.373,0,0,0,405.14,131.928Zm0,0" transform="translate(-390.001 -126.928)" fill="#f2a133" stroke="#f2a133" stroke-width="0.5"/>
    <path id="Path_16" data-name="Path 16" d="M33.585,445.086a.371.371,0,0,0,.525.525,1.387,1.387,0,0,1,1.96,0,.371.371,0,0,0,.525-.525A2.13,2.13,0,0,0,33.585,445.086Zm0,0" transform="translate(-32.234 -427.97)" fill="#f2a133" stroke="#f2a133" stroke-width="0.5"/>
    <path id="Path_17" data-name="Path 17" d="M.109,398.278a.371.371,0,0,0,.525.525,3.146,3.146,0,0,1,4.444,0,.371.371,0,0,0,.525-.525,3.889,3.889,0,0,0-5.494,0Zm0,0" transform="translate(0 -382.404)" fill="#f2a133" stroke="#f2a133" stroke-width="0.5"/>
    <path id="Path_18" data-name="Path 18" d="M67.32,492a.371.371,0,1,0,.262.109A.374.374,0,0,0,67.32,492Zm0,0" transform="translate(-64.465 -473.742)" fill="#f2a133" stroke="#f2a133" stroke-width="0.5"/>
    <path id="Path_19" data-name="Path 19" d="M98.175,45.7a1.522,1.522,0,1,0-1.522-1.522A1.524,1.524,0,0,0,98.175,45.7Zm0-2.3a.78.78,0,1,1-.78.78A.781.781,0,0,1,98.175,43.394Zm0,0" transform="translate(-93.066 -41.069)" fill="#f2a133" stroke="#f2a133" stroke-width="0.5"/>
    <path id="Path_20" data-name="Path 20" d="M128.043,1.394a.371.371,0,0,0,.371-.371V.371a.371.371,0,0,0-.742,0v.652A.371.371,0,0,0,128.043,1.394Zm0,0" transform="translate(-122.934)" fill="#f2a133" stroke="#f2a133" stroke-width="0.5"/>
    <path id="Path_21" data-name="Path 21" d="M127.672,132v.583a.371.371,0,1,0,.742,0V132a.371.371,0,0,0-.742,0Zm0,0" transform="translate(-122.934 -126.74)" fill="#f2a133" stroke="#f2a133" stroke-width="0.5"/>
    <path id="Path_22" data-name="Path 22" d="M183.781,74.043a.371.371,0,0,0,.371.371h.652a.371.371,0,0,0,0-.742h-.652A.371.371,0,0,0,183.781,74.043Zm0,0" transform="translate(-176.961 -70.938)" fill="#f2a133" stroke="#f2a133" stroke-width="0.5"/>
    <path id="Path_23" data-name="Path 23" d="M54.371,74.414h.583a.371.371,0,0,0,0-.742h-.583a.371.371,0,0,0,0,.742Zm0,0" transform="translate(-51.996 -70.938)" fill="#f2a133" stroke="#f2a133" stroke-width="0.5"/>
    <path id="Path_24" data-name="Path 24" d="M167.455,113.455a.371.371,0,0,0,0,.525l.461.461a.371.371,0,1,0,.525-.525l-.461-.461A.371.371,0,0,0,167.455,113.455Zm0,0" transform="translate(-161.136 -109.14)" fill="#f2a133" stroke="#f2a133" stroke-width="0.5"/>
    <path id="Path_25" data-name="Path 25" d="M76.1,22.624a.371.371,0,0,0,.525-.525l-.413-.413a.371.371,0,0,0-.525.525Zm0,0" transform="translate(-72.774 -20.777)" fill="#f2a133" stroke="#f2a133" stroke-width="0.5"/>
    <path id="Path_26" data-name="Path 26" d="M76.148,113.455l-.461.461a.371.371,0,1,0,.525.525l.461-.461a.371.371,0,0,0-.525-.525Zm0,0" transform="translate(-72.774 -109.14)" fill="#f2a133" stroke="#f2a133" stroke-width="0.5"/>
    <path id="Path_27" data-name="Path 27" d="M169.019,22.733a.37.37,0,0,0,.262-.109l.413-.413a.371.371,0,0,0-.525-.525l-.413.413a.371.371,0,0,0,.262.633Zm0,0" transform="translate(-162.39 -20.777)" fill="#f2a133" stroke="#f2a133" stroke-width="0.5"/>
    <path id="Path_28" data-name="Path 28" d="M.371,255.18h6.8a.371.371,0,0,0,0-.742H.371a.371.371,0,0,0,0,.742Zm0,0" transform="translate(0 -244.996)" fill="#f2a133" stroke="#f2a133" stroke-width="0.5"/>
    <path id="Path_29" data-name="Path 29" d="M224.965,255.075a.371.371,0,1,0-.262.109A.373.373,0,0,0,224.965,255.075Zm0,0" transform="translate(-216.007 -245)" fill="#f2a133" stroke="#f2a133" stroke-width="0.5"/>
  </g>
</svg>
