<svg xmlns="http://www.w3.org/2000/svg" width="19.996" height="20" viewBox="0 0 19.996 20"><defs><style>.a{fill:#f2a133;}</style></defs><g transform="translate(-965 -354)"><g transform="translate(571.316 -123)"><path class="a" d="M431.152,504.682a.576.576,0,0,1,.619.518.47.47,0,0,0,.94.046c0-.015,0-.031,0-.046a1.475,1.475,0,0,0-1.088-1.39v-.063a.47.47,0,1,0-.939-.046.419.419,0,0,0,0,.046v.065A1.475,1.475,0,0,0,429.6,505.2a1.512,1.512,0,0,0,1.558,1.458.527.527,0,1,1-.619.517.47.47,0,0,0-.94,0,1.475,1.475,0,0,0,1.088,1.39v.065a.47.47,0,1,0,.939.046.45.45,0,0,0,0-.046v-.065a1.475,1.475,0,0,0,1.088-1.39,1.512,1.512,0,0,0-1.559-1.458.527.527,0,1,1-.188-1.036.533.533,0,0,1,.188,0Z" transform="translate(-26.451 -19.441)"/><path class="a" d="M413.622,490.054a1.494,1.494,0,0,0-1.849-1.022,1.509,1.509,0,0,0-.29.118,6.885,6.885,0,0,0-.282-3.319.39.39,0,0,0-.737.254,6.1,6.1,0,0,1,.013,3.906l-3.111,2.763a3.124,3.124,0,0,1-.632.433,1.5,1.5,0,0,0-.807-1.713l-2.757-1.321a5.013,5.013,0,0,0-3.871-.183l-.28.105a6.032,6.032,0,0,1,1.43-6.3l2.757-2.758h3.052l2.337,2.337a.391.391,0,0,0,.552-.553h0l-2.232-2.232.807-2.323a.7.7,0,0,0-1.158-.727h0a.415.415,0,0,1-.585,0,1.759,1.759,0,0,0-2.486,0,.413.413,0,0,1-.585,0h0a.7.7,0,0,0-1.158.729l.81,2.315-2.668,2.654a6.841,6.841,0,0,0-1.611,7.123l-.615.226a1.118,1.118,0,0,0-.888-.439H394.8a1.121,1.121,0,0,0-1.12,1.122v4.633A1.121,1.121,0,0,0,394.8,497H405.1a6.147,6.147,0,0,0,4.306-1.747l3.824-3.717A1.491,1.491,0,0,0,413.622,490.054Zm-10.429-11.633a1.189,1.189,0,0,0,.842-.351.978.978,0,0,1,1.382,0,1.2,1.2,0,0,0,1.473.171l-.682,1.99h-2.947l-.695-1.987A1.19,1.19,0,0,0,403.193,478.421Zm-8.728,17.46V491.25a.339.339,0,0,1,.339-.339h1.978a.339.339,0,0,1,.339.339v4.631a.339.339,0,0,1-.339.339H394.8a.339.339,0,0,1-.339-.339Zm18.218-4.9-3.825,3.717a5.366,5.366,0,0,1-3.761,1.526H397.85a1.114,1.114,0,0,0,.053-.339v-4.565l1.667-.612a4.226,4.226,0,0,1,3.263.155l2.757,1.321a.719.719,0,0,1,.338.959.7.7,0,0,1-.035.065.718.718,0,0,1-.83.31l-3.663-1.165a.39.39,0,0,0-.237.744l3.663,1.165a1.506,1.506,0,0,0,.456.07h.055a3.912,3.912,0,0,0,2.545-.987l3.832-3.4a.713.713,0,0,1,.97,1.044Z" transform="translate(0)"/><path class="a" d="M453.721,504.037a.47.47,0,1,0-.333-.137A.47.47,0,0,0,453.721,504.037Z" transform="translate(-43.734 -19.161)"/></g></g></svg>