<svg xmlns="http://www.w3.org/2000/svg" width="19" height="19" viewBox="0 0 19 19">
  <g id="available-capital" transform="translate(0 -0.001)">
    <g id="XMLID_281_" transform="translate(0 0.001)">
      <path id="XMLID_283_" d="M251.109,188.23a.511.511,0,0,1,.549.459.417.417,0,1,0,.833,0,1.308,1.308,0,0,0-.965-1.233V187.4a.417.417,0,1,0-.833,0v.058a1.308,1.308,0,0,0-.965,1.233,1.341,1.341,0,0,0,1.382,1.293.467.467,0,1,1-.549.459.417.417,0,0,0-.833,0,1.308,1.308,0,0,0,.965,1.233v.058a.417.417,0,1,0,.833,0v-.058a1.308,1.308,0,0,0,.965-1.233,1.341,1.341,0,0,0-1.382-1.293.467.467,0,1,1,0-.919Z" transform="translate(-240.629 -180.315)" fill="#f2a133"/>
      <path id="XMLID_1217_" d="M18.944,12.4a1.419,1.419,0,0,0-2.032-.859,6.539,6.539,0,0,0-.268-3.154.371.371,0,0,0-.7.241,5.793,5.793,0,0,1,.012,3.711L13,14.964a2.982,2.982,0,0,1-.6.411,1.424,1.424,0,0,0-.767-1.628l-2.62-1.255a4.762,4.762,0,0,0-3.678-.174l-.266.1A5.732,5.732,0,0,1,6.428,6.429l2.62-2.62h2.9l2.22,2.22a.371.371,0,0,0,.525-.525L12.572,3.383l.767-2.207a.668.668,0,0,0-1.1-.691l0,0a.394.394,0,0,1-.556,0,1.672,1.672,0,0,0-2.362,0,.393.393,0,0,1-.556,0,.668.668,0,0,0-1.1.693l.77,2.2L5.9,5.9a6.5,6.5,0,0,0-1.531,6.768l-.585.215a1.063,1.063,0,0,0-.844-.417H1.064A1.065,1.065,0,0,0,0,13.534v4.4A1.065,1.065,0,0,0,1.064,19h9.781a5.839,5.839,0,0,0,4.091-1.66l3.634-3.532A1.417,1.417,0,0,0,18.944,12.4ZM9.035,1.347a1.128,1.128,0,0,0,.8-.333.929.929,0,0,1,1.313,0,1.137,1.137,0,0,0,1.4.162L11.9,3.067H9.1l-.66-1.888A1.128,1.128,0,0,0,9.035,1.347ZM.742,17.937v-4.4a.322.322,0,0,1,.322-.322h1.88a.322.322,0,0,1,.322.322v4.4a.322.322,0,0,1-.322.322H1.064A.322.322,0,0,1,.742,17.937Zm17.31-4.66-3.634,3.532a5.1,5.1,0,0,1-3.574,1.45H3.958a1.06,1.06,0,0,0,.05-.322V13.6l1.584-.582a4.016,4.016,0,0,1,3.1.147l2.62,1.255a.683.683,0,0,1,.287.973.682.682,0,0,1-.789.294l-3.48-1.107a.371.371,0,0,0-.225.707l3.48,1.107a1.429,1.429,0,0,0,.433.067l.052,0a3.717,3.717,0,0,0,2.418-.938l3.641-3.234a.68.68,0,0,1,.591-.156.677.677,0,0,1,.331,1.148Z" transform="translate(0 -0.001)" fill="#f2a133"/>
      <path id="XMLID_1298_" d="M409.156,179.823a.417.417,0,1,0-.295-.122A.418.418,0,0,0,409.156,179.823Z" transform="translate(-393.646 -172.381)" fill="#f2a133"/>
    </g>
  </g>
</svg>
