<svg xmlns="http://www.w3.org/2000/svg" width="20" height="19.994" viewBox="0 0 20 19.994"><defs><style>.a{fill:#f2a133;}</style></defs><g transform="translate(-709 -330)"><g transform="translate(187.53 -150.752)"><g transform="translate(536.538 499.8)"><path class="a" d="M576.249,549.306a.452.452,0,0,1-.133.323.459.459,0,0,1-.32.131h0a.455.455,0,0,1,0-.909h0a.457.457,0,0,1,.32.133A.45.45,0,0,1,576.249,549.306Z" transform="translate(-575.34 -548.85)"/></g><g transform="translate(531.071 490.352)"><path class="a" d="M572.69,525.737a6.252,6.252,0,0,0-6.238,6.23.456.456,0,0,1-.4.409.267.267,0,0,1-.047,0,.454.454,0,0,1-.451-.406,7.156,7.156,0,0,1,7.137-7.142h.167l-.039.036a.465.465,0,0,1,.278.37.459.459,0,0,1-.4.5Z" transform="translate(-562.783 -522.063)"/><path class="a" d="M556.5,524.784a.459.459,0,0,1-.4.411l-.047,0a.445.445,0,0,1-.284-.1.451.451,0,0,1-.167-.3,9.917,9.917,0,0,1,9.9-9.912h.139l-.011.011a.454.454,0,0,1-.139.9A9.022,9.022,0,0,0,556.5,524.784Z" transform="translate(-555.6 -514.88)"/><path class="a" d="M581.132,535.136a.44.44,0,0,1-.167.3.435.435,0,0,1-.331.1,3.513,3.513,0,0,0-3.2,2.086.454.454,0,0,1-.414.27.427.427,0,0,1-.184-.039.446.446,0,0,1-.239-.253.437.437,0,0,1,.008-.345,4.416,4.416,0,0,1,4.033-2.625l.058,0c.011,0,.022,0,.031,0A.453.453,0,0,1,581.132,535.136Z" transform="translate(-570.736 -529.137)"/></g><g transform="translate(521.47 487.635)"><path class="a" d="M541.464,505.615a.457.457,0,0,1-.5.4l-.036-.005a11.781,11.781,0,0,0-11.739,11.715.46.46,0,0,1,0,.089.449.449,0,0,1-.168.306.462.462,0,0,1-.285.1.308.308,0,0,1-.05,0,.455.455,0,0,1-.406-.5,12.574,12.574,0,0,1,1.328-5.624h-7.64a.33.33,0,0,1-.089,0,.453.453,0,1,1,.1-.9h8.143a12.741,12.741,0,0,1,6.121-5.176h-14.27a.5.5,0,0,1-.092,0,.455.455,0,0,1,.1-.9h19a.472.472,0,0,1,.089,0A.454.454,0,0,1,541.464,505.615Z" transform="translate(-521.47 -505.112)"/></g><g transform="translate(534.692 482.331)"><path class="a" d="M578.328,499.256a.45.45,0,0,1-.008.642.453.453,0,0,1-.317.131H578a.447.447,0,0,1-.32-.139.436.436,0,0,1-.128-.323.451.451,0,0,1,.439-.448h.017A.45.45,0,0,1,578.328,499.256Z" transform="translate(-575.066 -495.591)"/><path class="a" d="M574.372,488.232a.453.453,0,0,1-.642,0,3.071,3.071,0,0,0-4.236-.095l-.094.095a.467.467,0,0,1-.645,0,.453.453,0,0,1,0-.643,3.982,3.982,0,0,1,5.618,0A.453.453,0,0,1,574.372,488.232Z" transform="translate(-568.62 -486.43)"/><path class="a" d="M576.352,493.407a.446.446,0,0,1,.134.32.455.455,0,0,1-.453.453h0a.45.45,0,0,1-.317-.128,1.31,1.31,0,0,0-1.847,0,.445.445,0,0,1-.32.133.454.454,0,0,1-.323-.776A2.221,2.221,0,0,1,576.352,493.407Z" transform="translate(-571.847 -491.001)"/></g><g transform="translate(521.506 496.16)"><path class="a" d="M529.591,542.948a.457.457,0,0,1,0,.645.462.462,0,0,1-.645,0,1.368,1.368,0,0,0-1.93,0,.445.445,0,0,1-.32.131.454.454,0,0,1-.325-.773l.014-.011a2.24,2.24,0,0,1,1.6-.659h0A2.264,2.264,0,0,1,529.591,542.948Z" transform="translate(-524.95 -540.467)"/><path class="a" d="M527.524,537.6a.453.453,0,0,1-.642,0,3.2,3.2,0,0,0-4.5,0,.467.467,0,0,1-.645,0,.457.457,0,0,1,0-.645l.025-.019a4.1,4.1,0,0,1,5.766.019A.457.457,0,0,1,527.524,537.6Z" transform="translate(-521.6 -535.762)"/></g><g transform="translate(524.084 499.803)"><path class="a" d="M531.777,549.311a.451.451,0,0,1-.448.456h-.006a.451.451,0,0,1-.317-.128.466.466,0,0,1-.136-.32.456.456,0,0,1,.451-.459.462.462,0,0,1,.32.128A.45.45,0,0,1,531.777,549.311Z" transform="translate(-530.87 -548.86)"/></g><g transform="translate(525.679 482.859)"><path class="a" d="M538.582,488.686a1.208,1.208,0,0,0-.857-.356h0a1.224,1.224,0,0,0-.859.359,1.207,1.207,0,0,0-.353.862,1.22,1.22,0,0,0,1.215,1.213h0a1.215,1.215,0,0,0,1.213-1.221A1.2,1.2,0,0,0,538.582,488.686Zm-.854,1.38a.519.519,0,1,1,.517-.517A.518.518,0,0,1,537.728,490.065Z" transform="translate(-536.51 -488.33)"/></g><g transform="translate(523.545 480.752)"><path class="a" d="M532.193,484.657a.453.453,0,0,1,0-.643.464.464,0,0,1,.643,0l.428.426a.462.462,0,0,1,0,.645.457.457,0,0,1-.645,0Z" transform="translate(-531.189 -483.013)"/><path class="a" d="M548.441,491.827a.451.451,0,0,1-.306.167h-.681a.453.453,0,0,1-.453-.453v0a.454.454,0,0,1,.453-.448h.676a.455.455,0,0,1,.312.737Z" transform="translate(-541.974 -488.215)"/><path class="a" d="M533.31,496.694a.453.453,0,0,1,0,.642l-.476.478a.457.457,0,0,1-.645,0,.462.462,0,0,1,0-.645l.478-.476A.464.464,0,0,1,533.31,496.694Z" transform="translate(-531.188 -492.167)"/><path class="a" d="M540.068,480.921a.447.447,0,0,1,.1.331v.668a.451.451,0,1,1-.9,0v-.673a.47.47,0,0,1,0-.089.453.453,0,0,1,.8-.236Z" transform="translate(-536.389 -480.752)"/><path class="a" d="M545.982,497.159a.462.462,0,0,1,0,.645.456.456,0,0,1-.645,0l-.476-.478a.451.451,0,0,1,0-.643v0a.448.448,0,0,1,.32-.131h0a.441.441,0,0,1,.32.133Z" transform="translate(-540.333 -492.156)"/><path class="a" d="M540.148,499.435v.6a.469.469,0,0,1,0,.089.454.454,0,0,1-.45.406l-.05,0a.454.454,0,0,1-.4-.5v-.592a.5.5,0,0,1,0-.092.455.455,0,0,1,.9.1Z" transform="translate(-536.374 -493.875)"/><path class="a" d="M545.036,485.1a.466.466,0,0,1-.136-.323.45.45,0,0,1,.133-.32l.426-.428a.47.47,0,0,1,.645,0,.457.457,0,0,1,0,.645l-.428.426a.437.437,0,0,1-.317.131h-.006A.448.448,0,0,1,545.036,485.1Z" transform="translate(-540.458 -483.023)"/><path class="a" d="M530.034,491.989h-.651a.3.3,0,0,1-.05,0,.451.451,0,0,1-.4-.5.457.457,0,0,1,.5-.4h.6a.455.455,0,0,1,.312.737A.45.45,0,0,1,530.034,491.989Z" transform="translate(-528.93 -488.21)"/></g><g transform="translate(521.551 490.628)"><path class="a" d="M529.227,516.964h-7.059a.455.455,0,0,1,0-.9h7.051a.454.454,0,0,1,.008.9Z" transform="translate(-521.762 -516.06)"/></g><g transform="translate(530.18 490.62)"><path class="a" d="M553.38,516.811a.45.45,0,0,1-.317.128h0a.456.456,0,0,1-.451-.459.454.454,0,1,1,.77.331Z" transform="translate(-552.61 -516.034)"/></g></g></g></svg>