<svg xmlns="http://www.w3.org/2000/svg" width="21.729" height="21.839" viewBox="0 0 21.729 21.839">
  <g id="capital-grey" transform="translate(0.1 0.22)">
    <g id="XMLID_281_" transform="translate(0 0.001)">
      <path id="XMLID_283_" d="M251.648,188.716a.71.71,0,0,1,.763.639.579.579,0,1,0,1.158,0,1.818,1.818,0,0,0-1.342-1.713v-.08a.579.579,0,1,0-1.158,0v.08a1.818,1.818,0,0,0-1.342,1.713,1.864,1.864,0,0,0,1.921,1.8.649.649,0,1,1-.763.639.579.579,0,0,0-1.158,0,1.818,1.818,0,0,0,1.342,1.713v.08a.579.579,0,1,0,1.158,0v-.08a1.818,1.818,0,0,0,1.342-1.713,1.864,1.864,0,0,0-1.921-1.8.649.649,0,1,1,0-1.277Z" transform="translate(-239.759 -180.108)" fill="#8f8f8f" stroke="#8f8f8f" stroke-width="0.2"/>
      <path id="XMLID_1217_" d="M21.454,14.04a1.607,1.607,0,0,0-2.3-.972,7.405,7.405,0,0,0-.3-3.572.42.42,0,0,0-.8.273,6.561,6.561,0,0,1,.013,4.2l-3.349,2.975a3.377,3.377,0,0,1-.674.465,1.613,1.613,0,0,0-.869-1.843l-2.967-1.421a5.393,5.393,0,0,0-4.165-.2l-.3.111A6.491,6.491,0,0,1,7.28,7.28l2.967-2.967h3.285l2.514,2.514a.42.42,0,0,0,.594-.594l-2.4-2.4.868-2.5A.756.756,0,0,0,13.857.549l-.005.005a.446.446,0,0,1-.63,0,1.894,1.894,0,0,0-2.675,0,.446.446,0,0,1-.63,0,.756.756,0,0,0-1.248.784L9.54,3.831,6.686,6.686A7.361,7.361,0,0,0,4.952,14.35l-.663.243a1.2,1.2,0,0,0-.955-.472H1.2a1.206,1.206,0,0,0-1.2,1.2v4.987a1.206,1.206,0,0,0,1.2,1.2H12.282a6.613,6.613,0,0,0,4.633-1.88l4.115-4A1.6,1.6,0,0,0,21.454,14.04ZM10.232,1.526a1.278,1.278,0,0,0,.909-.377,1.052,1.052,0,0,1,1.487,0,1.287,1.287,0,0,0,1.589.183l-.744,2.141H10.305L9.557,1.335A1.278,1.278,0,0,0,10.232,1.526ZM.841,20.314V15.326a.365.365,0,0,1,.364-.364H3.334a.365.365,0,0,1,.364.364v4.987a.365.365,0,0,1-.364.364H1.2a.365.365,0,0,1-.364-.364Zm19.6-5.278-4.115,4a5.777,5.777,0,0,1-4.047,1.643h-7.8a1.2,1.2,0,0,0,.056-.364V15.4l1.794-.659a4.548,4.548,0,0,1,3.513.167l2.967,1.421a.774.774,0,0,1,.325,1.1.772.772,0,0,1-.894.333L8.3,16.507a.42.42,0,0,0-.255.8l3.942,1.253a1.618,1.618,0,0,0,.491.076l.059,0a4.21,4.21,0,0,0,2.738-1.062L19.4,13.912a.77.77,0,0,1,.669-.177.767.767,0,0,1,.375,1.3Z" transform="translate(0 -0.001)" fill="#8f8f8f" stroke="#8f8f8f" stroke-width="0.2"/>
      <path id="XMLID_1298_" d="M409.159,179.831a.42.42,0,1,0-.3-.123A.421.421,0,0,0,409.159,179.831Z" transform="translate(-391.561 -171.468)" fill="#8f8f8f" stroke="#8f8f8f" stroke-width="0.5"/>
    </g>
  </g>
</svg>
