<svg xmlns="http://www.w3.org/2000/svg" width="24" height="22" viewBox="0 0 24 22"><defs><style>.a{fill:#8f8f8f;}</style></defs><g transform="translate(0 -1)"><path class="a" d="M13.5,23h-3a1,1,0,0,1-1-1V17H7a.5.5,0,0,1-.354-.854l5-5a.5.5,0,0,1,.707,0l5,5A.5.5,0,0,1,17,17H14.5v5A1,1,0,0,1,13.5,23ZM8.207,16H10a.5.5,0,0,1,.5.5V22h3V16.5A.5.5,0,0,1,14,16h1.793L12,12.207Z"/><path class="a" d="M4.5,16.97a.558.558,0,0,1-.057,0,5,5,0,0,1,.212-9.955,7.493,7.493,0,0,1,14-1.968,5.988,5.988,0,0,1,.981,11.718.5.5,0,0,1-.267-.964A4.987,4.987,0,0,0,18.3,6.019a.5.5,0,0,1-.426-.288A6.492,6.492,0,0,0,5.575,7.57.5.5,0,0,1,5.08,8a4,4,0,0,0-.524,7.973.5.5,0,0,1-.055,1Z"/></g></svg>