<svg id="dead-leaf" xmlns="http://www.w3.org/2000/svg" xmlns:xlink="http://www.w3.org/1999/xlink" width="104.801" height="87.242" viewBox="0 0 104.801 87.242">
  <defs>
    <clipPath id="clip-path">
      <rect id="Rectangle_606" data-name="Rectangle 606" width="104.801" height="87.242" fill="none"/>
    </clipPath>
  </defs>
  <path id="Path_967" data-name="Path 967" d="M119.316,153.684l-10.96,3.2-3.575-2.513-20.4,1.371,3.808,2.967-1.65.305,4.232,1.467,4.494.434,9.364-.989,5.859.153,7.08-2.662,5.174,1.444h-3.88l3.8,2.589-3.273-.687-2.284-1.9-6.771,1.752h-4.189l-13.393,1.142-3.209,1.736-1.292,1.693,4.2,1.975h11.568l3.047,1.142,5.888-.534,8.04-3.273,2.207-.076,2.738-1.295,7.84,1.447-7.993-.382-1.444,1.6L121.9,165.4l-8.069,2.817.763,2.055h3.957l-2.436,3.349,3.578,2.51,5.48,1.829,6.24,2.891,3.957-.458,2.437,3.349,15.451-3.349,3.731-.378,4.179,2.124-.982-3.572-1.448-3.426-10.2-3.957-2.284-7.382,2.284-6.091-14.688-.378-2.131.989h-1.6l1.829-2.131,3.2-2.513Z" transform="translate(-56.372 -102.671)" fill="#b3b3b3"/>
  <path id="Path_968" data-name="Path 968" d="M44.372,191.636l2.818.763-2.436.379-6.088,3.273H36.836ZM.992,185.114l9.437-.554L4.72,188.516l8.524,3.655-1.9,1.9L0,195.673l13.32.3.077-.989,13.7.382.611.76,1.142-.531,6.469,1.371-6.7-.382-1.142,1.524-7.459,2.662,10.655,4.872,1.56,1.739.647.316,2.891.531-.19.056,6.659-.511,3.12,1.368,12.331-.989,6.015-5.633,7.229-1.826-8.6-3.2-.076-.76-5.328-3.2-3.731-.076-.153-1.295-4.946-.683,1.447-1.371-.076-1.524-2.742-.3-11.644.149-7.382-2.814,1.6-.989-15.451.153-2.207-1.065Z" transform="translate(0 -122.739)" fill="#b3b3b3"/>
  <path id="Path_969" data-name="Path 969" d="M26.46,234.851l.418.916-1.331.226-.534.84-10.585,3.429,5.487-1.6-1.218,4.72,18.8-1.447,2.446-2-11.5-5.079-.913-1.139Z" transform="translate(-9.638 -156.136)" fill="#b3b3b3"/>
  <g id="Group_920" data-name="Group 920">
    <g id="Group_919" data-name="Group 919" clip-path="url(#clip-path)">
      <path id="Path_970" data-name="Path 970" d="M233.479,30.7a24.4,24.4,0,0,1,5.048,3.21s1.176-7.072-1.539-8.691c-4.974-2.965-8.071,3.285-3.509,5.481" transform="translate(-154.494 -16.324)" fill="#666"/>
      <path id="Path_971" data-name="Path 971" d="M127.432,55.87a17.645,17.645,0,0,0-3.651,2.322s-.851-5.115,1.113-6.286c3.6-2.145,5.838,2.376,2.538,3.964" transform="translate(-82.572 -34.298)" fill="#666"/>
      <path id="Path_972" data-name="Path 972" d="M169.048,9.823a4.987,4.987,0,0,0-.8-.906,35.983,35.983,0,0,0-4.226-3.393C158.018,1.239,151.343.89,147.356,3.2s-2.891,11.306-1.6,15.909c1.172,4.169,2.4,7.648-.3,13.015-2.38,4.727,2.967,8.906,3.88,12.331,0,0,.279-5.507,5.152-5.354s6.038-1.929,6.038-1.929l.3,3.3a52.248,52.248,0,0,0-5.832-.256c-2.284.1-4.62,1.524-4.62,5.633s1.626,7.561-1.115,11.01-1.487,14.307.747,15.425l-.143,0L147.4,70.8l-3.731-.076-.153-1.295-3.343-.461a19.072,19.072,0,0,1,4.368-14.24c6.622-7.535,1.371-11.189,0-14.386s-2.539-4.338-.584-9.589.784-6.393,0-11.189c-.242-1.491-.887-3.97-1.208-6.675a14.381,14.381,0,0,0-6.4,4.893c-.275.368-.411.594-.411.594l-.524-.764c.07-.119.143-.239.219-.355a12.342,12.342,0,0,1,7.023-5.221C142.132,6.241,143.4-.192,153.291,0c8.959.179,14.582,4.764,16.451,8.169.123.226.232.448.322.661.7,1.636-1.016.989-1.016.989" transform="translate(-90.463 0)" fill="#666"/>
      <path id="Path_973" data-name="Path 973" d="M240.6,192.519a76.878,76.878,0,0,1,9.987-2.006s-9.226-4.42-14.439-3.286c-9.55,2.076-3.533,7.462,4.453,5.292" transform="translate(-154.494 -124.956)" fill="#666"/>
    </g>
  </g>
</svg>
