<svg xmlns="http://www.w3.org/2000/svg" width="43.517" height="56.975" viewBox="0 0 43.517 56.975"><defs><style>.a{fill:#f2a133;}.b{fill:#b19177;}.c{fill:gray;}.d{fill:#31a32b;}.e{fill:#298525;}.f{fill:#c0a58d;}.g{fill:#ffc7cc;}.h{fill:#949494;}.i{fill:#a7a7a7;}.j{fill:#7e7e7e;}.k{fill:#b9b9b9;}</style></defs><g transform="translate(0)"><g transform="translate(43.517 56.975) rotate(180)"><path class="a" d="M0,0H21.84V4.748H0Z" transform="translate(19.941 52.227)"/><path class="b" d="M0,0,5.7,14.244h9.5V0Z" transform="translate(18.042 37.984)"/><path class="c" d="M0,0H39.883V4.748H0Z"/><path class="d" d="M0,0H26.588V33.236H0Z" transform="translate(6.647 4.748)"/><g transform="translate(6.647 4.748)"><path class="e" d="M8.546,8.546H0V0A8.547,8.547,0,0,1,8.546,8.546Z" transform="translate(0 24.689)"/><path class="e" d="M8.546,0V8.546H0A8.547,8.547,0,0,1,8.546,0Z" transform="translate(18.042 24.689)"/><path class="e" d="M17.093,0A8.546,8.546,0,0,1,8.546,8.546,8.546,8.546,0,0,1,0,0Z" transform="translate(4.748)"/></g><path class="f" d="M20.633,21.291,17.093,39.883H8.546l-.95-.949a9.4,9.4,0,0,1,0-13.294h0L1.18,19.221A4.023,4.023,0,0,1,0,16.373v-.078a3.95,3.95,0,0,1,3.95-3.95h.078a4.029,4.029,0,0,1,2.849,1.18l3.568,3.568V0a5.27,5.27,0,0,1,5,3.6l5.011,15.034A5.268,5.268,0,0,1,20.633,21.291Z" transform="translate(22.79 12.345)"/><path class="g" d="M0,0,5.7,5.7" transform="translate(30.387 26.588)"/><path class="b" d="M4.191,5.534a.95.95,0,0,1-1.342,0L0,2.685V0L4.191,4.191a.948.948,0,0,1,0,1.341Z" transform="translate(33.236 26.752)"/></g><g transform="translate(43.517 56.975) rotate(180)"><path class="h" d="M0,0H21.84V4.748H0Z" transform="translate(19.941 52.227)"/><path class="h" d="M0,0,5.7,14.244h9.5V0Z" transform="translate(18.042 37.984)"/><path class="c" d="M0,0H39.883V4.748H0Z"/><path class="i" d="M0,0H26.588V33.236H0Z" transform="translate(6.647 4.748)"/><g transform="translate(6.647 4.748)"><path class="j" d="M8.546,8.546H0V0A8.547,8.547,0,0,1,8.546,8.546Z" transform="translate(0 24.689)"/><path class="j" d="M8.546,0V8.546H0A8.547,8.547,0,0,1,8.546,0Z" transform="translate(18.042 24.689)"/><path class="j" d="M17.093,0A8.546,8.546,0,0,1,8.546,8.546,8.546,8.546,0,0,1,0,0Z" transform="translate(4.748)"/></g><path class="k" d="M20.633,21.291,17.093,39.883H8.546l-.95-.949a9.4,9.4,0,0,1,0-13.294h0L1.18,19.221A4.023,4.023,0,0,1,0,16.373v-.078a3.95,3.95,0,0,1,3.95-3.95h.078a4.029,4.029,0,0,1,2.849,1.18l3.568,3.568V0a5.27,5.27,0,0,1,5,3.6l5.011,15.034A5.268,5.268,0,0,1,20.633,21.291Z" transform="translate(22.79 12.345)"/><path class="g" d="M0,0,5.7,5.7" transform="translate(30.387 26.588)"/><path class="h" d="M4.191,5.534a.95.95,0,0,1-1.342,0L0,2.685V0L4.191,4.191a.948.948,0,0,1,0,1.341Z" transform="translate(33.236 26.752)"/></g></g></svg>