<svg xmlns="http://www.w3.org/2000/svg" width="33.68" height="44.097" viewBox="0 0 33.68 44.097"><defs><style>.a{fill:#f2a133;}.b{fill:#b19177;}.c{fill:gray;}.d{fill:#31a32b;}.e{fill:#298525;}.f{fill:#c0a58d;}.g{fill:#ffc7cc;}</style></defs><g transform="translate(33.68 44.097) rotate(-180)"><path class="a" d="M315.048,480.192h16.9v3.675h-16.9Z" transform="translate(-299.614 -439.77)"/><path class="b" d="M306.787,418.237l4.41,11.024h7.35V418.237Z" transform="translate(-292.823 -388.839)"/><path class="c" d="M228.31,253.022h30.868V256.7H228.31Z" transform="translate(-228.31 -253.022)"/><path class="d" d="M257.223,273.674H277.8V299.4H257.223Z" transform="translate(-252.078 -269.999)"/><g transform="translate(5.145 3.675)"><path class="e" d="M263.837,387.678h-6.614v-6.614A6.615,6.615,0,0,1,263.837,387.678Z" transform="translate(-257.223 -361.955)"/><path class="e" d="M342.314,381.064v6.614H335.7A6.615,6.615,0,0,1,342.314,381.064Z" transform="translate(-321.736 -361.955)"/><path class="e" d="M291.1,273.674a6.615,6.615,0,0,1-13.229,0Z" transform="translate(-274.199 -273.674)"/></g><path class="f" d="M343.408,323.2l-2.74,14.389h-6.615l-.735-.735a7.276,7.276,0,0,1,0-10.289h0l-4.966-4.967a3.114,3.114,0,0,1-.913-2.2v-.061a3.057,3.057,0,0,1,3.057-3.057h.061a3.119,3.119,0,0,1,2.2.913l2.762,2.762V306.717a4.078,4.078,0,0,1,3.869,2.789l3.879,11.636A4.077,4.077,0,0,1,343.408,323.2Z" transform="translate(-309.8 -297.163)"/><path class="g" d="M360.482,368.672l4.41,4.41" transform="translate(-336.964 -348.093)"/><path class="b" d="M376.117,373.668a.735.735,0,0,1-1.039,0l-2.2-2.2v-2.078l3.244,3.244a.734.734,0,0,1,0,1.038Z" transform="translate(-347.15 -348.68)"/></g></svg>