<svg xmlns="http://www.w3.org/2000/svg" width="62.814" height="30.845" viewBox="0 0 62.814 30.845">
  <g id="Ecobank-Logo" transform="translate(-11 -259.897)">
    <path id="Path_135" data-name="Path 135" d="M38.437,359.4l.224-1.263H33.215a1.3,1.3,0,0,0-1.227,1.028l-2.1,11.923h0a.846.846,0,0,0,.85,1.049h5.949l.222-1.261H31.8l.944-5.353h4.151l.217-1.24h-4.15l.863-4.881Z" transform="translate(-17.655 -91.933)" fill="#00577a"/>
    <path id="Path_136" data-name="Path 136" d="M156.778,413.6c-2.4,0-3.789-2.156-3.169-5.7.635-3.6,2.773-5.677,5.215-5.677a3.06,3.06,0,0,1,2.294.732L160.509,404a2.177,2.177,0,0,0-1.536-.528c-1.995,0-3.087,1.809-3.539,4.373-.464,2.625.154,4.437,1.927,4.437a3.215,3.215,0,0,0,1.763-.528l.25,1.118a4.25,4.25,0,0,1-2.592.732" transform="translate(-133.312 -133.191)" fill="#00577a"/>
    <path id="Path_137" data-name="Path 137" d="M274.165,403.371c-2.094,0-2.916,2.34-3.309,4.557s-.332,4.435,1.722,4.435c2.1,0,2.878-2.24,3.263-4.437s.419-4.555-1.676-4.555m-1.8,10.233c-2.993,0-3.861-2.462-3.294-5.677.578-3.276,2.327-5.7,5.279-5.7,3.011,0,3.866,2.421,3.286,5.7-.565,3.215-2.3,5.677-5.271,5.677" transform="translate(-241.34 -133.191)" fill="#00577a"/>
    <path id="Path_138" data-name="Path 138" d="M565.047,407.175c-2.826.344-4.58.934-4.97,3.154-.281,1.587.578,2.238,2.209,2.238a4.413,4.413,0,0,0,1.875-.365Zm-3.087,6.43c-2.847,0-3.952-1.24-3.6-3.235.514-2.911,3.389-3.764,6.85-4.111l.117-.671c.3-1.689-.633-2.177-2.039-2.177a6.93,6.93,0,0,0-2.766.692l-.243-1.059a8.168,8.168,0,0,1,3.5-.814c2.036,0,3.674.875,3.2,3.559l-1.245,7.042a8.552,8.552,0,0,1-3.779.771" transform="translate(-512.147 -133.191)" fill="#00577a"/>
    <path id="Path_139" data-name="Path 139" d="M701.914,413.438l1.388-7.874c.181-1.018-.051-2.136-1.921-2.136a5.024,5.024,0,0,0-2.143.385l-1.7,9.624H695.75l1.832-10.4a10.129,10.129,0,0,1,4.143-.771c3.055,0,3.651,1.689,3.376,3.256l-1.4,7.912Z" transform="translate(-640.77 -133.229)" fill="#00577a"/>
    <path id="Path_140" data-name="Path 140" d="M80.836,610.16H20.38l.056-.36H80.887Z" transform="translate(-8.778 -327.43)" fill="#bdcf00"/>
    <path id="Path_141" data-name="Path 141" d="M419.431,338.163c-.49,2.769-1.717,4.662-3.976,4.662a3.306,3.306,0,0,1-1.5-.265l1.483-8.4a3.71,3.71,0,0,1,1.863-.426c2.075,0,2.552,2.036,2.128,4.432m-1.493-5.491a4.953,4.953,0,0,0-2.327.508l.944-5.348-1.972,1.14-2.511,14.24a5.455,5.455,0,0,0,3.141.771c3.256,0,5.4-2.36,6.021-5.881.584-3.317-.771-5.432-3.3-5.432" transform="translate(-375.31 -63.57)" fill="#00577a"/>
    <path id="Path_142" data-name="Path 142" d="M561.9,269.243h-1.87l-4.8,5.085h-.041l1.225-6.929c1.22-6.863-6.19-8.313-13.923-7.129a43.178,43.178,0,0,0-9.9,2.9,49.485,49.485,0,0,1,11.4-2.424c6.736-.385,12.015.638,10.474,7.775L552.4,280.21h1.75l1-5.659h.041l3.195,5.659h2.036l-3.57-5.845Z" transform="translate(-488.09)" fill="#00577a"/>
    <path id="Path_143" data-name="Path 143" d="M12.592,664.952l-.768,4.351h-.642l.771-4.353H11l.076-.431H13.62l-.076.431Z" transform="translate(0 -378.635)" fill="#00577a"/>
    <path id="Path_144" data-name="Path 144" d="M51.678,659.459l.467-2.656c.069-.385-.036-.737-.633-.737a1.491,1.491,0,0,0-.762.186l-.566,3.207H49.57L50.533,654h.61l-.334,1.906a2.069,2.069,0,0,1,.9-.229c.954,0,1.143.574,1.051,1.1l-.47,2.681Z" transform="translate(-36.093 -368.791)" fill="#00577a"/>
    <path id="Path_145" data-name="Path 145" d="M107.609,679.967c-.543,0-1.023.439-1.189,1.454l1.842-.273c.148-.849-.12-1.181-.653-1.181m-1.225,1.781c-.082.847.243,1.265.916,1.265a2.083,2.083,0,0,0,.963-.216l.089.4a2.552,2.552,0,0,1-1.179.257c-.98,0-1.559-.62-1.324-1.954.227-1.274.967-1.932,1.85-1.932.9,0,1.337.584,1.1,1.835Z" transform="translate(-88.709 -392.719)" fill="#00577a"/>
    <path id="Path_146" data-name="Path 146" d="M196.214,663.787a1.617,1.617,0,0,0-.559.089l-.352,2,.2.021c.992.1,1.439-.363,1.564-1.057s-.128-1.057-.857-1.057m-.771,2.5-.212-.02-.346,1.984h-.626l.809-4.59a2.765,2.765,0,0,1,1.242-.266c1.128,0,1.529.608,1.38,1.447a1.836,1.836,0,0,1-2.242,1.441" transform="translate(-171.49 -377.587)" fill="#00577a"/>
    <path id="Path_147" data-name="Path 147" d="M249.144,681.279c-.963.12-1.564.321-1.7,1.077-.1.541.2.765.755.765a1.541,1.541,0,0,0,.642-.125Zm-1.053,2.2c-.972,0-1.349-.426-1.23-1.108.176-.992,1.156-1.285,2.34-1.4l.04-.23c.1-.578-.217-.742-.7-.742a2.338,2.338,0,0,0-.944.235l-.084-.363a2.825,2.825,0,0,1,1.2-.276c.7,0,1.255.3,1.092,1.217l-.423,2.406a2.878,2.878,0,0,1-1.291.266" transform="translate(-220.692 -392.737)" fill="#00577a"/>
    <path id="Path_148" data-name="Path 148" d="M300.976,683.4l.475-2.692c.064-.347-.017-.73-.658-.73a1.715,1.715,0,0,0-.732.133l-.578,3.288h-.612l.628-3.551a3.423,3.423,0,0,1,1.416-.265c1.044,0,1.248.578,1.156,1.112l-.481,2.7Z" transform="translate(-269.381 -392.728)" fill="#00577a"/>
    <path id="Path_149" data-name="Path 149" d="M385.859,665.674a3.1,3.1,0,0,1-.036-.578h-.015a4.243,4.243,0,0,1-.247.578l-.89,1.817H386.1Zm.472,3.63-.2-1.432h-1.641l-.717,1.432h-.584l2.462-4.784h.572l.771,4.784Z" transform="translate(-348.285 -378.635)" fill="#00577a"/>
    <path id="Path_150" data-name="Path 150" d="M455.147,656.089l-.592,3.366h-.615l.594-3.367H454.1l.069-.38h.432l.094-.529A1.341,1.341,0,0,1,456.167,654l-.064.385a.777.777,0,0,0-.784.724l-.1.6h.653l-.064.38Z" transform="translate(-414.491 -368.787)" fill="#00577a"/>
    <path id="Path_151" data-name="Path 151" d="M486.325,680.1a1.132,1.132,0,0,0-.865.069l-.578,3.276h-.612l.625-3.547a3.281,3.281,0,0,1,1.658-.265Z" transform="translate(-442.873 -392.776)" fill="#00577a"/>
    <path id="Path_152" data-name="Path 152" d="M520.9,659.568a.285.285,0,0,1-.3-.334.434.434,0,0,1,.421-.342.284.284,0,0,1,.3.342.435.435,0,0,1-.413.334m-1.092,4.47.661-3.748h.613l-.664,3.746Z" transform="translate(-476.131 -373.368)" fill="#00577a"/>
    <path id="Path_153" data-name="Path 153" d="M547.232,683.476c-.821,0-1.3-.737-1.082-1.947.214-1.233.946-1.94,1.78-1.94a1.038,1.038,0,0,1,.784.25l-.209.354a.743.743,0,0,0-.523-.179c-.684,0-1.057.62-1.212,1.5-.155.9.053,1.515.658,1.515a1.129,1.129,0,0,0,.6-.179l.084.38a1.481,1.481,0,0,1-.885.25" transform="translate(-500.731 -392.737)" fill="#00577a"/>
    <path id="Path_154" data-name="Path 154" d="M589.179,681.279c-.963.12-1.564.321-1.7,1.077-.1.541.2.765.753.765a1.537,1.537,0,0,0,.642-.125Zm-1.054,2.2c-.972,0-1.352-.426-1.229-1.108.173-.992,1.156-1.285,2.34-1.4l.04-.23c.1-.578-.217-.742-.7-.742a2.348,2.348,0,0,0-.944.235l-.084-.363a2.82,2.82,0,0,1,1.2-.276c.7,0,1.255.3,1.092,1.217l-.423,2.406a2.879,2.879,0,0,1-1.292.266" transform="translate(-538.886 -392.737)" fill="#00577a"/>
    <path id="Path_155" data-name="Path 155" d="M641.066,683.4l.472-2.692c.061-.347-.017-.73-.656-.73a1.72,1.72,0,0,0-.735.133l-.578,3.288h-.609l.625-3.551A3.432,3.432,0,0,1,641,679.58c1.044,0,1.248.578,1.156,1.112l-.481,2.7Z" transform="translate(-587.628 -392.728)" fill="#00577a"/>
    <path id="Path_156" data-name="Path 156" d="M732.063,663.809a1.922,1.922,0,0,0-.649.1l-.3,1.7h.311c.988,0,1.378-.3,1.485-.929.107-.587-.193-.877-.844-.877m-.687,2.128h-.321l-.337,1.906a1.508,1.508,0,0,0,.653.11,1.146,1.146,0,0,0,1.281-.947c.128-.742-.245-1.069-1.278-1.069m-.049,2.427a2.509,2.509,0,0,1-1.258-.265l.771-4.394a2.938,2.938,0,0,1,1.291-.265c1.051,0,1.523.5,1.4,1.2a1.391,1.391,0,0,1-1.125,1.115v.013a1.087,1.087,0,0,1,.9,1.238,1.765,1.765,0,0,1-1.974,1.362" transform="translate(-672.886 -377.625)" fill="#00577a"/>
    <path id="Path_157" data-name="Path 157" d="M790.242,681.279c-.963.12-1.564.321-1.7,1.077-.094.541.2.765.755.765a1.553,1.553,0,0,0,.642-.125Zm-1.054,2.2c-.974,0-1.352-.426-1.232-1.108.179-.992,1.156-1.285,2.342-1.4l.038-.23c.1-.578-.215-.742-.694-.742a2.337,2.337,0,0,0-.947.235l-.082-.363a2.816,2.816,0,0,1,1.194-.276c.7,0,1.258.3,1.092,1.217l-.421,2.406a2.879,2.879,0,0,1-1.292.266" transform="translate(-727.034 -392.737)" fill="#00577a"/>
    <path id="Path_158" data-name="Path 158" d="M843.269,683.415l.475-2.692c.059-.347-.017-.73-.658-.73a1.728,1.728,0,0,0-.735.133l-.578,3.288h-.613l.632-3.55a3.419,3.419,0,0,1,1.413-.265c1.041,0,1.245.578,1.156,1.112l-.482,2.7Z" transform="translate(-776.841 -392.747)" fill="#00577a"/>
    <path id="Path_159" data-name="Path 159" d="M899.046,659.459l-1.092-1.931h-.017l-.338,1.931H897l.963-5.459h.6l-.608,3.45h.013l1.646-1.74h.635l-1.725,1.759,1.22,1.995Z" transform="translate(-829.095 -368.791)" fill="#00577a"/>
  </g>
</svg>
