<svg xmlns="http://www.w3.org/2000/svg" width="19.887" height="19.886" viewBox="0 0 19.887 19.886"><defs><style>.a{fill:none;stroke:#3e3e3e;stroke-linecap:round;stroke-linejoin:round;stroke-width:1.5px;}</style></defs><g transform="translate(1.061 1.061)"><path class="a" d="M15.179,17.257a8.132,8.132,0,0,1-4.8,1.663C4.73,18.92,1.5,12.46,1.5,12.46a14.9,14.9,0,0,1,4.086-4.8m3.1-1.47A7.365,7.365,0,0,1,10.383,6c5.653,0,8.883,6.46,8.883,6.46a14.939,14.939,0,0,1-1.744,2.576m-5.426-.864a2.423,2.423,0,1,1-3.424-3.424" transform="translate(-1.5 -3.577)"/><path class="a" d="M1.5,1.5,19.265,19.265" transform="translate(-1.5 -1.5)"/></g></svg>