<svg xmlns="http://www.w3.org/2000/svg" width="23.154" height="23.154" viewBox="0 0 23.154 23.154"><defs><style>.a{fill:#485a96;}.b{fill:#fff;}</style></defs><path class="a" d="M21.876,23.154a1.278,1.278,0,0,0,1.278-1.278V1.278A1.278,1.278,0,0,0,21.876,0H1.278A1.278,1.278,0,0,0,0,1.278v20.6a1.278,1.278,0,0,0,1.278,1.278h20.6Z"/><path class="b" d="M114.4,59.967V51h3.01l.451-3.494H114.4V45.275c0-1.012.281-1.7,1.732-1.7h1.85V40.448a24.762,24.762,0,0,0-2.7-.138c-2.668,0-4.494,1.628-4.494,4.619v2.577h-3.017V51h3.017v8.967H114.4Z" transform="translate(-98.424 -36.813)"/></svg>