<svg xmlns="http://www.w3.org/2000/svg" width="86.607" height="36.219" viewBox="0 0 86.607 36.219">
  <g id="farmz2u-logo" transform="translate(-883.132 -46.121)">
    <path id="Path_206" data-name="Path 206" d="M247.052,263.534c0-3.965,0-7.93.01-11.895,0-.31-.225-.855.348-.849.423,0,1.108-.435,1.251.462.073.451.316.143.5.074,2.236-.864,4.372-.99,6.226.866.249.25.352.11.536-.078,1.66-1.7,3.666-1.651,5.688-.948a3.762,3.762,0,0,1,2.317,3.22,9,9,0,0,1,.133,1.576c.009,6.509,0,13.018.017,19.528,0,.65-.034,1.05-.873.994-.6-.04-.689-.251-.685-.77.022-2.378.009-4.758.009-7.137q0-6.2,0-12.391a7.065,7.065,0,0,0-.374-2.434,2.654,2.654,0,0,0-2.65-1.857,2.685,2.685,0,0,0-2.708,1.772,6.218,6.218,0,0,0-.385,2.328q.01,9.715,0,19.428c0,.54.169,1.071-.778,1.07-.9,0-.818-.454-.818-1.034q.01-9.517.006-19.032a7.392,7.392,0,0,0-.363-2.632,2.877,2.877,0,0,0-5.421.018,8.186,8.186,0,0,0-.363,2.832v18.834c0,.929-.447,1.242-1.329.969-.5-.153-.281-.544-.282-.822C247.047,271.6,247.052,267.565,247.052,263.534Z" transform="translate(670.704 -194.203)" fill="#265031" fill-rule="evenodd"/>
    <path id="Path_207" data-name="Path 207" d="M460.111,218.143q0-7.483-.006-14.967c0-.541-.014-.92.751-.916s.83.33.829.954q-.022,14.769-.018,29.539a10.421,10.421,0,0,1-.165,1.673,4.522,4.522,0,0,1-8.905-.1,12.653,12.653,0,0,1-.134-1.776q-.012-14.621,0-29.242c0-.391-.271-.962.527-1.033.77-.068.994.165.99.967-.03,9.648-.018,19.3-.021,28.944a8.583,8.583,0,0,0,.33,2.739,2.9,2.9,0,0,0,5.525-.061,8.462,8.462,0,0,0,.294-2.449Q460.1,225.279,460.111,218.143Z" transform="translate(508.054 -155.857)" fill="#265031" fill-rule="evenodd"/>
    <path id="Path_208" data-name="Path 208" d="M140.733,261.762c-.107-2.22.175-4.273-.177-6.305-.318-1.835-1.321-2.7-2.985-2.67-1.6.03-2.542.909-2.841,2.724a11.907,11.907,0,0,0-.144,2.068c.006.528-.1.773-.7.745-.518-.024-.914-.016-.835-.72.088-.785.042-1.589.17-2.366a4.517,4.517,0,0,1,8.9.113,13.542,13.542,0,0,1,.15,1.97q.019,6.64,0,13.28c-.008,1.847-.078,3.7-.137,5.542-.009.267.176.671-.211.77-.366.092-.985.216-1.115-.055-.275-.567-.509-.262-.805-.142a6.1,6.1,0,0,1-3.3.36,3.891,3.891,0,0,1-3.486-3.734,37.978,37.978,0,0,1,.013-8.6c.466-3.654,3.539-4.242,6.654-3.373a6.728,6.728,0,0,1,.853.393Zm-.055,7.617c0-1.565.043-2.853-.01-4.137-.077-1.826-1.077-2.92-2.645-3-1.953-.1-3.048.669-3.281,2.61a37.422,37.422,0,0,0,0,8.575,2.5,2.5,0,0,0,2.726,2.523,2.7,2.7,0,0,0,3.075-2.417,26.985,26.985,0,0,0,.137-4.156Z" transform="translate(761.008 -194.897)" fill="#265031" fill-rule="evenodd"/>
    <path id="Path_209" data-name="Path 209" d="M395.249,227.714c.093-2.276-.171-5.087.12-7.888.229-2.2,1.211-3.155,3.407-3.4a16.566,16.566,0,0,0,2.73-.448,1.64,1.64,0,0,0,1.239-1.386,22.38,22.38,0,0,0,.159-4.547,29.183,29.183,0,0,0-.165-5.436,2.923,2.923,0,0,0-5.784.029,14.94,14.94,0,0,0-.165,3.357c.014.593-.08.9-.792.885-.647-.014-.766-.268-.756-.833a15.934,15.934,0,0,1,.33-4.131c.574-2.028,1.934-2.986,4.22-3,2.366-.016,3.754.921,4.359,2.952a4.612,4.612,0,0,1,.22,1.062,65.518,65.518,0,0,1-.073,9.991,2.6,2.6,0,0,1-2.081,2.359,27.593,27.593,0,0,1-3.019.522c-1.625.275-2.361,1-2.378,2.641-.052,4.791-.025,9.583-.055,14.374,0,.557.229.648.707.644,2.049-.018,4.1-.012,6.147,0,.4,0,.872-.152.88.573.008.688-.4.622-.838.621-2.512,0-5.023-.024-7.535.014-.688.01-.9-.184-.894-.884C395.273,233.268,395.249,230.756,395.249,227.714Z" transform="translate(553.347 -154.791)" fill="#f2a133" fill-rule="evenodd"/>
    <path id="Path_210" data-name="Path 210" d="M80.867,219.957c0-5.553.018-11.106-.019-16.658-.005-.841.25-1.056,1.061-1.039,2.412.05,4.825.024,7.239.013.477,0,.8.009.8.66s-.337.653-.807.649c-1.981-.013-3.967.017-5.949-.018-.605-.01-.787.165-.782.78q.042,5.7,0,11.4c-.006.676.226.839.856.825,1.619-.037,3.239,0,4.858-.018.485,0,.8.03.8.67,0,.676-.377.639-.83.637-1.586-.008-3.174.039-4.759-.021-.755-.029-.935.205-.93.941.03,6.015,0,12.031.036,18.048,0,.77-.23.926-.946.917-.781-.009-.629-.49-.63-.928q-.006-7.586,0-15.171Z" transform="translate(802.284 -155.856)" fill="#265031" fill-rule="evenodd"/>
    <path id="Path_211" data-name="Path 211" d="M152.654,229.516q13.185,0,26.37.009c.362,0,.9-.252.928.506.026.642-.089.935-.842.928-3.6-.04-7.2-.018-10.805-.018q-21.016,0-42.033-.014c-.364,0-.952.33-1.012-.509-.055-.757.193-.921.926-.919C135.008,229.526,143.831,229.516,152.654,229.516Z" transform="translate(767.123 -177.415)" fill="#265031" fill-rule="evenodd"/>
    <path id="Path_212" data-name="Path 212" d="M194.988,251.822a7.438,7.438,0,0,1,4.313-.671,3.324,3.324,0,0,1,3,2.855,24.786,24.786,0,0,1,.236,4.842c.015.682-.483.473-.835.5-.393.025-.787.089-.782-.556a22.1,22.1,0,0,0-.135-3.957,2.585,2.585,0,0,0-3.034-2.421,2.843,2.843,0,0,0-2.768,2.6,14.887,14.887,0,0,0-.061,1.584q-.006,9.42.009,18.842c0,.66-.055,1.01-.88,1.009-.847,0-.779-.451-.779-1q.008-11.751.011-23.5c0-.436-.245-1.065.625-1.029C194.515,250.925,195.195,250.778,194.988,251.822Z" transform="translate(713.277 -194.373)" fill="#265031" fill-rule="evenodd"/>
    <path id="Path_213" data-name="Path 213" d="M339.167,274.824h7.03c.4,0,.864-.149.869.578,0,.689-.393.62-.833.619-2.935,0-5.87,0-8.942,0,.435-1.254.829-2.4,1.228-3.543,2.27-6.5,4.524-13.012,6.831-19.5.33-.924.058-1.02-.77-1-1.981.049-3.962.007-5.946.022-.508,0-.868.01-.855-.7.012-.66.346-.645.812-.644,2.709.01,5.418.039,8.127-.014.847-.017.805.279.589.894q-3.807,10.819-7.588,21.646C339.538,273.7,339.369,274.222,339.167,274.824Z" transform="translate(599.221 -194.164)" fill="#265031" fill-rule="evenodd"/>
  </g>
</svg>
