<svg xmlns="http://www.w3.org/2000/svg" width="65" height="65" viewBox="0 0 65 65">
  <g id="Fertilizer-application" transform="translate(-314 -197)">
    <circle id="Ellipse_49" data-name="Ellipse 49" cx="32.5" cy="32.5" r="32.5" transform="translate(314 197)" fill="#f2a133"/>
    <g id="fertilizer" transform="translate(285.267 213.212)">
      <g id="Group_553" data-name="Group 553" transform="translate(48.14 0)">
        <g id="Group_552" data-name="Group 552" transform="translate(0 0)">
          <path id="Path_759" data-name="Path 759" d="M72.835,28.388a.99.99,0,0,1-.277-.83l.332-2.45a67.093,67.093,0,0,0,0-18.121l-.332-2.45a1.016,1.016,0,0,1,.313-.864,2.1,2.1,0,0,0,0-2.96l-.04-.04a2.1,2.1,0,0,0-2.96,0,.985.985,0,0,1-.878.272L67.053.581a33.68,33.68,0,0,0-12.46,0l-1.94.364a.993.993,0,0,1-.878-.272,2.1,2.1,0,0,0-2.96,0l-.04.04a2.1,2.1,0,0,0,0,2.96l.03.03a.99.99,0,0,1,.277.836l-.268,1.88A67.05,67.05,0,0,0,48.7,24.575l.388,2.984a1.022,1.022,0,0,1-.319.863,2.093,2.093,0,0,0,0,2.96h0l.04.04a2.1,2.1,0,0,0,2.96,0,.983.983,0,0,1,.878-.272l.658.124a34.005,34.005,0,0,0,14.939-.562l.172-.045a.988.988,0,0,1,.95.255l.5.5a2.1,2.1,0,0,0,2.96,0l.04-.04a2.106,2.106,0,0,0-.02-2.978Zm-.748.817h0a.986.986,0,0,1,0,1.393l-.04.04a1.008,1.008,0,0,1-1.393,0l-.5-.5a2.1,2.1,0,0,0-1.483-.613,2.079,2.079,0,0,0-.535.07l-.172.045a32.909,32.909,0,0,1-14.449.544l-.658-.124a2.088,2.088,0,0,0-1.866.577,1.008,1.008,0,0,1-1.393,0l-.04-.04a.978.978,0,0,1-.29-.7,1.016,1.016,0,0,1,.327-.735,2.106,2.106,0,0,0,.6-1.751L49.8,24.433a65.936,65.936,0,0,1,.111-17.855L50.181,4.7a2.106,2.106,0,0,0-.592-1.776l-.03-.03a.985.985,0,0,1,0-1.393l.04-.04a.986.986,0,0,1,1.393,0,2.088,2.088,0,0,0,1.866.577l1.94-.364a32.6,32.6,0,0,1,12.051,0l1.94.364a2.089,2.089,0,0,0,1.866-.577.986.986,0,0,1,1.393,0l.04.04a.978.978,0,0,1,.289.7,1.011,1.011,0,0,1-.323.73,2.106,2.106,0,0,0-.592,1.763l.332,2.45a65.947,65.947,0,0,1,0,17.821l-.332,2.45A2.128,2.128,0,0,0,72.087,29.206Z" transform="translate(-48.14 0)" fill="#fff"/>
        </g>
      </g>
      <g id="Group_555" data-name="Group 555" transform="translate(52.509 6.074)">
        <g id="Group_554" data-name="Group 554" transform="translate(0)">
          <path id="Path_760" data-name="Path 760" d="M111.222,87.686v19.95h16.625V87.686Zm8.169,7.2a3.368,3.368,0,0,1,.143-3.571,3.368,3.368,0,0,1,.143,3.571Zm7.347,11.637h-6.65v-1.108h.554a3.884,3.884,0,0,0,3.879-3.879v-.554h-1.662a3.866,3.866,0,0,0-2.771,1.17v-1.724h.554a3.884,3.884,0,0,0,3.879-3.879V96h-1.662a3.866,3.866,0,0,0-2.771,1.17v-.958a4.474,4.474,0,0,0-.162-6.146l-.392-.392-.392.392a4.474,4.474,0,0,0-.162,6.146v.958A3.866,3.866,0,0,0,116.209,96h-1.662v.554a3.884,3.884,0,0,0,3.879,3.879h.554v1.724a3.866,3.866,0,0,0-2.771-1.17h-1.662v.554a3.884,3.884,0,0,0,3.879,3.879h.554v1.108h-6.65V88.794h14.408Zm-6.594-2.217a2.776,2.776,0,0,1,2.715-2.217h.5a2.776,2.776,0,0,1-2.715,2.217Zm0-4.987a2.776,2.776,0,0,1,2.715-2.217h.5a2.776,2.776,0,0,1-2.715,2.217Zm-1.219,0h-.5a2.776,2.776,0,0,1-2.715-2.217h.5A2.776,2.776,0,0,1,118.925,99.323Zm0,4.987h-.5a2.776,2.776,0,0,1-2.715-2.217h.5A2.776,2.776,0,0,1,118.925,104.311Z" transform="translate(-111.222 -87.686)" fill="#fff"/>
        </g>
      </g>
    </g>
  </g>
</svg>
