<svg xmlns="http://www.w3.org/2000/svg" width="54" height="54" viewBox="0 0 54 54">
  <g id="First-Bank-Nigeria-Logo" transform="translate(-17.359 -18.359)">
    <rect id="Rectangle_472" data-name="Rectangle 472" width="54" height="54" transform="translate(17.359 18.359)" fill="#162d4c"/>
    <path id="Path_190" data-name="Path 190" d="M438.53,162.028V162h16.527v.029Z" transform="translate(-397.447 -135.679)" fill="#e4b935"/>
    <path id="Path_191" data-name="Path 191" d="M358.832,162.49h16.527c-.125.6-.248,1.2-.375,1.8q-.734,3.446-1.472,6.889-.3,1.4-.6,2.8c-.026.114-.014.154.114.156.454.007.909,0,1.363-.018a2.683,2.683,0,0,1,.664.043c.4.084.508.371.27.7a1.356,1.356,0,0,1-.5.4,4.253,4.253,0,0,1-1.427.394,4.911,4.911,0,0,1-.735.057c-.1,0-.12.044-.136.121q-.227,1.079-.458,2.163l-1.4,6.612c-.028.134-.057.268-.083.4-.014.076-.041.122-.128.106a.373.373,0,0,0-.071,0H354.208c-.2,0-.195,0-.153-.2q1.214-5.718,2.427-11.436.271-1.276.544-2.55a.206.206,0,0,0-.009-.149,4.191,4.191,0,0,1-.369-1.52,10.315,10.315,0,0,1,.544-3.865.838.838,0,0,1,.931-.538c.158.018.2-.026.233-.175.144-.718.3-1.433.454-2.149A.312.312,0,0,1,358.832,162.49Zm5.623,11.756a.6.6,0,0,1,.127,0c.519.118.785-.189,1-.589.024-.046.048-.093.069-.14.146-.332.145-.333-.123-.568a.452.452,0,0,0-.057-.045c-.118-.072-.117-.148-.045-.265a2.15,2.15,0,0,1,2.179-1,.788.788,0,0,1,.392.17c.369.3.751.575,1.14.844a10.466,10.466,0,0,0,1.12.693c.144.075.152.072.139-.083q-.037-.438-.087-.875a3.379,3.379,0,0,0-.691-1.786c-.3-.377-.586-.766-.893-1.139a.287.287,0,0,1-.073-.242c.068-.537.069-.541-.266-.965a19.062,19.062,0,0,0-2.511-2.518.417.417,0,0,0-.179-.078,9.122,9.122,0,0,0-1.891-.26,1.494,1.494,0,0,0-1.017.251,1,1,0,0,1-.823.165c-1.006-.168-2.018-.3-3.028-.448a4.694,4.694,0,0,0-.886-.1.436.436,0,0,0-.467.315,9.915,9.915,0,0,0-.532,3.229,4.9,4.9,0,0,0,.97,2.84,5.7,5.7,0,0,0,2.659,1.908,12.051,12.051,0,0,0,3.777.679Zm-.114,6.97-.139.09c-.492.309-.984.619-1.48.923-.1.061-.1.093-.011.17.8.656,1.587,1.317,2.38,1.976.02.017.038.046.08.026.009-.147.026-.3.023-.448a1.2,1.2,0,0,1,.105-.493c.221-.527.432-1.058.649-1.587a.463.463,0,0,0,.037-.206c-.019-.468-.037-.936-.052-1.4a.46.46,0,0,0-.074-.238c-.5-.812-1-1.626-1.5-2.438a.252.252,0,0,1-.032-.224c.084-.29.16-.583.244-.874a.934.934,0,0,0,.028-.35c-.03-.32-.057-.641-.079-.962-.006-.107-.036-.142-.149-.143a11.327,11.327,0,0,1-2.24-.222,6.983,6.983,0,0,1-4.572-3c-.022-.032-.033-.079-.092-.092-.006.027-.013.053-.019.079q-.735,3.486-1.469,6.973c-.061.29-.061.294.231.324a1.177,1.177,0,0,0,.568.007c.968-.348,1.943-.679,2.914-1.022a.284.284,0,0,1,.3.037q1.934,1.38,3.876,2.75Zm-4.54-2.588V180.7a.848.848,0,0,1-.068.341c-.375.892-.745,1.787-1.121,2.679a.269.269,0,0,0,.01.265c.08.14.15.284.215.431a.17.17,0,0,0,.18.117c.9-.005,1.808,0,2.711,0,.039,0,.084.018.126-.028-.083-.17-.163-.347-.253-.517a.378.378,0,0,1-.039-.27c.222-1.083.437-2.167.662-3.249a.18.18,0,0,0-.085-.22q-1.112-.774-2.22-1.554a.194.194,0,0,0-.124-.06Zm12.5-3.268c.1,0,.208,0,.312,0a6.3,6.3,0,0,0,1.824-.306,1.291,1.291,0,0,0,.491-.274c.067-.064.128-.14.089-.237s-.128-.093-.207-.093c-.189,0-.379-.005-.568.012a7.084,7.084,0,0,1-2.38-.177,10.675,10.675,0,0,1-3.757-1.834,1.028,1.028,0,0,0-.511-.211,1.384,1.384,0,0,0-1.339.507c-.064.081-.065.133.018.207A9.789,9.789,0,0,0,367.69,174a8.721,8.721,0,0,0,4.61,1.362Zm-4.233-.615c.015.1.028.17.036.247a3.764,3.764,0,0,1,.079.73c-.075.763-.237,1.512-.337,2.272a9.744,9.744,0,0,0-.124,1.781,1.474,1.474,0,0,0,.592,1.2,1.149,1.149,0,0,0,1.256.123.178.178,0,0,0,.108-.179,2.761,2.761,0,0,0-.047-.479c-.02-.1-.052-.126-.16-.107a.491.491,0,0,1-.6-.615,5.523,5.523,0,0,1,.341-1c.323-.787.707-1.547,1.043-2.329a2.394,2.394,0,0,0,.156-.688c.009-.077,0-.117-.1-.129a4.06,4.06,0,0,1-.471-.1A7.2,7.2,0,0,1,368.071,174.746Z" transform="translate(-317.749 -136.141)" fill="#dfac0f"/>
    <path id="Path_192" data-name="Path 192" d="M468.84,614.68a2.4,2.4,0,0,1,.487.132,1.244,1.244,0,0,1,.816,1.159,2.547,2.547,0,0,1-1.238,2.3,3.052,3.052,0,0,1-1.748.538c-.828.006-1.656,0-2.484,0-.221,0-.271-.062-.227-.277q.751-3.641,1.5-7.282c.051-.249.114-.3.364-.3h1.6a3.52,3.52,0,0,1,1.44.258,1.362,1.362,0,0,1,.922,1.127,2.14,2.14,0,0,1-.846,1.995A3.362,3.362,0,0,1,468.84,614.68Zm-2.191,3.211v-.009c.175,0,.35.007.524,0a1.537,1.537,0,0,0,1.543-1.351.966.966,0,0,0-.873-1.237,11.249,11.249,0,0,0-1.26-.029c-.069,0-.073.039-.083.086-.047.231-.095.462-.143.693-.118.568-.234,1.136-.356,1.7-.025.114,0,.156.124.148C466.3,617.882,466.474,617.89,466.649,617.89Zm.471-3.545a2.3,2.3,0,0,0,.536-.031,1.609,1.609,0,0,0,1.215-1.42.818.818,0,0,0-.726-.984,5.168,5.168,0,0,0-.719-.051c-.165-.011-.22.039-.252.2-.137.722-.289,1.442-.443,2.162-.024.114.01.127.105.12S467.026,614.346,467.12,614.346Z" transform="translate(-421.877 -559.131)" fill="#fff"/>
    <path id="Path_193" data-name="Path 193" d="M580.981,647.782c.074-.185.143-.341.2-.5a.267.267,0,0,1,.287-.2c.241.005.483,0,.724,0,.179,0,.231.066.2.237l-.8,3.93a.985.985,0,0,0-.027.324c.024.182.085.246.267.27.114.015.161.077.142.184-.032.181-.07.362-.114.541a.227.227,0,0,1-.235.189,2.368,2.368,0,0,1-.676-.066.734.734,0,0,1-.584-.681c-.005-.041-.007-.083-.011-.132-.061.015-.083.066-.114.1a2.688,2.688,0,0,1-2.593.865,1.484,1.484,0,0,1-1.264-1.23,4.058,4.058,0,0,1,.057-1.73,4.628,4.628,0,0,1,.8-1.891,2.665,2.665,0,0,1,2.8-.973A1.455,1.455,0,0,1,580.981,647.782Zm-3.351,3.149a2.259,2.259,0,0,0,.033.382.713.713,0,0,0,.647.649,1.706,1.706,0,0,0,1.812-.859,4.223,4.223,0,0,0,.515-2.179.967.967,0,0,0-.72-1,1.791,1.791,0,0,0-.814-.031,1.284,1.284,0,0,0-.953.809A6.209,6.209,0,0,0,577.63,650.932Z" transform="translate(-527.407 -593.077)" fill="#fff"/>
    <path id="Path_194" data-name="Path 194" d="M803.174,611.8q-.236,1.147-.473,2.29c-.157.763-.313,1.526-.471,2.293.074,0,.1-.057.132-.091.709-.7,1.42-1.4,2.124-2.112a.723.723,0,0,1,.568-.233c.26.01.52,0,.78.005.057,0,.128-.015.153.041s-.044.1-.083.133q-1.306,1.23-2.62,2.455c-.092.086-.092.139-.027.24.543.841,1.079,1.687,1.619,2.531.026.04.051.08.073.121.047.085.021.145-.076.145-.412,0-.824,0-1.235-.005-.123,0-.194-.1-.254-.2q-.613-1.053-1.23-2.1c-.025-.043-.037-.1-.1-.127-.117.568-.232,1.129-.349,1.69-.036.176-.071.352-.111.527s-.106.222-.276.223h-.8c-.236,0-.281-.052-.233-.279.145-.7.293-1.405.438-2.108q.478-2.3.949-4.595a.227.227,0,0,1,.134-.179c.406-.2.809-.409,1.213-.613A.258.258,0,0,1,803.174,611.8Z" transform="translate(-738.646 -559.933)" fill="#fff"/>
    <path id="Path_195" data-name="Path 195" d="M694.106,648.335a4.206,4.206,0,0,1,.677-.714,2.056,2.056,0,0,1,2.368.1,1.592,1.592,0,0,1,.479,1.528c-.128.749-.3,1.491-.446,2.237a1.058,1.058,0,0,0-.018.492c.031.116.081.21.227.209.123,0,.17.075.15.188-.032.181-.069.362-.111.541a.221.221,0,0,1-.227.181,2.181,2.181,0,0,1-.675-.069.963.963,0,0,1-.738-1.079,8.44,8.44,0,0,1,.2-1.13,12.524,12.524,0,0,0,.274-1.533,2.474,2.474,0,0,0,0-.311.743.743,0,0,0-.96-.752,1.262,1.262,0,0,0-.863.568,3.3,3.3,0,0,0-.45,1.228q-.294,1.414-.592,2.828c-.042.2-.11.25-.313.251h-.823c-.174,0-.227-.072-.194-.243q.4-1.943.8-3.886a.876.876,0,0,0,.022-.434.24.24,0,0,0-.227-.2c-.159-.013-.193-.068-.161-.227s.064-.315.1-.472a.242.242,0,0,1,.246-.213,2.167,2.167,0,0,1,.69.067.688.688,0,0,1,.568.687A1.384,1.384,0,0,0,694.106,648.335Z" transform="translate(-636.575 -593.41)" fill="#fff"/>
    <path id="Path_196" data-name="Path 196" d="M106.228,614.057h2.135c.205,0,.254.06.214.261-.032.157-.066.314-.1.471-.045.2-.114.252-.329.252-.653,0-1.306,0-1.959,0-.124,0-.176.024-.2.159-.2,1-.408,2-.613,3-.057.284-.1.323-.4.323h-.809c-.2,0-.246-.063-.206-.255q.358-1.735.717-3.468.392-1.894.781-3.788c.064-.309.106-.346.425-.346l3.692.007c.264,0,.3.048.249.3-.032.148-.062.3-.1.443-.044.183-.108.235-.3.235h-2.556c-.114,0-.161.021-.185.142C106.543,612.539,106.385,613.292,106.228,614.057Z" transform="translate(-81.868 -558.857)" fill="#fff"/>
    <path id="Path_197" data-name="Path 197" d="M310.822,652.717a4.176,4.176,0,0,1-1.32-.227.976.976,0,0,1-.4-.239.237.237,0,0,1-.014-.354c.065-.081.137-.156.206-.234.17-.195.2-.2.454-.114a4.046,4.046,0,0,0,1.088.246,2.219,2.219,0,0,0,.976-.124.8.8,0,0,0,.492-.582.375.375,0,0,0-.187-.46,2.672,2.672,0,0,0-.61-.262c-.242-.078-.483-.163-.729-.227a1.238,1.238,0,0,1-.92-1.654,2.159,2.159,0,0,1,1.864-1.669,3.564,3.564,0,0,1,1.975.223,1.182,1.182,0,0,1,.348.214.187.187,0,0,1,.023.3c-.114.135-.232.262-.345.4a.16.16,0,0,1-.191.041c-.277-.079-.541-.2-.825-.252a2.132,2.132,0,0,0-.969.015.833.833,0,0,0-.586.568.435.435,0,0,0,.315.617c.378.119.758.231,1.136.346a2.422,2.422,0,0,1,.547.227.979.979,0,0,1,.5.841,2.1,2.1,0,0,1-1.449,2.139A3.622,3.622,0,0,1,310.822,652.717Z" transform="translate(-275.29 -592.915)" fill="#fff"/>
    <path id="Path_198" data-name="Path 198" d="M412.032,621.64h-.523c-.2,0-.247-.053-.208-.246.028-.139.057-.278.09-.415a.233.233,0,0,1,.244-.195c.156,0,.313-.009.469,0,.1.007.136-.032.153-.129.043-.256.1-.511.148-.765.009-.047.013-.089.065-.114.467-.235.934-.473,1.415-.716a1.439,1.439,0,0,1-.061.41c-.074.4-.156.788-.24,1.181-.022.1-.007.142.111.136.193-.01.388,0,.582,0,.157,0,.206.06.178.215s-.061.3-.1.442a.241.241,0,0,1-.269.2h-.611c-.073,0-.11.016-.126.094q-.316,1.585-.638,3.167a.708.708,0,0,0,.018.365.406.406,0,0,0,.394.27c.375.01.379.013.307.383-.022.114-.047.231-.074.346a.219.219,0,0,1-.22.187,4.553,4.553,0,0,1-.909-.026.98.98,0,0,1-.893-1.061,5.376,5.376,0,0,1,.179-1.16c.17-.842.346-1.684.518-2.526A.157.157,0,0,0,412.032,621.64Z" transform="translate(-371.752 -566.781)" fill="#fff"/>
    <path id="Path_199" data-name="Path 199" d="M249.957,648.459a2.628,2.628,0,0,1,.175-.2,2.034,2.034,0,0,1,1.512-.526c.114,0,.163.036.132.164-.061.252-.108.508-.163.762-.048.227-.123.265-.349.237a1.176,1.176,0,0,0-1.406.965c-.252,1.119-.494,2.241-.738,3.361-.057.268-.107.308-.384.308h-.752c-.2,0-.244-.063-.2-.256q.419-1.946.838-3.891a1.353,1.353,0,0,0,.044-.35.267.267,0,0,0-.266-.3.151.151,0,0,1-.145-.2c.032-.17.065-.341.1-.511a.236.236,0,0,1,.239-.2,2.8,2.8,0,0,1,.871.087.575.575,0,0,1,.45.538Z" transform="translate(-217.52 -593.822)" fill="#fff"/>
    <path id="Path_200" data-name="Path 200" d="M198.824,654.714a6.588,6.588,0,0,1,.213-1.184c.231-1.079.469-2.158.7-3.237.043-.2.114-.252.312-.253h.8c.2,0,.248.057.206.249q-.419,1.939-.84,3.877a1.561,1.561,0,0,0-.041.479c.017.181.081.25.256.276a.14.14,0,0,1,.135.177c-.033.186-.07.371-.114.555a.217.217,0,0,1-.216.17,1.953,1.953,0,0,1-.835-.127A.939.939,0,0,1,198.824,654.714Z" transform="translate(-171.354 -596.001)" fill="#fff"/>
    <path id="Path_201" data-name="Path 201" d="M523.463,789.982a.719.719,0,0,1,.114,1.211,1.3,1.3,0,0,1-1.316.19.5.5,0,0,1-.284-.458.876.876,0,0,1,.438-.82,2.374,2.374,0,0,1,.223-.114c0-.011,0-.024,0-.026-.4-.209-.314-.592-.1-.893a.752.752,0,0,1,.432-.279,1.357,1.357,0,0,1,.591-.023.464.464,0,0,1,.42.312.664.664,0,0,1-.122.637A1.1,1.1,0,0,1,523.463,789.982Zm-1,.8a.328.328,0,0,0,.276.341.57.57,0,0,0,.645-.682.331.331,0,0,0-.324-.265A.6.6,0,0,0,522.46,790.783Zm.785-1.686a.413.413,0,0,0-.416.411.284.284,0,0,0,.272.3.483.483,0,0,0,.431-.449A.259.259,0,0,0,523.245,789.1Z" transform="translate(-476.152 -726.832)" fill="#fff"/>
    <path id="Path_202" data-name="Path 202" d="M563.175,789.292a.578.578,0,0,0-.477-.516,1.056,1.056,0,0,0-.531.042,1.1,1.1,0,0,0-.713,1.046c-.048.507.246.768.754.709a.814.814,0,0,0,.461-.255,1.048,1.048,0,0,1-.153.466.609.609,0,0,1-.678.349,1.617,1.617,0,0,1-.3-.065c-.17-.064-.174.086-.223.164-.06.1.045.118.1.145a1.011,1.011,0,0,0,1.306-.293A2.357,2.357,0,0,0,563.175,789.292Zm-.407.252a1.252,1.252,0,0,1-.152.454.416.416,0,0,1-.394.227c-.227-.006-.327-.107-.321-.367a1.2,1.2,0,0,1,.118-.444.514.514,0,0,1,.2-.231.383.383,0,0,1,.415-.031A.358.358,0,0,1,562.768,789.543Z" transform="translate(-513.237 -726.842)" fill="#fff"/>
    <path id="Path_203" data-name="Path 203" d="M598.064,791.555h-1.005c-.139,0-.166-.044-.1-.17a.607.607,0,0,1,.092-.124c.46-.527.926-1.048,1.377-1.582a.464.464,0,0,1,.448-.132c.092,0,.057.081.046.131q-.12.589-.243,1.178a2.383,2.383,0,0,1-.057.263c-.032.1.012.106.094.11.064,0,.178-.057.175.085,0,.193-.046.255-.19.239s-.195.042-.2.17a1.223,1.223,0,0,1-.028.139c-.071.348-.071.345-.426.325-.088-.005-.1-.04-.088-.114C597.99,791.907,598.025,791.74,598.064,791.555Zm.266-1.3-.809.966h.541a.076.076,0,0,0,.086-.072c.057-.284.115-.569.182-.895Z" transform="translate(-546.845 -727.579)" fill="#fff"/>
    <path id="Path_204" data-name="Path 204" d="M319.346,791.326a1.674,1.674,0,0,1-.632-.125c-.05-.022-.148-.035-.1-.114s.053-.232.213-.194a2.49,2.49,0,0,0,.672.083.746.746,0,0,0,.341-.091.314.314,0,0,0,.013-.583,3.4,3.4,0,0,0-.4-.179.687.687,0,0,1-.22-1.212,1.237,1.237,0,0,1,1.245-.253c.041.011.081.026.121.039.216.074.22.09.1.277a.113.113,0,0,1-.151.057,1.8,1.8,0,0,0-.686-.075.5.5,0,0,0-.389.231.284.284,0,0,0,.122.447c.131.064.27.114.4.17a.714.714,0,0,1,.164,1.278A1.319,1.319,0,0,1,319.346,791.326Z" transform="translate(-284.327 -726.687)" fill="#fff"/>
    <path id="Path_205" data-name="Path 205" d="M379.507,801.848a.861.861,0,0,1,.428-.318.58.58,0,0,1,.743.725c-.048.236-.1.471-.144.707-.016.084-.026.16.088.206.089.036.012.124.009.189a.1.1,0,0,1-.1.11.377.377,0,0,1-.45-.473c.041-.232.091-.463.136-.695a.683.683,0,0,0,.015-.114c0-.135,0-.271-.143-.341a.391.391,0,0,0-.425.114.937.937,0,0,0-.195.449c-.066.314-.134.628-.2.943a.124.124,0,0,1-.142.119c-.332.008-.332.011-.265-.315q.111-.541.22-1.082c.018-.088.043-.181-.087-.214-.057-.015-.044-.069-.03-.106.026-.065-.006-.16.094-.188a.345.345,0,0,1,.446.284Z" transform="translate(-341.137 -738.868)" fill="#fff"/>
    <path id="Path_206" data-name="Path 206" d="M450.162,802.756c-.123,0-.247.006-.369,0-.091-.006-.114.033-.114.114-.012.3.149.457.445.421a1.852,1.852,0,0,0,.358-.082c.09-.03.124,0,.16.077a.117.117,0,0,1-.057.174,1.345,1.345,0,0,1-.756.137.6.6,0,0,1-.6-.741,1.9,1.9,0,0,1,.187-.693.957.957,0,0,1,1.092-.54.516.516,0,0,1,.445.511,1.054,1.054,0,0,1-.017.254.391.391,0,0,1-.449.372h-.326Zm-.407-.311h.606a.124.124,0,0,0,.119-.057.408.408,0,0,0-.057-.412.286.286,0,0,0-.354-.018A.76.76,0,0,0,449.755,802.445Z" transform="translate(-407.535 -738.954)" fill="#fff"/>
    <path id="Path_207" data-name="Path 207" d="M220.533,611.975c.151,0,.3,0,.454,0s.191.067.165.2q-.089.444-.187.885a.242.242,0,0,1-.273.215h-.852c-.177,0-.227-.07-.189-.243.057-.276.118-.553.18-.829a.245.245,0,0,1,.275-.227h.425Z" transform="translate(-190.988 -560.096)" fill="#fff"/>
    <path id="Path_208" data-name="Path 208" d="M499.4,789.625c-.153.064-.291.121-.429.176-.034.014-.084.038-.1.024-.041-.026-.009-.078-.006-.119a.3.3,0,0,1,.227-.287c.26-.1.511-.219.768-.328.037-.016.079-.057.114-.033s.005.079,0,.118c-.163.8-.329,1.6-.49,2.4a.153.153,0,0,1-.181.144c-.323,0-.321,0-.254-.315.118-.559.233-1.119.349-1.678C499.4,789.7,499.4,789.672,499.4,789.625Z" transform="translate(-454.339 -727.116)" fill="#fff"/>
    <path id="Path_209" data-name="Path 209" d="M417.9,802.73a1.8,1.8,0,0,1,.183-.752,1.024,1.024,0,0,1,1.351-.473c.061.031.175.047.135.16a.191.191,0,0,1-.268.128.588.588,0,0,0-.858.415,1.513,1.513,0,0,0-.084.557.334.334,0,0,0,.4.341,1.418,1.418,0,0,0,.328-.084c.057-.019.108-.037.137.042s.07.122-.008.189a1.086,1.086,0,0,1-1.1.023A.616.616,0,0,1,417.9,802.73Z" transform="translate(-377.992 -738.771)" fill="#fff"/>
    <path id="Path_210" data-name="Path 210" d="M358.61,803.774c.052-.261.114-.568.178-.88.033-.162.072-.323.1-.485a.124.124,0,0,1,.141-.119c.336-.01.334-.013.267.311-.074.361-.148.721-.219,1.082-.017.087-.034.17.089.218.086.033.013.114.01.177s-.02.109-.092.123A.393.393,0,0,1,358.61,803.774Z" transform="translate(-322.066 -739.601)" fill="#fff"/>
    <path id="Path_211" data-name="Path 211" d="M366.169,788.066h.143c.042,0,.08.018.072.066-.019.106-.043.211-.069.316-.01.04-.047.053-.086.061-.335.06-.374.013-.305-.316C365.957,788.015,366.085,788.082,366.169,788.066Z" transform="translate(-328.936 -726.188)" fill="#fff"/>
    <path id="Path_212" data-name="Path 212" d="M414.416,220.4a12.018,12.018,0,0,1-3.779-.682,5.687,5.687,0,0,1-2.659-1.908,4.9,4.9,0,0,1-.97-2.84,9.976,9.976,0,0,1,.532-3.229.436.436,0,0,1,.467-.315,4.648,4.648,0,0,1,.886.1c1.01.143,2.022.281,3.028.448a1,1,0,0,0,.823-.165,1.494,1.494,0,0,1,1.017-.251,9.12,9.12,0,0,1,1.892.264.417.417,0,0,1,.179.078,19.167,19.167,0,0,1,2.511,2.518c.335.424.334.427.266.965a.287.287,0,0,0,.073.242c.307.373.592.762.893,1.139a3.379,3.379,0,0,1,.691,1.786q.049.437.087.875c.013.154.005.158-.139.083a10.466,10.466,0,0,1-1.12-.693c-.39-.269-.771-.548-1.14-.844a.788.788,0,0,0-.392-.17,2.15,2.15,0,0,0-2.179,1c-.072.117-.073.194.045.265a.452.452,0,0,1,.057.045c.269.233.269.233.123.568-.02.047-.045.094-.069.14-.21.4-.476.707-1,.589A.6.6,0,0,0,414.416,220.4Zm1.377-4.953-.767-.861c-.064-.072-.1,0-.137.031q-.583.508-1.163,1.019c-.033.029-.082.048-.089.111Z" transform="translate(-367.713 -182.297)" fill="#162d4c"/>
    <path id="Path_213" data-name="Path 213" d="M396.014,334.57l-.478-.341q-1.939-1.373-3.876-2.748a.284.284,0,0,0-.3-.037c-.971.341-1.946.672-2.914,1.022a1.176,1.176,0,0,1-.568-.007c-.292-.031-.292-.034-.231-.324q.733-3.489,1.466-6.976c.006-.026.013-.052.019-.079.057.013.07.06.092.092a6.975,6.975,0,0,0,4.572,3,11.326,11.326,0,0,0,2.24.222c.114,0,.143.036.149.143.02.321.049.641.079.962a.932.932,0,0,1-.028.35c-.083.291-.16.583-.244.874a.252.252,0,0,0,.032.224c.5.812,1,1.625,1.5,2.438a.459.459,0,0,1,.074.238c.014.468.032.936.052,1.4a.466.466,0,0,1-.037.206c-.217.529-.428,1.06-.649,1.587a1.2,1.2,0,0,0-.105.493c0,.151-.015.3-.023.448-.042.02-.06-.009-.08-.026-.8-.659-1.585-1.32-2.38-1.976-.093-.077-.089-.108.011-.17.5-.3.987-.615,1.479-.924C395.915,334.636,395.954,334.61,396.014,334.57Z" transform="translate(-349.426 -289.497)" fill="#162d4c"/>
    <path id="Path_214" data-name="Path 214" d="M435.3,446.61a.194.194,0,0,1,.122.06l2.22,1.552a.179.179,0,0,1,.085.22c-.227,1.079-.441,2.166-.662,3.249a.377.377,0,0,0,.039.27c.09.17.17.346.253.517-.042.046-.087.028-.126.028q-1.355,0-2.711,0a.17.17,0,0,1-.18-.117c-.065-.147-.136-.291-.215-.431a.269.269,0,0,1-.01-.265c.376-.892.746-1.787,1.121-2.679a.849.849,0,0,0,.068-.341C435.3,447.991,435.3,447.305,435.3,446.61Z" transform="translate(-393.251 -404.125)" fill="#162d4c"/>
    <path id="Path_215" data-name="Path 215" d="M574.5,337.057a8.743,8.743,0,0,1-4.613-1.363,9.784,9.784,0,0,1-1.414-1.042c-.083-.074-.082-.126-.018-.207a1.385,1.385,0,0,1,1.339-.507,1.028,1.028,0,0,1,.511.211,10.675,10.675,0,0,0,3.757,1.834,7.084,7.084,0,0,0,2.377.174c.188-.017.378-.014.568-.012.078,0,.17.007.207.093s-.022.17-.089.237a1.29,1.29,0,0,1-.491.274,6.3,6.3,0,0,1-1.824.306C574.7,337.061,574.6,337.057,574.5,337.057Z" transform="translate(-519.946 -297.84)" fill="#162d4c"/>
    <path id="Path_216" data-name="Path 216" d="M595.345,378.29a7.2,7.2,0,0,0,1.777.731,4.071,4.071,0,0,0,.471.1c.094.012.106.052.1.129a2.391,2.391,0,0,1-.156.688c-.336.781-.72,1.541-1.043,2.329a5.275,5.275,0,0,0-.341,1,.491.491,0,0,0,.6.615c.108-.019.14.007.16.107a2.776,2.776,0,0,1,.047.479.178.178,0,0,1-.108.18,1.149,1.149,0,0,1-1.256-.123,1.47,1.47,0,0,1-.592-1.2,9.747,9.747,0,0,1,.125-1.78c.1-.759.262-1.508.337-2.272a3.849,3.849,0,0,0-.079-.73C595.374,378.463,595.36,378.387,595.345,378.29Z" transform="translate(-545.023 -339.685)" fill="#162d4c"/>
    <path id="Path_217" data-name="Path 217" d="M525.878,267.42l-2.158.3c.007-.062.057-.082.089-.111q.58-.511,1.163-1.019c.038-.032.073-.1.137-.031Z" transform="translate(-477.799 -234.27)" fill="#dcaa10"/>
  </g>
</svg>
