<svg xmlns="http://www.w3.org/2000/svg" width="30.576" height="28" viewBox="0 0 30.576 28"><defs><style>.a{fill:#e5912e;}.b{fill:#f2a133;}.c{fill:#265031;}.d{fill:#459658;}.e{fill:#3a8949;}.f{fill:#fce9cc;}</style></defs><g transform="translate(-1091.456 -605.781)"><path class="a" d="M1103.083,742.98l-2.156,12.214h-9.217v-.63l7.474-11.583Z" transform="translate(-0.224 -121.413)"/><path class="a" d="M1097.238,742.978l-5.524,5.524v-5.524Z" transform="translate(-0.227 -121.238)"/><path class="a" d="M1278.69,742.978V753.05l-10.073-10.073Z" transform="translate(-156.658 -121.41)"/><path class="b" d="M1174.965,742.98l2.156,12.214h-8.212l2.156-12.214Z" transform="translate(-68.467 -121.413)"/><path class="b" d="M1097.234,742.98h1.95l-7.474,11.583V748.5Z" transform="translate(-0.224 -121.413)"/><path class="b" d="M1264.282,753.022v2.172h-4.112l-7.88-12.214h1.95Z" transform="translate(-142.28 -121.413)"/><path class="a" d="M1231.409,755.194h-9.623l-2.156-12.214h3.9Z" transform="translate(-113.52 -121.413)"/><path class="c" d="M1117.425,622.161h-25.969v-7.166l4.994-6.142,7.991-3.071,7.99,3.071,4.994,6.142Z"/><path class="d" d="M1168.628,691.529h4.1v6.143h-4.1Z" transform="translate(-68.179 -75.781)"/><path class="d" d="M1319.006,693.832v3.839H1314.4v-6.142Z" transform="translate(-196.975 -75.781)"/><path class="e" d="M1202.928,691.529h4.095v6.143h-4.095Z" transform="translate(-98.481 -75.781)"/><path class="f" d="M1194.353,640.08h2.047v2.048h-2.047Z" transform="translate(-90.885 -30.204)"/></g></svg>