<svg xmlns="http://www.w3.org/2000/svg" width="24" height="27.091" viewBox="0 0 24 27.091"><defs><style>.a{fill:#fff;}</style></defs><g transform="translate(-25.21 5)"><g transform="translate(29.21 0)"><path class="a" d="M47.41,6.249a6.674,6.674,0,0,0-4.739,1,7.031,7.031,0,0,1,1.967-2.495,8.6,8.6,0,0,1,2.073-1.28.808.808,0,0,0-.583-1.507,10.184,10.184,0,0,0-3.709,2.7,5.5,5.5,0,0,0-.254-.878A7.67,7.67,0,0,0,38.533.075.808.808,0,0,0,37.45.49a7.67,7.67,0,0,0-.211,5.2,5.419,5.419,0,0,0,.291.632,6.7,6.7,0,0,0-2.52-.069,7.028,7.028,0,0,0-5.717,8.041A30.409,30.409,0,0,0,31.1,21.251a10.729,10.729,0,0,0,3.338,4.69,5.8,5.8,0,0,0,3.488,1.15A6.751,6.751,0,0,0,39,27a4.852,4.852,0,0,0,2.208-.922A4.852,4.852,0,0,0,43.418,27a5.892,5.892,0,0,0,4.563-1.061,10.728,10.728,0,0,0,3.338-4.69,30.411,30.411,0,0,0,1.808-6.961A7.028,7.028,0,0,0,47.41,6.249ZM38.661,2.021a5.373,5.373,0,0,1,2,2.353,5.4,5.4,0,0,1,.087,3.086,5.373,5.373,0,0,1-2-2.353A5.4,5.4,0,0,1,38.661,2.021ZM51.53,14.046c-.821,5.381-2.377,9.042-4.5,10.59a4.274,4.274,0,0,1-3.355.772,3.117,3.117,0,0,1-1.872-.965.808.808,0,0,0-1.187,0,3.117,3.117,0,0,1-1.872.965,4.275,4.275,0,0,1-3.355-.772c-2.123-1.547-3.679-5.209-4.5-10.59a5.408,5.408,0,0,1,4.378-6.2,5.16,5.16,0,0,1,.823-.066A5.1,5.1,0,0,1,39.2,8.843a3.313,3.313,0,0,0,4.015,0,5.09,5.09,0,0,1,3.935-1h0A5.408,5.408,0,0,1,51.53,14.046Z" transform="translate(-33.21 -5)"/></g></g></svg>