<svg xmlns="http://www.w3.org/2000/svg" width="30.544" height="28" viewBox="0 0 30.544 28"><defs><style>.a{fill:#265031;}.b{fill:#a2a097;opacity:0.46;mix-blend-mode:multiply;isolation:isolate;}.c{fill:#f2a133;}.d{fill:#e5912e;}.e{fill:#fff;}.f{fill:#459658;}.g{fill:#71aa7b;}.h{fill:#cdcccc;}</style></defs><g transform="translate(-1762.43 -1078.689)"><path class="a" d="M1784.2,1202.832h5.091v-10.181h5.091v10.181h15.272V1187.56H1784.2Z" transform="translate(-19.227 -96.144)"/><path class="b" d="M1784.2,1187.56v2.545l12.727,12.727h12.727V1187.56Z" transform="translate(-19.227 -96.143)"/><rect class="c" width="7.636" height="10.181" transform="translate(1767.52 1096.506)"/><g transform="translate(1767.52 1096.506)"><path class="d" d="M1805.975,1231.105l7.636,7.636v-7.636Z" transform="translate(-1805.975 -1231.104)"/><rect class="d" width="10.181" height="7.636" transform="translate(10.181 0)"/></g><path class="e" d="M1762.43,1187.56h0Z" transform="translate(0 -96.144)"/><rect class="f" width="25.454" height="2.545" transform="translate(1764.975 1078.689)"/><path class="c" d="M1893.065,1231.105v2.545l5.091,5.091h5.091l-2.546-2.545-5.091-5.091Z" transform="translate(-115.364 -134.598)"/><path class="g" d="M1770.066,1111.355h-5.091l-2.545,8.909h6.109Z" transform="translate(0 -28.848)"/><path class="e" d="M1821.3,1111.355h-5.091l-1.527,8.909h6.109Z" transform="translate(-46.145 -28.848)"/><path class="g" d="M1872.538,1111.355h-5.091l-.509,8.909h6.109Z" transform="translate(-92.291 -28.848)"/><path class="e" d="M1919.929,1111.355h-5.091l.509,8.909h6.109Z" transform="translate(-134.591 -28.848)"/><path class="g" d="M1963.474,1111.355h-5.091l1.527,8.909h6.109Z" transform="translate(-173.046 -28.848)"/><g transform="translate(1762.43 1091.417)"><path class="f" d="M1768.539,1188.833a3.054,3.054,0,1,1-6.109,0v-1.273h6.109Z" transform="translate(-1762.43 -1187.56)"/><path class="f" d="M1873.047,1188.833a3.054,3.054,0,1,1-6.109,0v-1.273h6.109Z" transform="translate(-1854.72 -1187.56)"/><path class="f" d="M1977.556,1188.833a3.055,3.055,0,0,1-6.109,0v-1.273h6.109v1.273Z" transform="translate(-1947.012 -1187.56)"/></g><g transform="translate(1768.538 1091.417)"><path class="h" d="M1820.793,1188.833a3.054,3.054,0,1,1-6.109,0v-1.273h6.109Z" transform="translate(-1814.684 -1187.56)"/><path class="h" d="M1925.3,1188.833a3.054,3.054,0,1,1-6.109,0v-1.273h6.109v1.273Z" transform="translate(-1906.975 -1187.56)"/></g><rect class="e" width="25.454" height="1.273" transform="translate(1764.975 1081.234)"/></g></svg>