<svg xmlns="http://www.w3.org/2000/svg" width="30.545" height="28" viewBox="0 0 30.545 28"><defs><style>.a{fill:#5b5b5b;}.b{fill:#acacac;opacity:0.46;mix-blend-mode:multiply;isolation:isolate;}.c{fill:#929292;}.d{fill:#888;}.e{fill:#fff;}.f{fill:#6d6d6d;}.g{fill:#8d8d8d;}.h{fill:#cdcccc;}</style></defs><g transform="translate(-2037.637 -1078.689)"><path class="a" d="M2059.41,1202.832h5.091v-10.182h5.091v10.182h15.272V1187.56H2059.41Z" transform="translate(-19.228 -96.144)"/><path class="b" d="M2059.41,1187.56v2.546l12.727,12.727h12.727V1187.56Z" transform="translate(-19.228 -96.143)"/><rect class="c" width="7.636" height="10.181" transform="translate(2042.728 1096.506)"/><g transform="translate(2042.728 1096.506)"><g transform="translate(0 0)"><path class="d" d="M2081.183,1231.105l7.636,7.636v-7.636Z" transform="translate(-2081.183 -1231.104)"/><rect class="d" width="10.181" height="7.636" transform="translate(10.181)"/></g></g><path class="e" d="M2037.637,1187.56h0Z" transform="translate(0 -96.144)"/><rect class="f" width="25.454" height="2.545" transform="translate(2040.182 1078.689)"/><path class="c" d="M2168.273,1231.105v2.545l5.091,5.091h5.091l-2.545-2.546-5.091-5.091Z" transform="translate(-115.364 -134.598)"/><path class="g" d="M2045.273,1111.355h-5.091l-2.545,8.909h6.109Z" transform="translate(0 -28.848)"/><path class="e" d="M2096.51,1111.355h-5.091l-1.527,8.909H2096Z" transform="translate(-46.146 -28.848)"/><path class="g" d="M2147.746,1111.355h-5.091l-.509,8.909h6.109Z" transform="translate(-92.291 -28.848)"/><path class="e" d="M2195.137,1111.355h-5.091l.509,8.909h6.109Z" transform="translate(-134.592 -28.848)"/><path class="g" d="M2238.682,1111.355h-5.091l1.527,8.909h6.109Z" transform="translate(-173.046 -28.848)"/><g transform="translate(2037.637 1091.417)"><g transform="translate(0 0)"><path class="f" d="M2043.746,1188.833a3.055,3.055,0,0,1-6.109,0v-1.273h6.109Z" transform="translate(-2037.637 -1187.56)"/><path class="f" d="M2148.255,1188.833a3.054,3.054,0,1,1-6.109,0v-1.273h6.109Z" transform="translate(-2129.928 -1187.56)"/><path class="f" d="M2252.764,1188.833a3.054,3.054,0,1,1-6.109,0v-1.273h6.109v1.273Z" transform="translate(-2222.219 -1187.56)"/></g></g><g transform="translate(2043.746 1091.417)"><path class="h" d="M2096,1188.833a3.054,3.054,0,1,1-6.109,0v-1.273H2096Z" transform="translate(-2089.892 -1187.56)"/><path class="h" d="M2200.51,1188.833a3.054,3.054,0,1,1-6.109,0v-1.273h6.109v1.273Z" transform="translate(-2182.183 -1187.56)"/></g><rect class="e" width="25.454" height="1.273" transform="translate(2040.182 1081.234)"/></g></svg>