<svg xmlns="http://www.w3.org/2000/svg" width="323.915" height="389.272" viewBox="0 0 323.915 389.272"><defs><style>.a{fill:#e6e7e8;}.b{fill:#f2f2f2;}.c{fill:#fff;}.d{fill:#298525;}.e{fill:#39302a;}.f{fill:#f2a133;}.g{fill:#d3d3d3;}.h{fill:#515151;}.i{fill:#c6cacf;}.j{fill:#d0dae5;}.k{fill:#434c4f;}.l{fill:#e7edf6;}.m{fill:#a5a5a5;}.n{fill:#f79673;}.o{fill:#94ae23;}.p{fill:#acc411;}.q{fill:#8e4291;}.r{fill:#9d559c;}.s{fill:#c1c1c1;}</style></defs><g transform="translate(-46.968 18.168)"><g transform="translate(52.938 30.852)"><rect class="a" width="194.778" height="340.058" rx="24.048"/></g><g transform="translate(58.192 36.976)"><rect class="b" width="183.793" height="327.652" rx="13.941"/></g><g transform="translate(58.192 88.725)"><rect class="c" width="183.793" height="144.496"/></g><g transform="translate(76.867 292.107)"><rect class="c" width="39.516" height="31.067"/></g><g transform="translate(131.016 292.107)"><rect class="c" width="39.515" height="31.067"/></g><g transform="translate(90.259 335.372)"><rect class="d" width="121.028" height="15.533"/></g><g transform="translate(185.164 292.107)"><rect class="c" width="39.516" height="31.067"/></g><g transform="translate(103.909 35.607)"><path class="e" d="M.418,0h92a.419.419,0,0,1,.419.419v0a10.6,10.6,0,0,1-10.6,10.6H10.6A10.6,10.6,0,0,1,0,.418v0A.418.418,0,0,1,.418,0Z"/></g><g transform="translate(46.968 -18.168)"><path class="f" d="M235.723-18.168H212.046L179.759,35.644h0v9.144a17.944,17.944,0,1,0,35.883,0V35.644h.17Z" transform="translate(-179.759 18.168)"/><path class="d" d="M235.723-18.168H212.046L179.759,35.644h0v9.144a17.944,17.944,0,1,0,35.883,0V35.644h.17Z" transform="translate(-179.759 18.168)"/><g transform="translate(35.883)"><path class="g" d="M294.363-18.168,274.452,35.644h-.17v5.273a22.479,22.479,0,0,0,44.955-.385v-6.77l8.309-51.93Z" transform="translate(-274.282 18.168)"/></g><g transform="translate(117.787)"><path class="g" d="M523-18.168H490.031l7.908,49.428v9.272a22.482,22.482,0,1,0,44.965,0V35.644h0Z" transform="translate(-490.031 18.168)"/></g><g transform="translate(150.753)"><path class="d" d="M632.834,35.644,600.547-18.168H576.87l19.911,53.812v9.144a18.028,18.028,0,1,0,36.054,0V35.644Z" transform="translate(-576.87 18.168)"/></g><g transform="translate(80.144)"><path class="d" d="M437.3,35.644l-8.828-53.812H399.7l-8.828,53.812h0v9.143c0,10.067,10.393,18.227,23.215,18.227S437.3,54.854,437.3,44.787V35.644h0Z" transform="translate(-390.872 18.168)"/></g></g><g transform="translate(76.944 72.882)"><rect class="h" width="9.978" height="1.28"/><g transform="translate(0 2.884)"><rect class="h" width="9.978" height="1.28"/></g><g transform="translate(0 5.768)"><rect class="h" width="9.978" height="1.28"/></g></g><g transform="translate(88.816 244.528)"><rect class="i" width="117.385" height="0.569"/></g><g transform="translate(88.816 252.152)"><rect class="i" width="117.385" height="0.569"/></g><g transform="translate(98.175 259.777)"><rect class="i" width="98.669" height="0.569"/></g><g transform="translate(229.069 159.986)"><path class="j" d="M660.466,458.291l-1.018-1,2.636-2.672-2.615-2.449.977-1.043,3.686,3.451Z" transform="translate(-659.448 -451.122)"/></g><g transform="translate(65.9 159.986)"><path class="j" d="M233.3,458.29l-3.664-3.717,3.685-3.451.977,1.043-2.614,2.449,2.635,2.673Z" transform="translate(-229.631 -451.122)"/></g><g transform="translate(76.944 272.491)"><path class="d" d="M262.183,747.482,263,750h2.645l-2.14,1.555.817,2.515-2.14-1.555-2.14,1.555.817-2.515L258.721,750h2.645Z" transform="translate(-258.721 -747.482)"/><g transform="translate(11.89)"><path class="d" d="M293.5,747.482l.817,2.515h2.645l-2.14,1.555.817,2.515-2.14-1.555-2.14,1.555.817-2.515L290.043,750h2.645Z" transform="translate(-290.043 -747.482)"/></g><g transform="translate(23.781)"><path class="d" d="M324.826,747.482l.817,2.515h2.645l-2.14,1.555.817,2.515-2.14-1.555-2.14,1.555.817-2.515L321.364,750h2.645Z" transform="translate(-321.364 -747.482)"/></g><g transform="translate(35.671)"><path class="d" d="M356.148,747.482l.817,2.515h2.645l-2.14,1.555.817,2.515-2.14-1.555-2.14,1.555.817-2.515L352.686,750h2.645Z" transform="translate(-352.686 -747.482)"/></g><g transform="translate(47.562)"><path class="i" d="M387.47,747.482l.817,2.515h2.645l-2.14,1.555.817,2.515-2.14-1.555-2.14,1.555.817-2.515L384.007,750h2.645Z" transform="translate(-384.007 -747.482)"/></g></g><g transform="translate(96.514 337.421)"><rect class="c" width="13.197" height="11.434"/></g><g transform="translate(131.43 342.771)"><rect class="c" width="72.177" height="0.734"/></g><path class="c" d="M384.859,929.268h-2.046v-2.046h-.734v2.046h-2.046V930h2.046v2.046h.734V930h2.046Z" transform="translate(-257.036 -586.497)"/><g transform="translate(220.438 230.304)"><g transform="translate(127.152 3.074)"><path class="k" d="M976.2,668.548l3.793-17.18,4.685-2.454-1.339-4.462-7.14,4.016-4.546,20.312" transform="translate(-971.654 -644.452)"/></g><g transform="translate(138.838)"><path class="d" d="M1002.437,639.428l8.477-2.943a2.356,2.356,0,0,1,3,1.46h0a2.357,2.357,0,0,1-1.47,3l-8.67,2.949Z" transform="translate(-1002.437 -636.354)"/></g><g transform="translate(99.57 110.169)"><g transform="translate(2.276 0)"><g transform="translate(0)"><rect class="e" width="3.421" height="4.462" transform="translate(3.421 4.462) rotate(180)"/></g></g><g transform="translate(0 7.285)"><circle class="d" cx="11.156" cy="11.156" r="11.156"/></g><g transform="translate(3.258 10.544)"><circle class="l" cx="7.897" cy="7.897" r="7.897"/></g><g transform="translate(8.058 15.343)"><path class="e" d="M920.223,970.075a3.1,3.1,0,1,0,3.1-3.1A3.1,3.1,0,0,0,920.223,970.075Z" transform="translate(-920.223 -966.977)"/></g><g transform="translate(0.238 4.462)"><path class="k" d="M900.592,938.314h8.587a1.363,1.363,0,0,1,1.363,1.363v10.216a1.363,1.363,0,0,1-2.448.826l-8.271-10.855A.965.965,0,0,1,900.592,938.314Z" transform="translate(-899.625 -938.314)"/></g></g><g transform="translate(26.043 110.169)"><g transform="translate(2.276 0)"><g transform="translate(0)"><rect class="e" width="3.421" height="4.462" transform="translate(3.421 4.462) rotate(180)"/></g></g><g transform="translate(0 7.285)"><circle class="d" cx="11.156" cy="11.156" r="11.156"/></g><g transform="translate(3.258 10.544)"><circle class="l" cx="7.897" cy="7.897" r="7.897"/></g><g transform="translate(8.058 15.343)"><path class="e" d="M726.541,970.075a3.1,3.1,0,1,0,3.1-3.1A3.1,3.1,0,0,0,726.541,970.075Z" transform="translate(-726.541 -966.977)"/></g><g transform="translate(0.238 4.462)"><path class="k" d="M706.91,938.314H715.5a1.363,1.363,0,0,1,1.363,1.363v10.216a1.363,1.363,0,0,1-2.447.826l-8.271-10.855A.965.965,0,0,1,706.91,938.314Z" transform="translate(-705.943 -938.314)"/></g></g><g transform="translate(108.161 90.535)"><path class="e" d="M925.627,874.84l-.715,4.462h-3.283l.781-4.462Z" transform="translate(-921.629 -874.84)"/></g><g transform="translate(0 26.219)"><path class="m" d="M769.342,706.57a.95.95,0,0,0-.208-.818.974.974,0,0,0-.776-.332l-17.347.947c-.013,0-.026,0-.039,0L732.011,707.4h-.021l-18.95,1.034-.031,0-19.034,1.039c-.021,0-.042,0-.063,0l-56.3,3.074a.952.952,0,0,0-.9.951v41.22a.953.953,0,0,0,.784.938l83,15.005a.935.935,0,0,0,.169.015h34.211a.953.953,0,0,0,.931-.754l8.991-42.089v0ZM763.094,726.7H748.172l3.632-18.468,15.415-.842Zm-4.373,20.471-14.4-.88,3.478-17.685h14.89Zm-35.542,21.611,3.523-21.658,15.326.936-4.075,20.721Zm3.83-23.548,2.7-16.628h16.139L742.4,746.174ZM690,763.223l1.724-18.236,15.464.945L704.5,765.843Zm-51.381-34.617h16.129L654.4,740.8l-15.778-.964Zm18.036,0h16.865l-.989,13.3-16.231-.992Zm74.256-19.233L728.092,726.7H711.711l2.217-16.4Zm18.928-1.034-3.611,18.36h-16.2l2.836-17.433ZM709.787,726.7H693.452l1.452-15.36,17.085-.933Zm-18.248,0H675.572l1.067-14.363,16.341-.893Zm-.18,1.906L690,742.973l-15.568-.951,1-13.416Zm-17.7-1.906H656.709l.383-13.3,17.629-.963Zm-1.271,17.107L671.2,759.824l-15.364-2.778.41-14.226Zm1.9.116,15.529.949-1.7,18.012-15.034-2.718Zm17.612-.834,1.369-14.483H709.53l-2.086,15.433Zm19.55-14.483h16.329L725.1,745.117l-15.745-.962Zm-56.271-15.1L654.8,726.7H638.618V714.413Zm-16.564,28.234,15.723.96-.4,14-15.319-2.769Zm67.755,24.44,2.721-20.135,15.694.959-3.541,21.774h-.5Zm47.731,2.6H739.9l4.052-20.6,14.371.878Z" transform="translate(-636.712 -705.419)"/><path class="m" d="M754.577,884.083h-32.8a.953.953,0,0,0,0,1.906h31.845v13.266H660.5a23.742,23.742,0,0,0-18.881,9.246l-4.712,6.071a.953.953,0,0,0,1.506,1.169l4.712-6.071a21.847,21.847,0,0,1,17.375-8.509h94.072a.953.953,0,0,0,.953-.953V885.036A.953.953,0,0,0,754.577,884.083Z" transform="translate(-636.712 -816.258)"/></g></g><g transform="translate(63.088 80.068)"><path class="n" d="M222.814,240.6s.079,2.322,0,4.207l-.592-1.553Z" transform="translate(-222.222 -240.603)"/></g><g transform="translate(49.858 370.627)"><rect class="h" width="316.653" height="0.477"/></g><g transform="translate(109.986 108.483)"><path class="o" d="M369.409,358.186s-16.291-16.241-23.648-16.128c0,0,15.44-1.71,21.571-.4l-6.955-13.477s6.589-.173,15.516,8.566l-1.656-15.767s7.7,1.261,11.131,10.9l6.687-16.424,7.454,16.648s10.355-11.275,17.125-6.743c0,0-9.023,8.34-9.8,14.781,0,0,13.458-6.444,19.13-1.523,0,0-18.4,15.391-17.2,20.765s-4.781,3.2-4.781,3.2Z" transform="translate(-345.761 -315.455)"/><path class="p" d="M388.584,333.6l-2.959,7.268C382.2,331.229,374.4,330,374.4,330l1.706,15.7c-7.425-8.117-15.468-8.529-15.468-8.529l6.955,13.477c-6.131-1.306-21.57.4-21.57.4,7.356-.113,23.647,16.13,23.647,16.13l18.918,2.406Z" transform="translate(-345.921 -324.477)"/><path class="q" d="M434.212,427.585A11.586,11.586,0,0,0,421.376,408.3a11.59,11.59,0,1,0-22.839.074,11.584,11.584,0,1,0-12.267,19.642,11.58,11.58,0,0,0,2.606,20.445,8.837,8.837,0,0,0,14.931,9.1,8.922,8.922,0,1,0,16.973,2.106,8.753,8.753,0,0,0,4.167,1.086,8.865,8.865,0,0,0,8.863-8.865,8.761,8.761,0,0,0-1.149-4.284,11.577,11.577,0,0,0,1.551-20.018Z" transform="translate(-367.329 -364.702)"/><path class="r" d="M409.895,394.841a11.523,11.523,0,0,0-11.358,13.531,11.584,11.584,0,1,0-12.267,19.642,11.58,11.58,0,0,0,2.606,20.445,8.837,8.837,0,0,0,14.931,9.1,8.793,8.793,0,0,0,6.088,11.834Z" transform="translate(-367.329 -364.704)"/></g><g transform="translate(87.135 298.15)"><path class="s" d="M302.268,815.662a1.462,1.462,0,0,0-1.172-.59,1.422,1.422,0,0,0-1.011.419l-7.05,7.05-4.856,4.856h0l-2.193,2.193a1.446,1.446,0,0,0,.171,2.184,11.514,11.514,0,0,0,16.112-16.112Zm-3.373,3.166a6.938,6.938,0,0,1-9.573,9.573l6.569-6.569Zm1.206,10.779a10,10,0,0,1-12.979.993l1.117-1.117a1.367,1.367,0,0,0,.133.112,8.456,8.456,0,0,0,11.717-11.716,1.332,1.332,0,0,0-.114-.132l1.118-1.118A10.039,10.039,0,0,1,300.1,829.607Z" transform="translate(-285.565 -815.072)"/><path class="s" d="M302.2,846.155a.705.705,0,1,0,0-1A.7.7,0,0,0,302.2,846.155Z" transform="translate(-295.754 -833.608)"/><path class="s" d="M307.291,841.764a.705.705,0,1,0-.5-.206A.7.7,0,0,0,307.291,841.764Z" transform="translate(-298.606 -830.756)"/><path class="s" d="M311.888,837.167a.705.705,0,1,0-.5-.206A.7.7,0,0,0,311.888,837.167Z" transform="translate(-301.458 -827.904)"/><path class="s" d="M312.7,841.873a.705.705,0,1,0,.5-.206A.706.706,0,0,0,312.7,841.873Z" transform="translate(-302.273 -831.571)"/><path class="s" d="M317.3,837.278a.705.705,0,1,0,.5-.207A.7.7,0,0,0,317.3,837.278Z" transform="translate(-305.124 -828.72)"/><path class="s" d="M308.106,846.47a.705.705,0,1,0,.5-.206A.706.706,0,0,0,308.106,846.47Z" transform="translate(-299.421 -834.423)"/><path class="s" d="M316.485,832.57a.705.705,0,1,0-.5-.206A.7.7,0,0,0,316.485,832.57Z" transform="translate(-304.309 -825.053)"/></g><g transform="translate(195.621 297.391)"><path class="s" d="M589.935,821.811c0-.155-.061-3.8-2.505-5.408-1.5-.985-3.5-.96-5.94.073a2.553,2.553,0,0,1,.6-1.358,1.882,1.882,0,0,1,1.44-.528.759.759,0,1,0,0-1.518,3.359,3.359,0,0,0-2.547,1.007,4.258,4.258,0,0,0-1.033,2.487c-.063-.018-.127-.028-.189-.052-2.489-.94-4.508-.89-6,.151-2.414,1.68-2.419,5.281-2.418,5.434v.008c.116,6.964,2.512,9.74,4.5,10.843a5.345,5.345,0,0,0,3.893.445,4.92,4.92,0,0,1,1.09-.155,5.282,5.282,0,0,1,1.306.169,5.41,5.41,0,0,0,1.3.164,4.584,4.584,0,0,0,1.561-.266C587.321,832.463,590.067,829.784,589.935,821.811Zm-5.458,10.066a3.41,3.41,0,0,1-1.982.056,6.749,6.749,0,0,0-1.615-.214H580.8a6.359,6.359,0,0,0-1.432.2,3.837,3.837,0,0,1-2.791-.3c-1.639-.909-3.615-3.3-3.719-9.534,0-.091.049-2.98,1.767-4.175,1.06-.738,2.607-.73,4.6.023a3.812,3.812,0,0,0,2.851-.057c1.945-.825,3.466-.9,4.519-.208,1.766,1.154,1.824,4.126,1.824,4.16C588.541,829.287,586,831.326,584.477,831.878Z" transform="translate(-571.338 -813.072)"/><path class="s" d="M604.086,837.37h-.013a.759.759,0,0,0-.747.771c.057,3.438-.782,5.647-2.362,6.219a.759.759,0,1,0,.517,1.428c1.583-.573,3.451-2.369,3.363-7.671A.759.759,0,0,0,604.086,837.37Z" transform="translate(-589.407 -828.146)"/></g><path class="s" d="M445.969,818.141a25.789,25.789,0,0,0-1.263-2.586,1.033,1.033,0,0,0-.906-.483c-.723.025-1.293.834-1.569,1.315a.759.759,0,0,0,.143.935l1.135,1.05c-7.316,5.941-13.69.869-13.962.648a.759.759,0,0,0-1.236.684,8.439,8.439,0,0,0,8.371,7.334,8.564,8.564,0,0,0,2-.239,13.835,13.835,0,0,1-8.882,2.4.759.759,0,0,0-.668,1.246,10.26,10.26,0,0,0,18.074-6.592C447.208,823.8,446.98,819.619,445.969,818.141Zm-13.037,6.276a6.9,6.9,0,0,1-2.646-3.159,12.291,12.291,0,0,0,13.255-1,13.478,13.478,0,0,1-1.017,2.1A6.965,6.965,0,0,1,432.932,824.417Zm4.026,8.117a8.744,8.744,0,0,1-5.354-1.824A15.014,15.014,0,0,0,445.2,820.365a18.025,18.025,0,0,1,.491,3.484A8.718,8.718,0,0,1,436.958,832.535Z" transform="translate(-286.984 -516.922)"/></g></svg>