<svg xmlns="http://www.w3.org/2000/svg" width="21.87" height="22.316" viewBox="0 0 21.87 22.316"><defs><style>.a{fill:#4285f4;}.b{fill:#34a853;}.c{fill:#fbbc05;}.d{fill:#eb4335;}</style></defs><path class="a" d="M141.262,109.042a9.562,9.562,0,0,0-.236-2.281H130.55V110.9H136.7a5.453,5.453,0,0,1-2.281,3.62l-.021.139,3.312,2.566.229.023a10.91,10.91,0,0,0,3.323-8.207" transform="translate(-119.392 -97.636)"/><path class="b" d="M23.893,165.321a10.635,10.635,0,0,0,7.389-2.7l-3.521-2.728a6.6,6.6,0,0,1-3.868,1.116,6.717,6.717,0,0,1-6.348-4.637l-.131.011-3.444,2.666-.045.125a11.15,11.15,0,0,0,9.968,6.149" transform="translate(-12.735 -143.005)"/><path class="c" d="M4.81,78.582a6.869,6.869,0,0,1-.372-2.207A7.218,7.218,0,0,1,4.8,74.168l-.006-.148L1.3,71.312l-.114.054a11.135,11.135,0,0,0,0,10.018l3.62-2.8" transform="translate(0 -65.217)"/><path class="d" d="M23.893,4.314a6.184,6.184,0,0,1,4.314,1.661L31.357,2.9A10.721,10.721,0,0,0,23.893,0a11.15,11.15,0,0,0-9.968,6.149l3.608,2.8a6.745,6.745,0,0,1,6.36-4.637" transform="translate(-12.735)"/></svg>