<svg xmlns="http://www.w3.org/2000/svg" width="19.239" height="19.232" viewBox="0 0 19.239 19.232">
  <g id="growth-period" transform="translate(0.1 -0.108)">
    <g id="Group_4" data-name="Group 4" transform="translate(0 0.26)">
      <g id="Group_3" data-name="Group 3">
        <path id="Path_30" data-name="Path 30" d="M17.44,12.8h0l-1.361.454a1.436,1.436,0,0,0-.9-.9,1.585,1.585,0,0,0-1.657-1.344,2.693,2.693,0,0,0-2.48-1.262,1.27,1.27,0,0,0-.84-.894A6.141,6.141,0,0,1,11.745,6.3c.038.044.074.09.114.131a3.415,3.415,0,0,0,2.42,1.025c.064,0,.129,0,.193-.006a2.778,2.778,0,0,0,2.082-1.089A20.788,20.788,0,0,0,18.989.753a.317.317,0,0,0-.264-.4c-.187-.025-4.6-.578-6.8,1.284a2.865,2.865,0,0,0-.421.441,7.163,7.163,0,0,0-2.669-.216.317.317,0,0,0-.267.408,8.7,8.7,0,0,0,1.217,2.5A1.575,1.575,0,0,0,11,5.307c.045,0,.091,0,.137-.007a3.578,3.578,0,0,0,.232.476,6.753,6.753,0,0,0-1.8,3.044,1.277,1.277,0,0,0-.752.476,2.209,2.209,0,0,0-2.53.539A1.842,1.842,0,0,0,5.7,9.74a1.9,1.9,0,0,0-1.871,1.583H3.242a1.424,1.424,0,0,0-1.184-.633H1.425A1.427,1.427,0,0,0,0,12.115v5.7A1.427,1.427,0,0,0,1.425,19.24h.633a1.411,1.411,0,0,0,.885-.317h8.235a2.533,2.533,0,0,0,1.317-.369l5.936-3.613A1.185,1.185,0,0,0,17.44,12.8ZM11.512,3.847a2.371,2.371,0,0,1,.818-1.724C13.542,1.1,15.6.9,17.038.9c.514,0,.948.026,1.234.049a18.967,18.967,0,0,1-2.223,5.035,2.155,2.155,0,0,1-1.616.84,2.758,2.758,0,0,1-2.12-.828c-.04-.041-.076-.087-.114-.131a10.8,10.8,0,0,1,2.19-1.538.317.317,0,0,0-.278-.569,11.076,11.076,0,0,0-2.273,1.569A2.941,2.941,0,0,1,11.512,3.847Zm-.633-.031a3.491,3.491,0,0,0,.069.856.931.931,0,0,1-.685-.308,6.939,6.939,0,0,1-.965-1.9,6.216,6.216,0,0,1,1.865.174A3.172,3.172,0,0,0,10.879,3.816Zm-8.029,14a.793.793,0,0,1-.792.792H1.425a.793.793,0,0,1-.792-.792v-5.7a.793.793,0,0,1,.792-.792h.633a.793.793,0,0,1,.792.792ZM5.7,10.374a1.251,1.251,0,0,1,.54.126.317.317,0,0,0,.393-.1,1.577,1.577,0,0,1,2.129-.413.317.317,0,0,0,.465-.155.626.626,0,0,1,.564-.4l.025,0c.008,0,.015,0,.023,0a.63.63,0,0,1,.611.614c0,.009,0,.039-.005.048a.317.317,0,0,0,.38.328,2.08,2.08,0,0,1,.416-.042A2.051,2.051,0,0,1,13.073,11.5a.316.316,0,0,0,.348.165.955.955,0,0,1,1.146.915c0,.011,0,.021,0,.03a.317.317,0,0,0,.272.313.794.794,0,0,1,.639.539l-3.9,1.3a.949.949,0,0,1-.3.049H11.1a1.458,1.458,0,0,0-.118-1.248l-.028-.047A1.909,1.909,0,0,0,9.32,12.59H7.664a2.583,2.583,0,0,1-1.608-.564,3.217,3.217,0,0,0-1.587-.672A1.267,1.267,0,0,1,5.7,10.374Zm12.657,3.66a.545.545,0,0,1-.255.366l-5.936,3.613a1.9,1.9,0,0,1-.988.277H3.4a1.408,1.408,0,0,0,.088-.475v-5.7a1.39,1.39,0,0,0-.016-.158h.585a2.583,2.583,0,0,1,1.608.564,3.218,3.218,0,0,0,2,.7H9.32a1.273,1.273,0,0,1,1.086.615l.028.047a.828.828,0,0,1-.047.921H8.463a3.155,3.155,0,0,0-1.756.532l-.232.155a.317.317,0,1,0,.351.527l.232-.155a2.525,2.525,0,0,1,1.405-.425h2.815a1.584,1.584,0,0,0,.5-.081l4.04-1.347c.005,0,.01,0,.015,0a.31.31,0,0,0,.194-.073l1.613-.538a.551.551,0,0,1,.616.194A.545.545,0,0,1,18.357,14.034Z" transform="translate(0 -0.26)" fill="#f2a133" stroke="#f2a133" stroke-width="0.2"/>
        <path id="Path_31" data-name="Path 31" d="M188.418,274.1a.325.325,0,0,0,.383-.254.489.489,0,0,1,.478-.39.483.483,0,0,1,.292.1.325.325,0,0,0,.39-.52,1.127,1.127,0,0,0-.683-.228,1.141,1.141,0,0,0-1.115.91A.325.325,0,0,0,188.418,274.1Z" transform="translate(-181.195 -262.712)" fill="#f2a133" stroke="#f2a133" stroke-width="0.2"/>
        <path id="Path_32" data-name="Path 32" d="M281.77,290.624a.325.325,0,0,0,.325-.02h0a.489.489,0,0,1,.613.062.483.483,0,0,1,.138.276.325.325,0,0,0,.321.279.357.357,0,0,0,.046,0,.325.325,0,0,0,.276-.368,1.138,1.138,0,0,0-1.754-.788.325.325,0,0,0,.034.562Z" transform="translate(-271.17 -279.147)" fill="#f2a133" stroke="#f2a133" stroke-width="0.2"/>
      </g>
    </g>
  </g>
</svg>
