<svg xmlns="http://www.w3.org/2000/svg" width="20" height="19.965" viewBox="0 0 20 19.965"><defs><style>.a{fill:#f2a133;}</style></defs><g transform="translate(-340 -767)"><g transform="translate(74.22 290.263)"><g transform="translate(265.78 476.737)"><g transform="translate(0 0)"><path class="a" d="M285.6,490.418a1.308,1.308,0,0,0-1.558-.572l-1.358.455a1.581,1.581,0,0,0-.921-.908,1.721,1.721,0,0,0-1.755-1.422,2.874,2.874,0,0,0-2.578-1.318,1.377,1.377,0,0,0-.844-.905,6.4,6.4,0,0,1,1.526-2.53c.024.029.048.059.075.085a3.663,3.663,0,0,0,2.575,1.092,1.707,1.707,0,0,0,.205-.008,2.963,2.963,0,0,0,2.229-1.169,21.712,21.712,0,0,0,2.551-5.875.384.384,0,0,0-.037-.3.392.392,0,0,0-.293-.2c-.2-.027-4.817-.623-7.155,1.355a3.135,3.135,0,0,0-.423.437,7.465,7.465,0,0,0-2.769-.216.394.394,0,0,0-.349.439.684.684,0,0,0,.013.072,9.214,9.214,0,0,0,1.286,2.636,1.712,1.712,0,0,0,1.286.583c.043,0,.088,0,.133,0a3.5,3.5,0,0,0,.2.413,7.11,7.11,0,0,0-1.851,3.137,1.413,1.413,0,0,0-.754.471,2.369,2.369,0,0,0-2.642.567,2.123,2.123,0,0,0-.594-.088,2.048,2.048,0,0,0-2.011,1.654h-.522a1.55,1.55,0,0,0-1.27-.663h-.663a1.564,1.564,0,0,0-1.555,1.555v5.954a1.56,1.56,0,0,0,1.555,1.555H268a1.547,1.547,0,0,0,.948-.33h8.58a2.694,2.694,0,0,0,1.409-.4l6.2-3.773A1.3,1.3,0,0,0,285.6,490.418Zm-7.661-9.858a2.41,2.41,0,0,1,.831-1.752c1.236-1.044,3.334-1.262,4.876-1.262.493,0,.913.024,1.2.045a19.682,19.682,0,0,1-2.288,5.158,2.185,2.185,0,0,1-1.638.852,2.814,2.814,0,0,1-2.165-.844c-.027-.027-.051-.056-.075-.085a11.253,11.253,0,0,1,2.229-1.555.4.4,0,0,0,.157-.538.4.4,0,0,0-.511-.173,11.643,11.643,0,0,0-2.322,1.59,2.993,2.993,0,0,1-.3-1.3C277.937,480.644,277.937,480.6,277.939,480.559Zm-.738.788a.9.9,0,0,1-.581-.29,7.132,7.132,0,0,1-.969-1.883,6.433,6.433,0,0,1,1.763.165,3.4,3.4,0,0,0-.269,1.182A3.574,3.574,0,0,0,277.2,481.347Zm-8.444,13.8a.76.76,0,0,1-.759.759h-.663a.76.76,0,0,1-.759-.759V489.2a.761.761,0,0,1,.759-.762H268a.761.761,0,0,1,.759.762Zm3.044-7.709a1.282,1.282,0,0,1,.535.125.4.4,0,0,0,.5-.125,1.578,1.578,0,0,1,2.133-.413.4.4,0,0,0,.3.051.39.39,0,0,0,.248-.176.336.336,0,0,0,.035-.069.586.586,0,0,1,.527-.376h.048a.586.586,0,0,1,.573.575.037.037,0,0,0,.005.019l-.008.027a.4.4,0,0,0,.373.421.683.683,0,0,0,.1-.008,2.031,2.031,0,0,1,.421-.043h0a2.069,2.069,0,0,1,1.851,1.132.4.4,0,0,0,.437.208.931.931,0,0,1,1.1.727.683.683,0,0,1,.019.165v.032a.4.4,0,0,0,.341.391.759.759,0,0,1,.591.455l-4.008,1.337a.9.9,0,0,1-.293.048h-.093a1.586,1.586,0,0,0-.157-1.27l-.029-.051a2.072,2.072,0,0,0-1.766-1h-1.728a2.662,2.662,0,0,1-1.64-.575,3.417,3.417,0,0,0-1.614-.706A1.251,1.251,0,0,1,271.8,487.44Zm13.158,3.744h0a.5.5,0,0,1-.234.338l-6.2,3.773a1.918,1.918,0,0,1-1,.282h-8.032a1.589,1.589,0,0,0,.066-.431V489.19l-.008-.1h.535a2.654,2.654,0,0,1,1.638.575,3.439,3.439,0,0,0,2.13.746h1.728a1.272,1.272,0,0,1,1.079.61l.029.051a.8.8,0,0,1-.027.86h-1.979a3.362,3.362,0,0,0-1.869.567l-.24.16a.4.4,0,0,0-.136.546.39.39,0,0,0,.242.181.4.4,0,0,0,.3-.043l.032-.021.242-.162a2.563,2.563,0,0,1,1.427-.431h2.943a1.706,1.706,0,0,0,.543-.088l4.21-1.4h.005a.393.393,0,0,0,.234-.085l1.675-.557a.512.512,0,0,1,.57.178A.507.507,0,0,1,284.959,491.185Z" transform="translate(-265.78 -476.737)"/><g transform="translate(7.536 10.807)"><path class="a" d="M294.542,516.932a.283.283,0,0,1-.4.06.309.309,0,0,0-.186-.063.313.313,0,0,0-.3.248.28.28,0,0,1-.121.179.277.277,0,0,1-.157.049.286.286,0,0,1-.28-.341.886.886,0,0,1,.862-.7h0a.88.88,0,0,1,.526.177A.284.284,0,0,1,294.542,516.932Z" transform="translate(-293.092 -516.36)"/></g><g transform="translate(11.271 11.495)"><path class="a" d="M307.892,519.927h-.043a.283.283,0,0,1-.278-.244.31.31,0,0,0-.479-.214.28.28,0,0,1-.233.037l0,.006-.047-.022a.282.282,0,0,1-.11-.1.277.277,0,0,1-.043-.213.289.289,0,0,1,.123-.181.863.863,0,0,1,.36-.136.879.879,0,0,1,.994.737v.009A.284.284,0,0,1,307.892,519.927Z" transform="translate(-306.65 -518.851)"/></g></g></g></g></g></svg>