<svg xmlns="http://www.w3.org/2000/svg" width="65" height="65" viewBox="0 0 65 65">
  <g id="Growth-period" transform="translate(-314 -197)">
    <circle id="Ellipse_49" data-name="Ellipse 49" cx="32.5" cy="32.5" r="32.5" transform="translate(314 197)" fill="#f2a133"/>
    <g id="Group_538" data-name="Group 538" transform="translate(327.462 -211.331)">
      <g id="Group_536" data-name="Group 536" transform="translate(0.314 421.792)">
        <path id="Path_745" data-name="Path 745" d="M18.586,421.8a18.724,18.724,0,1,0,19.171,18.267A18.724,18.724,0,0,0,18.586,421.8Zm.84,34.764a16.049,16.049,0,1,1,15.657-16.433A16.05,16.05,0,0,1,19.426,456.561Z" transform="translate(-0.314 -421.792)" fill="#fff"/>
      </g>
      <g id="Group_537" data-name="Group 537" transform="translate(7.004 428.482)">
        <path id="Path_746" data-name="Path 746" d="M31.653,441.387a1.337,1.337,0,0,0-1.3,1.369l.226,9.359-9.359.226a1.337,1.337,0,1,0,.065,2.674l10.7-.258a1.337,1.337,0,0,0,1.3-1.369l-.258-10.7A1.337,1.337,0,0,0,31.653,441.387Z" transform="translate(-19.91 -441.387)" fill="#fff"/>
      </g>
    </g>
  </g>
</svg>
