<svg xmlns="http://www.w3.org/2000/svg" width="65" height="65" viewBox="0 0 65 65">
  <g id="input-resourcing" transform="translate(-314 -197)">
    <circle id="Ellipse_49" data-name="Ellipse 49" cx="32.5" cy="32.5" r="32.5" transform="translate(314 197)" fill="#f2a133"/>
    <g id="planting" transform="translate(321 105.427)">
      <path id="Path_758" data-name="Path 758" d="M43.91,123.585H43.5a9.72,9.72,0,0,0-5.586-2.289c0-1.34,0-6.65,0-6.923a4.053,4.053,0,0,0,2.693.051c1.365-.484,2.382-1.769,3.024-3.819h0a.753.753,0,0,0-.924-.95c-1.475.421-3.735-.831-5.252.72a3.937,3.937,0,0,0-.846,3.008v.567c-1.4-1.09-2.806-.132-4.421-.813a.753.753,0,0,0-1.032.831h0c.461,2.5,1.751,4.547,4.307,4.547a5.061,5.061,0,0,0,1.146-.137v2.911a9.717,9.717,0,0,0-5.7,2.3H27.59v-.26a2.219,2.219,0,0,0-2.216-2.216H23.19a1.11,1.11,0,0,0-.416-.7c-2-1.548-4-.8-4.7-.8a1.851,1.851,0,0,1-1.537-.533l-1.428-1.428.333-.333a1.389,1.389,0,0,0,0-1.962l-1.485-1.484a1.389,1.389,0,0,0-1.592-.263l-.818-.818a.653.653,0,0,0-.923.923l.765.765L4.763,121.1l-3.347-3.347a.377.377,0,0,1,0-.533l6.094-6.094a.377.377,0,0,1,.533,0l.438.438a.653.653,0,0,0,.923-.923l-.438-.438a1.682,1.682,0,0,0-2.38,0L.493,116.3a1.682,1.682,0,0,0,0,2.38l3.531,3.531a1.385,1.385,0,0,0,.386,1.208L5.894,124.9a1.389,1.389,0,0,0,1.962,0l.1-.1,2.157,2.157a1.855,1.855,0,0,1,.394.581,13.959,13.959,0,0,0,3.029,5.064l1.819,1.848a2.112,2.112,0,0,0,2.944.028,2.045,2.045,0,0,0,.551-.92,2.1,2.1,0,0,0,2.238-.5,2.079,2.079,0,0,0,.527-.967,2.076,2.076,0,0,0,2.552-1.46,2.1,2.1,0,0,0,2.137-3.467,2.219,2.219,0,0,0,1.289-2.012v-.26h1.593v.818a3.017,3.017,0,0,0,3.015,3.017,6.757,6.757,0,0,0,1.067-.134.653.653,0,1,0-.209-1.289,2.184,2.184,0,0,1-1.966-.292,1.709,1.709,0,0,1-.6-1.3v-.818H43.123a1.652,1.652,0,0,1-1.261.986l-5.773.935A.653.653,0,0,0,36.3,128.1l5.773-.935a2.954,2.954,0,0,0,2.492-2.928.653.653,0,0,0-.653-.653Zm-11.258-8.967c1.74.3,2.562-.246,3.279.469a3.159,3.159,0,0,1,.678,1.94C34.76,117.6,33.322,116.9,32.651,114.618Zm-6.367,8.707v1.826a.912.912,0,0,1-.911.911h-.166l-2.936-2.936a.319.319,0,0,1,0-.452l.26-.26h2.841a.912.912,0,0,1,.911.911Zm-19.468.651-1.485-1.485a.082.082,0,0,1,0-.115l7.588-7.588a.082.082,0,0,1,.115,0l1.485,1.485a.082.082,0,0,1,0,.115l-7.027,7.027h0l-.559.559A.082.082,0,0,1,6.817,123.976Zm18.538,5.211a.8.8,0,0,1-1.126,0l-.6-.6a.653.653,0,1,0-.923.923.8.8,0,0,1,.011,1.115.828.828,0,0,1-1.163-.016l-.76-.76h0a.653.653,0,0,0-.923.923l.267.267a.8.8,0,0,1,.011,1.115.828.828,0,0,1-1.163-.016l-.682-.682h0l-.034-.034h0a.653.653,0,1,0-.923.923l.034.034a.856.856,0,0,1,.247.61.769.769,0,0,1-.231.553.8.8,0,0,1-1.111-.007l-1.819-1.848a12.936,12.936,0,0,1-2.757-4.661,3.156,3.156,0,0,0-.67-.988l-2.157-2.157,5.31-5.31L15.615,120a3.15,3.15,0,0,0,2.615.906c.775-.013,2.119-.568,3.562.407l-.443.442a1.624,1.624,0,0,0,0,2.3l4.006,4.012a.8.8,0,0,1,0,1.126Zm13.04-17.9c.751-.763,1.9-.214,3.7-.255a3.572,3.572,0,0,1-1.909,2.16,3.056,3.056,0,0,1-2.292-.239A2.425,2.425,0,0,1,38.395,111.286Zm-1.186,11.291a8.383,8.383,0,0,1,3.991,1.009H33.218A8.383,8.383,0,0,1,37.209,122.576Z" transform="translate(3.456 1.977)" fill="#fff"/>
    </g>
  </g>
</svg>
