<svg xmlns="http://www.w3.org/2000/svg" width="65" height="65" viewBox="0 0 65 65">
  <g id="Insect-control" transform="translate(-314 -197)">
    <circle id="Ellipse_49" data-name="Ellipse 49" cx="32.5" cy="32.5" r="32.5" transform="translate(314 197)" fill="#f2a133"/>
    <g id="insect" transform="translate(300.584 209.608)">
      <path id="Path_762" data-name="Path 762" d="M61.527,22.98H58.055V21.631a11.727,11.727,0,0,0-1.135-5.045l1.554-1.3h1.962V13.015H57.648l-1.911,1.6a11.887,11.887,0,0,0-3.509-3.157V9.733a5.966,5.966,0,0,0-2.462-4.827V3.85a1.584,1.584,0,0,1,1.582-1.582V0A3.854,3.854,0,0,0,47.5,3.85v.043a5.963,5.963,0,0,0-2.482,0V3.85A3.854,3.854,0,0,0,41.167,0V2.268A1.584,1.584,0,0,1,42.749,3.85V4.906a5.966,5.966,0,0,0-2.462,4.827v1.728a11.889,11.889,0,0,0-3.509,3.157l-1.911-1.6H32.08v2.268h1.962l1.554,1.3a11.726,11.726,0,0,0-1.135,5.045v1.349H30.989l-1.877,1.877,1.6,1.6,1.213-1.213h2.533V26.9A11.728,11.728,0,0,0,35.5,31.726l-2.175,1.825v2.9h2.268V34.608l1.054-.885a11.787,11.787,0,0,0,19.23,0l1.054.885v1.846h2.268v-2.9L57.02,31.726A11.728,11.728,0,0,0,58.055,26.9V25.248h2.533L61.8,26.461l1.6-1.6ZM42.554,9.733a3.7,3.7,0,0,1,7.407,0v.7a11.8,11.8,0,0,0-7.407,0ZM36.728,26.9V21.631a9.543,9.543,0,0,1,8.4-9.462V26.595a6.406,6.406,0,0,1-6.188,6.394A9.486,9.486,0,0,1,36.728,26.9Zm4.4,8.027a8.7,8.7,0,0,0,5.132-4.045,8.706,8.706,0,0,0,5.132,4.045,9.513,9.513,0,0,1-10.264,0Zm12.453-1.934a6.406,6.406,0,0,1-6.188-6.394V12.17a9.543,9.543,0,0,1,8.4,9.462V26.9A9.486,9.486,0,0,1,53.579,32.988Z" fill="#fff"/>
      <path id="Path_763" data-name="Path 763" d="M319.2,317.188h2.268v2.268H319.2Z" transform="translate(-268.159 -293.213)" fill="#fff"/>
      <path id="Path_764" data-name="Path 764" d="M303.789,252.938h2.268v2.268h-2.268Z" transform="translate(-253.916 -233.82)" fill="#fff"/>
      <path id="Path_765" data-name="Path 765" d="M162.71,317.188h2.268v2.268H162.71Z" transform="translate(-123.5 -293.213)" fill="#fff"/>
      <path id="Path_766" data-name="Path 766" d="M178.119,252.938h2.268v2.268h-2.268Z" transform="translate(-137.744 -233.82)" fill="#fff"/>
    </g>
  </g>
</svg>
