<svg xmlns="http://www.w3.org/2000/svg" width="65" height="65" viewBox="0 0 65 65">
  <g id="Land-preparation" transform="translate(-314 -197)">
    <circle id="Ellipse_49" data-name="Ellipse 49" cx="32.5" cy="32.5" r="32.5" transform="translate(314 197)" fill="#f2a133"/>
    <g id="Group_551" data-name="Group 551" transform="translate(-141.344 -209.118)">
      <path id="Path_756" data-name="Path 756" d="M495.344,439.44v-4.383l1.517.8.928-1.752-4.072-2.156v-2.818h-1.983V430.9l-3.448-1.826-1.5.84v-3.721a4.08,4.08,0,1,0-8.16,0v2.6a4.076,4.076,0,0,0-6.291,3.426v6.687a4.082,4.082,0,0,0,2.093,3.562c-1,.661-3.2,2.5-3.2,2.5V455.93h33.851v-10.9l-.329-.3a24.861,24.861,0,0,0-9.4-5.291Zm7.751,9.007-.066-.068a21.1,21.1,0,0,0-25.632-3.251v-2.114a22.942,22.942,0,0,1,25.7,2.9Zm-14.782-17.114,5.049,2.674v4.922a24.964,24.964,0,0,0-3.9-.519v-2.374H487.48v2.346a24.989,24.989,0,0,0-3.792.388v-1.929a4.086,4.086,0,0,0,3.1-3.96v-.693Zm-7.7-5.139a2.1,2.1,0,1,1,4.194,0v6.687a2.1,2.1,0,0,1-4.194,0Zm-6.291,6.029a2.1,2.1,0,1,1,4.195,0v6.687a2.1,2.1,0,1,1-4.195,0Zm6.177,6.687v-2.6a4.063,4.063,0,0,0,1.209.529v2.376q-.638.17-1.266.373a4.07,4.07,0,0,0,.057-.675Zm-5.082,5.288v2.266a21.413,21.413,0,0,0-2.2,1.916l-.007.008v-2.521A22.95,22.95,0,0,1,475.414,444.2Zm22.194,9.6a13.414,13.414,0,0,0-18.938-.033l-.034-.034q-.105.105-.209.214h-2.384a15.642,15.642,0,0,1,1.284-1.456,15.265,15.265,0,0,1,21.589,0,15.6,15.6,0,0,1,1.284,1.456h-2.448c-.048-.049-.1-.1-.144-.148Zm-2.886.148h-13.2a11.446,11.446,0,0,1,13.2,0Zm7.908,0a17.448,17.448,0,0,0-2.311-2.858,17.249,17.249,0,0,0-24.393,0,17.435,17.435,0,0,0-2.311,2.858h-.406v-2.595a19.558,19.558,0,0,1,1.409-1.571,19.1,19.1,0,0,1,27.009,0,19.548,19.548,0,0,1,1.468,1.645v2.521Z" transform="translate(0 -0.079)" fill="#fff"/>
      <path id="Path_757" data-name="Path 757" d="M560.768,429.154a3.577,3.577,0,1,0-3.577-3.577A3.581,3.581,0,0,0,560.768,429.154Zm0-5.171a1.594,1.594,0,1,1-1.594,1.594A1.6,1.6,0,0,1,560.768,423.983Z" transform="translate(-59.267)" fill="#fff"/>
    </g>
  </g>
</svg>
