<svg xmlns="http://www.w3.org/2000/svg" xmlns:xlink="http://www.w3.org/1999/xlink" width="1925.288" height="301.007" viewBox="0 0 1925.288 301.007">
  <defs>
    <linearGradient id="linear-gradient" y1="0.5" x2="1" y2="0.5" gradientUnits="objectBoundingBox">
      <stop offset="0.101" stop-color="#286240"/>
      <stop offset="0.262" stop-color="#28673b"/>
      <stop offset="0.474" stop-color="#297830"/>
      <stop offset="0.715" stop-color="#2a931c"/>
      <stop offset="0.973" stop-color="#2cb801"/>
      <stop offset="0.987" stop-color="#2dbb00"/>
    </linearGradient>
    <linearGradient id="linear-gradient-2" y1="0.5" x2="1" y2="0.5" gradientUnits="objectBoundingBox">
      <stop offset="0" stop-color="#286240"/>
      <stop offset="0.181" stop-color="#286a39"/>
      <stop offset="0.474" stop-color="#298228"/>
      <stop offset="0.839" stop-color="#2ca90c"/>
      <stop offset="0.987" stop-color="#2dbb00"/>
    </linearGradient>
    <linearGradient id="linear-gradient-4" y1="0.5" x2="1" y2="0.5" gradientUnits="objectBoundingBox">
      <stop offset="0.013" stop-color="#2dbb00"/>
      <stop offset="0.027" stop-color="#2cb801"/>
      <stop offset="0.285" stop-color="#2a931c"/>
      <stop offset="0.526" stop-color="#297830"/>
      <stop offset="0.738" stop-color="#28673b"/>
      <stop offset="0.899" stop-color="#286240"/>
    </linearGradient>
    <linearGradient id="linear-gradient-9" x1="-411.727" y1="23.744" x2="-407.451" y2="27.249" xlink:href="#linear-gradient-2"/>
    <linearGradient id="linear-gradient-10" x1="-409.859" y1="23.634" x2="-405.584" y2="27.138" xlink:href="#linear-gradient-2"/>
    <linearGradient id="linear-gradient-11" x1="-407.995" y1="23.523" x2="-403.72" y2="27.028" xlink:href="#linear-gradient-2"/>
    <linearGradient id="linear-gradient-12" x1="-406.124" y1="23.413" x2="-401.849" y2="26.918" xlink:href="#linear-gradient-2"/>
    <linearGradient id="linear-gradient-13" x1="-0.308" y1="0.036" x2="1.709" y2="1.267" gradientUnits="objectBoundingBox">
      <stop offset="0.028" stop-color="#f0b148"/>
      <stop offset="1" stop-color="#ff0"/>
    </linearGradient>
    <linearGradient id="linear-gradient-15" x1="-0.24" y1="0.158" x2="1.334" y2="0.93" xlink:href="#linear-gradient-2"/>
    <linearGradient id="linear-gradient-16" x1="2.087" y1="-0.041" x2="-0.899" y2="0.927" gradientUnits="objectBoundingBox">
      <stop offset="0.028" stop-color="#ff8200"/>
      <stop offset="1" stop-color="#ffb600"/>
    </linearGradient>
    <linearGradient id="linear-gradient-17" x1="1.318" y1="0.052" x2="-0.148" y2="0.811" xlink:href="#linear-gradient-16"/>
    <linearGradient id="linear-gradient-18" x1="1.529" y1="-0.157" x2="-0.785" y2="1.005" xlink:href="#linear-gradient-16"/>
    <linearGradient id="linear-gradient-19" x1="2.279" y1="-0.286" x2="-0.262" y2="0.912" xlink:href="#linear-gradient-16"/>
    <linearGradient id="linear-gradient-20" x1="1.671" y1="0.02" x2="-1.845" y2="1.389" gradientUnits="objectBoundingBox">
      <stop offset="0" stop-color="#083b54"/>
      <stop offset="0.187" stop-color="#064161"/>
      <stop offset="0.536" stop-color="#045484"/>
      <stop offset="1" stop-color="#0071bc"/>
    </linearGradient>
    <linearGradient id="linear-gradient-21" x1="1.146" y1="0.211" x2="-0.256" y2="0.708" xlink:href="#linear-gradient-20"/>
    <linearGradient id="linear-gradient-22" x1="1" y1="0.5" x2="0" y2="0.5" xlink:href="#linear-gradient-16"/>
    <linearGradient id="linear-gradient-23" x1="1" y1="0.5" x2="-9.658" y2="0.5" xlink:href="#linear-gradient-20"/>
    <linearGradient id="linear-gradient-24" x1="1.413" y1="0.5" x2="-1.687" y2="0.5" xlink:href="#linear-gradient-20"/>
    <linearGradient id="linear-gradient-25" x1="1.976" y1="0.5" x2="-0.115" y2="0.5" xlink:href="#linear-gradient-20"/>
    <linearGradient id="linear-gradient-26" x1="10.471" y1="0.5" x2="0" y2="0.5" xlink:href="#linear-gradient-20"/>
    <linearGradient id="linear-gradient-27" x1="2.772" y1="0.5" x2="-0.422" y2="0.5" xlink:href="#linear-gradient-20"/>
    <linearGradient id="linear-gradient-28" x1="1.119" y1="0.5" x2="-0.937" y2="0.5" xlink:href="#linear-gradient-20"/>
    <linearGradient id="linear-gradient-29" y1="0.5" x2="1" y2="0.5" gradientUnits="objectBoundingBox">
      <stop offset="0" stop-color="#ea4b4b"/>
      <stop offset="0.314" stop-color="#e13d41"/>
      <stop offset="0.897" stop-color="#cc1a28"/>
      <stop offset="1" stop-color="#c81423"/>
    </linearGradient>
    <linearGradient id="linear-gradient-30" y1="0.5" x2="1" y2="0.5" gradientUnits="objectBoundingBox">
      <stop offset="0.005" stop-color="#f4f4f4"/>
      <stop offset="1" stop-color="#cdcdcd"/>
    </linearGradient>
    <linearGradient id="linear-gradient-32" x1="0.164" y1="-0.673" x2="1.03" y2="2.542" xlink:href="#linear-gradient-2"/>
    <linearGradient id="linear-gradient-33" x1="-9.282" y1="-2.252" x2="4.53" y2="1.64" xlink:href="#linear-gradient-2"/>
    <linearGradient id="linear-gradient-34" x1="-4.925" y1="-1.024" x2="8.886" y2="2.867" xlink:href="#linear-gradient-2"/>
    <linearGradient id="linear-gradient-35" x1="-7.331" y1="-1.702" x2="6.48" y2="2.189" xlink:href="#linear-gradient-2"/>
    <linearGradient id="linear-gradient-36" x1="-10.779" y1="-3.515" x2="3.063" y2="1.425" xlink:href="#linear-gradient-2"/>
  </defs>
  <g id="login-in-illustration" transform="translate(0 -773.359)">
    <g id="Group_146" data-name="Group 146" transform="translate(232.825 808.026)">
      <g id="Group_145" data-name="Group 145" transform="translate(0 0)">
        <g id="Group_89" data-name="Group 89" transform="translate(160.307 88.186)">
          <rect id="Rectangle_412" data-name="Rectangle 412" width="3.815" height="22.476" transform="matrix(0.74, -0.673, 0.673, 0.74, 9.51, 10.765)" fill="#403f3d"/>
          <path id="Path_341" data-name="Path 341" d="M629.825,562.938a1.907,1.907,0,0,1-1.267-3.333l18.182-16.151a1.907,1.907,0,1,1,2.533,2.852L631.09,562.458A1.9,1.9,0,0,1,629.825,562.938Z" transform="translate(-627.917 -542.973)" fill="#403f3d"/>
        </g>
        <path id="Path_342" data-name="Path 342" d="M669.138,649.333h-.064c-.255,1.145-.467,2.291-.647,3.457H616.708l-.116-3.457-.3-9.056-1.368-41.242,45.028-42.408,8.282,83.65.88,8.855v.011Z" transform="translate(-468.395 -453.961)" fill="url(#linear-gradient)"/>
        <g id="Group_91" data-name="Group 91" transform="translate(83.794 20.475)">
          <path id="Path_343" data-name="Path 343" d="M606.492,485.632s7.051,1.375,7.634,7.473.548,17.757-3.963,17.588a27.549,27.549,0,0,1-7.852-1.421l-5.6-7.519Z" transform="translate(-553.291 -478.729)" fill="#cc8070"/>
          <path id="Path_344" data-name="Path 344" d="M612.263,497.763l2.666,4.036a.526.526,0,0,1-.439.817h-2.663Z" transform="translate(-552.377 -477.995)" fill="#cc8070"/>
          <path id="Path_345" data-name="Path 345" d="M606.677,508.125l-5.579,14-10.893-6.312L598.7,499.74Z" transform="translate(-553.684 -477.876)" fill="#cc8070"/>
          <path id="Path_346" data-name="Path 346" d="M605.549,508.9a38.965,38.965,0,0,1-4.4-1.936l2.957,5.654Z" transform="translate(-553.022 -477.439)" fill="#000402"/>
          <path id="Path_347" data-name="Path 347" d="M602.584,499.256l3.457-4.641s3.438.811,5.56-3.839c0,0,5.947.068,7.206-2.239,2.182-3.995-6.636-8.087-11.791-7.175-1.91.337-11.033,2.916-24.789-.47-32.4-7.977-28.332,13.3-22.367,18.363,9.416,8,23.955-.136,31.126,4.487a14.341,14.341,0,0,0,7.158,2.493l3.286-4.358Z" transform="translate(-555.767 -479.123)"/>
          <g id="Group_90" data-name="Group 90" transform="translate(42.185 16.418)">
            <path id="Path_348" data-name="Path 348" d="M595.569,498.158a3.175,3.175,0,1,0,2.775-3.53A3.175,3.175,0,0,0,595.569,498.158Z" transform="translate(-595.546 -494.604)" fill="#cc8070"/>
            <path id="Path_349" data-name="Path 349" d="M600.091,498.2s-1.32-2.633-3.1-1.245" transform="translate(-595.459 -494.487)" fill="none" stroke="#000402" stroke-linecap="round" stroke-linejoin="round" stroke-width="0.274"/>
          </g>
        </g>
        <g id="Group_95" data-name="Group 95" transform="translate(98.959 53.532)">
          <g id="Group_92" data-name="Group 92">
            <path id="Path_350" data-name="Path 350" d="M594,510.295s-11.7,3.32-16.264,19.29c-3.126,10.945-7.67,44.662-7.67,44.662a51.46,51.46,0,0,0,33.919-1.253s2.015-15.043,2.365-29.579c.037-1.511,1.359-4.32,1.355-5.8-.008-2.631-1.387-3.887-1.556-6.277-.407-5.755-1.354-10.525-3.162-12.942Z" transform="translate(-570.067 -510.295)" fill="#d2cde1"/>
          </g>
          <g id="Group_94" data-name="Group 94" transform="translate(14.047 7.659)">
            <g id="Group_93" data-name="Group 93">
              <path id="Path_351" data-name="Path 351" d="M626.256,558.833s-34.506,15.175-37.742-2.662c-1.3-7.185-4.274-17.233-5.175-28.908a9.1,9.1,0,0,1,6.755-9.438,8.954,8.954,0,0,1,2.344-.307,9.123,9.123,0,0,1,9.088,8.685s1.613,18.309,1.613,24.774c8.09-1.4,22.545,3.053,22.545,3.053Z" transform="translate(-583.313 -517.517)" fill="#bebcc9"/>
              <path id="Path_352" data-name="Path 352" d="M637.382,551.5c-.308,1.856-3.245,2.884-4.316,4.73-.286-.594-3.086-.212-6.352.138-.7.074-1.718.223-2.874.414l-.573-4.8c1.834.042,3.521.064,4.613.011C629.492,551.911,637.382,551.5,637.382,551.5Z" transform="translate(-580.897 -515.462)" fill="#cc8070"/>
            </g>
          </g>
        </g>
        <g id="Group_98" data-name="Group 98" transform="translate(97.97 112.59)">
          <path id="Path_353" data-name="Path 353" d="M631.918,610.612s-6.994.168-7.755.111c0,0,1.185,17.2.079,26.318.479-.012,11.29.594,13.989.107,0,0-1.03-2.325-2.017-2.562s-6.662,1.335-7.031-5.293S631.918,610.612,631.918,610.612Z" transform="translate(-565.807 -563.286)" fill="#863524"/>
          <g id="Group_97" data-name="Group 97">
            <g id="Group_96" data-name="Group 96">
              <path id="Path_354" data-name="Path 354" d="M638.84,580.349c-.438,21.674-5.291,48.856-5.291,48.856h-5.435s-11.421-32.46-11.421-41.029c-8.078,6.027-36.683,0-36.683,0-9.43-3.773-11.079-7.724-10.857-16.105.117-4.562,2.074-2.577,2.074-2.577s30.4-3.476,53.248-3.508C638.4,565.965,639,572.412,638.84,580.349Z" transform="translate(-569.134 -565.985)" fill="#828ce1"/>
            </g>
          </g>
        </g>
        <g id="Group_99" data-name="Group 99" transform="translate(66.237 64.302)">
          <path id="Path_355" data-name="Path 355" d="M542.246,520.857h0a5.005,5.005,0,0,0-2.837,5.992l20.713,54.3,10.458-3.922-21.588-53.27A5.006,5.006,0,0,0,542.246,520.857Z" transform="translate(-539.211 -520.451)" fill="#403f3d"/>
          <rect id="Rectangle_413" data-name="Rectangle 413" width="46.802" height="9.412" transform="translate(29.072 65.772)" fill="#403f3d"/>
        </g>
        <g id="Group_100" data-name="Group 100" transform="translate(28.047)" style="mix-blend-mode: multiply;isolation: isolate">
          <path id="Path_356" data-name="Path 356" d="M668.99,568.738l-29.1-88.923a4.707,4.707,0,0,0-4.485-3.266H532.372a4.72,4.72,0,0,0-4.615,3.781l-17.079,84.9-7.48-1.506,17.079-84.9a12.374,12.374,0,0,1,12.095-9.9H635.409a12.305,12.305,0,0,1,11.737,8.535l29.092,88.914Z" transform="translate(-503.199 -459.265)" fill="url(#linear-gradient-2)"/>
          <path id="Path_357" data-name="Path 357" d="M658.679,479.126H509.816v-1.779A17.532,17.532,0,0,1,527.8,459.821l114.937,2.945a16.365,16.365,0,0,1,15.945,16.36Z" transform="translate(-502.799 -459.815)" fill="url(#linear-gradient-2)"/>
        </g>
        <path id="Path_358" data-name="Path 358" d="M499.026,556.811v48.808l113.829,45.569,17.38,2.859-5.005-37.193-28.483-41.472L557,556.811l-47.253-3.237Z" transform="translate(-475.404 -454.146)" fill="url(#linear-gradient-4)"/>
        <path id="Path_359" data-name="Path 359" d="M635.661,647.82h-10.9a86.074,86.074,0,0,0-85.978-85.979H487.431v-10.9h51.354A96.988,96.988,0,0,1,635.661,647.82Z" transform="translate(-476.105 -454.305)" fill="url(#linear-gradient)"/>
        <path id="Path_360" data-name="Path 360" d="M670.773,644.373l.021.191H587.547v-9.056h85.888a59.273,59.273,0,0,0-2.662,8.855Z" transform="translate(-470.051 -449.191)" fill="url(#linear-gradient)"/>
        <path id="Path_361" data-name="Path 361" d="M670.73,644.047c-.255,1.145-.467,2.291-.647,3.457-.286,1.834-.488,3.712-.6,5.6H587.547v-9.056Z" transform="translate(-470.051 -448.675)" fill="url(#linear-gradient-4)"/>
        <path id="Path_362" data-name="Path 362" d="M666.051,644.058h-.064a1.6,1.6,0,0,1,.042-.191Z" transform="translate(-465.308 -448.686)" fill="#404040"/>
        <path id="Path_363" data-name="Path 363" d="M632.556,556.228s2.943-2.222,4.315-2.528,0-2.2,0-2.2l-2.3.565-2.816,1.8Z" transform="translate(-467.378 -454.271)" fill="#cc8070"/>
        <path id="Path_364" data-name="Path 364" d="M738.127,531.354v36.058h-16.95V531.354l2.568-3.39h2.979V509.7l5.752-17.8,3.186,1.233-3.39,16.539v18.286h3.287Z" transform="translate(-461.971 -457.875)" fill="#403f3d"/>
        <path id="Path_365" data-name="Path 365" d="M774.145,625.613a60.746,60.746,0,0,0-104.934,14.974H657.387v-83.65L800.434,551.5Z" transform="translate(-465.828 -454.271)" fill="url(#linear-gradient)"/>
        <g id="Group_101" data-name="Group 101" transform="translate(229.758 116.263)" opacity="0.58">
          <path id="Path_366" data-name="Path 366" d="M713.7,569.449h3.127l4.038,22.187h-3.128Z" transform="translate(-692.18 -569.449)" fill="url(#linear-gradient-9)" style="mix-blend-mode: multiply;isolation: isolate"/>
          <path id="Path_367" data-name="Path 367" d="M706.934,569.449h3.127l4.038,22.187h-3.128Z" transform="translate(-692.589 -569.449)" fill="url(#linear-gradient-10)" style="mix-blend-mode: multiply;isolation: isolate"/>
          <path id="Path_368" data-name="Path 368" d="M700.171,569.449H703.3l4.038,22.187h-3.128Z" transform="translate(-692.998 -569.449)" fill="url(#linear-gradient-11)" style="mix-blend-mode: multiply;isolation: isolate"/>
          <path id="Path_369" data-name="Path 369" d="M693.407,569.449h3.128l4.038,22.187h-3.127Z" transform="translate(-693.407 -569.449)" fill="url(#linear-gradient-12)" style="mix-blend-mode: multiply;isolation: isolate"/>
        </g>
        <g id="Group_122" data-name="Group 122" transform="translate(214.279 158.125)">
          <circle id="Ellipse_31" data-name="Ellipse 31" cx="44.876" cy="44.876" r="44.876" transform="translate(3.188 3.627)" fill="#404040"/>
          <circle id="Ellipse_32" data-name="Ellipse 32" cx="26.346" cy="26.346" r="26.346" transform="translate(21.718 22.157)" fill="#6e6e70"/>
          <circle id="Ellipse_33" data-name="Ellipse 33" cx="7.017" cy="7.017" r="7.017" transform="translate(41.048 41.487)" fill="#404040"/>
          <g id="Group_102" data-name="Group 102" transform="translate(31.813 30.757)">
            <circle id="Ellipse_34" data-name="Ellipse 34" cx="2.646" cy="2.646" r="2.646" transform="translate(13.606)" fill="#333335"/>
            <circle id="Ellipse_35" data-name="Ellipse 35" cx="2.646" cy="2.646" r="2.646" transform="translate(27.01 7.766)" fill="#333335"/>
            <circle id="Ellipse_36" data-name="Ellipse 36" cx="2.646" cy="2.646" r="2.646" transform="translate(27.01 22.634)" fill="#333335"/>
            <circle id="Ellipse_37" data-name="Ellipse 37" cx="2.646" cy="2.646" r="2.646" transform="translate(13.265 30.244)" fill="#333335"/>
            <circle id="Ellipse_38" data-name="Ellipse 38" cx="2.646" cy="2.646" r="2.646" transform="translate(0 22.634)" fill="#333335"/>
            <circle id="Ellipse_39" data-name="Ellipse 39" cx="2.646" cy="2.646" r="2.646" transform="translate(0.601 7.766)" fill="#333335"/>
          </g>
          <g id="Group_121" data-name="Group 121">
            <g id="Group_103" data-name="Group 103" transform="translate(15.453 9.597)">
              <path id="Path_370" data-name="Path 370" d="M700.634,624.256l-1.8,1.5a.6.6,0,0,1-.815-.04l-4.458-4.533a.6.6,0,0,1,.044-.888l2.624-2.179a.6.6,0,0,1,.881.119l3.637,5.215A.6.6,0,0,1,700.634,624.256Z" transform="translate(-693.383 -617.974)" fill="#303030"/>
            </g>
            <g id="Group_104" data-name="Group 104" transform="translate(29.841 1.823)">
              <path id="Path_371" data-name="Path 371" d="M713.376,617.61l-2.065,1.11a.6.6,0,0,1-.792-.2l-3.471-5.327a.6.6,0,0,1,.22-.862l3-1.615a.6.6,0,0,1,.84.291l2.531,5.833A.6.6,0,0,1,713.376,617.61Z" transform="translate(-706.951 -610.643)" fill="#303030"/>
            </g>
            <g id="Group_105" data-name="Group 105" transform="translate(0.221 37.793)">
              <path id="Path_372" data-name="Path 372" d="M686.781,646.281l-.2,2.335a.6.6,0,0,1-.6.553h-6.359a.6.6,0,0,1-.6-.654l.287-3.4a.6.6,0,0,1,.7-.544l6.269,1.064A.6.6,0,0,1,686.781,646.281Z" transform="translate(-679.02 -644.562)" fill="#303030"/>
            </g>
            <g id="Group_106" data-name="Group 106" transform="translate(5.212 22.224)">
              <path id="Path_373" data-name="Path 373" d="M691.791,634.336l-1.144,2.046a.6.6,0,0,1-.776.256l-5.79-2.627a.6.6,0,0,1-.278-.844l1.665-2.977a.6.6,0,0,1,.864-.206l5.27,3.557A.6.6,0,0,1,691.791,634.336Z" transform="translate(-683.726 -629.881)" fill="#303030"/>
            </g>
            <g id="Group_107" data-name="Group 107" transform="translate(0 54.662)">
              <path id="Path_374" data-name="Path 374" d="M686.321,660.952l.469,2.3a.6.6,0,0,1-.422.7l-6.1,1.788a.6.6,0,0,1-.761-.458l-.682-3.343a.6.6,0,0,1,.521-.72l6.315-.743A.6.6,0,0,1,686.321,660.952Z" transform="translate(-678.811 -660.469)" fill="#303030"/>
            </g>
            <g id="Group_108" data-name="Group 108" transform="translate(15.298 79.209)">
              <path id="Path_375" data-name="Path 375" d="M698.681,683.756l1.8,1.5a.6.6,0,0,1,.11.81l-3.635,5.216a.6.6,0,0,1-.881.12l-2.625-2.178a.6.6,0,0,1-.045-.888l4.456-4.534A.6.6,0,0,1,698.681,683.756Z" transform="translate(-693.237 -683.617)" fill="#303030"/>
            </g>
            <g id="Group_109" data-name="Group 109" transform="translate(5.217 68.042)">
              <path id="Path_376" data-name="Path 376" d="M690.8,673.424l1.033,2.1a.6.6,0,0,1-.231.784l-5.452,3.272a.6.6,0,0,1-.853-.253l-1.5-3.06a.6.6,0,0,1,.322-.829l5.922-2.314A.6.6,0,0,1,690.8,673.424Z" transform="translate(-683.73 -673.086)" fill="#303030"/>
            </g>
            <g id="Group_110" data-name="Group 110" transform="translate(29.39 86.43)">
              <path id="Path_377" data-name="Path 377" d="M710.545,690.482l2.124.992a.6.6,0,0,1,.312.755l-2.194,5.967a.6.6,0,0,1-.822.339l-3.091-1.442a.6.6,0,0,1-.268-.847l3.161-5.517A.6.6,0,0,1,710.545,690.482Z" transform="translate(-706.525 -690.426)" fill="#303030"/>
            </g>
            <g id="Group_111" data-name="Group 111" transform="translate(73.408 78.756)">
              <path id="Path_378" data-name="Path 378" d="M748.264,684.761l1.847-1.443a.6.6,0,0,1,.814.065l4.323,4.663a.605.605,0,0,1-.071.886l-2.687,2.1a.6.6,0,0,1-.877-.145l-3.482-5.319A.6.6,0,0,1,748.264,684.761Z" transform="translate(-748.033 -683.189)" fill="#303030"/>
            </g>
            <g id="Group_112" data-name="Group 112" transform="translate(60.276 86.472)">
              <path id="Path_379" data-name="Path 379" d="M736.056,691.266l2.215-.767a.6.6,0,0,1,.75.326l2.576,5.812a.6.6,0,0,1-.354.814l-3.223,1.117a.6.6,0,0,1-.783-.422l-1.568-6.161A.6.6,0,0,1,736.056,691.266Z" transform="translate(-735.65 -690.465)" fill="#303030"/>
            </g>
            <g id="Group_113" data-name="Group 113" transform="translate(45.415 89.414)">
              <path id="Path_380" data-name="Path 380" d="M723.038,693.24l2.343.09a.6.6,0,0,1,.58.575l.292,6.351a.6.6,0,0,1-.626.631l-3.408-.129a.605.605,0,0,1-.577-.677l.775-6.311A.6.6,0,0,1,723.038,693.24Z" transform="translate(-721.637 -693.24)" fill="#303030"/>
            </g>
            <g id="Group_114" data-name="Group 114" transform="translate(82.79 67.913)">
              <path id="Path_381" data-name="Path 381" d="M756.977,675.206l1.277-1.966a.6.6,0,0,1,.791-.2l5.6,3a.6.6,0,0,1,.222.861l-1.858,2.86a.6.6,0,0,1-.876.148l-5.023-3.9A.6.6,0,0,1,756.977,675.206Z" transform="translate(-756.88 -672.965)" fill="#303030"/>
            </g>
            <g id="Group_115" data-name="Group 115" transform="translate(88.091 38.797)">
              <path id="Path_382" data-name="Path 382" d="M762.132,649.714l-.25-2.33a.6.6,0,0,1,.486-.658l6.243-1.207a.6.6,0,0,1,.715.528l.364,3.391a.6.6,0,0,1-.587.668l-6.355.146A.606.606,0,0,1,762.132,649.714Z" transform="translate(-761.879 -645.509)" fill="#303030"/>
            </g>
            <g id="Group_116" data-name="Group 116" transform="translate(88.74 54.071)">
              <path id="Path_383" data-name="Path 383" d="M762.51,662.634l.585-2.269a.606.606,0,0,1,.686-.444l6.267,1.069a.6.6,0,0,1,.484.745l-.853,3.3a.6.6,0,0,1-.785.419l-6-2.1A.6.6,0,0,1,762.51,662.634Z" transform="translate(-762.491 -659.912)" fill="#303030"/>
            </g>
            <g id="Group_117" data-name="Group 117" transform="translate(61.469 1.758)">
              <path id="Path_384" data-name="Path 384" d="M739.455,618.656l-2.247-.666a.6.6,0,0,1-.42-.7l1.291-6.225a.6.6,0,0,1,.762-.457l3.27.97a.6.6,0,0,1,.391.8l-2.313,5.922A.6.6,0,0,1,739.455,618.656Z" transform="translate(-736.775 -610.582)" fill="#303030"/>
            </g>
            <g id="Group_118" data-name="Group 118" transform="translate(74.346 9.705)">
              <path id="Path_385" data-name="Path 385" d="M750.844,625.742l-1.729-1.581a.6.6,0,0,1-.071-.815l3.88-5.036a.6.6,0,0,1,.885-.076l2.518,2.3a.605.605,0,0,1,0,.89l-4.668,4.316A.6.6,0,0,1,750.844,625.742Z" transform="translate(-748.917 -618.076)" fill="#303030"/>
            </g>
            <g id="Group_119" data-name="Group 119" transform="translate(83.751 22.157)">
              <path id="Path_386" data-name="Path 386" d="M759.008,636.321l-1.144-2.046a.6.6,0,0,1,.189-.8l5.268-3.559a.6.6,0,0,1,.865.206l1.665,2.977a.6.6,0,0,1-.278.844l-5.789,2.628A.6.6,0,0,1,759.008,636.321Z" transform="translate(-757.786 -629.818)" fill="#303030"/>
            </g>
            <g id="Group_120" data-name="Group 120" transform="translate(45.756)">
              <path id="Path_387" data-name="Path 387" d="M725.438,616.467h-2.344a.6.6,0,0,1-.6-.554l-.533-6.335a.6.6,0,0,1,.6-.654h3.411a.6.6,0,0,1,.6.654l-.533,6.335A.6.6,0,0,1,725.438,616.467Z" transform="translate(-721.958 -608.924)" fill="#303030"/>
            </g>
          </g>
        </g>
        <g id="Group_143" data-name="Group 143" transform="translate(0 122.353)">
          <circle id="Ellipse_40" data-name="Ellipse 40" cx="61.415" cy="61.415" r="61.415" transform="translate(4.363 4.964)" fill="#404040"/>
          <circle id="Ellipse_41" data-name="Ellipse 41" cx="36.056" cy="36.056" r="36.056" transform="translate(29.722 30.323)" fill="#6e6e70"/>
          <circle id="Ellipse_42" data-name="Ellipse 42" cx="9.602" cy="9.602" r="9.602" transform="translate(56.175 56.776)" fill="#404040"/>
          <g id="Group_123" data-name="Group 123" transform="translate(43.537 42.093)">
            <circle id="Ellipse_43" data-name="Ellipse 43" cx="3.621" cy="3.621" r="3.621" transform="translate(18.62)" fill="#333335"/>
            <circle id="Ellipse_44" data-name="Ellipse 44" cx="3.621" cy="3.621" r="3.621" transform="translate(36.965 10.628)" fill="#333335"/>
            <circle id="Ellipse_45" data-name="Ellipse 45" cx="3.621" cy="3.621" r="3.621" transform="translate(36.965 30.976)" fill="#333335"/>
            <circle id="Ellipse_46" data-name="Ellipse 46" cx="3.621" cy="3.621" r="3.621" transform="translate(18.153 41.39)" fill="#333335"/>
            <circle id="Ellipse_47" data-name="Ellipse 47" cx="3.621" cy="3.621" r="3.621" transform="translate(0 30.976)" fill="#333335"/>
            <circle id="Ellipse_48" data-name="Ellipse 48" cx="3.621" cy="3.621" r="3.621" transform="translate(0.822 10.628)" fill="#333335"/>
          </g>
          <g id="Group_142" data-name="Group 142">
            <g id="Group_124" data-name="Group 124" transform="translate(21.148 13.134)">
              <path id="Path_388" data-name="Path 388" d="M506.616,596.175l-2.468,2.049a.825.825,0,0,1-1.117-.056l-6.1-6.2a.826.826,0,0,1,.062-1.215l3.591-2.981a.826.826,0,0,1,1.206.162l4.977,7.137A.825.825,0,0,1,506.616,596.175Z" transform="translate(-496.693 -587.577)" fill="#303030"/>
            </g>
            <g id="Group_125" data-name="Group 125" transform="translate(40.838 2.494)">
              <path id="Path_389" data-name="Path 389" d="M524.053,587.08l-2.825,1.52a.825.825,0,0,1-1.083-.277l-4.751-7.29a.827.827,0,0,1,.3-1.179l4.11-2.211a.827.827,0,0,1,1.15.4l3.465,7.982A.826.826,0,0,1,524.053,587.08Z" transform="translate(-515.261 -577.544)" fill="#303030"/>
            </g>
            <g id="Group_126" data-name="Group 126" transform="translate(0.302 51.72)">
              <path id="Path_390" data-name="Path 390" d="M487.657,626.316l-.269,3.2a.827.827,0,0,1-.824.757l-8.7,0a.826.826,0,0,1-.823-.895l.393-4.651a.826.826,0,0,1,.961-.746l8.579,1.457A.825.825,0,0,1,487.657,626.316Z" transform="translate(-477.036 -623.963)" fill="#303030"/>
            </g>
            <g id="Group_127" data-name="Group 127" transform="translate(7.132 30.414)">
              <path id="Path_391" data-name="Path 391" d="M494.513,609.969l-1.565,2.8a.827.827,0,0,1-1.063.349l-7.924-3.594a.824.824,0,0,1-.38-1.155l2.277-4.074a.827.827,0,0,1,1.183-.282l7.212,4.869A.824.824,0,0,1,494.513,609.969Z" transform="translate(-483.476 -603.872)" fill="#303030"/>
            </g>
            <g id="Group_128" data-name="Group 128" transform="translate(0 74.807)">
              <path id="Path_392" data-name="Path 392" d="M487.028,646.395l.641,3.143a.826.826,0,0,1-.577.959l-8.349,2.448a.827.827,0,0,1-1.042-.628l-.932-4.574a.825.825,0,0,1,.713-.985l8.642-1.018A.827.827,0,0,1,487.028,646.395Z" transform="translate(-476.751 -645.734)" fill="#303030"/>
            </g>
            <g id="Group_129" data-name="Group 129" transform="translate(20.935 108.401)">
              <path id="Path_393" data-name="Path 393" d="M503.944,677.6l2.469,2.049a.826.826,0,0,1,.151,1.108l-4.976,7.138a.825.825,0,0,1-1.2.163l-3.593-2.98a.828.828,0,0,1-.061-1.215l6.1-6.206A.827.827,0,0,1,503.944,677.6Z" transform="translate(-496.492 -677.412)" fill="#303030"/>
            </g>
            <g id="Group_130" data-name="Group 130" transform="translate(7.138 93.118)">
              <path id="Path_394" data-name="Path 394" d="M493.155,663.463l1.415,2.879a.826.826,0,0,1-.317,1.072l-7.46,4.477a.825.825,0,0,1-1.167-.345l-2.057-4.189a.825.825,0,0,1,.44-1.134l8.105-3.168A.825.825,0,0,1,493.155,663.463Z" transform="translate(-483.482 -663.001)" fill="#303030"/>
            </g>
            <g id="Group_131" data-name="Group 131" transform="translate(40.221 118.284)">
              <path id="Path_395" data-name="Path 395" d="M520.18,686.809l2.908,1.356a.826.826,0,0,1,.426,1.034l-3,8.166a.826.826,0,0,1-1.124.465l-4.23-1.972a.826.826,0,0,1-.368-1.16l4.326-7.549A.826.826,0,0,1,520.18,686.809Z" transform="translate(-514.678 -686.731)" fill="#303030"/>
            </g>
            <g id="Group_132" data-name="Group 132" transform="translate(100.46 107.781)">
              <path id="Path_396" data-name="Path 396" d="M571.8,678.978,574.328,677a.826.826,0,0,1,1.115.09l5.915,6.381a.826.826,0,0,1-.1,1.212l-3.678,2.875a.825.825,0,0,1-1.2-.2l-4.766-7.28A.828.828,0,0,1,571.8,678.978Z" transform="translate(-571.483 -676.827)" fill="#303030"/>
            </g>
            <g id="Group_133" data-name="Group 133" transform="translate(82.489 118.341)">
              <path id="Path_397" data-name="Path 397" d="M555.093,687.879l3.032-1.049a.825.825,0,0,1,1.025.445l3.526,7.955a.826.826,0,0,1-.485,1.116l-4.411,1.527a.826.826,0,0,1-1.071-.577l-2.147-8.432A.827.827,0,0,1,555.093,687.879Z" transform="translate(-554.537 -686.785)" fill="#303030"/>
            </g>
            <g id="Group_134" data-name="Group 134" transform="translate(62.153 122.368)">
              <path id="Path_398" data-name="Path 398" d="M537.277,690.583l3.206.122a.825.825,0,0,1,.793.788l.4,8.692a.825.825,0,0,1-.857.863l-4.664-.178a.825.825,0,0,1-.788-.926l1.059-8.637A.825.825,0,0,1,537.277,690.583Z" transform="translate(-535.36 -690.582)" fill="#303030"/>
            </g>
            <g id="Group_135" data-name="Group 135" transform="translate(113.301 92.942)">
              <path id="Path_399" data-name="Path 399" d="M583.725,665.9l1.747-2.69a.828.828,0,0,1,1.084-.278l7.669,4.11a.826.826,0,0,1,.3,1.178l-2.542,3.914a.826.826,0,0,1-1.2.2L583.911,667A.825.825,0,0,1,583.725,665.9Z" transform="translate(-583.591 -662.835)" fill="#303030"/>
            </g>
            <g id="Group_136" data-name="Group 136" transform="translate(120.556 53.095)">
              <path id="Path_400" data-name="Path 400" d="M590.78,631.015l-.342-3.19a.827.827,0,0,1,.665-.9l8.543-1.651a.826.826,0,0,1,.978.722l.5,4.641a.826.826,0,0,1-.8.914l-8.7.2A.826.826,0,0,1,590.78,631.015Z" transform="translate(-590.433 -625.26)" fill="#303030"/>
            </g>
            <g id="Group_137" data-name="Group 137" transform="translate(121.443 73.999)">
              <path id="Path_401" data-name="Path 401" d="M591.3,648.7l.8-3.106a.826.826,0,0,1,.938-.608l8.577,1.461a.827.827,0,0,1,.662,1.021l-1.168,4.519a.826.826,0,0,1-1.073.574l-8.212-2.875A.826.826,0,0,1,591.3,648.7Z" transform="translate(-591.269 -644.972)" fill="#303030"/>
            </g>
            <g id="Group_138" data-name="Group 138" transform="translate(84.122 2.406)">
              <path id="Path_402" data-name="Path 402" d="M559.744,588.511l-3.076-.912a.826.826,0,0,1-.574-.96l1.766-8.52a.825.825,0,0,1,1.044-.625l4.475,1.327a.827.827,0,0,1,.535,1.093l-3.164,8.105A.827.827,0,0,1,559.744,588.511Z" transform="translate(-556.077 -577.46)" fill="#303030"/>
            </g>
            <g id="Group_139" data-name="Group 139" transform="translate(101.744 13.281)">
              <path id="Path_403" data-name="Path 403" d="M575.33,598.208l-2.368-2.164a.825.825,0,0,1-.1-1.113l5.311-6.892a.826.826,0,0,1,1.212-.106l3.445,3.15a.827.827,0,0,1,0,1.216l-6.388,5.907A.827.827,0,0,1,575.33,598.208Z" transform="translate(-572.694 -587.716)" fill="#303030"/>
            </g>
            <g id="Group_140" data-name="Group 140" transform="translate(114.616 30.323)">
              <path id="Path_404" data-name="Path 404" d="M586.5,612.686l-1.566-2.8a.827.827,0,0,1,.259-1.088l7.211-4.871a.827.827,0,0,1,1.184.282l2.279,4.073a.827.827,0,0,1-.38,1.156l-7.924,3.6A.827.827,0,0,1,586.5,612.686Z" transform="translate(-584.831 -603.786)" fill="#303030"/>
            </g>
            <g id="Group_141" data-name="Group 141" transform="translate(62.618)">
              <path id="Path_405" data-name="Path 405" d="M540.563,585.515h-3.208a.826.826,0,0,1-.824-.757l-.73-8.67a.826.826,0,0,1,.823-.9h4.668a.826.826,0,0,1,.823.9l-.73,8.67A.826.826,0,0,1,540.563,585.515Z" transform="translate(-535.798 -575.192)" fill="#303030"/>
            </g>
          </g>
        </g>
        <g id="Group_144" data-name="Group 144" transform="translate(196.801 143.175)">
          <path id="Path_406" data-name="Path 406" d="M662.33,651.861H667.2c8.414-29.588,33.982-51.095,63.27-51.095q1.158,0,2.295.047l2.579-5.792c-1.606-.133-3.233-.2-4.874-.2C698.216,594.826,670.918,618.951,662.33,651.861Z" transform="translate(-662.33 -594.826)" fill="#001c0a"/>
        </g>
      </g>
    </g>
    <g id="Group_155" data-name="Group 155" transform="translate(16.748 798.375)">
      <rect id="Rectangle_395" data-name="Rectangle 395" width="9.715" height="145.407" transform="translate(31.929 113.96)" fill="#863524"/>
      <path id="Path_227" data-name="Path 227" d="M106.195,262.645c-9.715,0-22.387,11.4-19.853,27.877,1.893,12.305-3.882,16.26-10.56,25.344-5.064,6.89-20.153,16.9-11.369,40.633,4.189,11.321-1.653,19.876-7.638,26.949-13.938,16.473-23.08,73.606,35.772,60.823,52.508-11.4,23.666-48.387,28.854-67.582,4.224-15.628,19.2-27.455,12.867-44.35s-19.694-22.832-14.2-38.882S118.867,262.645,106.195,262.645Z" transform="translate(-46.396 -262.645)" fill="url(#linear-gradient-13)"/>
    </g>
    <g id="Group_510" data-name="Group 510" transform="translate(1761.748 826.72)">
      <rect id="Rectangle_395-2" data-name="Rectangle 395" width="8.653" height="129.516" transform="translate(28.439 101.506)" fill="#863524"/>
      <path id="Path_227-2" data-name="Path 227" d="M99.66,262.645c-8.653,0-19.94,10.157-17.683,24.83,1.686,10.961-3.457,14.483-9.406,22.574C68.06,316.187,54.62,325.1,62.444,346.242c3.731,10.083-1.473,17.7-6.8,24C43.226,384.919,35.083,435.808,87.5,424.422c46.769-10.157,21.079-43.1,25.7-60.2,3.763-13.92,17.1-24.454,11.461-39.5s-17.542-20.337-12.651-34.633S110.947,262.645,99.66,262.645Z" transform="translate(-46.396 -262.645)" fill="url(#linear-gradient-13)"/>
    </g>
    <g id="Group_152" data-name="Group 152" transform="translate(77.43 773.359)">
      <rect id="Rectangle_394" data-name="Rectangle 394" width="10.649" height="159.381" transform="translate(34.997 124.912)" fill="#863524"/>
      <path id="Path_226" data-name="Path 226" d="M206.211,164.616c-10.649,0-24.538,12.5-21.76,30.557,2.076,13.488-4.256,17.822-11.574,27.779-5.552,7.554-22.091,18.527-12.463,44.539,4.592,12.408-1.812,21.787-8.371,29.538-15.278,18.056-25.3,80.68,39.21,66.669,57.553-12.5,25.94-53.037,31.626-74.077,4.63-17.13,21.048-30.094,14.1-48.613s-21.586-25.025-15.568-42.618S220.1,164.617,206.211,164.616Z" transform="translate(-140.666 -164.616)" fill="url(#linear-gradient-15)"/>
    </g>
    <g id="Group_153" data-name="Group 153" transform="translate(1583.882 799.788)">
      <path id="Path_229" data-name="Path 229" d="M280.869,349.932l3.118,2.694a135.6,135.6,0,0,0,10.91-8.661,179.966,179.966,0,0,0,19.975-20.023c6.99-8.38,12.9-17.64,14.733-26.425,2.539-12.146-3.717-20.912-10.64-26.656-1.361.608-20.95,27.013-20.95,27.013.212,1.062,3.668,4.354,3.668,4.354l11.064-15.621c-.946,8.815-4.5,18.411-8.91,27.409a201.133,201.133,0,0,1-14.917,25.025C284.306,345.713,280.869,349.932,280.869,349.932Z" transform="translate(-199.133 -200.986)" fill="url(#linear-gradient-16)"/>
      <path id="Path_230" data-name="Path 230" d="M301.613,260.665c.424,1.062,6.8,0,6.8,0,1.912-10.62-1.062-36.156,1.7-36.794s14.666,18.093,14.666,18.093c-6.662,10.253-11.654,23.846-14.444,32.565-1.67,5.194-2.558,8.66-2.558,8.66l65.381,19.464.28.087,2.182-3.08s-3.456-3.292-3.668-4.354c0,0,19.589-26.405,20.95-27.013l-.058-.039q-1.419-1.173-2.838-2.172c-.059-.04-.117-.078-.165-.107-.482-.347-.956-.666-1.428-.975a53.279,53.279,0,0,0-10.089-5.184c-2-.067-4.712-1.428-7.463-3.253h-.01a95.643,95.643,0,0,1-11.654-9.5s-1-1.139-2.809-3.138v-.01c-1.381-1.536-3.225-3.573-5.436-6.005a.03.03,0,0,0-.01-.019c-1.1-1.2-2.288-2.5-3.552-3.881-3.312-3.611-7.183-7.782-11.373-12.232-13.874-14.7-26.541-30.885-39.719-19.55C285.471,211.543,301.188,259.6,301.613,260.665Z" transform="translate(-273.065 -198.418)" fill="url(#linear-gradient-17)"/>
      <path id="Path_231" data-name="Path 231" d="M300.1,258.7l-2.945,13.024,20.5-4.586a53.276,53.276,0,0,0-10.089-5.184C305.561,261.885,302.848,260.524,300.1,258.7Z" transform="translate(-202.305 -200.555)" opacity="0.32" fill="url(#linear-gradient-18)" style="mix-blend-mode: multiply;isolation: isolate"/>
      <path id="Path_232" data-name="Path 232" d="M315.359,257.028l18.663,1.207a95.644,95.644,0,0,1-11.654-9.5s-1-1.139-2.809-3.138Z" transform="translate(-236.24 -200.09)" opacity="0.32" fill="url(#linear-gradient-19)" style="mix-blend-mode: multiply;isolation: isolate"/>
      <path id="Path_233" data-name="Path 233" d="M315.752,247.178s-6.2,11.641-11.165,13.072-9.446-1.431-7.442-6.536,7.824-9.113,7.538-11.116-4.389,2.385-4.389,2.385l-3.2,3.617s4.724-9.056,6.251-9.152S315.656,244.984,315.752,247.178Z" transform="translate(-199.93 -199.872)" fill="#b77858"/>
      <path id="Path_234" data-name="Path 234" d="M294.985,363.777s-8.95,9.5-10.436,11.624l5.474,9.491s26.425-10.91,25.787-25.151c-.367-8.235-12.859-22.727-24.368-33.849a179.971,179.971,0,0,1-19.975,20.023C278.476,351.593,286.421,357.714,294.985,363.777Z" transform="translate(-175.702 -202.937)" fill="url(#linear-gradient-20)"/>
      <path id="Path_235" data-name="Path 235" d="M330.076,387.276s-10.875,12.777-18.381,18.7,8.893,9.445,14.981,10.908c1.515.365,4.392,3.258,2.408,3.542s-33.291,1.558-34,1.133,2.209-11.567,5.809-16.716,20.586-27.622,20.586-27.622Z" transform="translate(-212.637 -204.757)" fill="#863524"/>
      <path id="Path_236" data-name="Path 236" d="M292.5,396.052l8.921,1.7s41.785-60.592,48.446-81.281c0,0,9.231,9.1,23.847,21.308a201.129,201.129,0,0,0,14.917-25.025c-3.544-2.935-6.286-4.885-7.473-5.31l2.858-3.486,2.462-2.993s-3.456-3.292-3.668-4.354c0,0,19.589-26.405,20.95-27.013l-.058-.039-2.838-2.172-.155-.117-.01.01c-.415.425-13.777,14.019-22.137,26.56,0,0-34.216-22.524-36.128-28.684,0,0,17.5-23.412,19.377-25.941a.03.03,0,0,0-.01-.019c-.125-.26-1.564-3.234-3.552-3.881a2.346,2.346,0,0,0-.937-.116,188.653,188.653,0,0,0-36.118,40.636,132.836,132.836,0,0,0-10.417,19.28C295.684,329.966,292.71,383.52,292.5,396.052Z" transform="translate(-283.925 -199.721)" fill="url(#linear-gradient-21)"/>
      <path id="Path_237" data-name="Path 237" d="M301.009,273.1l59.24,145.336,10.908-.992s6.375,18.416,13.033,32.441L359.682,453s-14.45-31.874-14.025-35.133l9.633.284L299.05,276.884l-7.365-.68s-.85-1.7,0-2.125S301.009,273.1,301.009,273.1Z" transform="translate(-263.209 -201.065)" fill="#a5a5a5"/>
      <path id="Path_238" data-name="Path 238" d="M384.216,262.924s2.948,10.135,2.622,11.712-1.275,7.43-2.622,8.483-3.329-2.488-4.462-3.763.566-6.8,0-8.783-2.833-5.807-2.337-7.649S384.216,262.924,384.216,262.924Z" transform="translate(-348.872 -200.676)" fill="#b77858"/>
      <path id="Path_239" data-name="Path 239" d="M343.733,355.529S335.7,367.192,333.222,368.7c0,0-5.739,1.286-4.2-2.828s4.7-9.5,7.225-10.347a12.634,12.634,0,0,0,4.37-2.691Z" transform="translate(-258.876 -203.893)" fill="#b77858"/>
      <path id="Path_240" data-name="Path 240" d="M408.3,403.673s-14.449-1.2-16.008-1.487c0,0-4.108,39.1-5.667,54.258,0,0,23.8,3.116,29.041,1.133,0,0-1.842-2.834-3.825-3.542s-14.024,1.275-13.317-12.467S408.3,403.673,408.3,403.673Z" transform="translate(-386.626 -205.642)" fill="#863524"/>
      <g id="Group_17" data-name="Group 17" transform="translate(80.568 58.772)" opacity="0.32" style="mix-blend-mode: multiply;isolation: isolate">
        <path id="Path_241" data-name="Path 241" d="M317.523,273.715c2.379-2.249,14.976-13.508,15.1-13.632l-.693-.733c-.126.123-12.718,12.392-15.091,14.637Z" transform="translate(-316.841 -259.35)" fill="url(#linear-gradient-22)"/>
      </g>
      <path id="Path_242" data-name="Path 242" d="M337.56,285.21a42.693,42.693,0,0,0,2.481-5c.6-1.737,2.821-7.245,3.524-6.07s4.738,1.912,4.738,1.912c.181,1.842-2.162,1.071-3.216.974s-2.342,2.895-2.448,5.982a7.433,7.433,0,0,1-1.395,4.166Z" transform="translate(-271.945 -201.097)" fill="#a5a5a5"/>
      <path id="Path_243" data-name="Path 243" d="M313.767,244.7a24.447,24.447,0,0,1-7.874,8.872l5.946,5.52,9.216-5.865-.639-9.425-.851-2.515-3.193.641Z" transform="translate(-214.144 -199.938)" fill="#b77858"/>
      <path id="Path_244" data-name="Path 244" d="M345.277,281.106c1.873-3.157,5.106-8.494,6.39-10.231,0,0,2.134-.744,2.24.85.088,1.245-4.13,8.126-6.042,11.216Z" transform="translate(-284.983 -200.98)" fill="#a5a5a5"/>
      <g id="Group_24" data-name="Group 24" transform="translate(55.914 78.815)" style="mix-blend-mode: screen;isolation: isolate">
        <g id="Group_18" data-name="Group 18" transform="translate(23.085 13.751)">
          <path id="Path_245" data-name="Path 245" d="M334.1,298.054a4.255,4.255,0,0,0,.646-2.228v-.221l-1.975-1.218-.415.67,1.591.982a3.2,3.2,0,0,1-.478,1.544Z" transform="translate(-332.354 -294.387)" fill="url(#linear-gradient-23)"/>
        </g>
        <g id="Group_19" data-name="Group 19" transform="translate(14.577 8.424)">
          <path id="Path_246" data-name="Path 246" d="M342.96,293.981l.417-.669c-.839-.521-1.8-1.122-2.839-1.771l-.419.668C341.158,292.858,342.121,293.46,342.96,293.981Zm-4.259-2.663.421-.667c-.916-.576-1.868-1.178-2.828-1.786l-.422.665C336.831,290.139,337.785,290.741,338.7,291.318Z" transform="translate(-335.871 -288.864)" fill="url(#linear-gradient-24)"/>
        </g>
        <g id="Group_20" data-name="Group 20" transform="translate(2.216)">
          <path id="Path_247" data-name="Path 247" d="M355.626,288.315l.425-.665c-.955-.61-1.9-1.219-2.812-1.811l-.43.661C353.722,287.093,354.671,287.7,355.626,288.315Zm-4.22-2.733.434-.659c-1.011-.665-1.951-1.293-2.777-1.86l-.446.65C349.446,284.283,350.391,284.915,351.406,285.583Zm-4.166-2.833.46-.64a10.289,10.289,0,0,1-1.783-1.435,1.058,1.058,0,0,0-1.234-.489l.252.748c.146-.014.244.068.347.208A9.66,9.66,0,0,0,347.24,282.75Z" transform="translate(-344.683 -280.13)" fill="url(#linear-gradient-25)"/>
        </g>
        <g id="Group_21" data-name="Group 21" transform="translate(0 1.487)">
          <path id="Path_248" data-name="Path 248" d="M358.244,285.278l.432-.66-1.5-.986a12.188,12.188,0,0,1,.679-1.591l-.7-.369a13.46,13.46,0,0,0-.83,2.006l-.088.283Z" transform="translate(-356.244 -281.672)" fill="url(#linear-gradient-26)"/>
        </g>
        <g id="Group_22" data-name="Group 22" transform="translate(3.364 5.326)">
          <path id="Path_249" data-name="Path 249" d="M354.586,290.747l.424-.666c-.94-.6-1.864-1.192-2.749-1.762l-.427.663C352.72,289.553,353.645,290.147,354.586,290.747Zm-4.123-2.653.427-.663c-1.005-.65-1.932-1.254-2.738-1.78l-.431.66C348.527,286.839,349.455,287.443,350.462,288.094Z" transform="translate(-347.72 -285.652)" fill="url(#linear-gradient-27)"/>
        </g>
        <g id="Group_23" data-name="Group 23" transform="translate(11.609 10.63)">
          <path id="Path_250" data-name="Path 250" d="M346.009,298.482l.294-.732a27.151,27.151,0,0,1-2.849-1.487l-.393.684A27.676,27.676,0,0,0,346.009,298.482Zm-4.364-2.363.4-.677c-.867-.514-1.808-1.086-2.79-1.692l-.414.671C339.83,295.028,340.775,295.6,341.645,296.118Zm-4.194-2.559.417-.669c-.908-.566-1.837-1.152-2.765-1.739l-.422.667C335.61,292.406,336.542,292.992,337.451,293.559Z" transform="translate(-334.681 -291.151)" fill="url(#linear-gradient-28)"/>
        </g>
      </g>
      <path id="Path_251" data-name="Path 251" d="M301.274,251.833c.917,1.814,6.555-7.6,8.077-8.065.455-.14.51.388.364,1.2a6.489,6.489,0,0,1-1.519,3.093c-2.556,2.939-5.638,7.716-2.487,11.069,4.858,5.163,12.09-3.017,12.948-4.065s.494-1.138-4.734-1.573a4.369,4.369,0,0,1-4.045-3.54c-.726-5.563,4.045-6.956,4.045-8.465,0,0,.658-8.14-3.929-2.12S303.733,248.1,301.274,251.833Z" transform="translate(-207.648 -199.791)" fill="#292949"/>
      <path id="Path_252" data-name="Path 252" d="M309.355,249.38a.043.043,0,0,1-.063.03c-.989-.545-16.1-8.888-16.934-10.087-.859-1.239,3.626-4.483,7.442-3.053S310.535,243.766,309.355,249.38Z" transform="translate(-189.419 -199.747)" fill="#863524"/>
    </g>
    <g id="Group_154" data-name="Group 154" transform="translate(1415.064 984.517)">
      <path id="Path_319" data-name="Path 319" d="M461,440.758a93.214,93.214,0,0,0,2.733,13.548" transform="translate(-445.451 -386.116)" fill="none" stroke="#ad7657" stroke-miterlimit="10" stroke-width="1"/>
      <path id="Path_320" data-name="Path 320" d="M454.031,439.938q-.4,7.194-1.1,14.364" transform="translate(-445.165 -386.087)" fill="none" stroke="#ad7657" stroke-miterlimit="10" stroke-width="1"/>
      <path id="Path_321" data-name="Path 321" d="M508.6,417.065c1-2.118,5.276-2.85,7.025-1.43,1.5,1.218,1.108,2.911.32,4.369,1.263.7,2.984.681,3.218,2.54a2.637,2.637,0,0,1-2.56,2.79c-3.724.249-4.418-4.494-5.961-6.858C510.287,417.929,509.323,416.506,508.6,417.065Z" transform="translate(-447.139 -385.2)" fill="url(#linear-gradient-29)"/>
      <path id="Path_322" data-name="Path 322" d="M460.336,396.124c.891,15.83,18.233,17.029,29.741,16.692,12.974-.379,18.617,1.453,23.871,14.173-5.718.688-7.936-2.043-13.691,1.85-4.375,2.959-6.451,9.224-10.713,12.508-8.549,6.587-27.655,7.575-36.478.1-5.794-4.913-9.176-14.829-7.93-24.3.7-5.292,12.78-25.672,15.2-21.015C460.4,397.328,459.405,394.332,460.336,396.124Z" transform="translate(-444.879 -384.509)" fill="url(#linear-gradient-30)"/>
      <path id="Path_323" data-name="Path 323" d="M514.448,424l3.412,7.52-9.279-3.739a17.028,17.028,0,0,1,2.349-2.425A9.055,9.055,0,0,1,514.448,424Z" transform="translate(-447.138 -385.522)" fill="#f0b148"/>
      <path id="Path_324" data-name="Path 324" d="M481.716,428.262c.372,1.642-2.574,4.242-3.617,5.266a18.9,18.9,0,0,1-5.627,4.125,13.139,13.139,0,0,1-11.763-.083,14.739,14.739,0,0,1-7.357-9.912,10.724,10.724,0,0,1,6.031-11.872,10.992,10.992,0,0,1,6.472-.866c1.2.211,4.746,1.374,4.772,2.917" transform="translate(-445.174 -385.195)" fill="none" stroke="#ef2e3d" stroke-miterlimit="10" stroke-width="0.5"/>
      <path id="Path_325" data-name="Path 325" d="M463.77,399.571c1.823-.21,4.611-1.067,6.409-1.28,2.59-.308,6.929-.77,8.568-3.23,1.368-2.053-1.869-1.884-3.12-1.739A57.242,57.242,0,0,0,469.3,394.5c-2.639.619-5.079,1.626-7.662,2.389a18.156,18.156,0,0,1,3.264-2.1,39.062,39.062,0,0,0,5.038-4.167c1.4-1.352,5.174-4.208,4.86-6.477-1.466-.289-2.932.918-4.022,1.758-1.728,1.329-3.26,2.9-4.873,4.361-1.931,1.746-3.43,3.877-5.184,5.767.668-1.278.362-3.486.16-4.879a12.871,12.871,0,0,0-1.918-5.007c-.56-.862-1.445-2.083-2.625-1.874-1.6.286-1.818,2.521-1.791,3.752a14.986,14.986,0,0,0,2.961,8.817C458.2,397.759,459.169,400.1,463.77,399.571Z" transform="translate(-445.222 -384.108)" fill="url(#linear-gradient-29)"/>
      <path id="Path_326" data-name="Path 326" d="M508.609,420.743a1.586,1.586,0,1,0,2.23.243A1.585,1.585,0,0,0,508.609,420.743Z" transform="translate(-447.118 -385.394)" fill="#ad7657"/>
    </g>
    <g id="Group_76" data-name="Group 76" transform="translate(0 1023.403)">
      <path id="Path_314" data-name="Path 314" d="M983.947,455.6c.289-.021.579-.031.886-.052A3.088,3.088,0,0,0,983.947,455.6Zm496.762-2.675c-.1,0-.085.01.017.01C1480.709,452.937,1480.709,452.926,1480.709,452.926Zm1.517.073c.409-.021-1.107-.042-1.5-.063.666.585-.835,3.343-.17,4.8.2.031.41.063.632.084C1480.862,456.855,1482.516,453.94,1482.226,453Zm13.173,9.967c.034.219.085.428.121.648.307.021.63.042.937.052A6.311,6.311,0,0,1,1495.4,462.966Zm26.076-14.867c.1.136.2.261.29.4.9-.355,1.875-.7,2.9-1.034C1523.589,447.671,1522.533,447.891,1521.476,448.1ZM1495.4,462.966c.034.219.085.428.121.648.307.021.63.042.937.052A6.311,6.311,0,0,1,1495.4,462.966Zm454.412-4.067v-.836c0-1.325-2.491-2.062-4.183-1.238l-.451.22c-1.284.625-3.231.373-3.919-.539-1.006-1.336.839-1.709,8.553-3.267v-.763c-2.076.349-4.145.7-6.385,1.092-1.332.23-2.734-.231-3.163-1.037-2.312-4.346-4.54-8.579-6.794-12.811-1.143,1.316-.5,2.581-.477,3.855.085,3.792,5.232,7.616-.734,11.357a24.442,24.442,0,0,1-4.467,1.678,4,4,0,0,1-1.751.15c-.63-.082-1.259-.164-1.894-.24l.026-.073c.658-1.816-3.445-2.716-4.818-1.057a18.575,18.575,0,0,1-5.946,5.09h-1.754a5.527,5.527,0,0,1-1.228-1.421c-1.039-1.484,1.807-3.239-4.55-4.4-1.022-.178-1.039-.982-.6-1.431,1.4-1.421,3.2-2.821,4.857-4.2-4.5.815-9.374,1.713-14.146,2.6-3.493-5.412-6.92-10.719-10.344-16.037-.579.021-1.175.042-1.756.073a4.153,4.153,0,0,0,.2.731c1.875,5.286,3.818,10.563,5.574,15.859.136.418-1.109.888-1.7,1.337-1.33-.219-2.676-.439-3.119-.512l-4.4,2.96-2.465-.588V444.788h-2.25q-1.282,6.364-2.614,12.727l-3.249.29c-.887-1.222-1.79-2.445-2.592-3.667-.711-1.075-1.28-2.161-1.926-3.245l-1.771.132c-.528,2.685-1.057,5.38-1.688,8.6-7.379-5.172-13.889-9.748-20.928-14.668v4.869c-2.66.742-5.319,1.484-8.233,2.3-.954-.648-1.807-1.233-2.829-1.912.647,3.187.647,3.187-3.544,4.3-11.061-6.3-13.175-12.5-.306-18.816a138.625,138.625,0,0,0-15.169,8.3q-7.711,4.711-15.352,9.444l-1.994-.368c-.438-1.344-.875-2.672-1.161-3.57-1.262,1.891-2.779,4.169-4.278,6.436l-5.062,1.013c-2-2.5-3.888-4.885-5.8-7.26l-2.251.473c.4,1.2.8,2.417,1.268,3.8-10.328-3.134-10.328-3.134-5.59-6.634.852-.627,1.737-1.264,2.607-1.891-.29-.031-.562-.052-.836-.084-2.284,1.1-4.532,2.194-7.6,3.688-4.619-2.016-8.486-3.709-12.356-5.391,2.488,2.288,8.573,4.43,8.556,6.572-.017,2.163-6.068,4.325-9.476,6.488q-1.022-.11-2.045-.188l-.016-.007c-.409-.5-.863-.975-1.263-1.466q-2.121-2.413-4.208-4.8c-.29.01-.562.031-.819.042.887,1.87,1.807,3.719,2.711,5.579.085.167.153.334.239.5-.308-.084-.615-.167-.9-.251-3.663-1.1-5.624-2.372-8.776-3.385-7.022-2.246-7.4-4.7-5.932-7.386,1.211-2.163,1.381-4.367,2.028-6.561-.29,0-.579-.01-.869-.021l-10.168,16.13-2.951.073c-2.143-2.724-4.267-5.444-6.514-8.3-1.7,2.372-3.358,4.67-5.131,7.1-1.669-.387-2.505-.575-3-.69.341,1.076,1.057,2.121.921,3.155-.094.618-1.48,1.213-2.268,1.837l-.016,0c-.63-.2-1.347-.387-2.045-.575a12.886,12.886,0,0,1-3-1.024c-4.278-2.56-7.773-5.2-12.254-7.721-2.847-1.578-4.874-3.009-3.6-4.869,1.909-2.779,2.113-5.642,3.05-8.463-.341-.021-.647-.042-.971-.063-2.114,2.9-4.21,5.8-6.528,9.006q-11.376-4.717-21.166-8.8c-.172.073-.427.209-.683.334-2.335-.533-4.551-1.055-6.765-1.567,6.509,2.685,6.526,2.685,4.942,6.028-.5,1.013-.581,2.069-1.79,3.03a60.112,60.112,0,0,1-6.337,3.7l-1.638-.243c-1.807-3.051-3.614-6.1-5.472-9.288-1.09.878-1.943,1.578-2.812,2.267.973.282,2.727.554,2.761.825.222,2.215.717,4.44-.051,6.634-.664,1.933-2.812,3.845-5.215,5.725v-5.192c-7.141,3.124-13.412,5.872-20.912,9.163,1.014-2.687,1.832-4.858,2.646-7.017l-2.13-.53c-1.909,1.948-3.837,3.9-5.748,5.822-4.568-1.066-5.436-1.578-1.907-3.134,8.555-3.772,17.707-7.449,26.636-11.179-11.077,3.458-22.138,6.927-34.392,10.751-.528-.669-1.073-1.327-1.6-2h-.017c-2.693-3.364-5.387-6.707-8.113-10.061h-.392c.409,1.776.8,3.542,1.313,5.8-6.562-3.082-12.186-5.715-17.811-8.358-.511.669.187,1.181,1.074,1.672,5.3,3.009,11.913,5.924,15.713,9.058a14.14,14.14,0,0,1,3.239,3.521,6.589,6.589,0,0,1,.562,1.233c.818,2.507-.528,5.046-5.521,7.543a19.006,19.006,0,0,1-2.114-2.413,26.543,26.543,0,0,1-1.568-2.351c-.255-.418-.494-.836-.75-1.254-.272-.418-.289-.878-1.04-1.233-1.4-.669-3.7-1.212-4.823-1.9-2.1-1.275-4.123-2.56-6.135-3.845-.511-.313-.989-.627-1.483-.94-2.25-1.431-4.465-2.873-6.715-4.3-.562.052-1.124.115-1.669.167.341.282.681.564,1.022.836,1.688,1.369,3.426,2.727,5.13,4.085.494.4.989.784,1.483,1.181,2.352,1.881,4.636,3.772,6.7,5.673.545.512.341,1.076-.034,1.651-.2.3-.444.606-.649.909a2.74,2.74,0,0,0-.324.585c-.2-.01-.426-.01-.63-.021-.562-.021-1.107-.042-1.671-.052l-.051-.031c-1.277-1.034-2.573-2.079-4.191-3.406-.5.888-.8,1.442-1.057,1.9-1.892-.993-4.108-2.142-6.511-3.364-.732-.387-1.5-.773-2.267-1.17-12.646-6.415-28.818-14.282-29.569-14.282,2.028,1.128,3.869,2.257,6.153,3.333,2.045.982,1.722,1.651-1.551,2.487a63.548,63.548,0,0,0-11.06,4.221c-.273.136-.547.261-.8.4-2.148,1.045-4.021,2.069-5.436,2.894-1.345.784-5.13,4.618-7.873,5.642-1.688-.836-4.176.522-6.528,2.016-.681.439-1.363.878-2.011,1.285-1.635,1.055-3.067,1.849-3.885,1.515a6.723,6.723,0,0,1-1.909-1.17c-.477.292-1.073.616-1.807.992-.119.324-.835,1.275-4.619,1.128,2.148-1.107,4.023-2.079,5.608-2.894-1.722-1.8-3.018-4.1-5.608-5.036,6.272,3.437.632,3.416-4.481,4.889a1.071,1.071,0,0,1-.359-.5c-6.526-.9-4.208-3.646-3.8-5.443a5.836,5.836,0,0,0,.2-1.076c.46-.272,1.363-.533,1.943-.8-.494-.324-.989-.648-1.466-.982l-1.637.021c-2.693,4.764-1.652,5.109-4.619,10.375-.306-4.336-2.573-6.269-3.272-6.237,3.1,5.318,2.556,8.525-3.374,7.313,1.431-6.958-1.654-3.688-21.883-1.755-4.142.4-3.784-3.479-3.154-4.618,1.483-2.685,2.522-5.391,3.75-8.086-.426-.021-.852-.031-1.277-.052-4.38,6.122-6.1,4.869-10.874,11.5-3.436-2.138-6.04-3.756-8.643-5.4l-.9.171c-.2.731-.409,1.463-.63,2.184h.136c-1.4.731-2.812,1.463-4.568,2.382-2.267-.763-3.989-1.337-5.028-1.692,7.124-7.094,17.946-13.561,28.513-20.049-.6-.063-1.194-.136-1.773-.209-10.532,6.039-21.048,12.077-31.751,18.2-6.085-.93-8.42-1.891-4.738-3.49a46.278,46.278,0,0,0,5.2-2.957c-.409-.052-.8-.094-1.192-.146q-4.6,1.99-9.221,3.991c-.836-.063-1.671-.115-2.505-.167.375-.825.034-1.734,1.295-2.445,5.71-3.2,11.879-6.342,17.879-9.507-.427-.063-.819-.125-1.245-.188-7.618,3.364-15.219,6.739-22.683,10.04-6.2-1.421-12.611-2.9-19.105-4.409-3.067-.71-6.17-1.421-9.255-2.131q4.652,1.332,9.306,2.643c4.806,1.379,9.578,2.748,14.214,4.169,1.686.512,1.824,1.379,2.71,2.079-.7.084-1.415.167-2.114.261-4.568-1-9.152-2-13.72-2.988-.136.042-.272.084-.409.115s-.273.073-.409.115c.153.042.323.083.477.136l12.117,3.322c-3.323,1.4-6.56,2.769-9.953,4.2-2.352.993-4.789,2.016-7.379,3.113,1.04-2.267,1.841-4.043,2.641-5.819-.289-.01-.6-.021-.886-.042-1.33,1.379-2.658,2.769-4.346,4.534-1.926-1.128-3.578-2.215-5.232-3.27a45.784,45.784,0,0,0-7.635-4.033c-6.7-2.727-4.516-4.942,2.591-7.146,2.011-.627,4.534-1.139,6.834-1.7,1.754-1.024,3.493-2.037,5.266-3.061-.307-.052-.63-.115-.921-.167-6.543,2.163-13.071,4.315-19.923,6.582-1.005-1.191-1.875-2.2-2.761-3.228-.272.021-.545.031-.834.042v3.2c-.921-.418-1.824-.825-2.693-1.222-4.3-1.943-8.13-3.688-11.964-5.433a73.816,73.816,0,0,0,11.862,7.157c2.2,1.1,2.267,1.985-.119,2.727a20.342,20.342,0,0,0,.75,2.351c1.158-.69,2.4-1.39,3.493-2.131,3.188,3.04,2.386,5.412-4.466,7.4a13.719,13.719,0,0,1-5.675,5.913c-2.216,1.086-4.074-3.918-4.738-7.6-.273.146-.545.293-.818.428a53.809,53.809,0,0,1-8.267,3.281c-.443.146-.9.293-1.38.428-.783-.094-1.6-.2-2.386-.3l2.028-1.055c-2.505-.679-2.028,1.055-4.278,3.145s1.022,2.069-19.31,5.381-8.709-4.315-8.88-7.836a9.832,9.832,0,0,0-.273-1.964c-.886,1.128-1.788,2.257-2.778,3.375a7.953,7.953,0,0,1-2.386,1.316H1276.3a3.32,3.32,0,0,1-1.652-1.766c-.068-.167-.136-.334-.187-.5a4.831,4.831,0,0,0-1.211-2.309,3.909,3.909,0,0,0-.869-.585c-1.006-.585-2.42-1.118-3.256-1.713a15.487,15.487,0,0,1-1.686-1.233c-.683.073-1.364.136-2.062.2,2.727,1.484-1.807,2.612-4.074,3.8-.732-1.212-3.05-2.487-.341-3.542-1.688.052-3.391.042-5.062-.063-.8-.052-1.5-.115-2.131-.178a17.764,17.764,0,0,1-1.756,1.013c-1.243-.24-2.505-.481-2.931-.564-1.48.97-3.056,1.983-4.614,3.006l-2.714-.655V446.48l-1.971-.081c-.587,2.678-1.174,5.354-1.778,8.032-.24,1.1-.5,2.194-.734,3.291-.954.021-1.909.052-2.9.073a27.2,27.2,0,0,1-2.965-3.312,6.882,6.882,0,0,1-.715-1.672c-.206-.627-.359-1.254-.581-1.881l-1.516.031c-.238,0-.5.01-.734.01-.545,2.7-1.073,5.4-1.7,8.651-7.328-5.14-13.839-9.716-20.367-14.292l-2.914.063c8.078,2.967,1.041,4.774-6.032,6.791-.989-.742-1.739-1.306-2.522-1.881-.376,1.41,3.476,3.009-4.568,4.388-2.284-2.194-4.976-4.169-6.255-6.206-1.209-1.985-2.1-4.075-1.124-6.06.92-1.954,4.345-3.824,6.68-5.736-.6-.063-1.209-.115-1.805-.188q-13.55,8.353-27.115,16.685c-.785-.052-1.552-.115-2.318-.178-.461-1.243-.9-2.5-1.33-3.751-2.505,2.612,2.812,5.778-9.272,7.606-1.824-2.351-3.612-4.67-5.419-6.99-.869.031-1.739.073-2.624.115.426,1.264.869,2.518,1.294,3.792-11.639-2.246-10.362-4.9-4.874-7.773-2.061.857-4.106,1.713-6.628,2.758l-13.431-5.652a91.478,91.478,0,0,0,9.7,6.279c.477.282,1.228.669.853.909-3.256,2.142-6.734,4.264-10.143,6.385l-2.028-.166c-1.488-1.616-2.957-3.234-4.428-4.839l-1.143.063c.666,1.578,1.33,3.145,1.977,4.712-4.363-1.316-6.732-2.81-10.379-4.043-5.881-1.985-6.7-4.1-5.351-6.488,1.329-2.351,1.567-4.733,2.3-7.094a16.629,16.629,0,0,0-4.481,5.433c-1.04,1.828-1.654,3.667-2.915,5.474a66.673,66.673,0,0,1-4.908,5.642c-3.067-2.236-5.317-3.876-7.567-5.527a53.683,53.683,0,0,1,3.375,5.642c.477,1.034.085,2.11-.768,3.176-6.816-2.56-6.935-3.27-2.608-8.818.238-1.024.5-2.048.734-3.082-.512-.021-.989-.042-1.483-.052-1.637,2.309-3.289,4.618-4.993,7.042-1.568-.334-2.488-.533-2.539-.543v5.119c-9.271-1.5-63.569-3.782-83.9-2.79,2.165.125,4.636,1.891,3.852,3.709-8.693-1.1-9.067-1.285-5.555-3.364a2.394,2.394,0,0,1,.818-.293c-3.238.188-5.5.46-6.392.857-.358-.01-.7-.01-1.056-.021.886-2.225-3.578-2.988-5.658-.93-4.227-1.139,3.084-7.69-6.647-3.761-10.276-3.667-7.6-8.118-12.952-12.025.454,1.651.892,3.3,1.33,4.951l-.886.326-16.84-7.91c-.409.731.46,1.285,1.414,1.828,5.4,3.072,12.339,6.039,15.834,9.257,4.176,3.876,6.409,7.982-2.25,11.91a28.346,28.346,0,0,1-4.38-6.007,2.573,2.573,0,0,0-1.158-1.212c-1.4-.679-3.58-1.254-4.738-1.943-4.908-2.988-9.578-6.007-14.333-9.006,3.493,3.876,8.3,7.616,12.288,11.409,1.175,1.128-.017,2.434-.136,3.646L934.83,457c-1.075-.857-2.165-1.713-3.529-2.779-1.107.554-1.805.909-2.061,1.034-12.426-6.54-24.952-13.143-37.461-19.736-.7.084-1.4.167-2.079.261,2.318,1.285,4.465,2.6,7.056,3.855,2.267,1.076,2.352,1.87-1.465,2.821-6.136,1.515-13.362,2.79-16.8,4.984-1.228.794-3.818,1.452-6.426,2.4-7.686-3.437-14.044-6.269-20.365-9.089a155.473,155.473,0,0,0,13.582,8.212c.785.449,1.313,1.254.392,1.515-4.294,1.254-9.134,2.382-14.025,3.615-1.33-.857-2.284-1.463-3.239-2.069l-1.092.347c.276.873.54,1.75.819,2.662-5.692-.46-7.805-1.316-7.294-2.769,1.4-3.949,2.437-7.909,3.665-11.858a11.539,11.539,0,0,1,1.243-1.985c-.7-.021-1.4-.042-2.08-.073q-3.988,7.13-7.958,14.25a16.9,16.9,0,0,1-3.972-5.788,56.017,56.017,0,0,0-3.408-6.07c-1.262-1.839-2.965-3.667-4.448-5.5-.119.021-.238.042-.341.063,1.875,5.286,3.784,10.573,5.862,16.4-7.959-1.055-13.208-1.86-18.763-2.455-4.074-.428-4.687-1.076-4.176-2.079,1.381-2.716,2.522-5.433,3.75-8.149l-1.33-.063c-4.346,6.1-8.709,12.213-13.225,18.545-3.052-1.337-5.353-2.351-7.688-3.375,2.216,1.567,2.643,3.04-4.191,4.555.886-1.661,1.55-2.946,2.216-4.231-1.586.836-3.171,1.661-5.2,2.727-2.129-.7-3.987-1.306-4.993-1.64,7.5-7.5,18.935-14.271,29.211-21.156-10.838,5.7-20.706,11.513-30.846,17.28a21.348,21.348,0,0,1-5.54,1.442c-3.391-.627-6.458-1.4-3.493-2.685a21.73,21.73,0,0,0,3.255-2.006c-.409-.052-.818-.1-1.209-.157-2.165.857-4.329,1.713-6.528,2.56l-2.335-.125c.341-.815-.051-1.713,1.211-2.413,5.692-3.2,11.845-6.342,17.843-9.5l-1.209-.188c-7.6,3.364-15.2,6.718-22.889,10.113-8.572-2.142-17.52-4.388-26.451-6.624,7.328,2.267,14.844,4.493,21.917,6.822,1.654.533,1.875,1.379,2.744,2.09-.7.084-1.414.157-2.112.24-4.6-1-9.22-2.006-13.822-3.009-.255.063-.511.125-.783.2,4.651,1.024,9.321,2.048,13.7,3-6.751,2.852-12.116,5.1-17.529,7.383l-.57-.248,2.25-5.046-.972-.063c-1.277,1.348-2.555,2.684-3.851,4.021l-1.553.088c-3.026-2.126-5.9-4.272-9.134-6.376a30.187,30.187,0,0,0-4.363-1.7c-3.663-1.39-4.515-2.748,0-4.158,3.75-1.191,7.209-2.445,10.806-3.667,1.926-.972,3.851-1.933,5.794-2.894-.358-.073-.732-.146-1.09-.219-6.511,2.142-13,4.284-19.923,6.551-1.006-1.222-1.841-2.236-2.71-3.26l-.819.031c.255,1.013.494,2.037.887,3.636-5.966-2.675-10.806-4.848-15.646-7.021a70.747,70.747,0,0,0,11.13,6.676c2.539,1.285,3.084,2.33-.256,3.688-3.92,1.588-5.9,3.479-9.272,5.172-3.1,1.546-6.92,2.988-10.413,4.482-.649-.094-1.3-.178-1.943-.261,4.225-2.842,8.453-5.683,12.85-8.619-6.954,1.379-14.384,2.863-22.649,4.5-2.607-4.942-5.079-9.58-7.55-14.219-1.057,1.191-.393,2.319-.274,3.458.461,3.855,4.925,7.752-.988,11.565-1.107.7-3.6,1.264-5.453,1.891l-2.556-.345c.886-2.413,1.754-4.816,2.829-7.679-7.635,3.824-6.868,7.971-12.765,11.68h-1.841c-2.539-2.236-4.738-4.179-6.869-6.112-.375-.355-.647-.763-.29-1.1,1.5-1.421,3.238-2.821,4.959-4.294-4.738.909-9.527,1.818-15.662,2.988.9-1.41,1.567-2.434,2.18-3.364a21.589,21.589,0,0,1-3.152-.251c-.647-.543-.664-1.128-1-1.693-2.284-3.73-4.619-7.46-6.92-11.189-.681,2.1.46,4.116,1.243,6.143.8,2.11,1.16,4.221,1.96,6.321,1.688,4.524,1.671,4.785-2.267,5.736-1.141-.69-2.267-1.348-4.191-2.5.409,1.86,4.891,3.406-4.6,4.534V444.788l-2.01-.078q-1.34,6.516-2.643,13.033c-1.16.021-2.3.042-3.444.052-.8-1.233-1.584-2.455-2.386-3.688-.714-1.058-1.465-2.105-2.2-3.153l-1.517.134c-.528,2.664-1.04,5.339-1.671,8.5-7.805-5.443-14.9-10.375-22.292-15.525.528,2.131.988,3.939,1.432,5.746h.051a26.234,26.234,0,0,1,3.919.407,23.374,23.374,0,0,1,1.841,4.388,28.406,28.406,0,0,1,3.084.167c1.551,1.891,3.033,3.8,4.465,5.7H572.16c.392-1.745,1.618-3.5,2.437-5.234-2.2,1.734-4.431,3.458-6.681,5.234h-.647c-3.716-3.646-7.892-7.261,2.318-10.667-4.84,1.473-9.7,2.946-14.9,4.534-11.775-6.383-12.407-12.788,2.471-19.213-.954-.042-1.908-.094-2.9-.146q-15.071,9.144-30.106,18.289l-2.258-.44c-.367-1.288-.717-2.549-1-3.5-1.3,2-2.8,4.294-4.278,6.6-1.568.313-3.152.627-4.959.982-2.045-2.413-4.006-4.722-5.949-7.031-.732.042-1.448.073-2.182.1a15.555,15.555,0,0,0,.53,1.9,21.151,21.151,0,0,0,1.073,2c-10.123-2.445-10.856-3.249-6.2-6.248,1.158-.742,2.112-1.5,3.152-2.246-.341-.031-.717-.073-1.057-.1-2.335,1.1-4.67,2.184-7.6,3.552-4.925-2.079-9.289-3.907-13.633-5.736,3.05,2.34,9.459,4.566,9.7,6.843.238,2.236-5.778,4.5-9.033,6.76-.783-.052-1.568-.1-2.335-.146q-2.762-3.166-5.539-6.321c-.289.01-.6.031-.9.052q1.51,3.056,3,6.091c-4.585-1.3-6.971-2.842-10.772-4.106-5.828-1.954-6.22-4.012-5.01-6.321,1.228-2.372,1.517-4.785,2.216-7.177-.307-.01-.63-.021-.954-.021q-5.012,8.118-10.023,16.225c-.971-.01-1.942-.01-2.9-.01-2.165-2.716-4.346-5.422-6.7-8.358-1.686,2.455-3.272,4.722-5.045,7.3-1.908-.731-3.169-1.212-3.868-1.484.615,1.423,1.276,2.973,1.946,4.547l-2.524,1.325c-11.483-2.916-14.856-7.166-18.749-10.834-4.04-3.772-.392-8.118-.136-11.983-1.926,2.675-4.074,5.631-6.426,8.912q-11.452-4.78-21.116-8.8c-.1.073-.341.219-.579.366-2.148-.522-3.936-.961-5.709-1.4,5.283,2.528,5.3,2.528,3.732,5.777-.545,1.076-.63,2.194-1.891,3.218-1.527,1.225-4.188,2.352-6.3,3.526l-1.592-.245c-1.79-3.051-3.546-6.112-5.421-9.309-1.107.9-1.96,1.6-2.829,2.309a11.322,11.322,0,0,1,2.744.857c3.392,4.252-.971,8.3-5.3,12.349v-5.161c-7.294,3.166-13.6,5.9-20.963,9.089,1.109-2.727,1.994-4.942,2.863-7.157-.8-.042-1.6-.084-2.419-.115q-2.838,2.805-5.71,5.621c-.681,0-1.38,0-2.062.01,0-1-1.414-2.225.255-2.978,8.4-3.876,17.623-7.627,26.553-11.419-6.85,2.048-14.042,4.022-20.451,6.154-4.244,1.41-7.345,3.051-11.113,4.649-10.174-3.751-7.618-8.149-12.9-12.057.457,1.679.914,3.357,1.384,5.036l-.873.324-18.3-8.6c-.29.773.749,1.379,1.824,1.985,5.743,3.249,13.088,6.373,16.82,9.768,4.227,3.855,6.426,7.972-2.25,11.889a26.528,26.528,0,0,1-4.413-6.049c-.2-.366-.085-.784-.734-1.1-1.856-.9-4.43-1.693-5.981-2.612-4.67-2.769-9-5.59-13.465-8.389,3.6,3.96,8.4,7.763,12.509,11.618.955.888-.2,1.964-1.022,2.915a21.658,21.658,0,0,1-4.942.219,25.429,25.429,0,0,1-5.215-2.225c-5.521-3.1-10.583-6.279-16.361-9.351-6-3.207-12.594-6.331-18.952-9.5-.528.073-1.073.146-1.618.219,2.522,1.369,4.874,2.748,7.584,4.085,1.841.909,1.722,1.515-1.33,2.33-6.169,1.651-13.821,2.957-17.588,5.224-1.192.731-4.6,1.212-7.379,1.891l-16.5-7.407c-.358.721.528,1.285,1.5,1.828,3.272,1.787,6.732,3.542,9.731,5.36.681.418.477,1.181-.562,1.494-4.159,1.2-8.846,2.278-13.567,3.458-1.353-.874-2.323-1.515-3.326-2.189l-.907.278c.286.939.573,1.869.859,2.83-6.937-.449-7.584-1.713-7.243-3.145.9-3.844,1.771-7.687,2.64-11.541l-.944-.142c-2.282,4.133-4.548,8.277-6.828,12.42l-.969.005c-3.374-5.819-6.766-11.639-10.123-17.468-.715.031-1.415.052-2.1.084,2.9,5.318,6.817,10.615,5.3,16.256-5.743-.731-10.157-1.431-14.912-1.87-6.356-.575-7.754-1.588-6.579-3.239a55.422,55.422,0,0,0,3.937-7.324c-.46-.01-.937-.042-1.414-.052-4.4,6.1-8.795,12.213-13.311,18.524-2.965-1.306-5.249-2.319-7.533-3.343,2.25,1.567,2.2,3.009-4.346,4.545.869-1.682,1.517-2.957,2.182-4.242-1.6.825-3.17,1.651-5.2,2.7-2.165-.71-4.023-1.316-4.908-1.619,6.732-6.969,17.162-13.2,26.263-19.568-9.953,5.182-18.833,10.489-28.019,15.755a20.426,20.426,0,0,1-5.59,1.337c-3.135-.575-6.119-1.306-3.58-2.539a24.814,24.814,0,0,0,3.324-2.142c-.409-.042-.819-.084-1.194-.136-2.062.836-4.106,1.661-6.169,2.5-.768-.021-1.568-.031-2.335-.052.273-.794-.255-1.672.92-2.361,4.738-2.79,9.97-5.527,15.031-8.285-.528-.073-1.056-.146-1.6-.219-6.443,2.957-12.919,5.913-20.316,9.309a29.624,29.624,0,0,0-4.191-1.6c-8.079-1.975-16.379-3.9-24.594-5.84q2.072-1.316,4.142-2.612c-.341-.063-.715-.125-1.073-.188-6.034,2.016-12.049,4.033-18.543,6.206-1.056-1.327-1.909-2.424-2.778-3.51-.238,0-.46.01-.715.021.255,1.118.494,2.225.869,3.866-6.392-2.884-11.828-5.339-17.264-7.8,4.159,2.842,9.289,5.558,14.01,8.327.937.543,1.158,1.369.273,1.912-3.563,2.2-7.414,4.4-11.692,6.519-2.795,1.39-6.511,2.654-9.834,3.981-.6-.094-1.194-.178-1.79-.261,4.568-3.072,9.118-6.133,13.175-8.86-4.534.888-9.374,1.818-14.248,2.769v8.389H31V485.3H1953.709c1.424,0,2.579-.708,2.579-1.581V462.061c0-.872-1.155-1.581-2.579-1.581h-1.318C1950.967,460.48,1949.811,459.772,1949.811,458.9Zm-473.157-7.4a.4.4,0,0,1,.136-.167c-.17.355-.392.951-.494,1.243C1476.347,452.393,1476.467,452.059,1476.654,451.495ZM67.318,460.48H63.125c.46-1.6,2.42-3.187,7.822-4.712C69.67,457.419,68.476,458.975,67.318,460.48ZM62.665,456.8c-2.607-3.019,3.016-5.328,7.788-8.222C74.033,452.111,72.295,454.671,62.665,456.8Zm16.924,3.678a11.45,11.45,0,0,1-1.381-7.418c3.358,2.466,6.937,4.921,9.971,7.418Zm23.5,0H97.654c1.466-2.278,8.624-4.116,12.579-6.2Q106.653,457.372,103.091,460.48ZM113.47,451.2c-4.585-1-9.186-2.006-13.771-3.019-.29.084-.579.167-.886.24,4.738,1.013,9.459,2.016,14.027,2.988-6.766,2.821-12.117,5.067-18.373,7.679.579-1.567.972-2.685,1.381-3.792l-1.262-.094c-.869.763-1.739,1.536-3.016,2.643-3.75-2.184-7.124-4.116-10.43-6.06-1.143-.679-2.131-1.379-3.12-2.069-1.414-.972-4.891-2.236-3.68-2.863,3.561-1.839,9-3.437,13.684-5.119,8.386,2.382,16.889,4.733,24.969,7.188,1.669.5,1.788,1.358,2.607,2.058Zm5.879,9.277h-1.7a4.981,4.981,0,0,1,1.7-.794Zm6.971,0h-4.431c-.273-1,.376-2.006,7.277-2.769C128.11,458.735,127.173,459.634,126.32,460.48Zm28.53,0c-4.7-1.128-3.886-1.619.92-3.322.9,1.139,1.688,2.142,2.624,3.322Zm33.166,0H177.244c-.46-.878,3.272-1.463,12.356-3.625C189.038,458.14,188.51,459.341,188.016,460.48Zm.255-4.325c-3.154.846-6.954,1.525-11.794,2.57v-4.513l-1.092-.094c-1.311.878-2.624,1.745-3.936,2.622L170,456.708v-7.522c6.766,1.024,12.339,1.8,17.622,2.7C191.662,452.55,192.122,455.12,188.271,456.155Zm25.836,4.325c-.766,1.567-3.374,3.145-7.379,4.064-2.863-1.285-3.612-2.727-2.522-4.064,1.023-1.316,3.835-2.528,8.164-3.385C214.209,458,214.722,459.237,214.107,460.48Zm5.147-6.07c4.4-1.128,8.284-2.393,12.392-3.594.562.136,1.124.261,1.686.4-3.868,1.954-7.737,3.918-11.641,5.893C215.846,456.405,214.311,455.653,219.254,454.41Zm2.882,6.07c0-.01-.017-.01-.017-.021,1.158-.115,2.3-.219,3.442-.334.2.115.409.24.63.355Zm11.673,0h-.017c-2.42-1.045-4-1.724-6.373-2.758,1.756-.867,4.891-2.413,8.044-3.96l2.727.219C236.843,456,235.479,457.993,233.808,460.48Zm7.311,0v-2.194c.512-.021,1.023-.031,1.517-.042.136.742.29,1.494.443,2.236Zm47.056,0c-.613,1.64-2.182,3.291-4.312,4.984-5.794-1.515-7.635-3.207-8.112-4.984-.581-2.246,1.022-4.628-.426-6.927-.9,1.64-1.688,3.072-2.456,4.492h-1.039c-.545-2.121-1.073-4.252-1.6-6.3-1.908,1.024-4.174,2.225-6.441,3.437-.562-.063-1.126-.115-1.688-.178-.9-1.222-1.824-2.434-2.727-3.657-.6,2.236,2.011,4.576-4.108,6.561.051-.01.085-.021.136-.031l-.051.031c3.648-.6,4.653.052,4.312.825a12.611,12.611,0,0,1-.954,1.745h-5.761c.119-.867,1.16-1.713,2.4-2.57-.068.021-.136.021-.2.042a.545.545,0,0,1,.119-.042c-1.346.3-2.693.6-4.021.888-10.823-5.025-10.329-7.543,1.908-11.367-1.839.376-3.663.752-5.76,1.191.17-1.661,5.538-3.74,17.281-6.707,1.466.763,2.965,1.442,4.125,2.173,4.636,2.946,8.316,6.018,13.924,8.839C287.75,455.455,289.1,457.941,288.176,460.48Zm15.406,0c-.409-.669-.8-1.337-1.209-2.006l3.851-.157c.341.721.7,1.442,1.058,2.163Zm25.412,0,.869-1.661a7.973,7.973,0,0,1,3.51,1.661Zm23.842-1c-6.577-.951-9.612-1.922-5.419-3.7a65.9,65.9,0,0,0,6.579-3.521c.63.052,1.277.115,1.909.157C354.9,454.713,353.91,457.022,352.835,459.477Zm38.909-2.006c-.136.324-2.761.575-4.259.857-1.126-.533-3.375-1.118-3.086-1.6.5-.825,2.59-1.578,4.006-2.361,1.056,0,2.1.01,3.118.01C391.676,455.413,392.188,456.458,391.744,457.471Zm-1.822-10.2c-.153.407-.273.794-.41,1.191-.528.073-1.039.146-1.584.219-1.62-.7-3.733-1.358-4.687-2.11-.732-.575-.051-1.275.153-1.912.715-2.152,1.5-4.3,2.25-6.467,7.635,2.445,14.112,4.754,16.872,7.554-.783.157-1.551.313-2.335.481-.989-.47-1.96-.94-3.324-1.588C398.084,446.961,395.852,447.734,389.921,447.274Zm9.561,4.545v-3.26l3.033-.031c.307,1.128.6,2.257.9,3.385Zm7.311,8.661c-.2-.3-.41-.616-.632-.919.853-.063,1.7-.115,2.556-.178.5.366,1.006.731,1.517,1.1Zm4.447-3.113c-1.5-1.264-3-2.539-4.515-3.8l2.352-.188c1.669,1.254,3.357,2.507,5.028,3.761C413.167,457.21,412.2,457.293,411.241,457.367Zm31.665,1.421c-7.088-2.612-3.6-5.245-1.737-7.846C441.714,453.511,448.344,455.987,442.906,458.787Zm22.259,1.693h-8.42v-9.424C466.817,453.261,468.454,456.938,465.165,460.48Zm30.863,0c-1.022,1.661-3.357,3.281-7.771,4.869-3.476-1.181-5.164-2.957-5.2-4.869-.051-2.988,3.9-6.3,11.232-8.17C496.029,455.131,497.682,457.847,496.029,460.48Zm21.389-1.139h-2.556c-.136-.627-.613-1.285-.29-1.912.255-.5,1.347-.961,2.114-1.442,1,.345,2.778.69,2.71,1.013C519.242,457.784,518.133,458.558,517.418,459.341Zm18.748,1.139h-.426c-1.926-.773-3.171-1.285-4.4-1.787l1.4,1.787h-7.175c-1.209-1.17-3.033-2.528,3.1-3.385.358-.972.239-1.985,1.209-2.915,2.1-2.006,4.772-3.96,7.226-5.934,1.092.042,2.165.084,3.273.136C539.011,452.279,537.664,456.2,536.165,460.48Zm7.669-.167v-9.267C550.635,453.344,550.635,457.44,543.834,460.313Zm12.424.167c-.63-1.013-1.26-2.037-1.875-3.051.836-.052,1.671-.094,2.488-.136l1.4,3.187Zm57.026,0h-6.2c-1.517-1.306-.375-2.434,3.323-3.678C615.96,457.972,614.749,459.237,613.284,460.48Zm14.9-8.389c.869.052,1.72.1,2.607.146-1.194,1.41-2.386,2.81-3.6,4.21l-2.352-.125C624.293,454.828,621.6,453.219,628.179,452.09Zm-1.109,8.389c-1.482-1.578,1.688-3.26,5.334-4.952.6,1.651,1.194,3.3,1.807,4.952Zm54.912-7.439c-3.512,1.682-6.869,3.291-10.191,4.869C667.378,455.455,670.615,453.814,681.983,453.041Zm.664,7.439h-3.459c1.584-.554,3.749-1.076,5.317-1.64C683.892,459.393,683.278,459.937,682.647,460.48Zm20.418,0h-4.227c.358-1.536,2.2-3.061,7.652-4.513C705.3,457.544,704.156,459.028,703.066,460.48Zm-4.261-3.8q-1.331-.11-2.71-.219c2.846-2.5,5.658-4.984,8.487-7.481.732.052,1.483.115,2.233.167C709.643,452.038,708.263,454.64,698.8,456.677Zm16.975,3.8c-1.228-2.5-2.42-4.931-3.648-7.407,6.511,2.037,10.311,4.733,10.874,7.407Zm23.075,0h-5.181c.732-1.557,4.755-3.531,12.356-6.175C743.643,456.343,741.274,458.38,738.854,460.48Zm17.452,0h-3.629a5.8,5.8,0,0,1,1.26-.8c.853.01,1.688.031,2.522.042C756.408,459.968,756.357,460.229,756.306,460.48Zm5.949,0H757.67c-.613-.992-.324-1.954,5.5-2.633C764.232,458.829,763.515,459.686,762.255,460.48Zm28.256,0c-4.191-.846-3.578-1.567.853-3.448,1.056,1.275,1.926,2.33,2.846,3.448Zm33.183,0H812.787c-.153-.867,3.408-1.452,12.322-3.521C824.613,458.192,824.136,459.362,823.693,460.48Zm.29-4.4c-1.771,1-6.988,1.6-11.623,2.581V454.18c-.426-.031-.869-.073-1.328-.1-1.262.888-2.522,1.766-3.8,2.654l-1.448-.031v-7.543c7.192,1.128,14.367,1.807,18.678,3.113C826.9,453,825.943,454.974,823.983,456.081Zm25.923,4.4H839.867c1.056-1.379,4-2.612,8.555-3.364C850.059,458.077,850.485,459.289,849.906,460.48Zm5.351-6.1c4.023-1.2,8.095-2.382,12.151-3.573l1.688.334q-5.7,2.931-11.385,5.861C850.144,456.019,850.059,455.925,855.257,454.379Zm4.074,6.1c.2-.094.426-.188.681-.282l1.073.282Zm10.31-.136c-2.59-.888-4.4-1.5-6.954-2.382,2.2-1.1,5.317-2.643,8.437-4.19.92.073,1.839.136,2.778.209C872.555,456,871.209,458,869.641,460.344Zm8.59.136H877V458.1c.409-.01.8-.01,1.228-.021Zm16.547,0h-6.22c.034-.992,1.5-1.933,4.551-2.852C895.5,458.547,896.177,458.819,894.778,460.48Zm29.177,0H911.549c-.63-2.2.87-4.513-.46-6.749-.971,1.609-1.824,2.978-2.676,4.346-.341-.01-.681-.01-1.022-.01-.41-2.163-.8-4.325-1.228-6.519-2.028,1.17-4.125,2.393-6.238,3.625l-1.993-.125c-.955-1.254-1.943-2.507-2.9-3.761h-.545a7.972,7.972,0,0,1,.443,2.643,3.065,3.065,0,0,1-1.482,2.56c-1.364.857-4.04,1.557-7.771,2.925-2.335-2.549-6.153-4.67-5.642-6.707.461-1.933,5.455-3.8,9.953-5.569-2.216.47-4.447.94-6.663,1.41-.768-.157-1.517-.324-2.284-.481,5.964-2.037,11.913-4.054,18.867-6.425,2.061,1.087,3.732,1.828,4.924,2.612,5.966,3.918,11.641,7.857,17.743,11.754C924.911,457.5,925.814,458.892,923.956,460.48Zm15.289,0c.17-.69.92-1.41,2.693-2.152.341.721.681,1.431,1.039,2.152Zm88.281-3.061c-.153.345-3.187.6-4.908.878-.835-.575-2.659-1.2-2.3-1.724C1020.81,455.8,1028,456.405,1027.525,457.419Zm8.027,8.515c-.715.042-1.414.073-2.114.115-1.925-1.651-4.225-3.281-5.5-4.963-.136-.188.153-.4.647-.606.785-.355,2.079-.721,2.847-1.066,1,.355,2.556.711,3.391,1.066.307.136.511.272.545.407C1035.875,462.569,1035.552,464.252,1035.552,465.934Zm13.039-1.536c-1.194-.209-3.222-.355-3.495-.627a27.906,27.906,0,0,1-2.71-3.291c-.222-.293-.443-.6-.681-.888.971-.063,1.943-.125,2.9-.178l1.432,1.066c1.345.982,2.659,1.975,3.8,2.978C1050.141,463.708,1049.051,464.084,1048.591,464.4Zm1.226,1.849,2.607-.094c.921,1.316,1.875,2.643,2.795,3.97C1050.209,468.953,1049.016,467.637,1049.817,466.247Zm23.826-.031c-6.17-1.755-1.347-3.657-1.6-5.736a.711.711,0,0,0-.051-.261c.426.084.819.178,1.177.261C1081.278,462.444,1073.49,464.387,1073.643,466.216Zm18.833-.836V451.4c8.521,2.486,11.383,5.913,9.015,9.079C1100.162,462.277,1097.128,463.98,1092.476,465.38Zm9.936,3.448c-2.284-2.978-.511-5.715,8.01-8.013C1107.746,463.489,1105.087,466.163,1102.411,468.828Zm29.484-8.348c-.954,1.682-3.289,3.291-7.942,4.837-3.6-1.139-5.3-2.9-5.285-4.837.034-2.915,4.023-6.206,11.453-8.243C1131.64,455.131,1133.413,457.889,1131.9,460.48Zm21.253-.721c-7.533-1.954-1.023-2.716.63-3.761.6.031,1.192.063,1.79.084C1154.851,457.168,1154.136,458.255,1153.148,459.759Zm18.644.721h-.477c-2.693-1.327-4.7-2.319-6.681-3.3h-.051c1.143,1.1,2.267,2.184,3.427,3.3,1.039,1.013,2.114,2.037,3.2,3.093-4.823-.428-8.418-1.724-9.97-3.093-1.4-1.233-1.124-2.528,1.415-3.322a12.039,12.039,0,0,1,1.925.021.074.074,0,0,0-.034-.042c.034.01.051.031.085.042a.341.341,0,0,0,.1.01c-.29-.543-1.328-1.149-.766-1.63a97.581,97.581,0,0,1,13.277-9.664C1175.491,450.6,1173.735,455.308,1171.792,460.48Zm7.584-9.11c7.294,2.392,6.954,6.352,0,8.839Zm7.756,15.536c-7.175-1.254-7.756-3.26-.7-6.425.221-.094.461-.2.7-.3Zm22.735-2.037c-.766-1.316-2.25-2.56-2.079-3.782a3.876,3.876,0,0,1,.136-.606c.46-1.766,1.671-3.521,2.488-5.276-2.267,1.766-4.568,3.521-6.851,5.276h-.477c-6.8-6.258-6.118-7.669,6.443-11.492.63,2.163,1.107,3.866,1.6,5.569a24.23,24.23,0,0,1,3.067.23c1.55,1.891,3.033,3.792,4.414,5.694.494.658.971,1.316,1.448,1.985C1221.285,464.189,1216.394,464.419,1209.866,464.868Zm22.6,2.925c-3.527-1.891-1.839-4.252,4.278-4.722C1235.584,464.795,1238.992,466.56,1232.464,467.793Zm16.8-7.313c-.8.878-1.652,1.776-.613,2.727-3.067-1-5.011-1.9-5.9-2.727-1.449-1.348-.1-2.518,3.8-3.625C1251.552,458,1250.462,459.205,1249.268,460.48Zm18.134,2.173a20.167,20.167,0,0,1-3.6-1.275,4.606,4.606,0,0,1-1.311-.9c-1.347-1.421.579-3.04,5.59-5.255.29.825.545,1.609.818,2.392.341.961.666,1.912.989,2.863.085.24.153.47.238.711.256.752.528,1.525.8,2.33C1269.6,463.228,1268.425,462.946,1267.4,462.653Zm52.406-3.27-1.329,1.1c-1.194.972-2.369,1.954-3.546,2.936-3.51-1.254-2.233-2.142.153-2.936,1.347-.449,3.052-.867,4.448-1.306q.46-.141.869-.282C1320.2,459.059,1320.013,459.216,1319.809,459.383Zm18.969,1.1c-1.107,1.463-2.182,2.894-3.255,4.315-.479-1.442-1.313-2.894-.955-4.315.392-1.557,2.233-3.072,7.618-4.513C1340.993,457.544,1339.868,459.028,1338.777,460.48Zm19.241,2.372c-2.216-.533-5.777-.972-6.426-1.619a4.92,4.92,0,0,1-.63-.752c-.8-1.17-.869-2.4-1.313-3.615-.477-1.233-.937-2.476-1.4-3.719.46-.031.92-.073,1.38-.1.41.293.819.585,1.228.888,0,0,.017,0,.017.01,1.858,1.316,3.75,2.643,5.556,3.981,1.16.846,2.267,1.7,3.307,2.56.17.136.341.272.494.407C1360.865,461.431,1358.819,462.193,1358.019,462.852Zm16.549-2.372c-.921.8-1.858,1.609-2.778,2.413-.8-.063-1.585-.136-2.369-.2a1.581,1.581,0,0,1-.342-2.215,7.629,7.629,0,0,1,2.643-1.933l.034-.01c.579-.282,1.209-.564,1.874-.846,2.658-1.139,5.9-2.225,8.1-3.406Q1378.147,457.387,1374.568,460.48Zm23.245,0h-4.67c.051-1.139,0-2.173,6.766-2.528C1399.875,458.85,1399.024,459.686,1397.813,460.48Zm7.771,7-3.2-.031V461.89c.785,0,1.552-.01,2.318-.01C1404.971,463.75,1409.232,465.589,1405.584,467.48Zm15.578-12.631c5.538-.219,4.516.951,4.108,1.64-.427.679-2.522,1.285-5.336,1.839C1420.345,457.168,1420.754,456,1421.162,454.849Zm5.028,5.631c-4.346-.836-3.75-1.651,1.107-3.27.938,1.149,1.79,2.163,2.711,3.27Zm33.285,0c-.547,1.306-1.057,2.549-1.568,3.792-.767-.01-1.5-.021-2.25-.042-4.3-2.173-7.022-3.061-7.192-3.751-.238-.846,3.341-1.39,12.475-3.6C1460.429,458.15,1459.935,459.331,1459.475,460.48Zm50.548.407c.342,0,.683-.01,1.024-.01v2.455h-1.024Zm-12.1-1.222c.785-.387,1.552-.763,2.318-1.149,1.279-.637,2.558-1.264,3.835-1.891.937.063,1.858.136,2.795.2-1.226,1.86-2.471,3.719-3.97,5.934-.136.188-.257.376-.393.575h-.255c-1.295-.366-2.369-.669-3.34-.94-1.517-.418-2.761-.773-4.142-1.16C1495.827,460.71,1496.883,460.187,1497.922,459.665Zm-4.515,3.594c.92-.313,1.805-.658,1.993-.3,1.058.23,2.114.46,3.222.69.255,0,.511-.021.749-.031,2.25-.167,3.393-.449,1.484.512-.478-.1-.955-.2-1.415-.3-.272-.063-.545-.115-.818-.178a20.788,20.788,0,0,1-2.148.021c2.182,1.2,5.47,2.413-.136,4.273-.324-1.682-.562-3.03-.818-4.325a15.114,15.114,0,0,1-1.79-.282c-.1-.021-.221-.052-.324-.073-.921.313-1.841.6-2.114.073-.1-.188-.2-.4-.324-.606C1491.822,462.9,1492.639,463.081,1493.407,463.259Zm-15.033,1.3c-3.016-1.233-6.611.146-5.5-1.222,1.092-1.337,4.006-2.57,8.437-3.4,1.6,1,2.044,2.2,1.5,3.4-.341.731-.46.846-.9.846h-.017a10.251,10.251,0,0,0-1.96.084A14.336,14.336,0,0,0,1478.374,464.555Zm50.123-1.013a5.126,5.126,0,0,0-.511-.2c-.477.219-1.006.512-.732-.01.017-.052.051-.1.068-.146-2.745-.5-5.983.878-6,.146-.034-.93,1.722-1.755,5.215-2.863.632.021,1.3.042,1.943.052a1.134,1.134,0,0,0,.187.01c-.034.073-.085.157-.119.23-.409.794-.818,1.588-1.226,2.424q.332.063.664.157C1528.4,463.165,1528.753,463.04,1528.5,463.541Zm25.769,1.682a33.218,33.218,0,0,0-3.563-.491c-3.459-.3-5.845-.157-6.2-1.4-.632-2.2.869-4.513-.461-6.76-.988,1.619-1.839,3-2.693,4.367h-1.022a.7.7,0,0,1-.017-.188c-.17-1.379.613-3.73,1.124-5.872a8.98,8.98,0,0,0,.359-3.521c-.666.449-1.517,1.107-2.471,1.86-2.4,1.912-5.421,4.461-7.432,5.882-.068.052-.153.1-.221.157,0-.01-.017-.021-.017-.031-1.362-1.964.29-6.384-.834-7.961.358,1.734-.1,4.639-3.033,7.021a17.223,17.223,0,0,1-7.856,3.312c-.223-.094-.444-.188-.649-.282-8.691-3.845-7.379-8.442.8-12.109.528-.251,1.09-.481,1.686-.71.9-.355,1.875-.7,2.9-1.034-1.073.209-2.129.428-3.187.637-.545.1-1.09.209-1.619.324-.222.042-.426.084-.647.125a4.428,4.428,0,0,1,.545-.522,6.616,6.616,0,0,1,1.058-.773c3.238-2.069,9.374-3.667,15.662-5.673,5.881,3.824,11.061,7.366,16.566,10.824.647.4,1.279.794,1.926,1.191l.613.376c2.148,1.306,3.784,2.6,4.465,3.918a2.525,2.525,0,0,1,.051,2.591,5.636,5.636,0,0,1-1.926,1.975c-1.311.909-1.431,1.943-2.25,3.134C1555.357,465.443,1554.795,465.317,1554.267,465.223Zm23.45.031-.46-.878c-.7-1.3-1.38-2.591-2.062-3.9-.221-.428-.46-.867-.681-1.3-.153-.282-.289-.564-.443-.846l.885-.031c.853-.031,1.688-.052,2.539-.084.392.752.768,1.5,1.16,2.257l.46.909c.477.909.954,1.828,1.414,2.737.206.407.427.8.632,1.212.017.031.034.073.051.1h-.17c-1.074.01-2.13.021-3.205.042C1577.8,465.411,1577.751,465.328,1577.717,465.255Zm27.542-3.834c-.461,1.254-3.018,2.455-4.7,3.688-.426-.021-.853-.052-1.279-.084-.119-.01-.238-.01-.358-.021l-.988-.063q1.456-2.241,2.914-4.461c.375-.585.766-1.181,1.141-1.766a.733.733,0,0,1-.119-.094c-1.243.439-2.505.878-3.851,1.348v-3.813c.8-.031,1.584-.042,2.352-.073.494.846.988,1.693,1.482,2.528,0,.01,0,.01.017.01.085-.021.153-.052.221-.073-.034.052-.068.115-.1.167.819.585,2.079,1.181,2.778,1.766C1605.156,460.793,1605.361,461.117,1605.259,461.42Zm19.122-1.964c-6.8-.909-9.629-1.9-5.506-3.678a76.221,76.221,0,0,0,6.749-3.594l1.807.094C1626.425,454.619,1625.454,456.97,1624.381,459.456Zm63.706,6.509c1.022,1.5,1.96,2.863,3.1,4.545C1685.155,468.911,1684.149,467.292,1688.087,465.965Zm-7.5-12.589c1.669,1.254,3.357,2.5,5.044,3.751-.853.073-1.688.157-2.539.24-1.739-1.254-3.495-2.5-5.215-3.74Q1679.207,453.5,1680.588,453.376Zm-.255,6.039c.477.355.954.711,1.448,1.066,1.313.972,2.607,1.954,3.733,2.936.29.261-.683.637-1.092.961-1.209-.2-3.289-.324-3.561-.585a30.607,30.607,0,0,1-2.778-3.312l-.666-.846Zm-16.157,1.066a1.221,1.221,0,0,1,.17-.209c.307-.334,2.147-.585,3.289-.878,1.024.293,2.846.575,2.949.878.017.073.051.136.068.209a50.389,50.389,0,0,1,1.09,5.422c-.7.031-1.381.052-2.062.084a53.96,53.96,0,0,1-5.623-3.7C1663.409,461.734,1663.682,461.075,1664.175,460.48Zm10.651-8.651c-5.453-.972-7.5-2.006-.732-3.751C1674.418,449.635,1674.622,450.732,1674.826,451.829Zm-17.639-14.052c7.584,2.727,13.72,5.119,16.838,7.951-.834.167-1.654.345-2.488.522-.954-.47-1.926-.94-3.2-1.557,1.227,2.278-1.092,3.072-6.868,2.57-.187.418-.375.825-.562,1.275a17.419,17.419,0,0,1-1.96-.115c-1.483-1.024-4.057-2.048-4.04-3.072C1654.938,442.991,1656.234,440.64,1657.188,437.777Zm-1.381,19c.7-.888,2.728-1.7,4.21-2.539.99.021,1.96.052,2.948.073.119,1.087.615,2.173.153,3.239-.119.3-3.016.512-4.668.763C1657.494,457.795,1655.449,457.22,1655.807,456.781Zm82.215,12.036c-1.857-2.978-.7-5.746,8.216-7.982C1743.493,463.489,1740.765,466.153,1738.021,468.817Zm-9.732-17.928c7.618,2.173,10.806,5.245,9.8,8.222a4.5,4.5,0,0,1-.766,1.369c-1.432,1.807-4.448,3.521-9.033,4.9Zm-15.627.021c.477,2.361,6.152,4.66,2.863,7.1a6.277,6.277,0,0,1-1.262.742c-.085-.031-.17-.063-.239-.094C1707.294,456.134,1710.617,453.511,1712.662,450.91Zm-6.2,12.328a5.926,5.926,0,0,1,1.6-1.222,9.821,9.821,0,0,1,3.084-.5c.6-.021,2.147.407,2.029.575-1.073,1.442-2.4,2.852-3.664,4.284a13.335,13.335,0,0,1-1.739-.669C1706,464.868,1705.776,464.043,1706.458,463.238Zm49.612.293a3.617,3.617,0,0,1-1.807-3.051c.068-2.831,4.057-6.122,11.5-8.264,1.72,2.9,3.34,5.652,1.754,8.264a9.628,9.628,0,0,1-4.038,3.281,1.892,1.892,0,0,0-.2.1c-.34.146-.683.313-1.023.47-.051.021-.085.042-.136.063-.63.272-1.311.533-2.045.8a13.856,13.856,0,0,1-3.1-1.128A7,7,0,0,1,1756.07,463.531Zm32.653-4.012c-7.788-1.369-.358-2.413-.358-3.521C1795.03,457.137,1788.775,458.213,1788.724,459.519Zm26.3-8.6c7.346,2.466,7.073,6.9,0,9.257Zm-7.4,9.56h-.749c-2.59-1.327-4.483-2.288-6.358-3.249h-.034c1.073,1.076,2.182,2.152,3.289,3.249,1.041,1.034,2.114,2.09,3.205,3.187-4.755-.543-8.335-1.839-9.919-3.187-1.432-1.212-1.3-2.455.971-3.249a14.3,14.3,0,0,1,2.454,0c-.017-.01-.017-.021-.034-.042l.068.042h.119c-.511-.407-1.824-.878-1.432-1.233,2.916-2.591,6.187-5.172,9.34-7.752,1.091.042,2.2.1,3.29.157C1810.487,452.268,1809.142,456.134,1807.624,460.48Zm7.209,5.255c2.4-2.069,4.193-3.615,6-5.172.53.021,1.075.031,1.62.042.545,1.442,1.092,2.873,1.722,4.524C1821.651,465.286,1819.265,465.443,1814.834,465.735Zm30.78-.763c-.8-1.546-2.2-2.9-2.045-4.252a1.189,1.189,0,0,1,.051-.24c.29-1.755,1.635-3.51,2.505-5.266-2.284,1.745-4.534,3.49-6.852,5.266h-.545c-3.614-3.636-7.807-7.24,2.267-10.657,1.482.188,4.089.324,4.26.575a18.763,18.763,0,0,1,1.585,4.2,24.824,24.824,0,0,1,3.067.219c1.552,1.881,3,3.772,4.431,5.663.494.669,1.005,1.337,1.5,2.016C1857.15,464.262,1851.884,464.366,1845.613,464.972Zm21.49,2.967c-.341-1.525-.988-2.758-.613-3.97.1-.366,2.982-.679,5.147-.888C1871.108,464.753,1875.029,466.581,1867.1,467.94Zm17.589-7.46c-.87.752-1.756,1.515-1.228,2.236a16.33,16.33,0,0,1-4.874-2.236c-1.62-1.306-.477-2.476,3.358-3.688C1887.368,457.962,1886.089,459.226,1884.692,460.48Zm17.775-8.243-3.989,4.357c-.75-.042-1.482-.094-2.25-.136C1896.382,454.932,1892.191,453.167,1902.468,452.237Zm-4.244,8.243c-1.107-1.17.887-2.57,5.692-4.889.581,1.63,1.16,3.26,1.756,4.889.307.888.63,1.776.955,2.664C1901.837,462.172,1899.059,461.4,1898.223,460.48ZM1495.4,462.966c.034.219.085.428.121.648.307.021.63.042.937.052A6.311,6.311,0,0,1,1495.4,462.966Zm1.109-7.219c-1.041.407-2.88,1.306-5.5,2.633.272.272.545.533.818.773,2.062-1.233,2.352-1.87,4.755-3.2.255-.146.528-.293.835-.449A2.474,2.474,0,0,0,1496.508,455.747Zm-1.109,7.219c.034.219.085.428.121.648.307.021.63.042.937.052A6.311,6.311,0,0,1,1495.4,462.966Zm0,0c.034.219.085.428.121.648.307.021.63.042.937.052A6.311,6.311,0,0,1,1495.4,462.966Zm26.076-14.867c.1.136.2.261.29.4.9-.355,1.875-.7,2.9-1.034C1523.589,447.671,1522.533,447.891,1521.476,448.1Zm-194.867,3.542a1.044,1.044,0,0,1,.136-.063v-.01C1326.8,450.638,1326.745,450.826,1326.609,451.641Z" transform="translate(-31 -434.34)" fill="url(#linear-gradient-32)"/>
      <path id="Path_315" data-name="Path 315" d="M1086.77,467.5c-.238.194-.477.388-.7.581-2.948,2.459-5.521,4.6-8.112,6.76-.272-.024-.547-.036-.819-.061q1.51-7.65,3.018-15.312l-1.262-.036q-5.75,13.228-11.47,26.457c-1.244-5.8-4.636-11.629.768-17.3a.8.8,0,0,1,.119-.121,21.361,21.361,0,0,1,4.585-3.464l-1.79-.109c-1.143.715-2.284,1.442-3.427,2.168-.715.448-1.448.909-2.163,1.369-.223-.024-.427-.036-.649-.061-.306-.024-.63-.061-.937-.085.17-.315.324-.618.477-.933a21.822,21.822,0,0,1,1.858-3.465c.2-.279.426-.557.664-.824a38.439,38.439,0,0,1,3.75-3.452c1.073-.884,2.2-1.769,3.306-2.641,1.4-1.1,2.846-2.2,4.329-3.307,1.465-1.1,2.965-2.217,4.432-3.319h-.017c-.392-.06-.785-.109-1.177-.169-1.26.678-2.522,1.369-3.8,2.059-2.8,1.5-5.642,3.041-8.641,4.652-1.637.884-3.323,1.793-5.079,2.738-.255-1.466-.409-2.4-.664-3.864-.87.424-1.739.848-2.573,1.26-1.126.545-2.233,1.09-3.325,1.611-3.425,1.672-6.714,3.271-10.174,4.967.75-2.011,1.4-3.719,2.063-5.427-.273-.024-.528-.036-.8-.049-.444.569-.9,1.139-1.364,1.708-.92,1.163-1.841,2.326-2.795,3.525-7.073-2.835-7.737-5.584-2.284-8.5a3.565,3.565,0,0,1,.392-.218c1.074-.545,2.148-1.1,3.2-1.647,2.9-1.514,5.727-3,8.42-4.458.766-.4,1.5-.8,2.233-1.187,2.965-1.587,5.76-3.089,8.316-4.446a98.85,98.85,0,0,0-9.8,3.356c-.75.291-1.5.594-2.233.909-3.238,1.393-6.3,2.9-9.2,4.47-1.107.606-2.2,1.211-3.255,1.841-1.909,1.115-3.731,2.253-5.487,3.4-.511,0-1.023-.012-1.534-.024-1.891-3.513-3.8-7.014-5.692-10.527h-.579c.426,1.987.852,3.973,1.26,5.96h-1.073q-5.114-2.617-10.242-5.233c1.839,2.241,4.806,4.313,8.078,6.323.562.351,1.073.69,1.552,1.042a11.861,11.861,0,0,1,2.112,1.926c1.858,2.229,1.654,4.47-1.124,6.808-.238.194-.477.388-.75.581-2.641,1.926-3.954,4.01-5.932,6.008-.937.969-2.028,1.926-3.05,2.883-2.931-4.131-2.437-8.092,3.938-11.9l-1.552-.109-1.074.618c-.085.048-.153.1-.239.145-1.039.594-2.078,1.187-3.1,1.781a1.665,1.665,0,0,0-.068-.279,20.367,20.367,0,0,0-.7-2.592,48.9,48.9,0,0,0-6.017-11.351c-.085-.157-.187-.3-.29-.46l-.664-.981c-.187-.267-.358-.533-.545-.787l-1.381-2c.187.824.392,1.635.579,2.459.085.412.187.812.29,1.223.034.157.07.3.1.46.07.3.138.606.223.909q1.38,5.978,2.795,11.956c-.63.024-1.262.036-1.892.061l-4.244-3.489-1.584.073c2.982,1.8,4.055,3.622,4.123,5.439.051,1.975-1.056,3.961-2.233,5.96-2.267,3.9-3.357,7.862-4.959,11.787-.187-.012-.358-.012-.528-.024q-4.32-8.013-8.657-16.051c-.887-1.635-1.773-3.283-2.66-4.918-.2-.388-.409-.763-.613-1.151-.75-1.393-1.5-2.774-2.25-4.167l-1.516.073c.2.678.426,1.357.647,2.035a1.616,1.616,0,0,0,.068.242c.341,1.1.7,2.2,1.039,3.307.1.327.2.654.307.993.342,1.054.666,2.108.99,3.162.17.472.306.945.46,1.417a1.3,1.3,0,0,1,.068.242c1.517,4.785,3.05,9.63,4.636,14.621-7.839-5.039-15.031-9.63-22.172-14.209h-.017c-.392-.267-.8-.521-1.194-.775-.528.061-1.073.133-1.6.206.29.218.562.448.834.666q6.877,5.4,13.72,10.793l-1.228.145q-4.422-1.472-8.81-2.919c7.805,4.276,15.781,8.431,18.32,13.858-4.585-1.648-8.01-2.883-11.521-4.143,2.369,2.241,4.687,4.434,7.039,6.663h97.433q1.254-4.434,2.42-8.625c-1.72,1.018-3.868,2.3-6.016,3.574-.681-.049-1.364-.109-2.045-.158,3.272-5.96,6.562-11.944,10.038-18.3C1086.548,467.915,1086.651,467.709,1086.77,467.5Zm-78.192,15.142V474.8c.443,0,.9.012,1.347.012C1009.482,477.364,1009.038,479.932,1008.578,482.645Zm27.506-16.232c-.528-1.708-.954-3.137-1.38-4.567C1037.448,463.179,1041.59,464.535,1036.084,466.413Zm-15.253,15.857c-.613-5.6,5.572-10.466,8.539-15.639C1033.1,468.848,1028.262,477.739,1020.832,482.27Zm17.179-11.3c-.511-.024-1-.036-1.516-.061.46-1.042.9-2.1,1.363-3.137.307-.715.63-1.429.938-2.144.562,0,1.124.012,1.669.012,1.552,1.175,2.1,1.6.955,2.7A35.119,35.119,0,0,1,1038.01,470.968Zm5.489,6.178c.443-2.12.9-4.24,1.431-6.675C1050.69,472.979,1045.441,475.038,1043.5,477.146Zm7.873-7.983c-3.375-1.551-3.682-3-.989-4.615,3.1-1.865,5.829-3.78,8.812-5.815.324-.218.63-.424.954-.654.359-.23.717-.485,1.092-.727a2.929,2.929,0,0,1,.868,2.968,4.113,4.113,0,0,1-.443,1.018C1060.4,463.506,1057,466.062,1051.373,469.163Z" transform="translate(481.847 -440.658)" fill="url(#linear-gradient-33)"/>
      <path id="Path_316" data-name="Path 316" d="M739.578,467.5c-.238.194-.477.388-.7.581-2.948,2.459-5.522,4.6-8.112,6.76-.274-.024-.547-.036-.819-.061q1.51-7.65,3.016-15.312l-1.26-.036q-5.753,13.228-11.47,26.457c-1.243-5.8-4.636-11.629.768-17.3a.8.8,0,0,1,.119-.121,21.388,21.388,0,0,1,4.583-3.464l-1.788-.109c-1.143.715-2.284,1.442-3.426,2.168-.715.448-1.448.909-2.165,1.369-.221-.024-.426-.036-.647-.061-.307-.024-.63-.061-.937-.085.17-.315.324-.618.477-.933a21.689,21.689,0,0,1,1.858-3.465c.2-.279.426-.557.664-.824a38.256,38.256,0,0,1,3.75-3.452c1.073-.884,2.2-1.769,3.306-2.641,1.4-1.1,2.846-2.2,4.329-3.307,1.465-1.1,2.965-2.217,4.431-3.319h-.017c-.393-.06-.785-.109-1.177-.169-1.262.678-2.522,1.369-3.8,2.059-2.795,1.5-5.641,3.041-8.64,4.652-1.637.884-3.323,1.793-5.079,2.738-.255-1.466-.409-2.4-.664-3.864-.87.424-1.739.848-2.575,1.26-1.124.545-2.231,1.09-3.323,1.611-3.425,1.672-6.715,3.271-10.174,4.967.749-2.011,1.4-3.719,2.062-5.427-.273-.024-.528-.036-.8-.049-.443.569-.9,1.139-1.363,1.708-.92,1.163-1.841,2.326-2.795,3.525-7.073-2.835-7.737-5.584-2.284-8.5a3.569,3.569,0,0,1,.392-.218c1.073-.545,2.148-1.1,3.2-1.647,2.9-1.514,5.727-3,8.42-4.458.766-.4,1.5-.8,2.233-1.187,2.965-1.587,5.76-3.089,8.316-4.446a98.714,98.714,0,0,0-9.8,3.356c-.749.291-1.5.594-2.233.909-3.238,1.393-6.3,2.9-9.2,4.47-1.107.606-2.2,1.211-3.255,1.841-1.909,1.115-3.733,2.253-5.487,3.4-.511,0-1.023-.012-1.534-.024-1.892-3.513-3.8-7.014-5.692-10.527h-.579c.426,1.987.852,3.973,1.26,5.96h-1.073q-5.114-2.617-10.244-5.233c1.841,2.241,4.806,4.313,8.079,6.323.562.351,1.073.69,1.55,1.042a11.817,11.817,0,0,1,2.113,1.926c1.858,2.229,1.654,4.47-1.124,6.808-.239.194-.477.388-.751.581-2.641,1.926-3.953,4.01-5.93,6.008-.937.969-2.028,1.926-3.05,2.883-2.931-4.131-2.437-8.092,3.936-11.9l-1.55-.109-1.075.618c-.085.048-.153.1-.238.145-1.039.594-2.08,1.187-3.1,1.781a1.672,1.672,0,0,0-.068-.279,20.336,20.336,0,0,0-.7-2.592,48.9,48.9,0,0,0-6.017-11.351c-.085-.157-.187-.3-.289-.46l-.664-.981c-.187-.267-.358-.533-.545-.787q-.692-1-1.381-2c.187.824.392,1.635.579,2.459.085.412.187.812.289,1.223.034.157.068.3.1.46.068.3.136.606.221.909q1.382,5.978,2.8,11.956c-.632.024-1.262.036-1.892.061L656.7,458.3l-1.586.073c2.984,1.8,4.057,3.622,4.125,5.439.051,1.975-1.056,3.961-2.233,5.96-2.267,3.9-3.357,7.862-4.959,11.787-.187-.012-.358-.012-.528-.024q-4.32-8.013-8.658-16.051c-.886-1.635-1.771-3.283-2.659-4.918-.2-.388-.409-.763-.613-1.151-.749-1.393-1.5-2.774-2.25-4.167l-1.516.073c.2.678.426,1.357.647,2.035a1.608,1.608,0,0,0,.068.242c.341,1.1.7,2.2,1.039,3.307.1.327.2.654.307.993.341,1.054.666,2.108.99,3.162.17.472.307.945.46,1.417a1.291,1.291,0,0,1,.068.242c1.517,4.785,3.05,9.63,4.636,14.621-7.839-5.039-15.031-9.63-22.172-14.209h-.017c-.392-.267-.8-.521-1.194-.775-.528.061-1.073.133-1.6.206.29.218.562.448.835.666q6.877,5.4,13.72,10.793l-1.228.145q-4.422-1.472-8.812-2.919c7.807,4.276,15.782,8.431,18.322,13.858-4.585-1.648-8.01-2.883-11.521-4.143,2.369,2.241,4.687,4.434,7.039,6.663H734.84q1.254-4.434,2.42-8.625c-1.72,1.018-3.868,2.3-6.015,3.574-.683-.049-1.364-.109-2.045-.158,3.272-5.96,6.562-11.944,10.038-18.3C739.356,467.915,739.458,467.709,739.578,467.5Zm-78.192,15.142V474.8c.443,0,.9.012,1.347.012C662.288,477.364,661.846,479.932,661.386,482.645Zm27.507-16.232c-.528-1.708-.954-3.137-1.38-4.567C690.256,463.179,694.4,464.535,688.892,466.413ZM673.639,482.27c-.613-5.6,5.573-10.466,8.539-15.639C685.91,468.848,681.07,477.739,673.639,482.27Zm17.179-11.3c-.511-.024-1-.036-1.516-.061.46-1.042.9-2.1,1.363-3.137.307-.715.63-1.429.937-2.144.563,0,1.126.012,1.671.012,1.551,1.175,2.1,1.6.954,2.7A34.842,34.842,0,0,1,690.818,470.968Zm5.487,6.178c.444-2.12.9-4.24,1.432-6.675C703.5,472.979,698.249,475.038,696.306,477.146Zm7.875-7.983c-3.375-1.551-3.682-3-.989-4.615,3.1-1.865,5.83-3.78,8.812-5.815.324-.218.63-.424.954-.654.358-.23.717-.485,1.092-.727a2.928,2.928,0,0,1,.869,2.968,4.13,4.13,0,0,1-.443,1.018C713.212,463.506,709.8,466.062,704.181,469.163Z" transform="translate(291.462 -440.658)" fill="url(#linear-gradient-34)"/>
      <path id="Path_317" data-name="Path 317" d="M931.3,467.5c-.239.194-.477.388-.7.581-2.948,2.459-5.521,4.6-8.112,6.76-.272-.024-.545-.036-.818-.061q1.508-7.65,3.016-15.312l-1.26-.036q-5.753,13.228-11.47,26.457c-1.245-5.8-4.636-11.629.766-17.3a.8.8,0,0,1,.119-.121,21.407,21.407,0,0,1,4.585-3.464l-1.79-.109c-1.141.715-2.284,1.442-3.425,2.168-.715.448-1.449.909-2.165,1.369-.221-.024-.426-.036-.647-.061-.307-.024-.632-.061-.938-.085.17-.315.324-.618.479-.933a21.791,21.791,0,0,1,1.856-3.465,10.565,10.565,0,0,1,.666-.824,38.386,38.386,0,0,1,3.749-3.452c1.074-.884,2.2-1.769,3.307-2.641,1.4-1.1,2.846-2.2,4.328-3.307,1.466-1.1,2.965-2.217,4.431-3.319h-.017c-.392-.06-.784-.109-1.175-.169-1.262.678-2.522,1.369-3.8,2.059-2.795,1.5-5.641,3.041-8.641,4.652-1.635.884-3.323,1.793-5.079,2.738-.255-1.466-.409-2.4-.664-3.864-.869.424-1.739.848-2.573,1.26-1.124.545-2.233,1.09-3.323,1.611-3.427,1.672-6.715,3.271-10.174,4.967.749-2.011,1.4-3.719,2.061-5.427-.273-.024-.528-.036-.8-.049-.443.569-.9,1.139-1.364,1.708-.92,1.163-1.839,2.326-2.795,3.525-7.073-2.835-7.737-5.584-2.284-8.5a3.457,3.457,0,0,1,.393-.218c1.073-.545,2.146-1.1,3.2-1.647,2.9-1.514,5.726-3,8.419-4.458.768-.4,1.5-.8,2.233-1.187,2.965-1.587,5.761-3.089,8.318-4.446a98.577,98.577,0,0,0-9.8,3.356c-.751.291-1.5.594-2.233.909-3.239,1.393-6.306,2.9-9.2,4.47-1.109.606-2.2,1.211-3.255,1.841-1.909,1.115-3.733,2.253-5.489,3.4-.511,0-1.022-.012-1.533-.024-1.892-3.513-3.8-7.014-5.693-10.527h-.579c.426,1.987.851,3.973,1.262,5.96h-1.075q-5.112-2.617-10.242-5.233c1.841,2.241,4.806,4.313,8.078,6.323.564.351,1.075.69,1.552,1.042a11.874,11.874,0,0,1,2.113,1.926c1.858,2.229,1.652,4.47-1.126,6.808-.238.194-.477.388-.749.581-2.641,1.926-3.954,4.01-5.93,6.008-.938.969-2.028,1.926-3.052,2.883-2.931-4.131-2.437-8.092,3.938-11.9l-1.552-.109-1.073.618c-.085.048-.153.1-.239.145-1.041.594-2.079,1.187-3.1,1.781a1.673,1.673,0,0,0-.07-.279,20.345,20.345,0,0,0-.7-2.592,48.841,48.841,0,0,0-6.016-11.351c-.085-.157-.187-.3-.29-.46l-.666-.981c-.187-.267-.358-.533-.545-.787l-1.38-2c.187.824.392,1.635.579,2.459.085.412.188.812.29,1.223.034.157.068.3.1.46.068.3.136.606.221.909q1.38,5.978,2.795,11.956c-.63.024-1.26.036-1.892.061l-4.242-3.489-1.585.073c2.982,1.8,4.057,3.622,4.125,5.439.051,1.975-1.057,3.961-2.233,5.96-2.267,3.9-3.358,7.862-4.959,11.787-.187-.012-.358-.012-.528-.024q-4.322-8.013-8.658-16.051c-.886-1.635-1.773-3.283-2.658-4.918-.2-.388-.409-.763-.613-1.151-.751-1.393-1.5-2.774-2.25-4.167l-1.517.073c.2.678.426,1.357.647,2.035a1.6,1.6,0,0,0,.068.242c.342,1.1.7,2.2,1.041,3.307.1.327.2.654.307.993.341,1.054.664,2.108.988,3.162.17.472.307.945.461,1.417a1.429,1.429,0,0,1,.068.242c1.516,4.785,3.05,9.63,4.634,14.621-7.839-5.039-15.031-9.63-22.172-14.209h-.017c-.392-.267-.8-.521-1.192-.775-.528.061-1.075.133-1.6.206.29.218.562.448.835.666q6.877,5.4,13.72,10.793l-1.226.145q-4.425-1.472-8.812-2.919c7.805,4.276,15.782,8.431,18.322,13.858-4.585-1.648-8.011-2.883-11.521-4.143,2.369,2.241,4.687,4.434,7.039,6.663h97.433c.834-2.956,1.635-5.827,2.42-8.625-1.722,1.018-3.869,2.3-6.017,3.574-.681-.049-1.362-.109-2.045-.158,3.273-5.96,6.562-11.944,10.04-18.3C931.08,467.915,931.182,467.709,931.3,467.5Zm-78.192,15.142V474.8c.443,0,.9.012,1.345.012C854.012,477.364,853.569,479.932,853.109,482.645Zm27.507-16.232c-.528-1.708-.955-3.137-1.381-4.567C881.978,463.179,886.12,464.535,880.616,466.413ZM865.363,482.27c-.615-5.6,5.573-10.466,8.538-15.639C877.634,468.848,872.794,477.739,865.363,482.27Zm17.179-11.3c-.512-.024-1.006-.036-1.517-.061.46-1.042.9-2.1,1.364-3.137.307-.715.63-1.429.937-2.144.562,0,1.124.012,1.671.012,1.55,1.175,2.1,1.6.954,2.7A35.06,35.06,0,0,1,882.542,470.968Zm5.488,6.178c.443-2.12.9-4.24,1.432-6.675C895.221,472.979,889.973,475.038,888.029,477.146Zm7.873-7.983c-3.374-1.551-3.68-3-.988-4.615,3.1-1.865,5.828-3.78,8.81-5.815.325-.218.632-.424.955-.654.358-.23.715-.485,1.09-.727a2.926,2.926,0,0,1,.87,2.968,4.146,4.146,0,0,1-.444,1.018C904.936,463.506,901.526,466.062,895.9,469.163Z" transform="translate(396.594 -440.658)" fill="url(#linear-gradient-35)"/>
      <path id="Path_318" data-name="Path 318" d="M1189.545,479.617l-1.807-.139q-2.785,2.276-5.59,4.521l-1.586-.186c.973-2.23,1.467-4.506,3.016-6.673a68.982,68.982,0,0,1,7.039-7.773c2.8-2.849,5.83-5.651,8.761-8.485-.392-.062-.783-.139-1.175-.2-3.767,2.586-7.517,5.172-11.521,7.928a1.79,1.79,0,0,0-.2.155c-.34.217-.683.465-1.023.7-.051.031-.085.062-.136.093-1.5,1.037-3.05,2.106-4.636,3.205-.187-1.424-.341-2.462-.511-3.685-.051-.4-.1-.805-.17-1.27-.239.155-.494.31-.732.464-5.438,3.391-10.193,6.333-15.34,9.569.768-2.586,1.415-4.769,2.063-6.952l-.784-.046c-1.381,2.2-2.744,4.4-4.176,6.673-7.243-3.685-7.771-7.293-1.892-11.148,4.619-3.019,9.135-6.085,13.311-8.918,3.187-2.183,6.17-4.243,8.878-6.085a88.434,88.434,0,0,0-9.9,4.335c-.783.4-1.567.805-2.316,1.223l-.666.372c-2.505,1.394-4.874,2.88-7.158,4.428a114.475,114.475,0,0,0-9.8,7.417c-.051.031-.085.077-.136.108l-1.533-.046c-1.909-4.475-3.8-8.965-5.71-13.455-.187,0-.375,0-.562.016.426,2.524.834,5.063,1.262,7.6h-1.074c-1.671-1.084-3.34-2.183-5.011-3.267-1.756-1.13-3.493-2.261-5.232-3.406a24.023,24.023,0,0,0,3.732,4.366c1.313,1.254,2.779,2.493,4.329,3.7,5.487,4.335,6.715,8.655,1.79,13.254-2.625,2.446-3.954,5.11-5.913,7.68-.956,1.239-2.046,2.446-3.069,3.67-2.914-5.28-2.42-10.343,3.937-15.2-.511-.046-1.023-.093-1.534-.124-1.482,1.084-2.948,2.168-4.431,3.252a38.633,38.633,0,0,0-1.363-5.791c-.392-1.223-.817-2.446-1.313-3.654a86.681,86.681,0,0,0-3.646-7.9c-1.075-2.09-2.2-4.18-3.324-6.255.342,1.889.7,3.763,1.041,5.651q1.481,8.036,2.948,16.087l-1.909.093c-1.4-1.5-2.812-2.988-4.225-4.475l-1.6.093c6.2,4.815,4.142,9.646,1.892,14.57-2.233,4.908-3.307,9.879-4.891,14.833h9.27v-8.392h1.364c-.375,2.756-.749,5.512-1.141,8.392h12c.068-6.673,5.76-12.588,8.589-18.843,3.476,2.663-.545,12.82-7.192,18.843h44.021C1181.314,493.475,1180.393,486.43,1189.545,479.617Zm-38.193-4.041c2.727,1.7,6.869,3.437,1.364,5.853C1152.2,479.23,1151.777,477.4,1151.352,475.576Zm3.29,11.659c-.5-.016-1.006-.046-1.517-.077.766-2.245,1.534-4.49,2.318-6.751.545.015,1.107.015,1.671.031C1159.482,482.745,1159.482,482.745,1154.642,487.235Zm5.488,7.9c.46-2.71.9-5.419,1.43-8.531C1167.339,489.806,1162.073,492.438,1160.129,495.132Zm7.873-10.2c-3.357-1.982-3.682-3.824-.971-5.9,3.8-2.911,7.039-5.93,10.839-9.2C1180.7,473.548,1177.479,478.255,1168,484.928Zm26.6,7.262c-.272-.031-.545-.046-.834-.077q1.507-9.778,3.016-19.556c-.409-.015-.834-.031-1.262-.062q-4.755,14-9.51,28.041h9.767c2.471-5.744,4.994-11.582,7.635-17.729C1200.162,486.26,1197.384,489.233,1194.606,492.19Zm-94.962-24.96c2.693,10.9,5.385,21.785,8.214,33.259-8.282-6.782-15.832-12.975-23.365-19.153-.545.093-1.075.186-1.62.263q7.286,7.339,14.572,14.647c-.426.062-.835.124-1.243.186-2.933-1.239-5.864-2.493-8.795-3.732,3.663,2.57,7.4,5.125,10.549,7.835h17.3q-7.03-16.7-14.076-33.4Z" transform="translate(545.802 -449.572)" fill="url(#linear-gradient-36)"/>
    </g>
  </g>
</svg>
