<svg xmlns="http://www.w3.org/2000/svg" width="59.479" height="56.988" viewBox="0 0 59.479 56.988"><defs><style>.a{fill:#f2a133;}.b{fill:#31a32b;}.c{fill:#91d38c;}.d{fill:#298525;}.e{fill:#1c6b18;}.f{fill:#c0a58d;}.g{fill:#8c715d;}.h{fill:#b19177;}.i{fill:#e5b57a;}.j{fill:#afafaf;}.k{fill:#a7a7a7;}.l{fill:#d2d2d2;}.m{fill:#7e7e7e;}.n{fill:#676767;}.o{fill:#b9b9b9;}.p{fill:#949494;}.q{fill:#e1e1e1;}</style></defs><path class="a" d="M626.909,514.567V495.732h10.9v18.835Z" transform="translate(-578.335 -492.276)"/><path class="b" d="M441.042,520.514h35.687v21.809H441.042Z" transform="translate(-437.077 -511.11)"/><path class="c" d="M503,520.514h5.948v21.809H503Z" transform="translate(-484.163 -511.11)"/><g transform="translate(3.965 9.404)"><path class="d" d="M448.973,520.514a7.93,7.93,0,0,1-7.929,7.931h0v-7.931Z" transform="translate(-441.042 -520.514)"/><path class="d" d="M448.973,586.27h-7.931v-7.931a7.93,7.93,0,0,1,7.931,7.929Z" transform="translate(-441.042 -564.461)"/><path class="d" d="M564.623,520.514v7.931a7.93,7.93,0,0,1-7.93-7.929h7.93Z" transform="translate(-528.936 -520.514)"/><path class="d" d="M564.623,578.339v7.931h-7.93a7.93,7.93,0,0,1,7.929-7.931Z" transform="translate(-528.936 -564.461)"/></g><path class="e" d="M589.735,520.514h5.948v21.809h-5.948Z" transform="translate(-550.083 -511.11)"/><path class="f" d="M513.66,497.916l-.51.51a4.2,4.2,0,0,0-1.232,2.974h0a4.206,4.206,0,0,0,4.206,4.206h0a4.206,4.206,0,0,0,2.974-1.232l3.725-3.725a5.608,5.608,0,0,0,7.931,0h1.983V486.771l-16.427-5.187a5.418,5.418,0,0,0-4.54.6l-6.264,3.986A5.418,5.418,0,0,0,503,490.736h7.69a4.206,4.206,0,0,1,4.206,4.206h0a4.206,4.206,0,0,1-1.232,2.974Z" transform="translate(-484.162 -481.332)"/><path class="g" d="M532.9,642.531l1.25-5a2.8,2.8,0,0,1,3.391-2.034c.069.017.138.037.206.06l.162.054a2.8,2.8,0,0,1,1.768,3.536q-.042.128-.1.252l-2.714,6.108H531.91Z" transform="translate(-506.136 -598.431)"/><path class="h" d="M534.884,641.109l4.509-7.516a2.8,2.8,0,0,1,3.836-.959h0a2.8,2.8,0,0,1,.959,3.836q-.047.078-.1.153l-7.223,10.433-4.957-2.974Z" transform="translate(-506.136 -596.018)"/><path class="f" d="M496.886,639.107a3.5,3.5,0,0,0-4.954,0l0,0-7.519,7.519-2.187,2.187h0a2.975,2.975,0,0,0-2.685-4.254H472.6l-.991-.991a7.01,7.01,0,0,0-9.913,0h0v8.922l1.662,1.187a20.239,20.239,0,0,0,26.075-2.159l7.455-7.455a3.5,3.5,0,0,0,0-4.955Z" transform="translate(-452.772 -600.459)"/><path class="h" d="M509.607,674.6a4.961,4.961,0,0,1-4.957,4.956h-8.922a.991.991,0,1,1,0-1.982h8.922a2.978,2.978,0,0,0,2.684-1.694h0l2.187-2.187A4.872,4.872,0,0,1,509.607,674.6Z" transform="translate(-477.885 -627.521)"/><path class="i" d="M445.173,648.555h3.965v14.87h-3.965Z" transform="translate(-440.216 -608.42)"/><path class="a" d="M424.521,644.425h4.957v17.844h-4.957Z" transform="translate(-424.521 -605.282)"/><path class="j" d="M626.909,514.567V495.732h10.9v18.835Z" transform="translate(-578.335 -492.276)"/><path class="k" d="M441.042,520.514h35.687v21.809H441.042Z" transform="translate(-437.077 -511.11)"/><path class="l" d="M503,520.514h5.948v21.809H503Z" transform="translate(-484.163 -511.11)"/><g transform="translate(3.965 9.404)"><path class="m" d="M448.973,520.514a7.93,7.93,0,0,1-7.929,7.931h0v-7.931Z" transform="translate(-441.042 -520.514)"/><path class="m" d="M448.973,586.27h-7.931v-7.931a7.93,7.93,0,0,1,7.931,7.929Z" transform="translate(-441.042 -564.461)"/><path class="m" d="M564.623,520.514v7.931a7.93,7.93,0,0,1-7.93-7.929h7.93Z" transform="translate(-528.936 -520.514)"/><path class="m" d="M564.623,578.339v7.931h-7.93a7.93,7.93,0,0,1,7.929-7.931Z" transform="translate(-528.936 -564.461)"/></g><path class="n" d="M589.735,520.514h5.948v21.809h-5.948Z" transform="translate(-550.083 -511.11)"/><path class="o" d="M513.66,497.916l-.51.51a4.2,4.2,0,0,0-1.232,2.974h0a4.206,4.206,0,0,0,4.206,4.206h0a4.206,4.206,0,0,0,2.974-1.232l3.725-3.725a5.608,5.608,0,0,0,7.931,0h1.983V486.771l-16.427-5.187a5.418,5.418,0,0,0-4.54.6l-6.264,3.986A5.418,5.418,0,0,0,503,490.736h7.69a4.206,4.206,0,0,1,4.206,4.206h0a4.206,4.206,0,0,1-1.232,2.974Z" transform="translate(-484.162 -481.332)"/><path class="m" d="M532.9,642.531l1.25-5a2.8,2.8,0,0,1,3.391-2.034c.069.017.138.037.206.06l.162.054a2.8,2.8,0,0,1,1.768,3.536q-.042.128-.1.252l-2.714,6.108H531.91Z" transform="translate(-506.136 -598.431)"/><path class="p" d="M534.884,641.109l4.509-7.516a2.8,2.8,0,0,1,3.836-.959h0a2.8,2.8,0,0,1,.959,3.836q-.047.078-.1.153l-7.223,10.433-4.957-2.974Z" transform="translate(-506.136 -596.018)"/><path class="o" d="M496.886,639.107a3.5,3.5,0,0,0-4.954,0l0,0-7.519,7.519-2.187,2.187h0a2.975,2.975,0,0,0-2.685-4.254H472.6l-.991-.991a7.01,7.01,0,0,0-9.913,0h0v8.922l1.662,1.187a20.239,20.239,0,0,0,26.075-2.159l7.455-7.455a3.5,3.5,0,0,0,0-4.955Z" transform="translate(-452.772 -600.459)"/><path class="p" d="M509.607,674.6a4.961,4.961,0,0,1-4.957,4.956h-8.922a.991.991,0,1,1,0-1.982h8.922a2.978,2.978,0,0,0,2.684-1.694h0l2.187-2.187A4.872,4.872,0,0,1,509.607,674.6Z" transform="translate(-477.885 -627.521)"/><path class="q" d="M445.173,648.555h3.965v14.87h-3.965Z" transform="translate(-440.216 -608.42)"/><path class="j" d="M424.521,644.425h4.957v17.844h-4.957Z" transform="translate(-424.521 -605.282)"/></svg>