<svg xmlns="http://www.w3.org/2000/svg" width="151" height="151" viewBox="0 0 151 151">
  <g id="no-recent-transaction" transform="translate(-189 -326)">
    <path id="Path_388" data-name="Path 388" d="M333.552,326V466.586H219V352.034h26.034V326Zm0,0" transform="translate(-16.983)" fill="#f3f3f3"/>
    <path id="Path_389" data-name="Path 389" d="M435.1,413.052A39.052,39.052,0,1,1,396.052,374,39.051,39.051,0,0,1,435.1,413.052Zm0,0" transform="translate(-95.103 -27.172)" fill="rgba(207,207,207,0.42)"/>
    <rect id="Rectangle_599" data-name="Rectangle 599" width="10" height="20" transform="translate(296 415)" fill="#dcdcdc"/>
    <path id="Path_390" data-name="Path 390" d="M445.414,536v12.653a37.343,37.343,0,0,1-10.414,0V536Zm0,0" transform="translate(-139.259 -118.879)" fill="#b5b5b5"/>
    <rect id="Rectangle_600" data-name="Rectangle 600" width="16" height="8" transform="translate(293 446)" fill="#dcdcdc"/>
    <rect id="Rectangle_601" data-name="Rectangle 601" width="16" height="11" transform="translate(293 435)" fill="#b5b5b5"/>
    <path id="Path_391" data-name="Path 391" d="M444.621,620v15.621a7.81,7.81,0,0,1-15.621,0V620Zm0,0" transform="translate(-135.862 -166.431)" fill="#b5b5b5"/>
    <path id="Path_392" data-name="Path 392" d="M264.5,493.207V563.5a5.206,5.206,0,0,1-5.207,5.207H194.207A5.222,5.222,0,0,1,189,563.5V493.207A5.222,5.222,0,0,1,194.207,488h65.086a5.222,5.222,0,0,1,5.207,5.207Zm0,0" transform="translate(0 -91.707)" fill="#dcdcdc"/>
    <rect id="Rectangle_602" data-name="Rectangle 602" width="13" height="13" rx="3" transform="translate(197 454)" fill="#b5b5b5"/>
    <rect id="Rectangle_603" data-name="Rectangle 603" width="13" height="13" rx="3" transform="translate(197 433)" fill="#b5b5b5"/>
    <rect id="Rectangle_604" data-name="Rectangle 604" width="13" height="34" rx="3" transform="translate(244 433)" fill="#b5b5b5"/>
    <rect id="Rectangle_605" data-name="Rectangle 605" width="13" height="13" rx="3" transform="translate(220 433)" fill="#b5b5b5"/>
    <rect id="Rectangle_606" data-name="Rectangle 606" width="13" height="13" rx="3" transform="translate(220 454)" fill="#b5b5b5"/>
    <rect id="Rectangle_607" data-name="Rectangle 607" width="60" height="18" rx="3" transform="translate(197 404)" fill="#b5b5b5"/>
    <path id="Path_393" data-name="Path 393" d="M245.034,326v26.034H219Zm0,0" transform="translate(-16.983)" fill="#c6c5ca"/>
    <path id="Path_394" data-name="Path 394" d="M419.392,381.863a39.052,39.052,0,1,0,0,62.378Zm0,0" transform="translate(-95.013 -27.173)" fill="#d3d3d3"/>
    <rect id="Rectangle_608" data-name="Rectangle 608" width="5" height="5" rx="1" transform="translate(244 411)" fill="#fff"/>
    <rect id="Rectangle_609" data-name="Rectangle 609" width="5" height="5" rx="1" transform="translate(233 411)" fill="#fff"/>
  </g>
</svg>
