<svg xmlns="http://www.w3.org/2000/svg" width="65" height="65" viewBox="0 0 65 65"><defs><style>.a{fill:#f2a133;}.b{fill:#fff;}</style></defs><g transform="translate(-314 -197)"><circle class="a" cx="32.5" cy="32.5" r="32.5" transform="translate(314 197)"/><g transform="translate(329.793 217)"><g transform="translate(0)"><path class="b" d="M645.366,438.894a.72.72,0,0,0-.041-.186h0l-.018-.049a6.906,6.906,0,0,0-.44-1.187l-3.63-9.8a4.871,4.871,0,0,0-1.8-2.443l-.129-.917a.729.729,0,0,0-.03-.127,3.544,3.544,0,0,0-3.374-2.415,3.587,3.587,0,0,0-3.551,3.5v.031l.031,1.419a4.818,4.818,0,0,0-.625,1.835h-5.21a4.823,4.823,0,0,0-.624-1.833l.03-1.394V425.3a3.585,3.585,0,0,0-3.551-3.5,3.544,3.544,0,0,0-3.374,2.416.727.727,0,0,0-.029.123l-.13.887a4.871,4.871,0,0,0-1.8,2.443l-3.629,9.8a6.909,6.909,0,0,0-.44,1.188l-.018.049a.721.721,0,0,0-.041.187,6.944,6.944,0,1,0,13.709,1.567c0-.075,0-.151,0-.225a.828.828,0,0,0,0-.083l-.016-2.406h5.03l-.016,2.55c0,.012,0,.026,0,.038,0,.042,0,.084,0,.126a6.944,6.944,0,1,0,13.709-1.566Zm-22.958-15.656a2.141,2.141,0,0,1,2.108,1.967,4.891,4.891,0,0,0-4.044-.726A2.114,2.114,0,0,1,622.408,423.238Zm-3.978,4.917.009-.027a3.447,3.447,0,0,1,6.143-.838.754.754,0,0,0,.045.069,3.371,3.371,0,0,1,.525,1.81l.045,7.035a6.933,6.933,0,0,0-9.138-1.644Zm6.231,14.728a5.506,5.506,0,0,1-4.946,3.085h0a5.508,5.508,0,0,1-5.335-6.874l.39-1.053a5.506,5.506,0,0,1,9.891,4.843Zm7.021-6.574h-5.048l-.007-1.077h5.062Zm.016-2.514h-5.08l-.024-3.807h5.128Zm4.21-10.592a2.111,2.111,0,0,1,1.952,1.28,4.891,4.891,0,0,0-4.062.724A2.141,2.141,0,0,1,635.907,423.2Zm-2.744,5.961a3.444,3.444,0,0,1,5.183-2.937.72.72,0,0,0,.112.069,3.435,3.435,0,0,1,1.418,1.833l.009.027h0l2.372,6.406a6.933,6.933,0,0,0-9.138,1.642Zm6.8,16.631a5.511,5.511,0,0,1-1.364.172h0a5.507,5.507,0,1,1,4.945-7.927l.39,1.053A5.508,5.508,0,0,1,639.964,445.8Z" transform="translate(-612.769 -421.767)"/></g><g transform="translate(2.026 13.774)"><g transform="translate(0)"><path class="b" d="M626.319,480.447a4.92,4.92,0,1,0,4.92,4.92A4.92,4.92,0,0,0,626.319,480.447Zm0,8.4a3.484,3.484,0,1,1,3.484-3.484A3.484,3.484,0,0,1,626.319,488.851Z" transform="translate(-621.399 -480.447)"/></g></g><g transform="translate(20.824 13.774)"><g transform="translate(0)"><path class="b" d="M706.4,480.447a4.92,4.92,0,1,0,4.92,4.92A4.92,4.92,0,0,0,706.4,480.447Zm0,8.4a3.484,3.484,0,1,1,3.484-3.484A3.484,3.484,0,0,1,706.4,488.851Z" transform="translate(-701.481 -480.447)"/></g></g></g></g></svg>