<svg xmlns="http://www.w3.org/2000/svg" xmlns:xlink="http://www.w3.org/1999/xlink" width="345.239" height="300" viewBox="0 0 345.239 300">
  <defs>
    <clipPath id="clip-path">
      <circle id="Ellipse_107" data-name="Ellipse 107" cx="150" cy="150" r="150" transform="translate(823 183)" fill="#fff" stroke="#707070" stroke-width="1"/>
    </clipPath>
  </defs>
  <g id="PAGE-NOT-FOUND" transform="translate(-823 -183)">
    <circle id="Ellipse_108" data-name="Ellipse 108" cx="150" cy="150" r="150" transform="translate(823 183)" fill="#f5f5f5"/>
    <g id="Mask_Group_1" data-name="Mask Group 1" clip-path="url(#clip-path)">
      <g id="Group_523" data-name="Group 523" transform="translate(-592.464 -24.954)">
        <path id="Path_731" data-name="Path 731" d="M1150.145,471.111s57.252,14.369,95.908-28.582S1289,346.714,1352.6,399.578s115.638,82.926,158.589,22.3c19.371-27.341,43.846,18.9,74.338,27.756,37.049,10.762,34.236,2.316,53.689-19.5,35.435-39.73,50.386,55.341,96.641,35.517s51.051,5.455,51.051,5.455V539.82H1150.145Z" transform="translate(0 -31.972)" fill="#e1e1e1"/>
        <path id="Path_729" data-name="Path 729" d="M1787.056,608.361c-67.175-.449-571.853.034-636.056.1V599.74a99.686,99.686,0,0,0,34.218-4.69c23.483-7.38,110.706,4.7,155.659-14.09s59.043-16.774,83.868-7.38,74.475,12.748,97.958,12.748,87.894-6.039,157,8.051,107.351-10.735,107.351-10.735Z" transform="translate(-0.855 -100.232)" fill="#bebebe"/>
        <path id="Path_730" data-name="Path 730" d="M1850.909,507.9s-8.722-2.013,8.051-23.483,3.019-38.579,3.019-38.579l2.683-4.026,7.38,13.419s4.026-22.141-6.038-34.218-20.8-11.406-26.167-17.445-32.876-34.218-35.56-47.637-23.483-28.851-33.547-32.876-9.393.671-24.154-4.026-22.141-8.051-31.535,0-22.812,10.064-27.509,8.722l-4.7-1.342L1656,307.624s1.342-1.342,8.722,2.684,21.47,14.761,24.825,14.09,9.393-2.013,9.393-2.013-13.419-4.026-16.1-6.709-6.039-10.064-6.039-10.064,1.342-2.684,2.684.671,10.064,10.735,14.761,12.077,10.735,2.684,10.735,2.684,16.1-8.722,21.47-9.393c0,0-4.026-4.026-8.722-5.368s-13.419-4.7-13.419-4.7,8.051-1.342,10.735.671,4.026,1.342,4.026,1.342-6.039-8.722-8.722-9.393,2.684-2.013,7.38,2.684,10.735,10.735,23.483,14.761,12.077,2.684,12.077,2.684-8.722-6.038-8.722-9.393-.671-12.748-2.684-14.761c0,0,4.026,2.013,5.367,12.748,0,0,4.026,10.064,12.748,12.748,0,0,18.115,0,27.509,6.709s18.115,11.406,18.786,15.432,6.038,14.761,10.735,19.457,8.052,20.8,34.889,37.573c0,0,8.052-10.735,8.052-14.09s1.342-10.064,0-12.748-10.064-8.722-14.09-18.786-10.735-14.09-12.748-21.47-12.748-13.419-22.812-13.419-28.851-3.355-34.218-15.432c0,0-5.368-4.026-10.064-5.368s-11.406-4.7-13.419-5.368-12.077-2.684-16.1-10.064-10.064-6.038-10.064-6.038,4.026-5.368,15.432,8.722a35.107,35.107,0,0,0,14.09,6.709s-4.026-3.355-4.7-6.038,4.026,4.7,10.064,8.051a37.273,37.273,0,0,0,12.748,4.026s-8.052-10.064-6.039-17.445a36.991,36.991,0,0,0,8.722,18.116s2.684,4.7,4.026,7.38,14.09,10.064,22.141,10.064,18.116-4.7,26.838,3.355,8.052,13.419,10.735,17.445a84.915,84.915,0,0,1,4.7,8.051s-.671-9.393,1.342-12.748-2.013-6.039-2.684-11.406-5.367-8.722-9.393-13.419-2.684-7.38-6.039-10.735,0-3.355-3.355-7.38-6.709-7.38-6.709-10.735c0,0,7.38,6.038,10.064,10.735s2.684,6.039,4.026,8.051,5.368,6.709,7.38,10.064,3.355,6.709,4.026,5.368,1.342-10.735,2.684-12.748,4.026,0,2.684-5.368a43.721,43.721,0,0,1-1.342-12.077c0-3.355-3.355-5.368-3.355-8.722s4.7-3.355,4.7-3.355-4.026,3.355-2.013,5.368,3.355,5.368,4.026,8.051l.671,2.684s4.026-2.013,4.7-8.051A47.289,47.289,0,0,1,1859.967,262v13.419c0,3.355-2.684,6.039-4.7,9.393s-2.684,6.039-4.026,10.064-2.684,2.013-2.684,6.038,2.013,10.735,2.684,15.432,1.342,10.064.671,15.432-3.355,6.709,0,14.09-.671,5.368,8.052,14.09,10.735,9.393,9.393,18.116a12.931,12.931,0,0,0,5.368-10.735c0-7.38,3.355-14.761,4.7-19.457s.671-13.419-2.013-16.774-12.077-14.09-7.38-28.18,8.722-20.128,8.052-24.154,2.683-10.064,2.683-10.064a48.424,48.424,0,0,0-.671,12.748c.671,6.038-9.393,22.141-7.38,30.193s9.393,14.761,11.406,22.141.671,11.406.671,11.406a38.09,38.09,0,0,0,8.051-22.812c0-13.419,4.026-13.419,4.026-18.116s0-9.393,2.013-13.419,10.064-12.077,9.393-19.457c0,0,1.342,3.355-6.71,22.812,0,0-2.013,4.7-.671,8.722,0,0,8.722-14.761,14.089-16.1s10.735-1.342,13.419-5.368,8.722-2.684,8.722-2.684-6.71,2.013-10.064,8.051-10.735-2.013-16.1,7.38-12.748,18.116-13.419,22.812-.671,24.154-14.761,36.231c0,0,.671,3.355-1.342,10.064s-2.684,15.432-8.722,19.457-10.735,11.406-9.393,17.445,14.09,14.09,15.432,22.141c0,0,3.355-13.419,4.026-19.457s6.039-13.419,6.71-15.432,0-8.722,4.7-17.445,16.774-17.445,18.116-24.154,1.342-20.8,6.038-28.18,19.458-16.1,25.5-17.445,10.064.671,15.432-4.026,9.393-8.051,9.393-8.051-8.051,13.419-16.1,14.09S1933.1,308.3,1933.1,308.3s12.078.671,16.1-1.342,4.7-3.355,4.7-3.355,0,7.38-21.47,7.38c0,0-3.355-1.342-6.709,4.026,0,0,9.393-2.013,13.419,1.342,3.914,3.262,16.077,7.158,22.914,2.436q.291-.2.569-.423s-4.415,8.593-28.18.671c-8.051-2.684-15.432.671-16.774,16.774s-12.077,26.838-16.1,31.534-7.381,18.116-8.051,26.838-7.38,8.722-7.38,26.167.671,24.154,2.013,34.889-1.342,8.051-3.355,15.432-6.709,21.47-4.026,30.193,4.026,6.71,4.026,6.71Z" transform="translate(-207.956)" fill="#a2a2a2"/>
      </g>
    </g>
    <path id="Subtraction_1" data-name="Subtraction 1" d="M-9894.769-5529.547H-9910.1a26.922,26.922,0,0,0-4.9-9.44c-5.941-7.128-12.23-9.864-17.284-12.062-3.588-1.561-6.686-2.908-8.884-5.382-.67-.753-1.678-1.844-2.953-3.225l-.155-.168c-9.012-9.745-30.115-32.564-32.451-44.245-1.179-5.891-6.153-12.979-14.008-19.961-6.239-5.546-14.093-10.736-19.541-12.915a20.66,20.66,0,0,0-8.317-1.805c-.56,0-1.125.018-1.624.033h-.083c-.523.015-1.116.033-1.744.033-2.567,0-6.046-.272-12.385-2.288-1.141-.363-2.215-.711-3.4-1.1-6.5-2.1-11.625-3.767-16.178-3.767-4.346,0-8.032,1.5-11.955,4.862a38.47,38.47,0,0,1-12.607,7.009,37.587,37.587,0,0,1-11.454,2.1,13.079,13.079,0,0,1-3.447-.383l-4.7-1.341-26.838-18.786a1.478,1.478,0,0,1,.944-.215c1.124,0,3.386.5,7.778,2.9,2.554,1.392,5.853,3.551,9.345,5.836l.009.005,0,0c6.218,4.068,12.648,8.275,15.134,8.275a1.7,1.7,0,0,0,.332-.03c2.916-.583,7.884-1.678,9.337-2l.057-.013-.034-.008c-1.38-.421-13.554-4.186-16.068-6.7-2.672-2.675-6.007-9.992-6.04-10.065.021-.043.531-1.016,1.212-1.016.53,0,1.026.567,1.475,1.687.634,1.588,2.979,4.191,6.121,6.793,3.247,2.691,6.478,4.667,8.64,5.284,4.627,1.323,10.677,2.671,10.733,2.684.16-.087,16.141-8.729,21.472-9.395-.037-.038-4.1-4.046-8.724-5.367-4.546-1.3-13.055-4.556-13.414-4.694l0,0a.091.091,0,0,1,.03-.007,37.955,37.955,0,0,1,5.354-.431c2.57,0,4.371.373,5.352,1.109a5.863,5.863,0,0,0,3.381,1.449,1.578,1.578,0,0,0,.645-.107c-.059-.085-6.072-8.732-8.721-9.394-.474-.118-.734-.269-.717-.413.021-.174.439-.292,1.04-.292a10.439,10.439,0,0,1,7.056,3.387c4.782,4.783,10.735,10.735,23.484,14.761,7.582,2.4,10.436,2.9,11.494,2.9.4,0,.534-.074.572-.136a.086.086,0,0,0,.009-.079,53.853,53.853,0,0,1-4.36-3.439c-1.989-1.759-4.36-4.22-4.36-5.953a64.893,64.893,0,0,0-.587-7.884c-.352-2.532-1-5.781-2.1-6.877h.006a6.858,6.858,0,0,1,2.175,2.348c1.071,1.683,2.493,4.854,3.186,10.4a27.189,27.189,0,0,0,3.1,5.367c1.913,2.6,5.14,5.994,9.646,7.381a79.114,79.114,0,0,1,10.231.838,59.449,59.449,0,0,1,9.016,1.992,29.272,29.272,0,0,1,8.262,3.878c2.307,1.648,4.535,3.148,6.69,4.6l.045.03c6.45,4.343,11.546,7.773,12.051,10.8.657,3.944,5.945,14.669,10.733,19.457a28.67,28.67,0,0,1,3.732,5.622c4.169,7.273,11.146,19.444,31.158,31.952.079-.105,8.051-10.795,8.051-14.09,0-1.046.135-2.466.265-3.839v-.014c.311-3.3.662-7.042-.266-8.9a19.941,19.941,0,0,0-3.157-3.626c-3.263-3.311-8.194-8.314-10.934-15.159a48.024,48.024,0,0,0-7.146-11.767c-2.468-3.234-4.6-6.025-5.6-9.706-.964-3.533-3.942-6.9-8.387-9.477a29.628,29.628,0,0,0-14.424-3.942,59.647,59.647,0,0,1-18.871-3.187,34.163,34.163,0,0,1-9.152-4.738,19.24,19.24,0,0,1-6.194-7.506c-.053-.04-5.437-4.044-10.065-5.367a86.4,86.4,0,0,1-9.817-3.856l0,0-.029-.013c-1.6-.7-2.86-1.26-3.567-1.5-.229-.076-.56-.169-.978-.287l-.016,0a38.8,38.8,0,0,1-7.438-2.78,17.606,17.606,0,0,1-7.671-6.994c-2.91-5.335-6.842-6.132-8.927-6.132a5.776,5.776,0,0,0-1.136.1h0l0-.006a3.23,3.23,0,0,1,2.528-1c2.294,0,6.395,1.687,12.9,9.725a35.127,35.127,0,0,0,14.09,6.711l-.009-.005c-.414-.352-4.06-3.512-4.689-6.035-.074-.3-.084-.473-.029-.542a.087.087,0,0,1,.073-.034c.251,0,.917.7,1.925,1.763l.008.008c1.78,1.874,4.761,5.009,8.09,6.857a37.772,37.772,0,0,0,12.746,4.025.084.084,0,0,1-.011-.012,39.979,39.979,0,0,1-3.763-5.943,25.553,25.553,0,0,1-2.171-5.65,11.824,11.824,0,0,1-.095-5.839,33.432,33.432,0,0,0,1.594,6.039,35.974,35.974,0,0,0,7.13,12.077c.023.04,2.7,4.735,4.024,7.381.681,1.361,4.278,3.9,8.555,6.038,5.116,2.558,10.067,4.025,13.586,4.025a48.077,48.077,0,0,0,6.628-.646,54.068,54.068,0,0,1,7.606-.716,17.508,17.508,0,0,1,12.6,4.716,29.59,29.59,0,0,1,8.807,13.217,19.507,19.507,0,0,0,1.93,4.229,84.751,84.751,0,0,1,4.693,8.046v-.015c-.062-.971-.546-9.575,1.345-12.729,1.16-1.933.322-3.627-.737-5.772a17.042,17.042,0,0,1-1.945-5.631c-.5-4.041-3.345-7-6.352-10.129-1-1.046-2.044-2.128-3.04-3.291a16.44,16.44,0,0,1-3.312-5.984,11.023,11.023,0,0,0-2.728-4.751c-1.677-1.677-1.677-2.532-1.677-3.438s0-1.929-1.678-3.941c-.479-.575-.965-1.145-1.462-1.727-2.815-3.3-5.247-6.146-5.247-9.009l.016.011c.763.632,7.523,6.305,10.048,10.725a45.472,45.472,0,0,1,2.64,5.323,15.279,15.279,0,0,0,1.385,2.727c.509.761,1.4,1.9,2.422,3.217l0,.005a78.029,78.029,0,0,1,4.956,6.843c.522.87,1,1.75,1.431,2.528l.007.013c.958,1.749,1.715,3.129,2.228,3.129.14,0,.258-.1.36-.3a26.071,26.071,0,0,0,.853-4.516v-.008c.457-3.127,1.025-7.019,1.829-8.224a2.9,2.9,0,0,1,1.614-1.1c1.1-.4,1.961-.713,1.072-4.265a43.838,43.838,0,0,1-1.345-12.078,8.275,8.275,0,0,0-1.676-4.359,8.27,8.27,0,0,1-1.678-4.361,3.107,3.107,0,0,1,2.35-2.937,7.941,7.941,0,0,1,2.349-.419c-.024.021-2.492,2.084-2.577,3.942a1.832,1.832,0,0,0,.562,1.427,13.334,13.334,0,0,1,2.519,3.773,23.718,23.718,0,0,1,1.507,4.276l.673,2.684a7.773,7.773,0,0,0,2.1-1.761,11.349,11.349,0,0,0,2.6-6.29,47.375,47.375,0,0,1,3.354-12.078v13.419c0,2.466-1.466,4.591-3.017,6.841-.534.774-1.139,1.652-1.68,2.553a35.354,35.354,0,0,0-3.372,8.06c-.232.72-.433,1.336-.655,2a6.022,6.022,0,0,1-1.692,2.869c-.6.579-.991.961-.991,3.171a50.878,50.878,0,0,0,1.491,9.318l0,.007c.479,2.2.931,4.283,1.19,6.107.7,4.906,1.334,10.139.673,15.432a22.786,22.786,0,0,1-.9,3.9l0,.01c-.828,2.764-1.482,4.947.9,10.183a20.4,20.4,0,0,1,1.655,5.074v.005c.435,2.176.652,3.269,6.395,9.009.987.988,1.9,1.885,2.71,2.677l.036.035,0,0c3.214,3.152,5.153,5.054,6.164,7.156.966,2.008,1.1,4.243.48,8.246a11.479,11.479,0,0,0,2.684-2.6,13.262,13.262,0,0,0,2.684-8.135c0-5.563,1.9-11.095,3.42-15.539l0-.009c.485-1.415.944-2.752,1.275-3.909a25.132,25.132,0,0,0,.5-8.891c-.364-3.466-1.281-6.339-2.516-7.882q-.17-.212-.373-.462a40.051,40.051,0,0,1-6.345-10.223,24.67,24.67,0,0,1-.664-17.5c1.885-5.656,3.651-9.987,5.071-13.467l.017-.042c2.1-5.141,3.365-8.244,2.965-10.647-.347-2.079.4-4.7,1.09-6.541a29.334,29.334,0,0,1,1.594-3.522,48.463,48.463,0,0,0-.671,12.746c.291,2.619-1.464,7.2-3.322,12.053-2.437,6.365-5.2,13.58-4.06,18.14,1.043,4.172,3.541,8.006,5.958,11.713,2.3,3.534,4.479,6.871,5.448,10.429a27.857,27.857,0,0,1,1.09,8.47,12.054,12.054,0,0,1-.419,2.935,34.34,34.34,0,0,0,4.026-6.373,37.252,37.252,0,0,0,4.026-16.439c0-8.431,1.6-11.588,2.771-13.894a8.476,8.476,0,0,0,1.255-4.221c0-4.619,0-9.395,2.013-13.419a35.955,35.955,0,0,1,2.73-4.147l.015-.021c3.011-4.2,7.133-9.951,6.646-15.289.034.1.289,1.065-.335,4.11-.612,2.985-2.216,8.653-6.374,18.7-.021.046-1.992,4.752-.671,8.723,0,0,0-.011.015-.027.388-.647,2.454-4.054,5.018-7.521a49.334,49.334,0,0,1,4.593-5.472,10.915,10.915,0,0,1,4.466-3.083c1.233-.308,2.456-.544,3.639-.772,3.964-.765,7.708-1.487,9.78-4.6,1.6-2.4,4.375-2.9,6.425-2.9a11.878,11.878,0,0,1,2.294.214,18.967,18.967,0,0,0-3.771,1.762,17.424,17.424,0,0,0-6.29,6.291c-1.162,2.086-2.781,2.513-4.854,2.513-.485,0-.97-.021-1.482-.044h-.033c-.457-.021-1.025-.046-1.584-.046-2.762,0-5.659.6-8.148,4.958-2.049,3.584-4.425,7.124-6.521,10.247-3.478,5.18-6.481,9.653-6.9,12.566-.081.564-.15,1.326-.238,2.292v.006c-.637,6.975-2.128,23.309-14.522,33.933.007.033.641,3.455-1.342,10.065-.441,1.473-.811,3.008-1.2,4.634-1.38,5.742-2.807,11.68-7.522,14.822a24.075,24.075,0,0,0-7.463,7.968c-1.9,3.342-2.563,6.619-1.929,9.477.61,2.747,3.6,5.929,6.763,9.3,3.9,4.156,7.938,8.454,8.669,12.844.03-.123,3.365-13.511,4.025-19.459.475-4.269,3.284-9.189,5.144-12.445l0-.008a23.467,23.467,0,0,0,1.56-2.979,13.7,13.7,0,0,0,.368-2.468,37.089,37.089,0,0,1,4.33-14.976c2.134-3.962,5.759-7.891,9.264-11.689l0-.006c4.173-4.523,8.114-8.8,8.847-12.458.379-1.893.644-4.317.95-7.124l0-.042v-.005c.765-7,1.718-15.723,5.081-21.009,2.857-4.492,8.9-8.812,12.244-10.987,4.991-3.243,10.192-5.777,13.253-6.457a29.858,29.858,0,0,1,5.424-.595h.009c3.434-.151,6.4-.282,10-3.433,5.354-4.684,9.366-8.029,9.392-8.05,0,0,0,.01-.011.022a53.785,53.785,0,0,1-5.021,6.771,31.392,31.392,0,0,1-5.157,4.813,12.148,12.148,0,0,1-5.914,2.484c-7.926.661-19.343,5.984-19.456,6.038h0c.02,0,1.908.107,4.508.107,3.967,0,9.2-.251,11.594-1.449,3.941-1.971,4.666-3.3,4.7-3.354-.007.2-.158,1.954-2.684,3.69a18.719,18.719,0,0,1-6.374,2.536,56.873,56.873,0,0,1-12.411,1.153,2.926,2.926,0,0,0-.993-.149c-1.16,0-3.445.542-5.716,4.174l.021-.005a32.906,32.906,0,0,1,5.964-.593c3.387,0,5.887.654,7.433,1.943,2.732,2.274,9.013,4.627,14.794,4.627a14.04,14.04,0,0,0,8.121-2.193c.182-.124.373-.266.569-.422,0,0,0,0,0,.007a6.209,6.209,0,0,1-2.148,2.005c-1.489.918-4.233,2.012-8.845,2.013-4.725,0-10.507-1.128-17.186-3.354a14.978,14.978,0,0,0-4.706-.832c-4.836,0-10.854,3.054-12.067,17.6a41,41,0,0,1-2.188,10.162,47.587,47.587,0,0,1-3.973,8.442,74.716,74.716,0,0,1-8.72,11.534c-.461.521-.869.984-1.222,1.4-1.839,2.146-3.715,6.375-5.282,11.909a81.3,81.3,0,0,0-2.768,14.929c-.267,3.463-1.468,5.521-2.858,7.9-2.12,3.632-4.523,7.747-4.523,18.262,0,3.776.032,7.083.1,10.109Z" transform="translate(10980.58 5935.047)" fill="#a2a2a2"/>
  </g>
</svg>
