<svg xmlns="http://www.w3.org/2000/svg" width="17.898" height="19.57" viewBox="0 0 17.898 19.57">
  <path id="pest" d="M21.437,13.668l.721.36.292-.583-.583-.292-2.031-2.708-3.2.582a1.284,1.284,0,0,0-.552-1.688l3.145-.858,1.7-2.035-.5-.418L18.859,7.907l-2.335.637a2.09,2.09,0,0,0,.238-1,3.783,3.783,0,0,0-.071-.7c.566-.123,2.027-.543,2.027-1.586a7.549,7.549,0,0,0-.686-3.08l-.584.291a7,7,0,0,1,.618,2.789c0,.488-.966.833-1.547.956a4.03,4.03,0,0,0-.295-.64,2.226,2.226,0,0,0,.538-1.294c0-1.522-2.09-2.236-2.179-2.265A.326.326,0,0,0,14.2,2.5a4.57,4.57,0,0,1,.552,1.712,3.182,3.182,0,0,0-2.511,0A4.652,4.652,0,0,1,12.8,2.5a.326.326,0,0,0-.377-.486c-.089.03-2.179.744-2.179,2.265a2.226,2.226,0,0,0,.538,1.294,4.043,4.043,0,0,0-.295.64C9.9,6.093,8.936,5.748,8.936,5.26a7,7,0,0,1,.618-2.789l-.584-.291a7.554,7.554,0,0,0-.686,3.08c0,1.043,1.461,1.463,2.027,1.586a3.783,3.783,0,0,0-.071.7,2.088,2.088,0,0,0,.238,1L8.143,7.907,6.579,6.029l-.5.418,1.7,2.035,3.145.858a1.285,1.285,0,0,0-.552,1.689l-3.2-.582L5.135,13.153l-.583.292.292.583.721-.36L7.446,11.16l2.931.533a1.061,1.061,0,0,0,.282,1.364c-.021.044-.043.088-.063.131L7.038,14.8l-1.3,4.218-.819.273.206.618,1.137-.379,1.31-4.259,2.63-1.2a7.274,7.274,0,0,0-.616,2.59c0,3.791,3.789,4.869,3.827,4.879l.071.02.073-.013a4.874,4.874,0,0,0,3.854-4.885,7.277,7.277,0,0,0-.616-2.589l2.63,1.2,1.31,4.259,1.137.379.206-.618-.819-.273-1.3-4.218-3.558-1.617-.063-.131a1.062,1.062,0,0,0,.282-1.365l2.931-.533ZM15.684,11.78a.426.426,0,0,1,.425.425.421.421,0,0,1-.3.407,9.647,9.647,0,0,1-2.306.472,9.647,9.647,0,0,1-2.306-.472.421.421,0,0,1-.3-.407.426.426,0,0,1,.425-.425h4.366Zm1.077,4.89a5.254,5.254,0,0,1-.076.872A5.985,5.985,0,0,1,13.5,18.627a6.048,6.048,0,0,1-3.168-1.073,4.42,4.42,0,0,1-.092-.883c0-.088.007-.183.015-.278a6.128,6.128,0,0,0,6.491,0C16.754,16.488,16.761,16.583,16.761,16.671Zm-3.26,0a5.126,5.126,0,0,1-3.127-1,8.544,8.544,0,0,1,.274-.921,5.193,5.193,0,0,0,2.852.94,5.193,5.193,0,0,0,2.852-.94,8.548,8.548,0,0,1,.274.921A5.129,5.129,0,0,1,13.5,16.671Zm0-1.63a4.624,4.624,0,0,1-2.613-.913c.109-.262.236-.536.372-.817a9.627,9.627,0,0,0,2.241.426,9.627,9.627,0,0,0,2.241-.426c.136.281.262.555.372.817A4.624,4.624,0,0,1,13.5,15.041ZM15.141,3a1.686,1.686,0,0,1,.968,1.279,1.422,1.422,0,0,1-.283.731,3.185,3.185,0,0,0-.383-.376A6,6,0,0,0,15.141,3Zm.968,4.539c0,1.347-1.419,1.63-2.608,1.63s-2.608-.283-2.608-1.63A2.784,2.784,0,0,1,13.5,4.608,2.784,2.784,0,0,1,16.109,7.542Zm-5.217-3.26A1.707,1.707,0,0,1,11.862,3a6.012,6.012,0,0,0-.3,1.638,3.185,3.185,0,0,0-.383.376A1.422,1.422,0,0,1,10.893,4.282Zm.652,5.543h3.912a.652.652,0,0,1,0,1.3H11.545a.652.652,0,1,1,0-1.3ZM13.516,20.9a5.047,5.047,0,0,1-2.867-2.392,6.468,6.468,0,0,0,2.852.772,6.56,6.56,0,0,0,2.929-.812A4.237,4.237,0,0,1,13.516,20.9Z" transform="translate(-4.552 -1.999)" fill="#f2a133"/>
</svg>
