<svg xmlns="http://www.w3.org/2000/svg" xmlns:xlink="http://www.w3.org/1999/xlink" width="235.452" height="109.368" viewBox="0 0 235.452 109.368"><defs><style>.a{fill:#f2f2f2;}.b{fill:#e5e5e5;}.c{fill:#faaf3b;}.d{fill:#fff;}.e{fill:#298525;}.f{filter:url(#c);}.g{filter:url(#a);}</style><filter id="a" x="0" y="17.659" width="94.007" height="50.008" filterUnits="userSpaceOnUse"><feOffset dy="5" input="SourceAlpha"/><feGaussianBlur stdDeviation="5" result="b"/><feFlood flood-opacity="0.102"/><feComposite operator="in" in2="b"/><feComposite in="SourceGraphic"/></filter><filter id="c" x="105.408" y="0" width="130.043" height="61.272" filterUnits="userSpaceOnUse"><feOffset dy="5" input="SourceAlpha"/><feGaussianBlur stdDeviation="5" result="d"/><feFlood flood-opacity="0.102"/><feComposite operator="in" in2="d"/><feComposite in="SourceGraphic"/></filter></defs><g transform="translate(-558.658 -251.316)"><g transform="translate(619.554 288.979)"><path class="a" d="M903.741-157.859H795.548a8.852,8.852,0,0,0-8.852,8.852v46.031a8.852,8.852,0,0,0,8.852,8.852h17.624l-.2,7.176a.768.768,0,0,0,1.107.714l14-7.889h75.659a8.852,8.852,0,0,0,8.852-8.852v-46.031A8.852,8.852,0,0,0,903.741-157.859Z" transform="translate(-786.696 157.859)"/><path class="b" d="M832.623-126.349a9.249,9.249,0,0,1-10.142,10.142,9.274,9.274,0,0,1-8.256-8.255A9.25,9.25,0,0,1,824.368-134.6,9.275,9.275,0,0,1,832.623-126.349Z" transform="translate(-803.188 143.933)"/><path class="c" d="M875-132.532l1.7,5.089,5.364-.041L877.75-124.3l1.7,5.089-4.364-3.119-4.315,3.186,1.618-5.114-4.364-3.119,5.364-.041Z" transform="translate(-835.498 142.661)"/><path class="c" d="M917.724-132.532l1.7,5.089,5.364-.041L920.47-124.3l1.7,5.089-4.364-3.119-4.315,3.186,1.618-5.114-4.364-3.119,5.364-.041Z" transform="translate(-861.133 142.661)"/><path class="c" d="M960.444-132.532l1.7,5.089,5.364-.041-4.315,3.186,1.7,5.089-4.364-3.119-4.315,3.186,1.618-5.114-4.364-3.119,5.364-.041Z" transform="translate(-886.768 142.661)"/><path class="d" d="M1003.164-132.532l1.7,5.089,5.364-.041-4.315,3.186,1.7,5.089-4.364-3.119-4.315,3.186,1.618-5.114-4.364-3.119,5.364-.041Z" transform="translate(-912.403 142.661)"/><path class="d" d="M1045.883-132.532l1.7,5.089,5.364-.041-4.315,3.186,1.7,5.089-4.364-3.119-4.315,3.186,1.618-5.114-4.364-3.119,5.364-.041Z" transform="translate(-938.038 142.661)"/><g transform="translate(10.502 31.899)"><rect class="e" width="8.166" height="2.182"/><rect class="e" width="12.243" height="2.182" transform="translate(10.182)"/></g><g transform="translate(10.502 38.381)"><rect class="d" width="17.613" height="2.182"/><rect class="d" width="41.21" height="2.182" transform="translate(24.79)"/><rect class="d" width="31.717" height="2.182" transform="translate(73.176)"/><g transform="translate(0 6.945)"><rect class="d" width="39.375" height="2.182"/><rect class="d" width="19.679" height="2.182" transform="translate(85.215)"/><rect class="d" width="34.496" height="2.182" transform="translate(46.089)"/></g><g transform="translate(0 13.891)"><rect class="d" width="50.256" height="2.182"/></g></g></g><g transform="translate(573.658 278.975)"><g class="g" transform="matrix(1, 0, 0, 1, -15, -27.66)"><rect class="d" width="64.007" height="20.008" rx="3" transform="translate(15 27.66)"/></g><path class="c" d="M714.293-174.039l.863,2.587,2.727-.021-2.194,1.62.863,2.587-2.219-1.586-2.194,1.62.823-2.6-2.219-1.586,2.727-.021Z" transform="translate(-693.137 180.639)"/><path class="c" d="M733.439-174.039l.863,2.587,2.727-.021-2.194,1.62.863,2.587-2.219-1.586-2.194,1.62.823-2.6-2.219-1.586,2.727-.021Z" transform="translate(-703.598 180.639)"/><path class="c" d="M752.585-174.039l.863,2.587,2.727-.021-2.194,1.62.863,2.587-2.219-1.586-2.194,1.62.823-2.6-2.219-1.586,2.727-.021Z" transform="translate(-714.057 180.639)"/><path class="c" d="M771.732-174.039l.863,2.587,2.727-.021-2.194,1.62.863,2.587-2.219-1.586-2.194,1.62.823-2.6-2.219-1.586,2.727-.021Z" transform="translate(-724.518 180.639)"/><path class="a" d="M790.878-174.039l.863,2.587,2.727-.021-2.194,1.62.863,2.587-2.219-1.586-2.194,1.62.823-2.6-2.219-1.586,2.727-.021Z" transform="translate(-734.978 180.639)"/><g transform="translate(5.102 4.506)"><ellipse class="b" cx="4.014" cy="4.014" rx="4.014" ry="4.014" transform="translate(0.224 7.921) rotate(-80.672)"/><g transform="translate(0 9.451)"><rect class="e" width="3.545" height="0.947"/><rect class="e" width="5.315" height="0.947" transform="translate(4.42)"/></g></g></g><g transform="translate(679.067 261.316)"><g class="f" transform="matrix(1, 0, 0, 1, -120.41, -10)"><rect class="d" width="100.043" height="31.272" rx="4" transform="translate(120.41 10)"/></g><path class="c" d="M1004.779-224.2l1.348,4.044,4.262-.033-3.429,2.532,1.348,4.044-3.468-2.479-3.429,2.532,1.286-4.064-3.468-2.479,4.262-.033Z" transform="translate(-971.712 234.518)"/><path class="c" d="M1032.662-224.2l1.349,4.044,4.262-.033-3.429,2.532,1.348,4.044-3.468-2.479-3.429,2.532,1.286-4.064-3.468-2.479,4.262-.033Z" transform="translate(-986.02 234.518)"/><path class="c" d="M1060.547-224.2l1.348,4.044,4.262-.033-3.429,2.532,1.348,4.044-3.468-2.479-3.429,2.532,1.286-4.064L1055-220.105l4.262-.033Z" transform="translate(-1000.328 234.518)"/><path class="a" d="M1088.431-224.2l1.348,4.044,4.262-.033-3.429,2.532,1.348,4.044-3.468-2.479-3.429,2.532,1.286-4.064-3.468-2.479,4.262-.033Z" transform="translate(-1014.636 234.518)"/><path class="a" d="M1116.315-224.2l1.348,4.044,4.262-.033-3.429,2.532,1.349,4.044-3.468-2.479-3.429,2.532,1.286-4.064-3.468-2.479,4.262-.033Z" transform="translate(-1028.943 234.518)"/><g transform="translate(7.975 7.056)"><ellipse class="b" cx="6.273" cy="6.273" rx="6.273" ry="6.273" transform="translate(0.364 12.386) rotate(-80.82)"/><g transform="translate(0 14.758)"><rect class="e" width="5.541" height="1.48"/><rect class="e" width="8.307" height="1.48" transform="translate(6.909)"/></g></g></g></g></svg>