<svg xmlns="http://www.w3.org/2000/svg" width="65" height="65" viewBox="0 0 65 65">
  <g id="Seedlings" transform="translate(-314 -197)">
    <circle id="Ellipse_49" data-name="Ellipse 49" cx="32.5" cy="32.5" r="32.5" transform="translate(314 197)" fill="#f2a133"/>
    <g id="Group_529" data-name="Group 529" transform="translate(16.261 -208.73)">
      <g id="Group_529-2" data-name="Group 529" transform="translate(323.193 448.547)">
        <path id="Path_739" data-name="Path 739" d="M350.094,512.948a.849.849,0,0,1-.808.583.877.877,0,0,1-.33-.068c-1.341-.574-3.706-1.791-4.48-3.515a.889.889,0,0,1,.342-1.116l.028-.015a.786.786,0,0,1,1.091.287c.759,1.363,2.84,2.411,3.7,2.8A.849.849,0,0,1,350.094,512.948Z" transform="translate(-344.4 -508.703)" fill="#fff"/>
      </g>
      <g id="Group_530" data-name="Group 530" transform="translate(328.446 449.143)">
        <path id="Path_740" data-name="Path 740" d="M364.525,514.4l-.077.077a.793.793,0,0,1-1.119,0l-.071-.068a8.174,8.174,0,0,1-1.761-2.646.793.793,0,0,1,.484-1.055l.1-.034a.79.79,0,0,1,.98.444,6.419,6.419,0,0,0,1.388,2.091l.071.071A.793.793,0,0,1,364.525,514.4Z" transform="translate(-361.438 -510.636)" fill="#fff"/>
      </g>
      <g id="Group_531" data-name="Group 531" transform="translate(313.739 421.73)">
        <path id="Path_741" data-name="Path 741" d="M347.4,438.343l-.407-1.634a10.931,10.931,0,0,1-.33-2.667v-.873a1.75,1.75,0,0,0-.669-1.406,1.7,1.7,0,0,0-1.89-.1l-.845.506a10.979,10.979,0,0,1-3.271,1.3l-.8.179A12.3,12.3,0,0,0,331.6,438.9a15.168,15.168,0,0,0-7.351-4.172l-.734-.176c-.176-.043-.361-.092-.543-.151v-4.517h1.3a6.238,6.238,0,0,0,6.231-6.231v-1.076a.847.847,0,0,0-.845-.848h-2.155a6.221,6.221,0,0,0-5.692,3.706,6.245,6.245,0,0,0-5.075-2.627h-2.155a.846.846,0,0,0-.845.845v1.076a6.235,6.235,0,0,0,6.228,6.231h1.307v2.658a6.291,6.291,0,0,1-.607-.4l-.5-.376a1.611,1.611,0,0,0-1.655-.188,1.586,1.586,0,0,0-.876,1.643l.034.228a13.59,13.59,0,0,1-.3,5.2,14.017,14.017,0,0,0-.4,3.321,12.708,12.708,0,0,0,12.694,12.691,6.211,6.211,0,0,0,5.454-3.231h1.227A11.4,11.4,0,0,0,347.4,438.343Zm-19.891-14.917h1.079a.228.228,0,0,1,.228.228,4.542,4.542,0,0,1-4.539,4.539H323.6a5.983,5.983,0,0,1,3.589-2.531.849.849,0,0,0,.629-.959.847.847,0,0,0-1.042-.685,7.728,7.728,0,0,0-3.179,1.653A4.553,4.553,0,0,1,327.506,423.426ZM315.66,424.5h1.079a4.546,4.546,0,0,1,3.913,2.245,7.679,7.679,0,0,0-3.182-1.65.845.845,0,0,0-.41,1.64,5.985,5.985,0,0,1,3.589,2.531h-.682a4.542,4.542,0,0,1-4.536-4.539A.228.228,0,0,1,315.66,424.5Zm16.678,21.627a.917.917,0,0,0-.663-.287h0a.92.92,0,0,0-.669.293.793.793,0,0,0-.012,1.061,8.221,8.221,0,0,1,2.118,5.245,4.514,4.514,0,0,1-3.447,1.6,11.01,11.01,0,0,1-11-11,12.234,12.234,0,0,1,.391-3.083,14.58,14.58,0,0,0,.3-5.612l.3.225a9.208,9.208,0,0,0,1.628.974v4.018a1.888,1.888,0,0,1-.774,1.48,3.563,3.563,0,0,0-1.381,2.806v.324a.794.794,0,0,0,.792.792h.111a.794.794,0,0,0,.789-.792v-.324a1.915,1.915,0,0,1,.78-1.508c.012-.009.025-.022.037-.031a6.175,6.175,0,0,0,2.9,3.851,3.6,3.6,0,0,1,1.489,1.622.788.788,0,0,0,.965.422l.108-.037a.8.8,0,0,0,.478-.438.787.787,0,0,0,0-.635,5.288,5.288,0,0,0-2.2-2.4,4.461,4.461,0,0,1-1.973-2.356,4.255,4.255,0,0,0,1.751.721,1.965,1.965,0,0,1,1.406,1,.808.808,0,0,0,.956.389l.1-.034a.8.8,0,0,0,.447-1.129,3.573,3.573,0,0,0-.524-.74l.342-.136a1.809,1.809,0,0,1,1.961.4.731.731,0,0,0,1.027,0l.173-.173a.731.731,0,0,0,0-1.027,3.507,3.507,0,0,0-3.786-.777l-1.551.62q-.116-.032-.231-.056a2.617,2.617,0,0,1-1.807-1.193l-.7-1.165V436.16c.05.015.1.028.148.04l.734.176a13.448,13.448,0,0,1,10.329,12.481A9.616,9.616,0,0,0,332.338,446.128Zm4.005,4.677h-.6a6.089,6.089,0,0,0,.145-1.307,15.273,15.273,0,0,0-3.133-9.256,10.551,10.551,0,0,1,6.79-4.936l.8-.179a12.505,12.505,0,0,0,3.768-1.5l.848-.512v.928a12.629,12.629,0,0,0,.379,3.077l.407,1.634a9.7,9.7,0,0,1-9.41,12.053Z" transform="translate(-313.739 -421.73)" fill="#fff"/>
      </g>
      <g id="Group_532" data-name="Group 532" transform="translate(336.167 438.788)">
        <path id="Path_742" data-name="Path 742" d="M392.84,477.915a.8.8,0,0,1-.231.561l-4.7,4.7a.793.793,0,0,1-1.119,0l-.077-.077a.793.793,0,0,1,0-1.119l4.7-4.7a.81.81,0,0,1,1.119,0l.08.08A.782.782,0,0,1,392.84,477.915Z" transform="translate(-386.479 -477.052)" fill="#fff"/>
      </g>
      <g id="Group_533" data-name="Group 533" transform="translate(337.863 439.482)">
        <path id="Path_743" data-name="Path 743" d="M399.53,480.385c-.453,1.622-2.248,7.095-6.3,9.41a.793.793,0,0,1-.4.108.784.784,0,0,1-.675-.382l-.059-.1a.788.788,0,0,1,.234-1.064,12.7,12.7,0,0,0,3.876-4.533,23.022,23.022,0,0,0,1.69-3.931.854.854,0,0,1,1.637.487Z" transform="translate(-391.978 -479.304)" fill="#fff"/>
      </g>
      <g id="Group_534" data-name="Group 534" transform="translate(334.027 436.35)">
        <path id="Path_744" data-name="Path 744" d="M386.165,470.821a10.574,10.574,0,0,0-5.23,2.615.787.787,0,0,1-1.088-.031l-.08-.077a.782.782,0,0,1-.228-.573.8.8,0,0,1,.259-.577,12.3,12.3,0,0,1,6.04-3.019.808.808,0,0,1,.617.136.777.777,0,0,1,.324.527l.015.111A.787.787,0,0,1,386.165,470.821Z" transform="translate(-379.538 -469.146)" fill="#fff"/>
      </g>
    </g>
  </g>
</svg>
