<svg xmlns="http://www.w3.org/2000/svg" width="48.687" height="40" viewBox="0 0 48.687 40">
  <g id="Sterling-Bank-Plc-Logo" transform="translate(-10.008 -97.42)">
    <path id="Path_160" data-name="Path 160" d="M289.817,109.024a11.594,11.594,0,1,1-11.572-11.6A11.58,11.58,0,0,1,289.817,109.024Zm-11.136-4.579a3.387,3.387,0,1,0,3.4-3.409A3.393,3.393,0,0,0,278.682,104.445Z" transform="translate(-243.873 0)" fill="#db353a"/>
    <g id="Group_295" data-name="Group 295" transform="translate(10.008 123.262)">
      <path id="Path_169" data-name="Path 169" d="M610.257,618.69a1.083,1.083,0,0,1,1.08-1.081,1.091,1.091,0,1,1,.01,2.182,1.083,1.083,0,0,1-1.09-1.1Z" transform="translate(-580.437 -617.61)" fill="#686868"/>
      <g id="Group_294" data-name="Group 294" transform="translate(0 0.212)">
        <path id="Path_161" data-name="Path 161" d="M855.892,674.622c-.038-.013-.05,0-.062.015a1.79,1.79,0,0,1-1.259.849A3.131,3.131,0,0,1,852,674.92a2.732,2.732,0,0,1-1.093-1.9,3.97,3.97,0,0,1,.354-2.3,3.393,3.393,0,0,1,2.463-1.915,3.976,3.976,0,0,1,1.391-.07,2.8,2.8,0,0,1,2.374,1.865,3.066,3.066,0,0,1,.229,1.152c-.008,1.163.041,2.324.062,3.487a3.6,3.6,0,0,1-.23,1.345,3.19,3.19,0,0,1-2.057,1.99,4.219,4.219,0,0,1-2.488.065,2.585,2.585,0,0,1-.841-.393,1.4,1.4,0,0,1-.646-1.259c.009-.192,0-.385,0-.577,0-.038.008-.078.047-.09a.1.1,0,0,1,.1.036,2.2,2.2,0,0,0,.59.4,3.63,3.63,0,0,0,.941.29,4.549,4.549,0,0,0,1,.056,2.4,2.4,0,0,0,.8-.166,1.39,1.39,0,0,0,.883-1.075,2.525,2.525,0,0,0,.039-.795C855.906,674.916,855.9,674.764,855.892,674.622Zm-.035-2.484a2.281,2.281,0,0,0-.173-1,1.259,1.259,0,0,0-1.3-.774,1.546,1.546,0,0,0-1.329.839,2.132,2.132,0,0,0-.14,1.826,1.415,1.415,0,0,0,1.717.915,1.451,1.451,0,0,0,1.089-.982,2.235,2.235,0,0,0,.135-.818Z" transform="translate(-809.089 -666.378)" fill="#686767"/>
        <path id="Path_162" data-name="Path 162" d="M16.4,630.982c-.069-.006-.1-.057-.138-.093a3.09,3.09,0,0,0-1.78-.778,4.864,4.864,0,0,0-1.2,0,2.334,2.334,0,0,0-.789.219,1.01,1.01,0,0,0-.591,1,.732.732,0,0,0,.263.552,1.628,1.628,0,0,0,.42.256,6.187,6.187,0,0,0,1.07.341c.311.075.625.139.933.224a3.571,3.571,0,0,1,1.162.546,2.1,2.1,0,0,1,.919,1.472,2.876,2.876,0,0,1-1.894,3.251,4.956,4.956,0,0,1-2.11.251,4.4,4.4,0,0,1-1.051-.189,2.648,2.648,0,0,1-.667-.315,1.58,1.58,0,0,1-.732-1.341c-.005-.256,0-.513,0-.769,0-.057.047-.081.091-.05s.114.092.171.137a3.913,3.913,0,0,0,2.962.816,2.482,2.482,0,0,0,.692-.165,1,1,0,0,0,.556-.5,1.374,1.374,0,0,0,.063-.914.676.676,0,0,0-.275-.367,1.854,1.854,0,0,0-.461-.241,8.912,8.912,0,0,0-1.292-.361,6.861,6.861,0,0,1-.977-.271,3.3,3.3,0,0,1-.975-.55,2.056,2.056,0,0,1-.753-1.828,2.991,2.991,0,0,1,1.966-2.619,3.523,3.523,0,0,1,1.279-.284,5.723,5.723,0,0,1,1.583.116,2.854,2.854,0,0,1,.814.319,1.6,1.6,0,0,1,.623.641,1.1,1.1,0,0,1,.14.47c.008.32.011.64.013.961A.148.148,0,0,1,16.4,630.982Z" transform="translate(-10.008 -628.078)" fill="#686767"/>
        <path id="Path_163" data-name="Path 163" d="M270.8,673.4h-1.016c-.1,0-.131.036-.109.136a1.571,1.571,0,0,0,.335.683,2.009,2.009,0,0,0,1.143.661,3.672,3.672,0,0,0,1.121.038,3.731,3.731,0,0,0,.833-.164,2.6,2.6,0,0,0,.888-.479c.057-.05.113-.023.113.047a4.835,4.835,0,0,1-.028.795,1.353,1.353,0,0,1-.582.925,2.271,2.271,0,0,1-.884.358,5.214,5.214,0,0,1-1.692.081,3.676,3.676,0,0,1-3.064-2.672,4.19,4.19,0,0,1-.127-1.441,5.111,5.111,0,0,1,.244-1.262,3.494,3.494,0,0,1,1.441-1.88,3.6,3.6,0,0,1,1.546-.52,3.217,3.217,0,0,1,1.689.241,2.745,2.745,0,0,1,1.665,2.012,2.534,2.534,0,0,1,.033,1.008,1.361,1.361,0,0,1-.61.937,2.516,2.516,0,0,1-.811.324,6.8,6.8,0,0,1-1.333.163c-.265.008-.531,0-.795,0Zm-.223-1.32a8.883,8.883,0,0,0,1.172-.057,2.132,2.132,0,0,0,.555-.142.512.512,0,0,0,.328-.494,1,1,0,0,0-.6-.994,1.842,1.842,0,0,0-1.233-.1,1.5,1.5,0,0,0-1.018.921,2.174,2.174,0,0,0-.146.7c-.013.144,0,.164.14.166C270.033,672.084,270.288,672.082,270.575,672.082Z" transform="translate(-254.91 -666.355)" fill="#686767"/>
        <path id="Path_164" data-name="Path 164" d="M701.461,673.762v2.251c0,.207-.008.212-.219.214a2.814,2.814,0,0,1-.656-.043,1.192,1.192,0,0,1-.947-.855,1.519,1.519,0,0,1-.037-.437v-2.775a3.524,3.524,0,0,0-.092-.845,1.648,1.648,0,0,0-.172-.432,1.151,1.151,0,0,0-.616-.522,1.651,1.651,0,0,0-1-.058,1.17,1.17,0,0,0-.7.5,1.671,1.671,0,0,0-.266.714,4.425,4.425,0,0,0-.042.6q0,1.924,0,3.846c0,.336.022.307-.315.307a2.652,2.652,0,0,1-.546-.036,1.158,1.158,0,0,1-.982-1.066,2.893,2.893,0,0,1-.014-.3v-2.94a3.692,3.692,0,0,1,.161-1.165,2.911,2.911,0,0,1,1.948-1.968,3.765,3.765,0,0,1,2.245-.058,2.927,2.927,0,0,1,2.159,2.327,4.311,4.311,0,0,1,.088.93C701.464,672.553,701.461,673.157,701.461,673.762Z" transform="translate(-660.836 -666.23)" fill="#676767"/>
        <path id="Path_165" data-name="Path 165" d="M169.862,642.127v-2.281a2.867,2.867,0,0,1,.024-.438,2.06,2.06,0,0,1,.944-1.388,1.162,1.162,0,0,1,.795-.141.088.088,0,0,1,.083.093c0,.064,0,.128,0,.192v1.291a.093.093,0,0,0,.1.105l.22,0h2.089c.178,0,.182.007.185.188v.467a.939.939,0,0,1-.849.979,3.072,3.072,0,0,1-.411.025c-.339,0-.678,0-1.016,0h-.192c-.089.005-.118.031-.123.112,0,.055,0,.11,0,.165v2.61a2.275,2.275,0,0,0,.066.626.926.926,0,0,0,.883.739,2.881,2.881,0,0,0,1.506-.21c.1-.05.137-.026.138.081,0,.2.007.4,0,.6a1.11,1.11,0,0,1-.7,1.028,1.677,1.677,0,0,1-.528.142,3.885,3.885,0,0,1-1.523-.122,2.2,2.2,0,0,1-1.575-1.644,3.572,3.572,0,0,1-.115-.924v-2.308Z" transform="translate(-161.917 -637.074)" fill="#686868"/>
        <path id="Path_166" data-name="Path 166" d="M526.109,625.97v-3.844c0-.263-.008-.253.256-.252.138,0,.275,0,.412,0a1.377,1.377,0,0,1,.456.09,1.055,1.055,0,0,1,.7.787,2.027,2.027,0,0,1,.047.49v5.985c0,.128,0,.257.008.384a.751.751,0,0,0,.6.725,1.861,1.861,0,0,0,.488.064c.183,0,.366,0,.549,0,.061,0,.109.024.111.092a2.452,2.452,0,0,1-.05.736.845.845,0,0,1-.55.6,1.532,1.532,0,0,1-.4.09,3.169,3.169,0,0,1-1.221-.127,1.888,1.888,0,0,1-1.341-1.524,3.407,3.407,0,0,1-.061-.71Q526.11,627.769,526.109,625.97Z" transform="translate(-500.47 -621.874)" fill="#686868"/>
        <path id="Path_167" data-name="Path 167" d="M425.483,675.844v2.144c0,.248,0,.248-.239.248a3.111,3.111,0,0,1-.711-.05,1.076,1.076,0,0,1-.871-.745,1.449,1.449,0,0,1-.063-.433c0-1.154-.005-2.308,0-3.462a3.368,3.368,0,0,1,.3-1.414,2.4,2.4,0,0,1,1.888-1.422,2.932,2.932,0,0,1,1.093,0,1.492,1.492,0,0,1,.484.186,1.11,1.11,0,0,1,.557.953c.007.183,0,.366,0,.549,0,.133-.036.154-.171.111-.061-.019-.121-.043-.182-.063a2.5,2.5,0,0,0-1.086-.1,1.014,1.014,0,0,0-.862.673,1.628,1.628,0,0,0-.12.534c-.009.21-.016.421-.017.631C425.481,674.743,425.483,675.293,425.483,675.844Z" transform="translate(-403.05 -668.236)" fill="#686868"/>
        <path id="Path_168" data-name="Path 168" d="M613.567,678.051v-2.528c0-.244,0-.245.237-.248a3.237,3.237,0,0,1,.657.039,1.1,1.1,0,0,1,.914.874,2.273,2.273,0,0,1,.057.547q0,1.649,0,3.3c0,.119,0,.238.008.357a.727.727,0,0,0,.632.721,3.05,3.05,0,0,0,.6.039c.245,0,.244,0,.242.241a2.776,2.776,0,0,1-.044.6.786.786,0,0,1-.632.646,1.762,1.762,0,0,1-.353.046,3.007,3.007,0,0,1-.87-.1,1.817,1.817,0,0,1-1.334-1.328,3.044,3.044,0,0,1-.116-.868v-2.335Z" transform="translate(-583.582 -672.619)" fill="#686868"/>
        <path id="Path_170" data-name="Path 170" d="M588.334,870.225a1.8,1.8,0,0,1,.149-.129.555.555,0,0,1,.894.337,1.305,1.305,0,0,1,.026.19c0,.265,0,.531,0,.795,0,.055,0,.117-.073.128a.161.161,0,0,1-.164-.077.276.276,0,0,1-.031-.159v-.6a.729.729,0,0,0-.053-.3.282.282,0,0,0-.312-.173.276.276,0,0,0-.286.211,1.434,1.434,0,0,0-.031.3c0,.22,0,.44,0,.66,0,.054.006.116-.059.14a.164.164,0,0,1-.194-.111.934.934,0,0,1-.018-.19c0-.165,0-.33,0-.5a1.3,1.3,0,0,0-.031-.272.3.3,0,0,0-.322-.241.292.292,0,0,0-.3.235.95.95,0,0,0-.031.3c0,.229,0,.458,0,.687a.091.091,0,0,1-.134.082.2.2,0,0,1-.132-.218c0-.238-.005-.476,0-.714a.78.78,0,0,1,.062-.265.606.606,0,0,1,.779-.325A.95.95,0,0,1,588.334,870.225Z" transform="translate(-558.551 -857.645)" fill="#706e6e"/>
        <path id="Path_171" data-name="Path 171" d="M706.4,862.858c.013.05.059.064.093.089a.512.512,0,0,1-.025.808.547.547,0,0,1-.168.09,1.378,1.378,0,0,1-.731.013.339.339,0,0,1-.263-.317,1.144,1.144,0,0,1-.005-.137V862.2c0-.217,0-.219.223-.261a1.955,1.955,0,0,1,.656-.012.493.493,0,0,1,.454.553.4.4,0,0,1-.12.269C706.481,862.781,706.421,862.8,706.4,862.858Zm-.831.4v.137a.48.48,0,0,0,0,.055c.012.113.056.177.157.2a.894.894,0,0,0,.485-.025.3.3,0,0,0,.193-.352.255.255,0,0,0-.231-.262,1.882,1.882,0,0,0-.325-.03c-.293,0-.281-.013-.28.283Zm.307-.5a2.712,2.712,0,0,0,.3-.031.252.252,0,0,0,.2-.26.261.261,0,0,0-.168-.282.845.845,0,0,0-.348-.044c-.271.008-.289.025-.288.3,0,.334-.026.31.307.318Z" transform="translate(-670.761 -849.975)" fill="#737070"/>
        <path id="Path_172" data-name="Path 172" d="M315.918,862.947a1.513,1.513,0,0,1-.071.377.859.859,0,0,1-1.641-.034,1.274,1.274,0,0,1,.019-.808.823.823,0,0,1,.889-.579.813.813,0,0,1,.761.638A1.3,1.3,0,0,1,315.918,862.947Zm-1.5-.069a1.022,1.022,0,0,0,.05.351.571.571,0,0,0,.587.437.562.562,0,0,0,.559-.435,1.188,1.188,0,0,0,0-.646.561.561,0,0,0-.578-.447.555.555,0,0,0-.571.417A.878.878,0,0,0,314.416,862.878Z" transform="translate(-299.04 -849.977)" fill="#706e6e"/>
        <path id="Path_173" data-name="Path 173" d="M390.725,871.387a.232.232,0,0,1-.137.305.738.738,0,0,1-1.025-.393.916.916,0,0,1,.086-.818.654.654,0,0,1,.887-.232.519.519,0,0,1,.264.532.278.278,0,0,1-.167.233.764.764,0,0,1-.321.066c-.146,0-.293,0-.439.006a.073.073,0,0,0-.065.1.448.448,0,0,0,.422.332A.924.924,0,0,0,390.725,871.387Zm-.569-.524c.044,0,.154,0,.261-.021a.144.144,0,0,0,.121-.182.255.255,0,0,0-.175-.225.412.412,0,0,0-.56.282c-.026.1,0,.141.1.145C389.963,870.866,390.026,870.863,390.156,870.863Z" transform="translate(-370.652 -857.828)" fill="#737070"/>
        <path id="Path_174" data-name="Path 174" d="M639.209,871.334a.285.285,0,0,1-.212.351.733.733,0,0,1-1.006-.562.9.9,0,0,1,.118-.661.661.661,0,0,1,.809-.289.542.542,0,0,1,.355.422.332.332,0,0,1-.257.418,1.388,1.388,0,0,1-.216.032c-.11.006-.22,0-.329.005-.061,0-.142-.026-.176.037-.044.082.01.158.063.222a.5.5,0,0,0,.469.168A.957.957,0,0,0,639.209,871.334Zm-.944-.518a2.293,2.293,0,0,0,.6,0c.142-.018.192-.131.127-.262a.293.293,0,0,0-.18-.156.405.405,0,0,0-.541.422Z" transform="translate(-606.775 -857.794)" fill="#737070"/>
        <path id="Path_175" data-name="Path 175" d="M739.459,870.5a.231.231,0,0,1,.088-.262.72.72,0,0,1,.845-.01.427.427,0,0,1,.164.307,7.348,7.348,0,0,1,0,.74.406.406,0,0,1-.282.371.776.776,0,0,1-.588,0,.423.423,0,0,1-.3-.416.436.436,0,0,1,.292-.423,1.053,1.053,0,0,1,.237-.061c.081-.012.164-.011.248-.017.11-.008.146-.055.124-.157a.241.241,0,0,0-.224-.207.713.713,0,0,0-.453.068C739.563,870.454,739.529,870.5,739.459,870.5Zm.638.456a.534.534,0,0,0-.339.073.216.216,0,0,0-.032.331.4.4,0,0,0,.408.07c.137-.044.164-.156.166-.281v-.081c0-.082-.029-.1-.12-.11C740.152,870.955,740.124,870.956,740.1,870.956Z" transform="translate(-703.152 -857.765)" fill="#737070"/>
        <path id="Path_176" data-name="Path 176" d="M804.754,861.1c.1-.011.122-.066.158-.1.113-.119.224-.241.336-.361a.348.348,0,0,1,.389-.1c0,.064-.05.082-.078.113-.134.138-.272.271-.4.411-.168.18-.168.149-.006.356a2.124,2.124,0,0,0,.494.508c.038.025.022.094-.022.112a.251.251,0,0,1-.281-.04,2.316,2.316,0,0,1-.208-.218c-.1-.111-.186-.226-.278-.339a.058.058,0,0,0-.069-.023c-.036.012-.03.044-.03.069,0,.164,0,.329-.008.493a.084.084,0,0,1-.12.068.152.152,0,0,1-.11-.111.854.854,0,0,1-.017-.163V860.1c0-.056.006-.114.08-.119a.142.142,0,0,1,.153.092.5.5,0,0,1,.02.161v.866Z" transform="translate(-765.03 -848.155)" fill="#706e6e"/>
        <path id="Path_177" data-name="Path 177" d="M213.754,870.976a.874.874,0,0,1-.057.335.624.624,0,0,1-.56.456.672.672,0,0,1-.686-.359.934.934,0,0,1,.032-.92.624.624,0,0,1,.6-.313.639.639,0,0,1,.588.388A.9.9,0,0,1,213.754,870.976Zm-.271.013a.65.65,0,0,0-.077-.355.414.414,0,0,0-.69-.04.717.717,0,0,0,.031.773.414.414,0,0,0,.39.149.367.367,0,0,0,.31-.273A.748.748,0,0,0,213.483,870.989Z" transform="translate(-202.294 -857.839)" fill="#706e6e"/>
        <path id="Path_178" data-name="Path 178" d="M553.366,870.935a.956.956,0,0,1-.067.368.615.615,0,0,1-.546.435.669.669,0,0,1-.661-.3.965.965,0,0,1,.042-1.036.69.69,0,0,1,1.135.105A.979.979,0,0,1,553.366,870.935Zm-.27.034a.718.718,0,0,0-.091-.38.414.414,0,0,0-.675-.028.713.713,0,0,0,.022.773.4.4,0,0,0,.7-.111.721.721,0,0,0,.041-.252Z" transform="translate(-525.036 -857.813)" fill="#706e6e"/>
        <path id="Path_179" data-name="Path 179" d="M247.645,871.34v-.384c0-.05.01-.094.063-.108a.152.152,0,0,1,.13.026.162.162,0,0,1,.066.115c.006.064.01.127.01.191,0,.146,0,.293,0,.439a1.143,1.143,0,0,0,.035.27.352.352,0,0,0,.451.248.283.283,0,0,0,.21-.2,1,1,0,0,0,.038-.3v-.686c0-.046,0-.1.059-.108a.145.145,0,0,1,.13.027.218.218,0,0,1,.06.089.437.437,0,0,1,.021.134v.658a.811.811,0,0,1-.012.109.623.623,0,0,1-.878.5.562.562,0,0,1-.348-.4,1.529,1.529,0,0,1-.041-.3c-.007-.109,0-.219,0-.329Z" transform="translate(-235.832 -858.475)" fill="#737070"/>
        <path id="Path_180" data-name="Path 180" d="M435.972,862.249c-.059,0-.091-.053-.137-.078a.684.684,0,0,0-1.015.44.9.9,0,0,0,.062.59.671.671,0,0,0,.826.361.958.958,0,0,0,.219-.111.05.05,0,0,1,.046,0,.067.067,0,0,1,.015.05.321.321,0,0,1-.157.245.559.559,0,0,1-.2.08.887.887,0,0,1-.928-.393,1.076,1.076,0,0,1-.027-1.147.894.894,0,0,1,.958-.443.419.419,0,0,1,.351.273A.135.135,0,0,1,435.972,862.249Z" transform="translate(-413.431 -849.91)" fill="#737070"/>
        <path id="Path_181" data-name="Path 181" d="M772.212,871.164v.411c0,.055,0,.113-.079.119a.143.143,0,0,1-.159-.082.455.455,0,0,1-.026-.16c0-.183,0-.366,0-.547a1.614,1.614,0,0,0-.023-.273.3.3,0,0,0-.289-.248.332.332,0,0,0-.373.167.55.55,0,0,0-.056.265v.659a1.132,1.132,0,0,1-.009.164c-.007.04-.043.054-.082.055a.149.149,0,0,1-.149-.1.375.375,0,0,1-.023-.133q0-.343,0-.686a.674.674,0,0,1,.953-.592.513.513,0,0,1,.3.43c.02.181.02.365.029.547Z" transform="translate(-733.137 -857.79)" fill="#706e6e"/>
        <path id="Path_182" data-name="Path 182" d="M469.7,871.388v-.438c0-.061.053-.091.114-.079a.164.164,0,0,1,.139.149,1.77,1.77,0,0,1,.01.218c0,.192,0,.384.01.575a.359.359,0,0,0,.262.348.327.327,0,0,0,.431-.226.951.951,0,0,0,.025-.244c0-.228,0-.457,0-.685,0-.053-.007-.115.065-.132a.156.156,0,0,1,.179.09.212.212,0,0,1,.021.078c0,.274.014.547,0,.822a.575.575,0,0,1-.615.569.591.591,0,0,1-.634-.552,4.283,4.283,0,0,1,0-.493Z" transform="translate(-446.863 -858.499)" fill="#737070"/>
        <path id="Path_183" data-name="Path 183" d="M358.144,871.119c0,.165,0,.329,0,.494,0,.056-.05.073-.1.067a.153.153,0,0,1-.152-.132,1.056,1.056,0,0,1-.009-.164v-.494a1.9,1.9,0,0,0-.005-.192.364.364,0,0,0-.546-.294.305.305,0,0,0-.167.237,1.694,1.694,0,0,0-.014.248v.659c0,.054,0,.115-.069.131a.157.157,0,0,1-.178-.094.354.354,0,0,1-.019-.107c0-.248-.009-.5,0-.741a.646.646,0,0,1,.923-.577.539.539,0,0,1,.336.5c.013.154,0,.311,0,.466Z" transform="translate(-339.648 -857.775)" fill="#747373"/>
        <path id="Path_184" data-name="Path 184" d="M502.22,871.312a1.455,1.455,0,0,0,.333.132.552.552,0,0,0,.323-.022.177.177,0,0,0,.121-.166.162.162,0,0,0-.1-.178c-.093-.036-.19-.063-.285-.093a1.659,1.659,0,0,1-.234-.074.334.334,0,0,1-.175-.437.464.464,0,0,1,.111-.187.688.688,0,0,1,.765-.111.472.472,0,0,1,.123.107c.05.058.053.154.016.175s-.085-.011-.124-.029a.723.723,0,0,0-.4-.057.311.311,0,0,0-.173.077.149.149,0,0,0,.024.248,1.232,1.232,0,0,0,.18.063c.1.034.211.06.312.1a.423.423,0,0,1,.092.705.754.754,0,0,1-.776.057.324.324,0,0,1-.081-.072.261.261,0,0,1-.046-.1A.768.768,0,0,1,502.22,871.312Z" transform="translate(-477.728 -857.774)" fill="#737070"/>
        <path id="Path_185" data-name="Path 185" d="M180.372,862.257a.6.6,0,0,1-.087.224,4.6,4.6,0,0,1-.409.646.506.506,0,0,0-.111.354c.007.164,0,.329,0,.494,0,.055-.005.114-.079.122a.16.16,0,0,1-.177-.1.559.559,0,0,1-.015-.135c0-.137-.006-.274,0-.411a.473.473,0,0,0-.1-.3,4.522,4.522,0,0,1-.455-.811.582.582,0,0,1-.046-.128.06.06,0,0,1,.061-.072.218.218,0,0,1,.23.116c.05.088.085.182.135.269.084.152.173.3.264.447.038.062.083.059.127,0a4.607,4.607,0,0,0,.354-.618,1.887,1.887,0,0,1,.086-.17c.035-.055.093-.05.149-.032A.107.107,0,0,1,180.372,862.257Z" transform="translate(-170.505 -850.194)" fill="#747373"/>
        <path id="Path_186" data-name="Path 186" d="M532.075,864.83c.06.086-.033.224.075.274a.737.737,0,0,0,.27.019h.082c.056,0,.117,0,.119.078a.135.135,0,0,1-.1.149,1.339,1.339,0,0,1-.189.027c-.045,0-.091,0-.137.006s-.088.03-.089.083c0,.248-.009.494,0,.74a.233.233,0,0,0,.255.232,1.146,1.146,0,0,0,.136-.013c.078-.007.115.04.095.112a.184.184,0,0,1-.127.132.459.459,0,0,1-.624-.356.733.733,0,0,1-.012-.136v-.987a.418.418,0,0,1,.085-.282C531.957,864.856,532,864.808,532.075,864.83Z" transform="translate(-505.907 -852.755)" fill="#737070"/>
        <path id="Path_187" data-name="Path 187" d="M671.542,871.689c0-.119-.005-.237,0-.356a.777.777,0,0,1,.09-.341.476.476,0,0,1,.564-.223.2.2,0,0,1,.14.21c0,.036-.016.072-.068.061a1.075,1.075,0,0,0-.161-.03.224.224,0,0,0-.273.2,1.548,1.548,0,0,0-.023.272c0,.229,0,.457,0,.685,0,.046,0,.093-.055.113a.167.167,0,0,1-.171-.057.268.268,0,0,1-.046-.155v-.384Z" transform="translate(-638.674 -858.382)" fill="#747373"/>
        <path id="Path_188" data-name="Path 188" d="M281.7,871.672v-.356a.683.683,0,0,1,.106-.364.466.466,0,0,1,.525-.2.2.2,0,0,1,.145.115.154.154,0,0,1,.012.132c-.028.056-.077.025-.119.016a.57.57,0,0,0-.081-.015c-.2-.015-.289.058-.31.258-.011.109-.007.219-.008.328,0,.2,0,.4,0,.6,0,.071-.056.1-.138.082a.158.158,0,0,1-.126-.159c0-.146,0-.292,0-.438Z" transform="translate(-268.202 -858.37)" fill="#747373"/>
      </g>
    </g>
    <path id="Path_189" data-name="Path 189" d="M509.216,173.628a3.421,3.421,0,0,1,3.4-3.409,3.4,3.4,0,1,1-3.4,3.409Z" transform="translate(-474.408 -69.184)" fill="#fffefe"/>
  </g>
</svg>
