<svg xmlns="http://www.w3.org/2000/svg" width="65" height="65" viewBox="0 0 65 65">
  <g id="Storing" transform="translate(-314 -197)">
    <circle id="Ellipse_49" data-name="Ellipse 49" cx="32.5" cy="32.5" r="32.5" transform="translate(314 197)" fill="#f2a133"/>
    <path id="pallet" d="M30.194,26.957H27.564V17.249a.911.911,0,0,0-.911-.911H22.039V6.629a.911.911,0,0,0-.911-.911H10.08a.911.911,0,0,0-.911.911v9.709H4.556a.911.911,0,0,0-.911.911v9.709H.911A.911.911,0,0,0,0,27.868v3.686a.911.911,0,0,0,.911.911h.831v2.753a.911.911,0,0,0,.911.911H7.914a.911.911,0,0,0,.911-.911V32.465h3.234v2.753a.911.911,0,0,0,.911.911h5.261a.911.911,0,0,0,.911-.911V32.465h3.01v2.753a.911.911,0,0,0,.911.911h5.261a.911.911,0,0,0,.911-.911V32.465h.96a.911.911,0,0,0,.911-.911V27.868a.911.911,0,0,0-.911-.911Zm-4.453,0H16.515v-8.8h1.838v2.451a.911.911,0,0,0,.911.911h3.727a.911.911,0,0,0,.911-.911V18.16h1.838ZM22.081,19.7h-1.9V18.16h1.9ZM16.557,7.54V9.08h-1.9V7.54Zm-5.566,0h1.838V9.991a.911.911,0,0,0,.911.911h3.727a.911.911,0,0,0,.911-.911V7.54h1.838v8.8H10.991Zm.042,10.62V19.7h-1.9V18.16Zm-5.566,0H7.306v2.451a.911.911,0,0,0,.911.911h3.727a.911.911,0,0,0,.911-.911V18.16h1.838v8.8H5.467ZM7,34.307H3.565V32.465H7Zm10.317,0H13.881V32.465H17.32Zm10.093,0H23.974V32.465h3.438Zm1.871-3.664c-8.876,0-18.595,0-27.461,0V28.78H29.283Z" transform="translate(331 208.282)" fill="#fff"/>
  </g>
</svg>
