<svg xmlns="http://www.w3.org/2000/svg" xmlns:xlink="http://www.w3.org/1999/xlink" width="79.881" height="91.118" viewBox="0 0 79.881 91.118">
  <defs>
    <clipPath id="clip-path">
      <path id="Path_951" data-name="Path 951" d="M185.953,36.053A11.357,11.357,0,0,0,184,46.375s1.155.578,1.876-1.877c.683-2.321,6.4-9.811,7.02-10.613a.084.084,0,0,0-.019-.121,3.745,3.745,0,0,0-2.053-.59c-1.256,0-2.972.586-4.876,2.879" transform="translate(-183.517 -33.174)" fill="none"/>
    </clipPath>
    <linearGradient id="linear-gradient" x1="-5.178" y1="6.39" x2="-5.149" y2="6.39" gradientUnits="objectBoundingBox">
      <stop offset="0" stop-color="#286240"/>
      <stop offset="0.181" stop-color="#286a39"/>
      <stop offset="0.472" stop-color="#298228"/>
      <stop offset="0.834" stop-color="#2ba80d"/>
      <stop offset="0.987" stop-color="#2dbb00"/>
      <stop offset="1" stop-color="#2dbb00"/>
    </linearGradient>
    <clipPath id="clip-path-2">
      <rect id="Rectangle_601" data-name="Rectangle 601" width="79.881" height="83.029" fill="none"/>
    </clipPath>
    <clipPath id="clip-path-3">
      <path id="Path_953" data-name="Path 953" d="M98.134,9.879s8.3,10.028,12.2,13.928a45.285,45.285,0,0,1,.175,7.87s-8.836-9.095-16.7-3.32c0,0,3.176,4.042,17.323,7.145,0,0,6.641,7.362,5.269,16.529s-3.1,9.889-2.815,16.168,1.371,11.909.938,13.5h5.558s-.072-11.838-1.01-16.89,2.31-12.487,1.155-16.168-4.187-5.557-1.3-9.239c2.489-3.174,3.905-8.278,4.249-9.626a.271.271,0,1,0-.53-.106l-.109.709s-4.042,8.228-6.28,9.6a25.86,25.86,0,0,0-4.187-7.218s-.433-11.244,1.877-15.582l-.055-.446a.818.818,0,0,0-.811-.717,3.588,3.588,0,0,0-1.042,1.948A13.281,13.281,0,0,0,99.464,9.829q-.645,0-1.33.05" transform="translate(-93.803 -9.829)" fill="none"/>
    </clipPath>
    <linearGradient id="linear-gradient-2" x1="-1.004" y1="1.327" x2="-0.993" y2="1.327" xlink:href="#linear-gradient"/>
    <clipPath id="clip-path-4">
      <path id="Path_955" data-name="Path 955" d="M163.647,0a9.468,9.468,0,0,0-6.159,2.182c-4.692,3.97-3.465,7.94-3.465,7.94,1.372,1.588,3.032-1.01,4.042-2.021s7.8-7.867,7.8-7.867A9.3,9.3,0,0,0,163.716,0Z" transform="translate(-153.878)" fill="none"/>
    </clipPath>
    <linearGradient id="linear-gradient-3" x1="-3.625" y1="8.41" x2="-3.601" y2="8.41" xlink:href="#linear-gradient"/>
  </defs>
  <g id="Success-leaf" transform="translate(0 7.337)">
    <g id="Group_904" data-name="Group 904" transform="translate(49.075 3.106)">
      <g id="Group_903" data-name="Group 903" transform="translate(0 0)" clip-path="url(#clip-path)">
        <rect id="Rectangle_600" data-name="Rectangle 600" width="10.875" height="13.778" transform="translate(-1.462 0)" fill="url(#linear-gradient)"/>
      </g>
    </g>
    <g id="Group_906" data-name="Group 906" transform="translate(0 0.752)">
      <g id="Group_905" data-name="Group 905" clip-path="url(#clip-path-2)">
        <path id="Path_952" data-name="Path 952" d="M.005,242.668s-.73-8.64,14.847-11.8,12.535-3.408,16.307-5.963,8.275-.487,9.979-1.46,8.519-3.773,13.387,0,9.979,9.371,16.916,10.831,9.857,3.529,7.789,6.815-11.318,3.408-15.7,3.042-9.127-1.582-12.291-1.582-8.4,3.042-12.9,3.164-21.053.365-25.069-2.921-9.736-.608-11.074-.122a2.734,2.734,0,0,1-2.191,0" transform="translate(0 -162.741)" fill="#714b27"/>
      </g>
    </g>
    <g id="Group_908" data-name="Group 908" transform="translate(20.835 -4.243)">
      <g id="Group_907" data-name="Group 907" transform="translate(0 0)" clip-path="url(#clip-path-3)">
        <rect id="Rectangle_602" data-name="Rectangle 602" width="29.41" height="71.868" transform="translate(0 0)" fill="url(#linear-gradient-2)"/>
      </g>
    </g>
    <g id="Group_912" data-name="Group 912" transform="translate(39.745 -7.337)">
      <g id="Group_911" data-name="Group 911" transform="translate(0)" clip-path="url(#clip-path-4)">
        <rect id="Rectangle_604" data-name="Rectangle 604" width="13.065" height="11.71" transform="translate(-1.082 0)" fill="url(#linear-gradient-3)"/>
      </g>
    </g>
    <path id="Path_956" data-name="Path 956" d="M175.839,238.591a4.143,4.143,0,0,0-5.488-4.414,8.522,8.522,0,0,1-2.746.568c-3.539,0-6.05-3.54-12.557-.343-2.769,1.36-2.283,5.366,1.826,7.991s18.836-2.74,18.836-2.74Z" transform="translate(-121.002 -170.397)" fill="#714b27"/>
  </g>
</svg>
