<svg xmlns="http://www.w3.org/2000/svg" width="198.06" height="135.192" viewBox="0 0 198.06 135.192">
  <g id="thumbs-up" transform="translate(2998.5 1818.606)">
    <path id="Path_254" data-name="Path 254" d="M-202.909-66.367l1.889.275a.6.6,0,0,1,0,1.178l-1.889.275a11.413,11.413,0,0,0-9.647,9.646l-.275,1.89a.6.6,0,0,1-1.177,0l-.275-1.89a11.412,11.412,0,0,0-9.647-9.646l-1.889-.275a.6.6,0,0,1,0-1.178l1.889-.275a11.412,11.412,0,0,0,9.647-9.646l.275-1.89a.6.6,0,0,1,1.177,0l.275,1.89A11.413,11.413,0,0,0-202.909-66.367Z" transform="translate(-2646.878 -1720.789)" fill="#f2a133"/>
    <path id="Path_255" data-name="Path 255" d="M-160.8-104.467l.938.137a.3.3,0,0,1,0,.584l-.938.137a5.663,5.663,0,0,0-4.786,4.786l-.137.937a.3.3,0,0,1-.584,0l-.137-.937a5.663,5.663,0,0,0-4.786-4.786l-.937-.137a.3.3,0,0,1,0-.584l.937-.137a5.663,5.663,0,0,0,4.786-4.786l.137-.938a.3.3,0,0,1,.584,0l.137.938A5.663,5.663,0,0,0-160.8-104.467Z" transform="translate(-2668.395 -1708.164)" fill="#f2a133"/>
    <path id="Path_256" data-name="Path 256" d="M-143.446-67.91l.938.137a.3.3,0,0,1,0,.584l-.938.137a5.66,5.66,0,0,0-4.785,4.785l-.137.938a.3.3,0,0,1-.585,0l-.137-.938a5.66,5.66,0,0,0-4.785-4.785l-.938-.137a.3.3,0,0,1,0-.584l.938-.137a5.661,5.661,0,0,0,4.785-4.786l.137-.937a.3.3,0,0,1,.585,0l.137.937A5.662,5.662,0,0,0-143.446-67.91Z" transform="translate(-2665.066 -1732.008)" fill="#f2a133"/>
    <g id="Group_399" data-name="Group 399" transform="translate(-2868.164 -1776.706)">
      <path id="Path_257" data-name="Path 257" d="M-208.887,39.7c3.094.563,7.847,1.226,13.17,1.789,1.012.109,2.044.2,3.09.3,11.879,1.1,25.377,1.489,29.088-.946,5.769-3.793,1.776-30.3,5.526-35.378s7.139-13.131,3.135-15.391-27.276-2.274-27.276-2.274,1.2-16.475-5.945-21.058-4.652,14.815-10.735,23.034c-.683.912-1.415,1.81-2.191,2.669A64.08,64.08,0,0,1-215.6,3.863S-230.95,27.965-208.887,39.7Z" transform="translate(220.797 33.944)" fill="#f3a983"/>
      <path id="Path_258" data-name="Path 258" d="M-208.887,48.445c3.094.563,7.847,1.226,13.17,1.789-7.655-19.426-.034-38.655-3.117-51.71-.683.912-1.415,1.81-2.191,2.669A64.08,64.08,0,0,1-215.6,12.605S-230.95,36.707-208.887,48.445Z" transform="translate(220.797 25.202)" fill="#d18f6d"/>
    </g>
    <path id="Path_259" data-name="Path 259" d="M-243.825,5.637-223.8,7.112s11.462,29.535,4.584,46.073l-30.718-.121" transform="translate(-2639.522 -1753.419)" fill="#fff"/>
    <path id="Subtraction_2" data-name="Subtraction 2" d="M224,140.078h0V74.352c41.555-.478,111.787-1.345,115.286-1.79a.868.868,0,0,1,.11-.007c1.39,0,3.179,3.328,5.038,9.371,2.754,8.954,5.507,23.848,5.441,34.991-.02,4.963-.607,8.579-1.742,10.748-1.261,2.386-8.276,4.515-20.848,6.328-10.141,1.462-23.92,2.726-40.953,3.756C256.825,139.531,227.274,140.028,224,140.078Z" transform="translate(-3222 -1824)" fill="#7cdf77" stroke="rgba(0,0,0,0)" stroke-miterlimit="10" stroke-width="1"/>
    <path id="Subtraction_1" data-name="Subtraction 1" d="M224,140.078h0V110.8a53.4,53.4,0,0,0,6.578,6.993c2.208,1.852,4.1,2.752,5.782,2.752a4.447,4.447,0,0,0,1.61-.3,13.779,13.779,0,0,1,5-1.044c2.737,0,4.882,1.083,7.154,2.23l.684.344a20.419,20.419,0,0,0,9.782,2.574,35.425,35.425,0,0,0,12.276-2.635,30.582,30.582,0,0,1,11.042-2.106,59.566,59.566,0,0,1,11.166,1.406q.823.155,1.672.313a87.825,87.825,0,0,0,16.835,1.719c10.408,0,22.281-2.006,36.3-6.132-.02,4.964-.607,8.58-1.742,10.748-1.261,2.386-8.276,4.515-20.848,6.328-10.141,1.462-23.92,2.726-40.953,3.756-29.507,1.784-59.059,2.28-62.331,2.331Z" transform="translate(-3222 -1824)" fill="#298525" stroke="rgba(0,0,0,0)" stroke-miterlimit="10" stroke-width="1"/>
  </g>
</svg>
