<svg xmlns="http://www.w3.org/2000/svg" width="65" height="65" viewBox="0 0 65 65">
  <g id="Tractor-rental" transform="translate(-314 -197)">
    <circle id="Ellipse_49" data-name="Ellipse 49" cx="32.5" cy="32.5" r="32.5" transform="translate(314 197)" fill="#f2a133"/>
    <g id="Group_543" data-name="Group 543" transform="translate(-443.637 -206.507)">
      <path id="Path_752" data-name="Path 752" d="M781,468.714a8,8,0,1,0,8,8A8.013,8.013,0,0,0,781,468.714Zm0,14.007a6,6,0,1,1,6-6A6.01,6.01,0,0,1,781,482.721Z" transform="translate(0 -34.708)" fill="#fff"/>
      <path id="Path_753" data-name="Path 753" d="M795.466,488.179a3,3,0,1,0,3,3A3.005,3.005,0,0,0,795.466,488.179Zm0,4a1,1,0,1,1,1-1A1,1,0,0,1,795.466,492.181Z" transform="translate(-14.461 -49.17)" fill="#fff"/>
      <path id="Path_754" data-name="Path 754" d="M807.467,439.541v-3.534a4,4,0,0,0-4-4h-2v-5a1,1,0,0,1,.49-.86,1.019,1.019,0,0,0,.511-.871h0a1,1,0,0,0-1.5-.871,3,3,0,0,0-1.506,2.6v5h-4.392l-2.4-8h.656a1,1,0,0,0,1-1h0a1,1,0,0,0-1-1H779.319a1,1,0,0,0-1,1h0a1,1,0,0,0,1,1h1v6.386a12.041,12.041,0,0,0-3.764,1.7,1,1,0,0,0-.207,1.465h0a1,1,0,0,0,1.33.191,10.006,10.006,0,0,1,15.649,8.262v3h4.219a6,6,0,1,0,9.921-5.471Zm-25.146-9.495V424h8.26l2.4,8H789.95a11.935,11.935,0,0,0-6.629-2Q782.819,430,782.321,430.047Zm9.941,3.96h11.2a2,2,0,0,1,2,2v2.344a5.975,5.975,0,0,0-2-.343h-8.824A12.016,12.016,0,0,0,792.262,434.006Zm2.9,6h3.835a5.986,5.986,0,0,0-1.449,3h-2.218v-1A12.008,12.008,0,0,0,795.159,440.009Zm8.305,8a4,4,0,1,1,4-4A4.006,4.006,0,0,1,803.465,448.013Z" transform="translate(-2.317 0)" fill="#fff"/>
      <path id="Path_755" data-name="Path 755" d="M880.627,504.751a1,1,0,1,1-1-1A1,1,0,0,1,880.627,504.751Z" transform="translate(-78.479 -60.739)" fill="#fff"/>
    </g>
  </g>
</svg>
