<svg xmlns="http://www.w3.org/2000/svg" width="30.282" height="27.99" viewBox="0 0 30.282 27.99"><defs><style>.a{fill:#545454;}</style></defs><g transform="translate(0 -18.4)"><g transform="translate(0 18.4)"><path class="a" d="M24.628,25.71A8.772,8.772,0,0,0,8.375,22.8a5.025,5.025,0,0,0-.922-.087,4.807,4.807,0,0,0-4.8,4.8,5.248,5.248,0,0,0,.1,1A6.681,6.681,0,0,0,0,33.893a7.142,7.142,0,0,0,1.812,4.726A6.467,6.467,0,0,0,6.3,40.873H11.7a.841.841,0,1,0,0-1.681H6.37a5.3,5.3,0,0,1-4.689-5.305,4.991,4.991,0,0,1,2.472-4.3.848.848,0,0,0,.367-1.021A3.05,3.05,0,0,1,4.334,27.5a3.125,3.125,0,0,1,3.12-3.12,3.066,3.066,0,0,1,1.065.187.845.845,0,0,0,1.052-.43A7.09,7.09,0,0,1,23.04,26.47a.84.84,0,0,0,.7.747,6.06,6.06,0,0,1-.573,11.968H18.575a.841.841,0,1,0,0,1.681h4.683A7.45,7.45,0,0,0,28.252,38.4,7.75,7.75,0,0,0,24.628,25.71Z" transform="translate(0 -18.4)"/><path class="a" d="M168.56,191.291a.838.838,0,0,0,0-1.189l-4.452-4.452a.851.851,0,0,0-.592-.249.824.824,0,0,0-.592.249l-4.452,4.452a.844.844,0,0,0,.592,1.438.82.82,0,0,0,.592-.249l3.02-3.02v13.88a.841.841,0,0,0,1.681,0v-13.88l3.02,3.02A.831.831,0,0,0,168.56,191.291Z" transform="translate(-148.372 -175.001)"/></g></g></svg>