<svg xmlns="http://www.w3.org/2000/svg" width="28.012" height="24.457" viewBox="0 0 28.012 24.457"><defs><style>.a{fill:#8f8f8f;}</style></defs><g transform="translate(0 -31.05)"><g transform="translate(0 31.05)"><path class="a" d="M253.9,263.75h-3.806a1.891,1.891,0,0,0-1.889,1.889v2.919a1.891,1.891,0,0,0,1.889,1.889H253.9a1.891,1.891,0,0,0,1.889-1.889v-2.919A1.891,1.891,0,0,0,253.9,263.75Zm.515,4.808a.517.517,0,0,1-.515.515h-3.806a.517.517,0,0,1-.515-.515v-2.919a.517.517,0,0,1,.515-.515H253.9a.517.517,0,0,1,.515.515Z" transform="translate(-233.994 -250.431)"/><path class="a" d="M28.012,39.063a.638.638,0,0,0-.092-.338L23.753,31.4a.691.691,0,0,0-.6-.349H4.848a.679.679,0,0,0-.6.349L.092,38.725A.694.694,0,0,0,0,39.063a4.018,4.018,0,0,0,2.4,3.675V54.82a.689.689,0,0,0,.687.687H24.915a.689.689,0,0,0,.687-.687v-12a.3.3,0,0,0-.006-.074A4.029,4.029,0,0,0,28.012,39.063ZM5.249,32.429H22.757l3.257,5.729H2Zm14.687,7.1a2.64,2.64,0,0,1-5.2,0Zm-6.657,0a2.643,2.643,0,0,1-5.2,0Zm-11.859,0h5.2a2.643,2.643,0,0,1-5.2,0ZM11.539,54.134H7.59V46.721a.978.978,0,0,1,.979-.979h2a.978.978,0,0,1,.979.979v7.412Zm12.689,0H12.913V46.721a2.356,2.356,0,0,0-2.352-2.352h-2A2.356,2.356,0,0,0,6.21,46.721v7.418H3.778V43.075c.08.006.16.006.24.006a4.013,4.013,0,0,0,3.331-1.774,4.014,4.014,0,0,0,6.662,0,4,4,0,0,0,6.651,0,4.013,4.013,0,0,0,3.331,1.774c.08,0,.155-.006.235-.006V54.134Zm-.235-12.426a2.638,2.638,0,0,1-2.6-2.175h5.2A2.655,2.655,0,0,1,23.994,41.707Z" transform="translate(0 -31.05)"/></g></g></svg>