<svg xmlns="http://www.w3.org/2000/svg" width="24.96" height="25.118" viewBox="0 0 24.96 25.118">
  <path id="wallet" d="M-9.576-836.543a.478.478,0,0,1-.478-.478.478.478,0,0,1,.478-.478h6.354a1.817,1.817,0,0,0,1.815-1.815v-3.344H-4.942a2.583,2.583,0,0,1-2.58-2.58,2.583,2.583,0,0,1,2.58-2.58h3.535v-3.344a1.817,1.817,0,0,0-1.815-1.815H-20.229a1.817,1.817,0,0,0-1.815,1.815v11.847a1.817,1.817,0,0,0,1.815,1.815h6.354a.478.478,0,0,1,.478.478.478.478,0,0,1-.478.478h-6.354A2.774,2.774,0,0,1-23-839.313V-851.16a2.774,2.774,0,0,1,2.771-2.771h1.364l6.372-6.371a2.389,2.389,0,0,1,3.374,0l1.581,1.581a2.371,2.371,0,0,1,1.3-.019,2.37,2.37,0,0,1,1.449,1.112l2.174,3.766a2.775,2.775,0,0,1,2.161,2.7v3.344H.027a1.435,1.435,0,0,1,1.433,1.433v2.293a1.435,1.435,0,0,1-1.433,1.433H-.451v3.344a2.774,2.774,0,0,1-2.771,2.771Zm3.01-8.694a1.626,1.626,0,0,0,1.624,1.624H.027A.478.478,0,0,0,.5-844.09v-2.293a.478.478,0,0,0-.478-.478H-4.942A1.626,1.626,0,0,0-6.566-845.237Zm-1-12.438-6.484,3.743h10.3l-1.859-3.22a1.421,1.421,0,0,0-.869-.666,1.436,1.436,0,0,0-.373-.049A1.422,1.422,0,0,0-7.568-857.674Zm-4.25-1.952-5.7,5.7h1.551l7.522-4.342L-9.8-859.627a1.421,1.421,0,0,0-1.012-.419A1.421,1.421,0,0,0-11.819-859.627Zm-.245,22.944a.481.481,0,0,1-.14-.338.481.481,0,0,1,.14-.338.481.481,0,0,1,.338-.14.481.481,0,0,1,.338.14.481.481,0,0,1,.14.338.481.481,0,0,1-.14.338.481.481,0,0,1-.338.14A.482.482,0,0,1-12.064-836.683Zm6.7-8.217a.481.481,0,0,1-.14-.338.481.481,0,0,1,.14-.338.481.481,0,0,1,.338-.14.48.48,0,0,1,.338.14.479.479,0,0,1,.14.338.479.479,0,0,1-.14.338.48.48,0,0,1-.338.14A.482.482,0,0,1-5.359-844.9Z" transform="translate(23.25 861.41)" fill="#8f8f8f" stroke="#8f8f8f" stroke-width="0.5"/>
</svg>
