<svg xmlns="http://www.w3.org/2000/svg" width="65" height="65" viewBox="0 0 65 65">
  <g id="Weed-control" transform="translate(-314 -197)">
    <circle id="Ellipse_49" data-name="Ellipse 49" cx="32.5" cy="32.5" r="32.5" transform="translate(314 197)" fill="#f2a133"/>
    <g id="grass" transform="translate(330.472 198.981)">
      <g id="Group_556" data-name="Group 556" transform="translate(0 12.851)">
        <path id="Path_761" data-name="Path 761" d="M33.207,20.259a.754.754,0,0,0-.708-.275,14.625,14.625,0,0,0-9.14,6.028c-.656-2.584-1.854-7.768-1.748-10.956a.76.76,0,1,0-1.492-.294,107.946,107.946,0,0,0-2.886,10.594,85.1,85.1,0,0,1,.121-10.85A.753.753,0,0,0,16.1,13.85a12,12,0,0,0-2.615,3.677,28.222,28.222,0,0,0-1.077-4.189.758.758,0,0,0-1.273-.234c-2.449,2.788-3.5,10.134-3.9,14.2A12.621,12.621,0,0,0,1,21.724a.753.753,0,0,0-.9,1.085c.06.105,5.877,10.1,5.086,19.485H2.209a.753.753,0,1,0,0,1.507H28.023a.753.753,0,0,0,0-1.507H25.386c-1.01-14.037,7.61-20.909,7.7-20.977A.753.753,0,0,0,33.207,20.259ZM6.67,42.294c.573-7.181-2.381-14.467-4.114-18.023,6.163,4.4,6.585,15.16,6.585,18.023Zm5.7,0H10.648A34.72,34.72,0,0,0,8.554,29.96c.09-1.462.753-10.421,2.908-14.61C12.313,18.725,14.039,27.79,12.366,42.294Zm1.507,0a90.421,90.421,0,0,0,.2-20.849A8.868,8.868,0,0,1,15.659,16.7c-.294,7.264.678,21.956.934,25.618Zm4.235,0c-.105-1.507-.354-5.237-.58-9.569a82.978,82.978,0,0,1,2.841-13.653,76.373,76.373,0,0,0,1.854,8.65c-3.15,5.561-3.526,12.319-3.556,14.58Zm5.779,0H20.172c.045-3.165.753-15.823,9.7-19.892C27.172,25.575,23.179,32.092,23.887,42.294Z" transform="translate(0 -12.851)" fill="#fff"/>
      </g>
    </g>
  </g>
</svg>
