<svg xmlns="http://www.w3.org/2000/svg" width="43.517" height="56.975" viewBox="0 0 43.517 56.975"><defs><style>.a{fill:#949494;}.b{fill:gray;}.c{fill:#a7a7a7;}.d{fill:#7e7e7e;}.e{fill:#b9b9b9;}.f{fill:#ffc7cc;}.g{fill:#f2a133;}.h{fill:#b19177;}.i{fill:#31a32b;}.j{fill:#298525;}.k{fill:#c0a58d;}</style></defs><path class="a" d="M315.048,480.192h21.84v4.748h-21.84Z" transform="translate(-295.107 -427.965)"/><path class="a" d="M306.787,418.237l5.7,14.244h9.5V418.237Z" transform="translate(-288.745 -380.253)"/><path class="b" d="M228.31,253.022h39.883v4.748H228.31Z" transform="translate(-228.31 -253.022)"/><path class="c" d="M257.223,273.674h26.588V306.91H257.223Z" transform="translate(-250.576 -268.926)"/><g transform="translate(6.647 4.748)"><path class="d" d="M265.769,389.61h-8.546v-8.546A8.547,8.547,0,0,1,265.769,389.61Z" transform="translate(-257.223 -356.375)"/><path class="d" d="M344.246,381.064v8.546H335.7A8.547,8.547,0,0,1,344.246,381.064Z" transform="translate(-317.658 -356.375)"/><path class="d" d="M294.967,273.674a8.546,8.546,0,0,1-17.093,0Z" transform="translate(-273.126 -273.674)"/></g><path class="e" d="M348.072,328.008,344.531,346.6h-8.546l-.95-.949a9.4,9.4,0,0,1,0-13.294h0l-6.417-6.418a4.023,4.023,0,0,1-1.18-2.848v-.078a3.95,3.95,0,0,1,3.95-3.95h.078a4.029,4.029,0,0,1,2.849,1.18l3.568,3.568V306.717a5.27,5.27,0,0,1,5,3.6l5.011,15.034A5.268,5.268,0,0,1,348.072,328.008Z" transform="translate(-304.649 -294.372)"/><path class="f" d="M360.482,368.672l5.7,5.7" transform="translate(-330.095 -342.083)"/><path class="a" d="M377.064,374.919a.95.95,0,0,1-1.342,0l-2.849-2.849v-2.685l4.191,4.191a.948.948,0,0,1,0,1.341Z" transform="translate(-339.637 -342.633)"/><path class="g" d="M315.048,480.192h21.84v4.748h-21.84Z" transform="translate(-295.107 -427.965)"/><path class="h" d="M306.787,418.237l5.7,14.244h9.5V418.237Z" transform="translate(-288.745 -380.253)"/><path class="b" d="M228.31,253.022h39.883v4.748H228.31Z" transform="translate(-228.31 -253.022)"/><path class="i" d="M257.223,273.674h26.588V306.91H257.223Z" transform="translate(-250.576 -268.926)"/><g transform="translate(6.647 4.748)"><path class="j" d="M265.769,389.61h-8.546v-8.546A8.547,8.547,0,0,1,265.769,389.61Z" transform="translate(-257.223 -356.375)"/><path class="j" d="M344.246,381.064v8.546H335.7A8.547,8.547,0,0,1,344.246,381.064Z" transform="translate(-317.658 -356.375)"/><path class="j" d="M294.967,273.674a8.546,8.546,0,0,1-17.093,0Z" transform="translate(-273.126 -273.674)"/></g><path class="k" d="M348.072,328.008,344.531,346.6h-8.546l-.95-.949a9.4,9.4,0,0,1,0-13.294h0l-6.417-6.418a4.023,4.023,0,0,1-1.18-2.848v-.078a3.95,3.95,0,0,1,3.95-3.95h.078a4.029,4.029,0,0,1,2.849,1.18l3.568,3.568V306.717a5.27,5.27,0,0,1,5,3.6l5.011,15.034A5.268,5.268,0,0,1,348.072,328.008Z" transform="translate(-304.649 -294.372)"/><path class="f" d="M360.482,368.672l5.7,5.7" transform="translate(-330.095 -342.083)"/><path class="h" d="M377.064,374.919a.95.95,0,0,1-1.342,0l-2.849-2.849v-2.685l4.191,4.191a.948.948,0,0,1,0,1.341Z" transform="translate(-339.637 -342.633)"/></svg>