<svg xmlns="http://www.w3.org/2000/svg" width="65" height="65" viewBox="0 0 65 65">
  <g id="Yield-tones-hectare" transform="translate(-314 -197)">
    <circle id="Ellipse_49" data-name="Ellipse 49" cx="32.5" cy="32.5" r="32.5" transform="translate(314 197)" fill="#f2a133"/>
    <g id="Page-1" transform="translate(171.075 -210.831)">
      <g id="_093---Crop-Rotation" data-name="093---Crop-Rotation" transform="translate(156.925 421.89)">
        <g id="Shape" transform="translate(7.683 7.68)">
          <path id="Path_747" data-name="Path 747" d="M198.054,448.4a10.334,10.334,0,1,0,3.04,7.31A10.326,10.326,0,0,0,198.054,448.4ZM186.4,463.387a.589.589,0,0,0,.461-.294,1.786,1.786,0,0,1,2.415-.668.6.6,0,0,0,.592,0,1.758,1.758,0,0,1,1.767,0,.592.592,0,0,0,.589,0,1.786,1.786,0,0,1,2.415.668.59.59,0,0,0,.471.294A8.767,8.767,0,0,1,186.4,463.387Zm3.168-4.735a2.355,2.355,0,0,1-2.356-2.356h.589a2.355,2.355,0,0,1,2.356,2.356Zm0-5.3a2.355,2.355,0,0,1-2.356-2.356h.589a2.357,2.357,0,0,1,2.356,2.356Zm1.767,5.3A2.357,2.357,0,0,1,193.7,456.3h.589a2.357,2.357,0,0,1-2.356,2.356Zm5.111,3.364a3.238,3.238,0,0,0-.834-.151,3.233,3.233,0,0,0-3.688-.962c-.085-.033-.173-.062-.262-.088v-.658h.265a3.871,3.871,0,0,0,3.861-3.861,1.505,1.505,0,0,0-1.505-1.505H193.7a3.85,3.85,0,0,0-2.032.579v-.514h.265a3.876,3.876,0,0,0,3.861-3.865,1.506,1.506,0,0,0-1.505-1.505H193.7a3.849,3.849,0,0,0-2.032.579v-1.43a.916.916,0,0,0-1.833,0v1.43a3.838,3.838,0,0,0-2.029-.579h-.589a1.506,1.506,0,0,0-1.505,1.505,3.873,3.873,0,0,0,3.861,3.865h.262v.514a3.809,3.809,0,0,0-2.029-.579h-.589a1.505,1.505,0,0,0-1.505,1.505,3.869,3.869,0,0,0,3.861,3.861h.262v.661a2.393,2.393,0,0,0-.259.085,3.233,3.233,0,0,0-3.688.962,3.151,3.151,0,0,0-.834.151,8.512,8.512,0,1,1,11.4,0Zm-5.111-8.668a2.359,2.359,0,0,1,2.359-2.356h.589a2.357,2.357,0,0,1-2.356,2.356Z" transform="translate(-180.403 -445.36)" fill="#fff"/>
        </g>
        <g id="Shape-2" data-name="Shape" transform="translate(5.327 29.484)">
          <path id="Path_748" data-name="Path 748" d="M197.222,514.205a.9.9,0,0,1-.35.609,17.924,17.924,0,0,1-21.836.069v.972a.916.916,0,1,1-1.833,0v-2.948a.917.917,0,0,1,.916-.916h2.945a.916.916,0,1,1,0,1.833h-.373a16.157,16.157,0,0,0,19.065-.465.922.922,0,0,1,.556-.19.781.781,0,0,1,.121.01.9.9,0,0,1,.609.35A.913.913,0,0,1,197.222,514.205Z" transform="translate(-173.203 -511.99)" fill="#fff"/>
        </g>
        <g id="Shape-3" data-name="Shape" transform="translate(29.486 6.679)">
          <path id="Path_749" data-name="Path 749" d="M251.814,465.433a.918.918,0,0,1-.92.916h-2.945a.917.917,0,0,1-.916-.916v-2.945a.916.916,0,1,1,1.833,0v.373A16.157,16.157,0,0,0,248.4,443.8a.917.917,0,1,1,1.456-1.113,17.922,17.922,0,0,1,.069,21.833h.969A.92.92,0,0,1,251.814,465.433Z" transform="translate(-247.033 -442.301)" fill="#fff"/>
        </g>
        <g id="Shape-4" data-name="Shape" transform="translate(0 5.324)">
          <path id="Path_750" data-name="Path 750" d="M163.5,439.076v2.945a.916.916,0,1,1-1.833,0v-.373a16.157,16.157,0,0,0,.465,19.065.917.917,0,0,1-.605,1.489.6.6,0,0,1-.108.007.92.92,0,0,1-.749-.389,17.913,17.913,0,0,1-.062-21.827h-.972a.916.916,0,1,1,0-1.832h2.948A.919.919,0,0,1,163.5,439.076Z" transform="translate(-156.925 -438.16)" fill="#fff"/>
        </g>
        <g id="Shape-5" data-name="Shape" transform="translate(6.702 0)">
          <path id="Path_751" data-name="Path 751" d="M201.434,424.6v2.945a.922.922,0,0,1-.268.648.908.908,0,0,1-.648.268h-2.945a.916.916,0,1,1,0-1.833h.373a16.157,16.157,0,0,0-19.065.465.914.914,0,0,1-1.466-.605.907.907,0,0,1,.35-.848,17.918,17.918,0,0,1,21.836-.072V424.6a.916.916,0,1,1,1.833,0Z" transform="translate(-177.406 -421.89)" fill="#fff"/>
        </g>
      </g>
    </g>
  </g>
</svg>
